<svg width="300" height="100" viewBox="0 0 300 100" fill="none" xmlns="http://www.w3.org/2000/svg">
<path d="M50.7324 42.4795C51.1068 42.6585 51.2939 42.9189 51.2939 43.2607C51.2939 44.335 50.3092 45.751 48.3398 47.5088C45.0033 50.4873 41.2109 51.9766 36.9629 51.9766C33.5286 51.9766 30.7861 50.7396 28.7354 48.2656C26.7008 45.7754 25.6836 42.4388 25.6836 38.2559C25.6836 32.2826 27.596 27.2777 31.4209 23.2412C35.2458 19.2048 39.9902 17.1865 45.6543 17.1865C48.5352 17.1865 51.5218 17.7318 54.6143 18.8223L52.9785 22.4111L52.5146 23.4609C52.124 24.291 51.6439 24.7061 51.0742 24.7061C50.9603 24.7061 50.7894 24.6816 50.5615 24.6328C50.7894 24.1283 50.9033 23.7132 50.9033 23.3877C50.9033 22.2972 50.1709 21.3451 48.7061 20.5312C47.2575 19.7174 45.5648 19.3105 43.6279 19.3105C39.6566 19.3105 36.4258 20.8812 33.9355 24.0225C31.4616 27.1637 30.2246 31.249 30.2246 36.2783C30.2246 40.1683 31.0954 43.2689 32.8369 45.5801C34.5785 47.8913 36.9059 49.0469 39.8193 49.0469C41.9189 49.0469 44.0104 48.4202 46.0938 47.167C48.1934 45.8975 49.7396 44.335 50.7324 42.4795ZM61.084 32.1035L57.251 35.79C56.5837 34.0485 56.25 32.3639 56.25 30.7363C56.25 26.6999 57.9997 23.4447 61.499 20.9707C64.4287 18.8874 69.4417 17.8457 76.5381 17.8457C77.7425 17.8457 78.8005 17.8701 79.7119 17.9189C82.2347 18.0817 83.5286 18.1631 83.5938 18.1631H85.3027C84.0332 20.1488 83.3984 24.1689 83.3984 30.2236L83.4229 31.4932L83.5205 34.3008C83.5205 37.6699 83.9355 41.1204 84.7656 44.6523C85.0911 46.0195 85.4085 46.8984 85.7178 47.2891C86.027 47.6797 86.5641 47.875 87.3291 47.875C88.1592 47.875 89.1032 47.6064 90.1611 47.0693C90.2751 47.346 90.332 47.5739 90.332 47.7529C90.332 48.1598 90.0146 48.5098 89.3799 48.8027L88.2324 49.3643L82.2266 51.9766C80.8919 47.8587 80.0863 43.5456 79.8096 39.0371L77.9541 40.3311H69.751C68.2536 44.1396 66.2028 46.8577 63.5986 48.4854L68.6523 48.7295L66.0156 51.5127L56.2744 51.1709L59.5215 48.2412L61.9629 48.3877C63.0697 47.5739 64.0137 46.4346 64.7949 44.9697C65.5762 43.4886 66.7399 40.6322 68.2861 36.4004L69.0186 34.374C70.516 30.2887 71.9401 27.3184 73.291 25.4629C74.6419 23.5911 76.4811 22.0531 78.8086 20.8486C76.2533 20.3766 73.5596 20.1406 70.7275 20.1406C63.5173 20.1406 59.9121 22.5739 59.9121 27.4404C59.9121 29.1006 60.3027 30.6549 61.084 32.1035ZM79.7607 37.6943C79.5329 34.8623 79.4189 32.5674 79.4189 30.8096C79.4189 29.9144 79.4352 29.182 79.4678 28.6123L79.6631 25.7803C79.7933 23.8434 79.9723 22.3623 80.2002 21.3369C77.0101 23.29 74.3896 27.2777 72.3389 33.2998C71.7529 35.0413 71.4111 36.0423 71.3135 36.3027L70.752 37.6943H79.7607ZM117.188 34.4961C117.513 35.1146 117.749 35.5785 117.896 35.8877C120.483 40.9007 122.323 44.1966 123.413 45.7754C124.504 47.3542 125.513 48.168 126.44 48.2168C127.905 48.2982 129.045 47.1751 129.858 44.8477C130.396 45.1569 130.664 45.4906 130.664 45.8486C130.664 46.874 129.972 48.1517 128.589 49.6816C127.222 51.2116 126.074 51.9766 125.146 51.9766C123.796 51.9766 122.038 50.4954 119.873 47.5332C117.708 44.571 115.56 40.6973 113.428 35.9121C112.533 35.9935 111.768 36.0342 111.133 36.0342C110.514 36.0342 109.733 35.9935 108.789 35.9121L108.594 37.5234L108.276 40.3311C108 42.6585 107.503 44.335 106.787 45.3604C106.071 46.3695 104.679 47.3623 102.612 48.3389L108.374 48.7051L105.444 51.5371L94.873 51L97.998 47.9727L100.659 48.2656C102.629 47.0124 103.849 44.4489 104.321 40.5752L104.59 38.207L106.641 19.7012C99.235 21.1009 95.5322 23.8923 95.5322 28.0752C95.5322 29.7516 95.8822 31.2409 96.582 32.543L92.6514 36.0098C92.3096 34.7565 92.1387 33.487 92.1387 32.2012C92.1387 27.7904 94.0186 24.1852 97.7783 21.3857C101.538 18.5863 106.38 17.1865 112.305 17.1865C120.345 17.1865 124.365 19.7419 124.365 24.8525C124.365 28.5798 121.973 31.7943 117.188 34.4961ZM110.596 19.5303L109.033 33.6904C110.335 33.902 111.523 34.0078 112.598 34.0078C113.607 34.0078 114.705 33.902 115.894 33.6904C118.807 31.6071 120.264 29.0843 120.264 26.1221C120.264 21.7275 117.041 19.5303 110.596 19.5303ZM136.328 32.1035L132.495 35.79C131.828 34.0485 131.494 32.3639 131.494 30.7363C131.494 26.6999 133.244 23.4447 136.743 20.9707C139.673 18.8874 144.686 17.8457 151.782 17.8457C152.987 17.8457 154.045 17.8701 154.956 17.9189C157.479 18.0817 158.773 18.1631 158.838 18.1631H160.547C159.277 20.1488 158.643 24.1689 158.643 30.2236L158.667 31.4932L158.765 34.3008C158.765 37.6699 159.18 41.1204 160.01 44.6523C160.335 46.0195 160.653 46.8984 160.962 47.2891C161.271 47.6797 161.808 47.875 162.573 47.875C163.403 47.875 164.347 47.6064 165.405 47.0693C165.519 47.346 165.576 47.5739 165.576 47.7529C165.576 48.1598 165.259 48.5098 164.624 48.8027L163.477 49.3643L157.471 51.9766C156.136 47.8587 155.33 43.5456 155.054 39.0371L153.198 40.3311H144.995C143.498 44.1396 141.447 46.8577 138.843 48.4854L143.896 48.7295L141.26 51.5127L131.519 51.1709L134.766 48.2412L137.207 48.3877C138.314 47.5739 139.258 46.4346 140.039 44.9697C140.82 43.4886 141.984 40.6322 143.53 36.4004L144.263 34.374C145.76 30.2887 147.184 27.3184 148.535 25.4629C149.886 23.5911 151.725 22.0531 154.053 20.8486C151.497 20.3766 148.804 20.1406 145.972 20.1406C138.761 20.1406 135.156 22.5739 135.156 27.4404C135.156 29.1006 135.547 30.6549 136.328 32.1035ZM155.005 37.6943C154.777 34.8623 154.663 32.5674 154.663 30.8096C154.663 29.9144 154.679 29.182 154.712 28.6123L154.907 25.7803C155.037 23.8434 155.216 22.3623 155.444 21.3369C152.254 23.29 149.634 27.2777 147.583 33.2998C146.997 35.0413 146.655 36.0423 146.558 36.3027L145.996 37.6943H155.005ZM184.253 47.7773L179.98 51.9766C179.329 46.8008 178.182 40.9333 176.538 34.374C175.122 28.7913 174.023 25.1781 173.242 23.5342C172.477 21.874 171.476 21.0439 170.239 21.0439C168.107 21.0439 166.569 22.6715 165.625 25.9268C165.023 25.7965 164.738 25.471 164.771 24.9502C164.819 23.9411 165.438 22.4925 166.626 20.6045C168.058 18.3258 169.881 17.1865 172.095 17.1865C173.918 17.1865 175.334 18.0166 176.343 19.6768C177.352 21.3206 178.516 24.7142 179.834 29.8574C181.299 35.6354 182.463 40.7868 183.325 45.3115C190.438 35.3506 193.994 28.4089 193.994 24.4863C193.994 22.9564 193.376 21.8415 192.139 21.1416L195.728 17.1865C197.355 18.098 198.169 19.5059 198.169 21.4102C198.169 23.819 196.208 28.1403 192.285 34.374L189.526 38.6221L187.524 41.7715C187.41 41.9505 187.012 42.6341 186.328 43.8223L185.205 45.7998C185.042 46.0765 184.725 46.7357 184.253 47.7773ZM205.615 32.1035L201.782 35.79C201.115 34.0485 200.781 32.3639 200.781 30.7363C200.781 26.6999 202.531 23.4447 206.03 20.9707C208.96 18.8874 213.973 17.8457 221.069 17.8457C222.274 17.8457 223.332 17.8701 224.243 17.9189C226.766 18.0817 228.06 18.1631 228.125 18.1631H229.834C228.564 20.1488 227.93 24.1689 227.93 30.2236L227.954 31.4932L228.052 34.3008C228.052 37.6699 228.467 41.1204 229.297 44.6523C229.622 46.0195 229.94 46.8984 230.249 47.2891C230.558 47.6797 231.095 47.875 231.86 47.875C232.69 47.875 233.634 47.6064 234.692 47.0693C234.806 47.346 234.863 47.5739 234.863 47.7529C234.863 48.1598 234.546 48.5098 233.911 48.8027L232.764 49.3643L226.758 51.9766C225.423 47.8587 224.618 43.5456 224.341 39.0371L222.485 40.3311H214.282C212.785 44.1396 210.734 46.8577 208.13 48.4854L213.184 48.7295L210.547 51.5127L200.806 51.1709L204.053 48.2412L206.494 48.3877C207.601 47.5739 208.545 46.4346 209.326 44.9697C210.107 43.4886 211.271 40.6322 212.817 36.4004L213.55 34.374C215.047 30.2887 216.471 27.3184 217.822 25.4629C219.173 23.5911 221.012 22.0531 223.34 20.8486C220.785 20.3766 218.091 20.1406 215.259 20.1406C208.049 20.1406 204.443 22.5739 204.443 27.4404C204.443 29.1006 204.834 30.6549 205.615 32.1035ZM224.292 37.6943C224.064 34.8623 223.95 32.5674 223.95 30.8096C223.95 29.9144 223.966 29.182 223.999 28.6123L224.194 25.7803C224.325 23.8434 224.504 22.3623 224.731 21.3369C221.541 23.29 218.921 27.2777 216.87 33.2998C216.284 35.0413 215.942 36.0423 215.845 36.3027L215.283 37.6943H224.292ZM241.211 32.0547L237.256 35.8633C236.865 34.5938 236.67 33.3242 236.67 32.0547C236.67 28.0508 238.184 24.7142 241.211 22.0449C244.255 19.3594 248.055 18.0166 252.612 18.0166C253.247 18.0166 253.841 18.041 254.395 18.0898C255.013 18.1387 255.404 18.1631 255.566 18.1631H255.835C255.77 18.7327 255.737 19.1396 255.737 19.3838C255.737 22.7367 257.91 27.001 262.256 32.1768L264.087 34.3252L265.698 36.2539C267.407 38.2884 268.758 40.1602 269.751 41.8691L271.387 28.6123C272.412 20.5231 274.292 14.8509 277.026 11.5957C280.151 7.88477 283.602 6.0293 287.378 6.0293C288.794 6.0293 290.194 6.28971 291.577 6.81055L287.964 10.3994C286.483 9.53678 285.173 9.10547 284.033 9.10547C281.51 9.10547 279.59 10.2692 278.271 12.5967C276.969 14.9079 275.952 18.9443 275.22 24.7061L272.632 45.3848L269.556 51.7324C268.807 48.7376 268.009 46.459 267.163 44.8965C266.317 43.334 264.632 41.0391 262.109 38.0117L260.229 35.7412C257.332 32.2419 255.282 29.1087 254.077 26.3418L252.856 37.3281L252.563 39.9648C252.303 42.1458 251.88 43.749 251.294 44.7744C250.724 45.7835 249.577 46.931 247.852 48.2168L253.247 48.7051L250.342 51.5371L239.722 51L242.871 47.9727L245.581 48.2168C246.818 47.3216 247.673 46.3532 248.145 45.3115C248.617 44.2699 248.991 42.5446 249.268 40.1357L249.487 38.0117L251.367 21.1172H250.22C243.449 21.1172 240.063 23.3551 240.063 27.8311C240.063 29.2308 240.446 30.6387 241.211 32.0547Z" fill="#EFC88B"/>
<path d="M56.1646 76.748C56.3273 77.0573 56.4453 77.2892 56.5186 77.4438C57.8125 79.9504 58.7321 81.5983 59.2773 82.3877C59.8226 83.1771 60.3271 83.584 60.791 83.6084C61.5234 83.6491 62.0931 83.0876 62.5 81.9238C62.7686 82.0785 62.9028 82.2453 62.9028 82.4243C62.9028 82.937 62.557 83.5758 61.8652 84.3408C61.1816 85.1058 60.6079 85.4883 60.144 85.4883C59.4686 85.4883 58.5897 84.7477 57.5073 83.2666C56.425 81.7855 55.3507 79.8486 54.2847 77.4561C53.8371 77.4967 53.4546 77.5171 53.1372 77.5171C52.828 77.5171 52.4373 77.4967 51.9653 77.4561L51.8677 78.2617L51.709 79.6655C51.5706 80.8293 51.3224 81.6675 50.9644 82.1802C50.6063 82.6847 49.9105 83.1812 48.877 83.6694L51.7578 83.8525L50.293 85.2686L45.0073 85L46.5698 83.4863L47.9004 83.6328C48.8851 83.0062 49.4954 81.7244 49.7314 79.7876L49.8657 78.6035L50.8911 69.3506C47.1883 70.0505 45.3369 71.4461 45.3369 73.5376C45.3369 74.3758 45.5119 75.1204 45.8618 75.7715L43.8965 77.5049C43.7256 76.8783 43.6401 76.2435 43.6401 75.6006C43.6401 73.3952 44.5801 71.5926 46.46 70.1929C48.3398 68.7931 50.7609 68.0933 53.7231 68.0933C57.7433 68.0933 59.7534 69.3709 59.7534 71.9263C59.7534 73.7899 58.5571 75.3971 56.1646 76.748ZM52.8687 69.2651L52.0874 76.3452C52.7384 76.451 53.3325 76.5039 53.8696 76.5039C54.3742 76.5039 54.9235 76.451 55.5176 76.3452C56.9743 75.3035 57.7026 74.0422 57.7026 72.561C57.7026 70.3638 56.0913 69.2651 52.8687 69.2651ZM70.874 81.1182C71.0775 81.2565 71.1792 81.4193 71.1792 81.6064C71.1792 81.8587 70.9188 82.29 70.3979 82.9004C69.0063 84.5117 67.631 85.3174 66.272 85.3174C65.4419 85.3174 64.7583 84.9878 64.2212 84.3286C63.6841 83.6694 63.4155 82.8271 63.4155 81.8018C63.4155 79.9463 64.1154 78.0705 65.5151 76.1743C66.923 74.27 68.3146 73.3179 69.6899 73.3179C70.6828 73.3179 71.1792 73.8509 71.1792 74.917C71.1792 76.1133 70.5973 77.2811 69.4336 78.4204C68.278 79.5597 66.866 80.3532 65.1978 80.8008C65.3605 82.762 66.1336 83.7427 67.5171 83.7427C68.8843 83.7427 70.0033 82.8678 70.874 81.1182ZM65.2466 79.3115C65.4826 79.3929 65.6982 79.4336 65.8936 79.4336C66.9027 79.4336 67.7856 79.1243 68.5425 78.5059C69.2993 77.8874 69.6777 77.1631 69.6777 76.333C69.6777 75.3809 69.1935 74.9048 68.2251 74.9048C67.5252 74.9048 66.8905 75.3239 66.3208 76.1621C65.7593 76.9922 65.4012 78.042 65.2466 79.3115ZM71.9849 84.6582L73.6694 83.2788C74.3042 83.9543 75.1017 84.292 76.062 84.292C77.2339 84.292 77.8198 83.7264 77.8198 82.5952C77.8198 81.9686 77.2827 81.0938 76.2085 79.9707L75.5127 79.2505C74.4954 78.1844 73.9868 77.3218 73.9868 76.6626C73.9868 75.7186 74.3937 74.9251 75.2075 74.2822C76.0295 73.6393 77.0386 73.3179 78.2349 73.3179C78.8859 73.3179 79.598 73.4399 80.3711 73.6841L78.9062 75.0391C78.2878 74.5752 77.6001 74.3433 76.8433 74.3433C75.9562 74.3433 75.5127 74.7135 75.5127 75.4541C75.5127 75.9831 76.005 76.7603 76.9897 77.7856L77.7466 78.5913C78.8696 79.7632 79.4312 80.7072 79.4312 81.4233C79.4312 82.4487 78.9388 83.3561 77.9541 84.1455C76.9694 84.9268 75.8341 85.3174 74.5483 85.3174C73.6369 85.3174 72.7824 85.0977 71.9849 84.6582ZM85.4736 75.0513L84.8633 80.4468C84.7575 81.4152 84.7046 82.1313 84.7046 82.5952C84.7046 83.5148 85.0179 83.9746 85.6445 83.9746C86.32 83.9746 87.0199 83.4212 87.7441 82.3145C87.8662 82.4691 87.9272 82.6074 87.9272 82.7295C87.9272 83.1852 87.5244 83.7305 86.7188 84.3652C85.9212 85 85.2336 85.3174 84.6558 85.3174C83.5002 85.3174 82.9224 84.5768 82.9224 83.0957C82.9224 82.5505 82.9915 81.6675 83.1299 80.4468L83.728 75.0513H81.1523L82.5806 73.6353H83.8867L84.1431 71.4136L85.9375 70.8154L85.6323 73.6353H90.8081L89.3799 75.0513H85.4736ZM97.9004 80.1538C96.9808 81.6675 95.9676 82.9085 94.8608 83.877C93.7622 84.8372 92.806 85.3174 91.9922 85.3174C90.8773 85.3174 90.3198 84.4181 90.3198 82.6196C90.3198 80.1457 91.1296 78.0054 92.749 76.1987C94.3766 74.384 96.3013 73.4766 98.5229 73.4766C99.3693 73.4766 100.09 73.5824 100.684 73.7939C100.643 73.9404 100.618 74.0299 100.61 74.0625L100.464 74.7095C100.366 75.1571 100.313 75.4175 100.305 75.4907L99.5239 80.8862L99.4141 81.6675C99.3083 82.4406 99.2554 82.9574 99.2554 83.2178C99.2554 83.5677 99.3571 83.7427 99.5605 83.7427C100.244 83.7427 100.944 82.9777 101.66 81.4478C101.88 81.578 101.99 81.7082 101.99 81.8384C101.99 82.1232 101.64 82.6969 100.94 83.5596C99.9878 84.7314 99.1048 85.3174 98.291 85.3174C97.6969 85.3174 97.3999 84.9186 97.3999 84.1211C97.3999 83.877 97.4284 83.5392 97.4854 83.1079L97.6074 82.1313L97.7661 81.0571L97.9004 80.1538ZM98.5962 75.3076C97.8556 74.8926 97.1069 74.6851 96.3501 74.6851C95.2108 74.6851 94.2546 75.3809 93.4814 76.7725C92.7083 78.1641 92.3218 79.8893 92.3218 81.9482C92.3218 83.0062 92.6351 83.5352 93.2617 83.5352C93.986 83.5352 94.8608 82.9818 95.8862 81.875C97.2697 80.3857 98.1079 78.6361 98.4009 76.626L98.5962 75.3076ZM111.987 80.2026C111.06 81.6268 110.014 82.8353 108.85 83.8281C107.686 84.821 106.738 85.3174 106.006 85.3174C105.2 85.3174 104.797 84.7803 104.797 83.7061C104.797 83.3073 104.85 82.6522 104.956 81.7407L105.396 77.7368C105.404 77.6799 105.424 77.4438 105.457 77.0288L105.53 76.2354C105.554 75.9993 105.566 75.7878 105.566 75.6006C105.566 75.1286 105.432 74.8926 105.164 74.8926C104.545 74.8926 103.878 75.5884 103.162 76.98C103.007 76.8579 102.93 76.7277 102.93 76.5894C102.93 76.0848 103.377 75.4134 104.272 74.5752C105.176 73.737 105.892 73.3179 106.421 73.3179C107.096 73.3179 107.434 73.7817 107.434 74.7095C107.434 74.9292 107.418 75.1855 107.385 75.4785L107.275 76.4185L107.166 77.4438L106.775 80.9351C106.71 81.5291 106.677 82.1313 106.677 82.7417C106.677 83.3032 106.885 83.584 107.3 83.584C108.219 83.584 109.257 82.8271 110.413 81.3135C111.576 79.7998 112.264 78.3024 112.476 76.8213L112.891 73.9282L114.868 73.2568C114.64 74.2008 114.469 75.0431 114.355 75.7837L113.623 80.8862C113.582 81.1955 113.55 81.4559 113.525 81.6675L113.44 82.3389C113.391 82.7539 113.367 83.0469 113.367 83.2178C113.367 83.5677 113.464 83.7427 113.66 83.7427C114.351 83.7427 115.055 82.9777 115.771 81.4478C115.991 81.578 116.101 81.7082 116.101 81.8384C116.101 82.1232 115.747 82.6969 115.039 83.5596C114.087 84.7314 113.204 85.3174 112.39 85.3174C111.796 85.3174 111.499 84.9186 111.499 84.1211C111.499 83.8688 111.528 83.5311 111.584 83.1079L111.719 82.1313C111.792 81.6024 111.841 81.2443 111.865 81.0571L111.987 80.2026ZM121.155 78.457C122.961 75.0309 124.74 73.3179 126.489 73.3179C126.945 73.3179 127.401 73.4237 127.856 73.6353L126.135 75.5151C125.875 75.3687 125.541 75.2954 125.134 75.2954C124.288 75.2954 123.393 75.9831 122.449 77.3584C121.513 78.7256 120.964 80.1497 120.801 81.6309L120.471 84.6094L118.665 85.2197L118.701 84.8535L118.787 84.0601L118.884 83.2666L119.519 77.4561L119.592 76.8213C119.649 76.3411 119.678 75.9505 119.678 75.6494C119.678 75.153 119.539 74.9048 119.263 74.9048C118.612 74.9048 117.965 75.6006 117.322 76.9922C117.118 76.8376 117.021 76.6789 117.029 76.5161C117.053 76.0197 117.505 75.3646 118.384 74.5508C119.271 73.7288 119.971 73.3179 120.483 73.3179C121.175 73.3179 121.521 73.7736 121.521 74.6851C121.521 74.9048 121.501 75.2018 121.46 75.5762L121.375 76.4307L121.265 77.4561L121.155 78.457ZM134.814 80.1538C133.895 81.6675 132.882 82.9085 131.775 83.877C130.676 84.8372 129.72 85.3174 128.906 85.3174C127.791 85.3174 127.234 84.4181 127.234 82.6196C127.234 80.1457 128.044 78.0054 129.663 76.1987C131.291 74.384 133.215 73.4766 135.437 73.4766C136.283 73.4766 137.004 73.5824 137.598 73.7939C137.557 73.9404 137.533 74.0299 137.524 74.0625L137.378 74.7095C137.28 75.1571 137.227 75.4175 137.219 75.4907L136.438 80.8862L136.328 81.6675C136.222 82.4406 136.169 82.9574 136.169 83.2178C136.169 83.5677 136.271 83.7427 136.475 83.7427C137.158 83.7427 137.858 82.9777 138.574 81.4478C138.794 81.578 138.904 81.7082 138.904 81.8384C138.904 82.1232 138.554 82.6969 137.854 83.5596C136.902 84.7314 136.019 85.3174 135.205 85.3174C134.611 85.3174 134.314 84.9186 134.314 84.1211C134.314 83.877 134.342 83.5392 134.399 83.1079L134.521 82.1313L134.68 81.0571L134.814 80.1538ZM135.51 75.3076C134.77 74.8926 134.021 74.6851 133.264 74.6851C132.125 74.6851 131.169 75.3809 130.396 76.7725C129.622 78.1641 129.236 79.8893 129.236 81.9482C129.236 83.0062 129.549 83.5352 130.176 83.5352C130.9 83.5352 131.775 82.9818 132.8 81.875C134.184 80.3857 135.022 78.6361 135.315 76.626L135.51 75.3076ZM143.359 84.5728L141.541 85.3174L141.577 84.9756L141.675 84.0723L141.772 83.2178L142.407 77.5537L142.48 76.9067C142.529 76.4022 142.554 75.9953 142.554 75.686C142.554 75.1652 142.424 74.9048 142.163 74.9048C141.553 74.9048 140.898 75.5965 140.198 76.98C140.011 76.8254 139.917 76.6911 139.917 76.5771C139.917 76.0889 140.361 75.4256 141.248 74.5874C142.143 73.741 142.847 73.3179 143.359 73.3179C144.059 73.3179 144.409 73.7655 144.409 74.6606C144.409 74.8885 144.389 75.1937 144.348 75.5762L144.25 76.5649L144.153 77.395L144.055 78.2617C145.015 76.8294 146.065 75.6494 147.205 74.7217C148.352 73.7858 149.329 73.3179 150.134 73.3179C150.924 73.3179 151.318 73.8672 151.318 74.9658C151.318 75.2995 151.274 75.8 151.184 76.4673L150.525 81.0205C150.395 81.932 150.33 82.6522 150.33 83.1812C150.33 83.6043 150.444 83.8159 150.671 83.8159C151.233 83.8159 151.925 83.0672 152.747 81.5698C152.942 81.6919 153.04 81.818 153.04 81.9482C153.04 82.4772 152.584 83.173 151.672 84.0356C150.769 84.8901 150.033 85.3174 149.463 85.3174C148.828 85.3174 148.511 84.8617 148.511 83.9502C148.511 83.2829 148.596 82.3592 148.767 81.1792L149.194 78.2251C149.333 77.2648 149.402 76.5039 149.402 75.9424C149.402 75.2995 149.178 74.978 148.73 74.978C147.689 74.978 146.631 75.686 145.557 77.1021C144.491 78.5099 143.868 80.0236 143.689 81.6431L143.359 84.5728ZM158.008 75.0513L157.397 80.4468C157.292 81.4152 157.239 82.1313 157.239 82.5952C157.239 83.5148 157.552 83.9746 158.179 83.9746C158.854 83.9746 159.554 83.4212 160.278 82.3145C160.4 82.4691 160.461 82.6074 160.461 82.7295C160.461 83.1852 160.059 83.7305 159.253 84.3652C158.455 85 157.768 85.3174 157.19 85.3174C156.034 85.3174 155.457 84.5768 155.457 83.0957C155.457 82.5505 155.526 81.6675 155.664 80.4468L156.262 75.0513H153.687L155.115 73.6353H156.421L156.677 71.4136L158.472 70.8154L158.167 73.6353H163.342L161.914 75.0513H158.008ZM179.871 83.5596C178.17 84.8535 176.371 85.5005 174.475 85.5005C173.181 85.5005 172.131 85.118 171.326 84.353C170.528 83.5881 170.129 82.5911 170.129 81.3623C170.129 78.9941 171.81 77.0288 175.171 75.4663C174.65 74.1479 174.39 73.09 174.39 72.2925C174.39 71.0881 174.801 70.0871 175.623 69.2896C176.453 68.492 177.494 68.0933 178.748 68.0933C180.57 68.0933 181.482 68.8989 181.482 70.5103C181.482 71.9995 180.021 73.5539 177.1 75.1733C177.189 75.3687 177.242 75.4867 177.258 75.5273L177.588 76.1987C177.865 76.7684 178.072 77.1753 178.21 77.4194C179.439 76.1255 181.34 75.4785 183.911 75.4785H185.583L186.462 75.4663C187.903 75.4663 188.928 75.2913 189.539 74.9414C190.149 74.5833 190.454 73.9852 190.454 73.147C190.454 72.6587 190.214 72.1704 189.734 71.6821L191.089 70.3149C191.431 70.7707 191.602 71.3485 191.602 72.0483C191.602 73.5946 190.942 74.8275 189.624 75.7471C188.314 76.6667 186.56 77.1265 184.363 77.1265H184.143C183.728 79.0389 182.751 80.7682 181.213 82.3145C182.035 83.4619 182.796 84.0356 183.496 84.0356C184.058 84.0356 184.644 83.6125 185.254 82.7661C185.384 82.88 185.449 83.0143 185.449 83.1689C185.449 83.5921 185.099 84.0885 184.399 84.6582C183.708 85.2197 183.101 85.5005 182.581 85.5005C181.816 85.5005 180.912 84.8535 179.871 83.5596ZM176.917 74.7339C178.829 73.6108 179.785 72.3291 179.785 70.8887C179.785 70.3271 179.59 69.8429 179.199 69.436C178.809 69.0291 178.345 68.8257 177.808 68.8257C176.571 68.8257 175.952 69.5988 175.952 71.145C175.952 71.9751 176.274 73.1714 176.917 74.7339ZM179.541 83.1445L179.248 82.7417C177.93 80.8781 176.742 78.7622 175.684 76.394L175.476 75.9302C173.352 76.9637 172.29 78.514 172.29 80.5811C172.29 81.7041 172.66 82.6278 173.401 83.3521C174.141 84.0763 175.081 84.4385 176.221 84.4385C177.327 84.4385 178.434 84.0072 179.541 83.1445ZM180.859 81.875C181.95 80.2962 182.56 78.7134 182.69 77.1265H182.336C180.587 77.1265 179.289 77.3584 178.442 77.8223C178.589 78.0908 178.674 78.2495 178.699 78.2983L179.529 79.7266C180.139 80.7764 180.583 81.4925 180.859 81.875ZM212.073 80.7397C212.26 80.8293 212.354 80.9595 212.354 81.1304C212.354 81.6675 211.861 82.3755 210.876 83.2544C209.208 84.7437 207.312 85.4883 205.188 85.4883C203.471 85.4883 202.1 84.8698 201.074 83.6328C200.057 82.3877 199.548 80.7194 199.548 78.6279C199.548 75.6413 200.505 73.1388 202.417 71.1206C204.329 69.1024 206.702 68.0933 209.534 68.0933C210.974 68.0933 212.467 68.3659 214.014 68.9111L213.196 70.7056L212.964 71.2305C212.769 71.6455 212.528 71.853 212.244 71.853C212.187 71.853 212.101 71.8408 211.987 71.8164C212.101 71.5641 212.158 71.3566 212.158 71.1938C212.158 70.6486 211.792 70.1725 211.06 69.7656C210.335 69.3587 209.489 69.1553 208.521 69.1553C206.535 69.1553 204.919 69.9406 203.674 71.5112C202.437 73.0819 201.819 75.1245 201.819 77.6392C201.819 79.5841 202.254 81.1344 203.125 82.29C203.996 83.4456 205.16 84.0234 206.616 84.0234C207.666 84.0234 208.712 83.7101 209.753 83.0835C210.803 82.4487 211.576 81.6675 212.073 80.7397ZM217.358 85.3174C215.527 85.3174 214.612 84.1048 214.612 81.6797C214.612 79.7266 215.328 77.8467 216.76 76.04C218.193 74.2253 219.678 73.3179 221.216 73.3179C223.071 73.3179 223.999 74.5304 223.999 76.9556C223.999 78.9168 223.283 80.8008 221.851 82.6074C220.418 84.4141 218.921 85.3174 217.358 85.3174ZM218.835 83.9502C219.771 83.9502 220.553 83.4294 221.179 82.3877C221.814 81.346 222.131 80.048 222.131 78.4937C222.131 75.9546 221.342 74.6851 219.763 74.6851C218.835 74.6851 218.054 75.21 217.419 76.2598C216.793 77.3014 216.479 78.5954 216.479 80.1416C216.479 82.6807 217.265 83.9502 218.835 83.9502ZM224.438 93.6914C223.039 94.7412 221.529 95.2661 219.91 95.2661C219.56 95.2661 219.088 95.1644 218.494 94.9609L220.129 93.4717C220.821 93.6995 221.444 93.8135 221.997 93.8135C224.422 93.8135 225.814 91.9946 226.172 88.3569L226.465 85.3296L227.502 75.0513H225.293L226.685 73.6353H227.637C227.897 70.6812 228.748 68.4025 230.188 66.7993C231.637 65.1961 233.565 64.3945 235.974 64.3945C237.056 64.3945 238 64.5614 238.806 64.895C240.279 63.8778 241.76 63.3691 243.25 63.3691C243.681 63.3691 244.165 63.4098 244.702 63.4912L242.993 65.1758C242.383 64.9398 241.785 64.8218 241.199 64.8218C239.815 64.8218 238.818 65.3223 238.208 66.3232C237.598 67.3161 237.158 69.1553 236.89 71.8408L236.707 73.6353H241.675L240.222 75.0513H236.56L235.571 85C235.286 87.7832 234.399 90.0171 232.91 91.7017C231.429 93.3944 229.602 94.2407 227.429 94.2407C226.428 94.2407 225.431 94.0576 224.438 93.6914ZM229.37 73.6353H234.973L235.046 72.8784C235.347 69.8348 236.145 67.6375 237.439 66.2866C236.658 65.9285 235.693 65.7495 234.546 65.7495C232.91 65.7495 231.726 66.189 230.994 67.0679C230.261 67.9386 229.785 69.4889 229.565 71.7188L229.37 73.6353ZM234.827 75.0513H229.236L228.235 85C228.031 87.0345 227.767 88.536 227.441 89.5044C227.116 90.481 226.558 91.4331 225.769 92.3608C226.591 92.7189 227.474 92.8979 228.418 92.8979C230.363 92.8979 231.665 92.4341 232.324 91.5063C232.983 90.5868 233.472 88.5522 233.789 85.4028L234.827 75.0513ZM247.949 81.1182C248.153 81.2565 248.254 81.4193 248.254 81.6064C248.254 81.8587 247.994 82.29 247.473 82.9004C246.082 84.5117 244.706 85.3174 243.347 85.3174C242.517 85.3174 241.833 84.9878 241.296 84.3286C240.759 83.6694 240.491 82.8271 240.491 81.8018C240.491 79.9463 241.191 78.0705 242.59 76.1743C243.998 74.27 245.39 73.3179 246.765 73.3179C247.758 73.3179 248.254 73.8509 248.254 74.917C248.254 76.1133 247.673 77.2811 246.509 78.4204C245.353 79.5597 243.941 80.3532 242.273 80.8008C242.436 82.762 243.209 83.7427 244.592 83.7427C245.959 83.7427 247.078 82.8678 247.949 81.1182ZM242.322 79.3115C242.558 79.3929 242.773 79.4336 242.969 79.4336C243.978 79.4336 244.861 79.1243 245.618 78.5059C246.375 77.8874 246.753 77.1631 246.753 76.333C246.753 75.3809 246.269 74.9048 245.3 74.9048C244.6 74.9048 243.966 75.3239 243.396 76.1621C242.834 76.9922 242.476 78.042 242.322 79.3115ZM257.251 81.1182C257.454 81.2565 257.556 81.4193 257.556 81.6064C257.556 81.8587 257.296 82.29 256.775 82.9004C255.383 84.5117 254.008 85.3174 252.649 85.3174C251.819 85.3174 251.135 84.9878 250.598 84.3286C250.061 83.6694 249.792 82.8271 249.792 81.8018C249.792 79.9463 250.492 78.0705 251.892 76.1743C253.3 74.27 254.692 73.3179 256.067 73.3179C257.06 73.3179 257.556 73.8509 257.556 74.917C257.556 76.1133 256.974 77.2811 255.811 78.4204C254.655 79.5597 253.243 80.3532 251.575 80.8008C251.737 82.762 252.511 83.7427 253.894 83.7427C255.261 83.7427 256.38 82.8678 257.251 81.1182ZM251.624 79.3115C251.86 79.3929 252.075 79.4336 252.271 79.4336C253.28 79.4336 254.163 79.1243 254.919 78.5059C255.676 77.8874 256.055 77.1631 256.055 76.333C256.055 75.3809 255.57 74.9048 254.602 74.9048C253.902 74.9048 253.267 75.3239 252.698 76.1621C252.136 76.9922 251.778 78.042 251.624 79.3115Z" fill="#EFC88B"/>
</svg>
