<svg width="326" height="326" viewBox="0 0 326 326" fill="none" xmlns="http://www.w3.org/2000/svg">
<path d="M156.057 112.752H145.08V162.991H156.057V112.752Z" fill="white"/>
<path d="M157.792 112.752V162.992H179.846C184.252 162.992 187.837 159.408 187.837 155.001V120.743C187.837 116.337 184.252 112.752 179.846 112.752H157.792V112.752Z" fill="#0F4C5C"/>
<path d="M143.346 112.752H69.418V162.991H143.346V112.752Z" fill="#0F4C5C"/>
<path d="M67.6838 112.752H56.7063V162.991H67.6838V112.752Z" fill="white"/>
<path d="M199.701 3.46808C183.219 3.46808 169.81 16.8773 169.81 33.36C169.81 59.6153 196.409 91.364 199.732 91.9381C202.994 91.364 229.594 59.617 229.594 33.36C229.594 16.8773 216.184 3.46808 199.701 3.46808ZM199.701 51.3659C189.773 51.3659 181.696 43.2884 181.696 33.36C181.696 23.4316 189.773 15.3549 199.701 15.3549C209.63 15.3549 217.707 23.4316 217.707 33.36C217.707 43.2884 209.63 51.3659 199.701 51.3659Z" fill="#B2596B"/>
<path d="M212.704 6.4859C214.618 10.4234 215.722 14.8237 215.722 19.4876C215.722 21.1656 215.61 22.8662 215.406 24.5794C216.866 27.1797 217.707 30.1716 217.707 33.36C217.707 40.7292 213.253 47.0707 206.899 49.8544C206.879 49.8923 206.86 49.9302 206.84 49.968C202.884 57.5785 200.664 65.9693 200.664 74.5463V91.4272C206.37 87.2217 229.594 57.8973 229.594 33.36C229.594 21.5415 222.682 11.3341 212.704 6.4859Z" fill="#B83D56"/>
<path d="M32.9175 162.992H54.9724V112.752H32.9175C28.5113 112.752 24.9272 116.337 24.9272 120.743V155.001C24.9272 159.407 28.5112 162.992 32.9175 162.992Z" fill="#0F4C5C"/>
<path d="M321.884 126.909C319.716 132.475 316.837 131.591 312.849 130.342C311.271 129.84 309.624 129.337 307.959 129.267C300.416 128.955 299.22 129.597 296.341 131.105L295.457 131.574C291.919 133.394 286.006 136.446 282.347 136.464C277.041 136.464 273.643 134.14 270.625 128.435C270.4 128.019 269.88 127.845 269.446 128.088C269.03 128.314 268.874 128.834 269.082 129.25C270.175 131.279 271.319 132.892 272.585 134.21C268.579 137.227 266.03 145.377 263.325 153.995C262.337 157.203 261.296 160.498 260.186 163.567C259.25 166.133 258.002 169.012 256.337 172.012C256.077 172.463 255.799 172.931 255.522 173.399C255.227 173.919 254.915 174.439 254.585 174.942C254.273 175.445 253.944 175.948 253.597 176.433C253.285 176.919 252.938 177.405 252.574 177.89C251.742 179.069 250.823 180.231 249.834 181.393C249.557 181.722 249.262 182.052 248.967 182.381C248.395 183.04 247.805 183.682 247.181 184.306C246.765 184.722 246.349 185.138 245.915 185.555C245.378 186.075 244.823 186.595 244.268 187.081C243.748 187.566 243.21 188.034 242.655 188.468C241.511 189.422 240.297 190.358 239.014 191.242C239.014 191.242 238.996 191.242 238.979 191.26C238.337 191.711 237.679 192.144 237.002 192.578C234.973 193.895 232.771 195.144 230.396 196.271C229.615 196.652 228.8 197.017 227.968 197.381C227.153 197.728 226.303 198.074 225.436 198.421C224.569 198.751 223.685 199.08 222.783 199.392C221.014 199.999 219.176 200.554 217.234 201.057C217.182 201.074 217.147 201.074 217.095 201.092C216.194 201.317 215.275 201.542 214.338 201.751C214.148 201.803 213.957 201.837 213.766 201.872C211.807 202.305 209.743 202.687 207.61 202.982C206.483 203.138 205.339 203.294 204.177 203.415C202.131 203.641 200.015 203.814 197.83 203.918C199.668 198.872 201.229 193.982 201.992 189.751C202.304 188.017 202.477 186.387 202.477 184.913C202.477 184.427 202.096 184.046 201.61 184.046C201.142 184.046 200.743 184.427 200.743 184.913C200.743 186.664 200.483 188.641 200.015 190.791C198.732 196.86 195.888 204.265 193.131 211.479C191.085 216.837 189.143 221.917 187.877 226.322C184.773 237.056 184.721 285.678 184.773 300.331C184.79 302.793 186.455 304.995 188.813 305.672L194.345 307.267C194.657 307.354 194.952 307.458 195.264 307.562C197.085 308.203 198.732 309.157 200.171 310.371C200.396 310.579 200.639 310.787 200.865 310.995C201.073 311.169 201.246 311.342 201.42 311.55C201.922 312.088 202.408 312.643 202.842 313.25C202.98 313.44 203.119 313.648 203.24 313.856C203.414 314.117 203.57 314.377 203.726 314.654C203.865 314.88 203.986 315.105 204.09 315.33C204.194 315.521 204.281 315.712 204.35 315.903C204.697 316.631 204.974 317.394 205.2 318.174L205.373 318.833C205.633 319.718 205.46 320.654 204.905 321.382C204.35 322.111 203.5 322.527 202.581 322.527H175.808C170.38 322.527 165.958 318.122 165.924 312.712C165.924 312.088 165.906 311.429 165.906 310.753C165.906 310.076 165.889 309.383 165.889 308.654C165.75 286.771 165.317 243.923 164.346 233.518C163.461 224.137 160.565 218.484 157.774 213.005C156.248 210.005 154.808 207.178 153.768 203.849C153.612 203.398 153.126 203.138 152.675 203.294C152.225 203.433 151.964 203.918 152.103 204.369C153.196 207.837 154.67 210.733 156.23 213.785C156.889 215.068 157.548 216.369 158.19 217.721C150.716 219.802 100.741 232.963 72.3545 222.698C71.1927 222.282 70.0656 221.813 68.9731 221.311C70.4817 214.669 70.0829 209.537 69.4066 205.461C69.2159 204.317 69.0078 203.242 68.817 202.254C68.7302 201.785 68.2621 201.473 67.7939 201.577C67.4123 201.647 67.135 201.959 67.1176 202.34C67.1002 202.427 67.1002 202.514 67.1176 202.6C68.4528 209.224 70.4469 219.247 61.3259 236.189C54.8752 248.171 48.546 263.309 45.3553 271.286C43.9161 274.858 44.1242 278.881 45.9103 282.297L50.0199 290.117C50.0199 290.135 50.0199 290.135 50.0199 290.135L57.4243 304.215C58.1873 305.672 59.5571 306.712 61.2045 307.076L68.1407 308.273C73.3254 309.175 77.6085 313.041 79.0304 318.105C79.3425 319.163 79.1344 320.272 78.4582 321.157C77.7993 322.024 76.7935 322.527 75.6837 322.527H50.8521C47.2627 322.527 43.9681 320.585 42.2166 317.463L23.2635 283.563C22.0496 281.395 21.5642 278.846 21.911 276.401C23.4195 265.737 26.9224 240.333 27.0785 234.489C27.2172 229.443 26.7316 225.767 25.3097 214.877C24.6334 209.779 23.7491 203.103 22.622 193.93C19.8648 171.405 20.5064 165.683 24.6855 160.168C26.4195 162.891 29.4542 164.729 32.9223 164.729H179.848C185.206 164.729 189.576 160.359 189.576 155.001V147.371C199.338 154.03 208.633 157.481 216.904 157.481C219.453 157.481 221.898 157.169 224.239 156.51C232.025 154.342 238.493 148.464 242.013 140.383C243.73 136.412 245.36 132.164 246.938 128.054C250.389 118.985 253.683 110.402 257.065 107.402C258.573 109.292 260.671 110.679 263.377 111.459C263.463 111.477 263.533 111.494 263.619 111.494C264.001 111.494 264.348 111.251 264.452 110.87C264.59 110.402 264.33 109.916 263.862 109.795C258.885 108.338 256.267 104.783 256.076 99.2171C256.042 98.0206 256.614 96.9627 257.689 96.2345C259.232 95.194 261.452 95.0727 263.342 95.9397C266.949 97.587 269.983 100.726 271.284 104.159C271.457 104.61 271.96 104.835 272.411 104.662C272.844 104.489 273.07 104.003 272.914 103.552C272.134 101.523 270.833 99.5985 269.168 97.9512C282.347 97.0842 287.307 101.073 290.965 104.038C291.416 104.402 291.85 104.749 292.249 105.061C295.405 107.454 299.358 108.772 303.329 108.772H303.346L308.288 109.327C308.323 109.327 308.375 109.327 308.41 109.344C311.306 109.552 313.976 110.419 316.144 111.876C320.999 115.135 323.392 123.007 321.884 126.909Z" fill="#FFE2B5"/>
<path d="M68.9733 221.31C70.4818 214.669 70.0831 209.536 69.4067 205.461C70.9848 209.727 69.8576 214.703 71.0368 219.16C71.3488 220.356 71.8691 221.536 72.3547 222.697C71.193 222.281 70.0658 221.813 68.9733 221.31Z" fill="black"/>
<path d="M79.0372 318.112C77.6936 313.341 73.5849 309.32 68.6615 308.382C66.0709 307.888 64.3035 307.961 61.9133 306.427C59.7176 305.017 57.8252 303.154 56.2336 301.096C51.9129 295.509 49.1921 288.542 45.9104 282.297C44.1243 278.881 43.9162 274.858 45.3555 271.285C48.5462 263.309 54.8753 248.171 61.326 236.188C70.447 219.247 68.4529 209.224 67.1177 202.6C67.1003 202.513 67.1003 202.427 67.1177 202.34C66.5454 201.976 65.9038 201.802 65.2277 201.958C64.0138 202.236 63.3028 203.363 62.8173 204.542C62.6959 204.837 62.5918 205.114 62.4878 205.392C61.4474 208.322 60.1989 211.114 59.9734 214.183C59.8175 216.316 59.7307 218.414 59.3318 220.53C58.2567 226.512 55.8811 232.2 53.0199 237.524C46.5693 249.488 40.24 264.644 37.0494 272.621C35.6102 276.193 35.8182 280.216 37.6216 283.632C39.3137 286.858 41.0058 290.084 42.6978 293.31C43.9669 295.729 45.236 298.149 46.5053 300.568C47.2141 301.919 48.0934 303.214 48.736 304.609C48.9751 304.951 49.2579 305.325 49.5646 305.727C50.1313 306.47 50.7119 307.261 51.1106 308.108C51.93 309.85 52.2 311.835 51.936 313.736C51.5247 316.699 50.3392 319.646 48.9561 322.327C49.5758 322.448 50.2058 322.532 50.8506 322.532H75.6902C76.7892 322.532 77.7993 322.03 78.4624 321.153C79.1262 320.278 79.3353 319.17 79.0372 318.112ZM205.373 318.833L205.2 318.174C204.974 317.394 204.697 316.631 204.35 315.902C204.281 315.712 204.194 315.521 204.09 315.33C203.986 315.105 203.864 314.879 203.726 314.654C203.57 314.376 203.414 314.116 203.24 313.856C203.119 313.648 202.98 313.44 202.841 313.249C202.408 312.642 201.922 312.087 201.419 311.55C201.246 311.359 201.055 311.168 200.864 310.995C200.639 310.787 200.396 310.579 200.171 310.371C198.732 309.174 197.084 308.238 195.263 307.561C194.951 307.457 194.657 307.353 194.344 307.267L188.813 305.671C186.455 304.995 184.79 302.793 184.773 300.331C184.72 285.678 184.773 237.055 187.876 226.322C189.142 221.917 191.084 216.836 193.131 211.478C195.888 204.265 198.732 196.86 200.015 190.791C198.645 191.623 197.362 192.681 196.183 194.086C190.495 200.814 183.368 207.143 180.871 215.813C177.94 226.027 178.547 237.94 178.235 248.448C177.854 261.176 177.94 273.903 177.767 286.648C177.72 290.118 177.945 293.602 178.494 297.03C178.975 300.034 180.261 302.767 180.487 305.828C180.758 309.498 180.675 313.9 179.047 317.281C178.619 318.171 176.342 322.557 175.276 322.499C175.453 322.509 175.628 322.526 175.808 322.526H202.581C203.5 322.526 204.35 322.11 204.905 321.382C205.46 320.654 205.633 319.717 205.373 318.833Z" fill="#EFC88B"/>
<path d="M321.883 126.909C319.716 132.475 316.837 131.591 312.849 130.342C311.271 129.839 309.624 129.337 307.959 129.267C300.416 128.955 299.22 129.597 296.341 131.105L295.457 131.574C291.919 133.394 286.006 136.446 282.347 136.464C277.041 136.464 273.643 134.14 270.625 128.435C270.4 128.019 269.88 127.845 269.446 128.088C269.03 128.314 268.874 128.834 269.082 129.25C270.175 131.279 271.319 132.892 272.585 134.209C268.579 137.227 266.03 145.377 263.325 153.995C254.706 181.968 233.269 200.375 204.177 203.415C202.131 203.641 200.015 203.814 197.83 203.918C199.668 198.872 201.229 193.982 201.992 189.751C205.096 188.312 208.529 187.583 212.049 186.161C217.962 183.768 223.581 180.63 228.731 176.867C239.031 169.341 247.51 159.266 252.921 147.683C255.036 143.174 256.701 138.441 259.129 134.105C262.441 128.21 268.024 123.84 274.215 121.274C277.232 120.025 280.978 120.597 284.238 120.441C288.989 120.198 293.74 119.956 298.491 119.73C300.642 119.609 302.861 119.487 304.803 118.568C308.375 116.869 308.688 112.846 308.41 109.343C311.306 109.551 313.976 110.418 316.144 111.875C320.999 115.135 323.392 123.007 321.883 126.909ZM150.515 219.91C153.967 219.372 158.345 218.74 158.374 218.617C159.558 211.064 156.922 204.722 148.307 205.864C142.499 206.634 70.0671 215.951 69.9864 211.634C70.039 214.458 69.8049 217.643 68.9753 221.316C69.8055 221.699 70.6491 222.053 71.5021 222.382C85.407 227.747 101.467 227.132 116.035 225.667C123.302 224.936 130.53 223.825 137.702 222.449C140.644 221.885 143.685 221.415 146.571 220.602C147.072 220.462 148.66 220.2 150.515 219.91Z" fill="#EFC88B"/>
<path d="M170.974 111.018L151.177 66.3575C150.011 63.7286 147.4 62.0292 144.525 62.0292H69.7161C66.9228 62.0292 64.3438 63.6592 63.144 66.1823L41.8291 111.018H170.974Z" fill="#52392B"/>
<path d="M199.702 50.4984C209.167 50.4984 216.84 42.8254 216.84 33.3602C216.84 23.895 209.167 16.2219 199.702 16.2219C190.237 16.2219 182.564 23.895 182.564 33.3602C182.564 42.8254 190.237 50.4984 199.702 50.4984Z" fill="white"/>
<path d="M176.746 40.2961C176.746 23.8134 190.155 10.4042 206.638 10.4042C213.111 10.4042 219.094 12.4948 223.993 16.0055C218.565 8.43033 209.711 3.46808 199.701 3.46808C183.219 3.46808 169.81 16.8773 169.81 33.36C169.81 59.0654 195.292 90.0168 199.478 91.8416C190.516 80.9214 176.746 59.1875 176.746 40.2961ZM185.381 112.752H32.9183C28.5049 112.752 24.9271 116.33 24.9271 120.743V155.001C24.9271 159.08 28.0092 162.415 31.96 162.895C31.9215 162.577 31.8632 162.265 31.8632 161.938V127.679C31.8632 123.266 35.441 119.688 39.8544 119.688H168.734C174.952 119.688 180.915 117.218 185.312 112.821L185.381 112.752ZM292.21 107.282C292.255 107.245 292.3 107.209 292.345 107.172C292.815 106.793 293.308 106.448 293.793 106.091C293.265 105.772 292.748 105.435 292.257 105.062C291.842 104.747 291.417 104.402 290.967 104.038C287.312 101.074 282.348 97.0801 269.174 97.9452C270.418 99.1863 271.503 100.608 272.3 102.178C272.634 102.834 273.003 103.329 273.408 103.701C274.909 105.084 276.889 104.778 279.292 104.762C282.277 104.743 285.289 104.983 288.186 105.737C289.617 106.109 290.936 106.656 292.21 107.282ZM276.385 135.017C276.384 135.018 276.384 135.018 276.383 135.018C276.813 135.262 277.258 135.474 277.719 135.653C277.666 135.555 277.61 135.475 277.557 135.376C277.332 134.953 276.809 134.79 276.385 135.017ZM43.3547 319.077C43.3564 319.073 43.3589 319.069 43.3605 319.065C43.5996 318.554 43.8218 318.036 44.0316 317.512C44.0348 317.504 44.038 317.496 44.0412 317.488C44.6584 315.949 44.6479 314.228 44.0219 312.691L32.3517 284.048C31.1392 281.881 30.6625 279.335 31.0088 276.88C32.5092 266.226 33.8564 247.265 34.019 241.432C34.1596 236.383 33.6761 232.711 32.2418 221.813C31.572 216.721 30.6923 210.033 29.5662 200.864C28.4667 191.91 25.9291 180.497 29.1091 171.658C29.9952 169.195 31.041 166.876 32.2239 164.68C29.0511 164.453 26.2955 162.712 24.6899 160.161C20.5137 165.677 19.866 171.408 22.63 193.927C23.7561 203.097 24.6359 209.784 25.3056 214.877C26.74 225.775 27.2234 229.447 27.0828 234.495C26.9203 240.33 23.4132 265.747 21.9131 276.398C21.5653 278.868 22.036 281.379 23.2534 283.556L42.2168 317.468C42.5422 318.05 42.9282 318.584 43.3547 319.077ZM163.17 220.725C163.825 222.009 164.485 223.307 165.122 224.659C164.368 224.868 163.609 225.055 162.852 225.254C163.517 227.689 164.051 230.38 164.346 233.512C165.394 244.612 165.794 292.593 165.918 312.707C165.926 314.118 166.219 317.349 168.193 317.398C168.894 317.415 169.556 317.018 170.01 316.483C170.464 315.948 170.74 315.288 170.981 314.629C172.606 310.193 172.75 305.248 172.706 300.585C172.664 296.086 172.615 291.588 172.559 287.09C172.449 278.167 172.315 269.243 172.102 260.322C171.943 253.709 171.904 247.039 171.282 240.448C170.399 231.08 169.077 225.415 166.282 219.936C164.754 216.939 162.85 214.142 161.13 210.394C160.931 209.96 158.305 206.621 158.039 206.223C154.111 200.351 151.964 203.916 152.108 204.372C153.195 207.83 161.607 217.661 163.17 220.725ZM194.621 151.959C199.24 154.899 202.74 158.455 207.812 160.678C212.857 162.89 218.298 164.421 223.841 164.421C226.386 164.421 228.835 164.097 231.172 163.448C238.955 161.283 245.435 155.404 248.95 147.318C250.673 143.355 252.298 139.102 253.868 134.989C255.658 130.305 257.398 125.573 259.593 121.058C260.406 119.386 261.278 117.713 262.375 116.206C262.961 115.402 263.735 114.638 264.098 113.695C264.27 113.249 264.46 112.654 264.31 112.174C264.041 111.309 264.098 111.665 263.378 111.455C260.68 110.67 258.58 109.294 257.073 107.409C253.676 110.405 250.395 118.99 246.932 128.054C245.361 132.166 243.737 136.419 242.014 140.382C238.499 148.468 232.019 154.347 224.236 156.512C221.899 157.161 219.45 157.485 216.905 157.485C208.631 157.485 199.335 154.035 189.571 147.365V149.048C191.285 149.961 192.979 150.915 194.621 151.959ZM263.549 109.675C263.246 108.604 263.058 107.437 263.014 106.149C262.974 104.948 263.543 103.891 264.618 103.174C266.176 102.133 268.395 102.016 270.275 102.872C270.468 102.961 270.653 103.07 270.843 103.166C269.373 100.132 266.589 97.4187 263.339 95.9362C261.459 95.0794 259.24 95.1971 257.682 96.2377C256.607 96.9548 256.038 98.0115 256.078 99.213C256.264 104.661 258.788 108.169 263.549 109.675ZM146.313 62.2692C145.735 62.1219 145.138 62.0293 144.525 62.0293H69.716C66.9076 62.0293 64.35 63.6453 63.1442 66.1816L41.829 111.018H52.0627L70.0804 73.1178C71.2861 70.5815 73.8438 68.9655 76.6522 68.9655H130.147C136.211 68.9655 142.026 66.5568 146.313 62.2692Z" fill="white"/>
<path d="M179.845 166.46H32.9176C26.5996 166.46 21.4592 161.319 21.4592 155.001V120.743C21.4592 114.424 26.5996 109.284 32.9176 109.284H179.846C186.165 109.284 191.305 114.424 191.305 120.743V155.001C191.305 161.319 186.164 166.46 179.845 166.46ZM32.9176 114.486C29.4681 114.486 26.6614 117.293 26.6614 120.743V155.001C26.6614 158.451 29.4682 161.258 32.9176 161.258H179.846C183.296 161.258 186.103 158.451 186.103 155.001V120.743C186.103 117.293 183.296 114.486 179.846 114.486L32.9176 114.486Z" fill="#003947"/>
<path d="M55.8394 166.46C54.4025 166.46 53.2383 165.295 53.2383 163.859V111.885C53.2383 110.448 54.4025 109.284 55.8394 109.284C57.2762 109.284 58.4404 110.448 58.4404 111.885V163.859C58.4404 165.295 57.2762 166.46 55.8394 166.46ZM68.5509 166.46C67.114 166.46 65.9498 165.295 65.9498 163.859V111.885C65.9498 110.448 67.114 109.284 68.5509 109.284C69.9878 109.284 71.152 110.448 71.152 111.885V163.859C71.152 165.295 69.9878 166.46 68.5509 166.46ZM144.213 166.46C142.776 166.46 141.612 165.295 141.612 163.859V111.885C141.612 110.448 142.776 109.284 144.213 109.284C145.65 109.284 146.814 110.448 146.814 111.885V163.859C146.814 165.295 145.65 166.46 144.213 166.46ZM156.924 166.46C155.488 166.46 154.323 165.295 154.323 163.859V111.885C154.323 110.448 155.488 109.284 156.924 109.284C158.361 109.284 159.525 110.448 159.525 111.885V163.859C159.525 165.295 158.361 166.46 156.924 166.46Z" fill="#003947"/>
<path d="M172.306 114.486H40.4565C39.5641 114.486 38.7344 114.029 38.2576 113.274C37.781 112.52 37.7242 111.574 38.1078 110.768L60.0119 64.693C61.7832 60.9683 65.5917 58.5612 69.7159 58.5612H144.524C148.771 58.5612 152.626 61.0699 154.347 64.9521L174.684 110.831C175.041 111.635 174.967 112.565 174.487 113.303C174.007 114.04 173.186 114.486 172.306 114.486ZM44.5732 109.284H168.308L149.592 67.0604C148.704 65.058 146.715 63.7633 144.524 63.7633H69.7159C67.5881 63.7633 65.6238 65.0054 64.7094 66.9266L44.5732 109.284ZM263.621 113.224C263.381 113.224 263.137 113.19 262.894 113.12C256.504 111.262 252.853 106.365 252.613 99.3315C252.53 96.9209 253.676 94.7415 255.757 93.3529C258.292 91.6612 261.833 91.4368 264.778 92.7806C269.183 94.7898 272.919 98.6804 274.53 102.933C275.039 104.276 274.363 105.778 273.019 106.287C271.677 106.798 270.173 106.119 269.665 104.776C268.539 101.803 265.774 98.9522 262.619 97.5136C261.087 96.8151 259.52 97.0945 258.644 97.6796C257.781 98.2562 257.804 98.9319 257.811 99.1537C257.976 103.96 260.114 106.894 264.347 108.124C265.726 108.526 266.519 109.969 266.118 111.349C265.788 112.485 264.749 113.224 263.621 113.224Z" fill="#003947"/>
<path d="M282.315 139.927C273.882 139.928 270 134.66 267.559 130.067C266.885 128.799 267.367 127.224 268.635 126.549C269.907 125.876 271.479 126.357 272.153 127.626C274.867 132.731 277.717 134.725 282.313 134.725C282.325 134.725 282.338 134.725 282.351 134.725C285.583 134.717 291.27 131.785 294.668 130.033L295.536 129.578C298.864 127.819 300.405 127.232 308.029 127.532C309.927 127.609 311.758 128.179 313.372 128.683C317.35 129.925 318.689 130.34 320.261 126.289C321.546 122.979 319.309 116.092 315.171 113.313C313.232 112.012 310.814 111.231 308.179 111.056L303.294 110.504C298.906 110.471 294.62 109.032 291.209 106.443C290.78 106.118 290.339 105.761 289.875 105.384C286.272 102.462 281.33 98.4602 267.34 99.8241C265.919 99.957 264.639 98.9181 264.5 97.488C264.36 96.0588 265.406 94.7862 266.836 94.6474C282.96 93.0742 289.091 98.0511 293.152 101.344C293.571 101.684 293.968 102.006 294.354 102.299C296.906 104.236 300.134 105.302 303.445 105.302C303.544 105.302 303.642 105.308 303.739 105.319L308.646 105.876C312.072 106.102 315.373 107.184 318.071 108.994C323.977 112.961 327.399 122.28 325.111 128.172C321.777 136.756 315.545 134.809 311.823 133.65C310.388 133.202 309.033 132.779 307.82 132.731C301.208 132.461 300.456 132.862 297.966 134.178L297.052 134.656C292.99 136.751 286.851 139.916 282.363 139.927C282.347 139.927 282.331 139.927 282.315 139.927ZM216.92 159.209C209.49 159.209 199.537 156.634 187.197 147.857C186.026 147.025 185.751 145.401 186.585 144.231C187.417 143.059 189.04 142.785 190.211 143.619C202.615 152.438 214.059 155.743 223.307 153.171C230.078 151.287 235.737 146.122 238.834 138.999C240.525 135.108 242.136 130.892 243.693 126.815C247.739 116.223 251.233 107.075 255.77 104.034C256.964 103.233 258.579 103.553 259.38 104.746C260.179 105.94 259.86 107.555 258.667 108.356C255.503 110.477 251.811 120.143 248.553 128.671C246.975 132.802 245.343 137.074 243.604 141.074C239.88 149.641 232.99 155.877 224.7 158.182C222.527 158.787 219.93 159.209 216.92 159.209Z" fill="#003947"/>
<path d="M196.566 207.455C195.175 207.455 194.022 206.355 193.969 204.952C193.914 203.516 195.035 202.309 196.47 202.255C236.491 200.747 252.319 180.058 258.551 162.968C259.653 159.945 260.68 156.659 261.674 153.481C264.821 143.423 267.537 134.735 272.738 132.048C274.014 131.387 275.583 131.889 276.242 133.165C276.902 134.441 276.402 136.01 275.126 136.669C271.854 138.36 269.084 147.218 266.639 155.034C265.627 158.269 264.582 161.613 263.438 164.749C257.889 179.968 241.836 205.751 196.666 207.453C196.632 207.454 196.599 207.455 196.566 207.455ZM75.6903 326H50.8507C46.0169 326 41.5488 323.38 39.1899 319.16L20.2298 285.254C18.6498 282.431 18.0284 279.111 18.4796 275.909C19.6438 267.643 23.454 240.217 23.6158 234.399C23.7486 229.626 23.2745 226.023 21.8673 215.329C21.1967 210.23 20.3161 203.533 19.1883 194.35C17.4822 180.451 16.9726 172.5 18.0132 166.869C11.5892 173.525 3.80894 186.788 5.41509 211.362C5.50909 212.795 4.42279 214.033 2.98932 214.126C1.55415 214.235 0.318858 213.134 0.224866 211.7C-2.63618 167.944 22.7293 156.659 23.8105 156.2C24.9112 155.731 26.1974 156.079 26.9136 157.042C27.63 158.004 27.5944 159.332 26.8282 160.256C22.3144 165.694 21.4981 170.471 24.3516 193.717C25.4769 202.88 26.3557 209.563 27.0254 214.65C28.4724 225.651 28.9602 229.357 28.8162 234.544C28.6511 240.465 25.1347 265.952 23.631 276.635C23.3372 278.719 23.7418 280.878 24.7697 282.715L43.7299 316.622C45.1702 319.198 47.899 320.798 50.8507 320.798H75.6903C76.4448 320.798 76.885 320.365 77.0806 320.107C77.2754 319.849 77.5726 319.308 77.3685 318.582C76.1187 314.146 72.378 310.773 67.8371 309.988L60.9086 308.79C58.6792 308.298 56.8935 306.932 55.8902 305.019L44.3836 283.104C42.3531 279.235 42.1204 274.691 43.746 270.637C46.9524 262.637 53.3019 247.417 59.7961 235.368C68.6272 218.98 66.6959 209.322 65.4182 202.931C65.1362 201.523 66.0498 200.152 67.4587 199.871C68.8693 199.583 70.2375 200.503 70.5187 201.912C71.8573 208.602 74.096 219.797 64.3751 237.835C58.0028 249.66 51.7406 264.674 48.5739 272.572C47.5164 275.211 47.6679 278.168 48.9897 280.686L60.4963 302.601C60.7876 303.156 61.3049 303.552 61.9162 303.688L68.7237 304.862C75.2272 305.986 80.586 310.818 82.3758 317.171C82.9702 319.284 82.5519 321.498 81.2277 323.247C79.9027 324.997 77.885 326 75.6903 326Z" fill="#003947"/>
<path d="M202.579 326H175.81C168.487 326 162.494 320.046 162.45 312.727C162.326 292.66 161.928 244.801 160.894 233.838C160.072 225.129 157.335 219.765 154.689 214.576C153.163 211.584 151.584 208.489 150.453 204.892C150.023 203.522 150.784 202.062 152.155 201.631C153.527 201.205 154.985 201.963 155.417 203.333C156.416 206.514 157.828 209.282 159.323 212.212C162.058 217.574 165.158 223.651 166.072 233.348C167.126 244.518 167.529 292.56 167.652 312.696C167.679 317.164 171.339 320.798 175.81 320.798H202.579C203.087 320.798 203.386 320.506 203.517 320.331C203.649 320.157 203.85 319.792 203.712 319.302L203.525 318.639C202.195 313.917 198.585 310.285 193.867 308.927L188.34 307.336C185.231 306.441 183.053 303.559 183.041 300.328C182.97 281.481 183.136 236.492 186.204 225.84C187.493 221.367 189.449 216.26 191.52 210.852C195.206 201.227 199.017 191.275 199.017 184.909C199.017 183.472 200.182 182.308 201.619 182.308C203.055 182.308 204.22 183.472 204.22 184.909C204.22 192.237 200.233 202.646 196.378 212.712C194.348 218.014 192.43 223.021 191.203 227.28C188.849 235.454 188.131 270.364 188.243 300.309C188.247 301.244 188.878 302.078 189.779 302.337L195.307 303.928C201.767 305.789 206.712 310.761 208.534 317.231L208.72 317.894C209.265 319.831 208.881 321.866 207.665 323.472C206.448 325.079 204.594 326 202.579 326Z" fill="#003947"/>
<path d="M99.518 230.098C87.5423 230.098 75.8985 228.544 66.8405 224.167C65.5476 223.542 65.0057 221.986 65.6306 220.693C66.2564 219.4 67.8142 218.86 69.1046 219.483C97.8967 233.398 158.06 215.965 158.663 215.787C160.04 215.382 161.487 216.17 161.892 217.548C162.298 218.926 161.509 220.372 160.131 220.777C158.339 221.305 127.998 230.098 99.518 230.098Z" fill="#003947"/>
<path d="M199.702 95.4045C195.056 95.4045 184.238 79.8481 180.815 74.3979C175.41 65.7928 166.342 49.018 166.342 33.36C166.342 14.9654 181.307 0 199.702 0C218.097 0 233.062 14.9654 233.062 33.36C233.062 49.018 223.994 65.7928 218.589 74.3979C215.166 79.8481 204.348 95.4045 199.702 95.4045ZM199.702 5.20203C184.176 5.20203 171.544 17.834 171.544 33.3599C171.544 56.7585 193.991 85.8451 199.702 89.9365C205.413 85.846 227.86 56.7602 227.86 33.3599C227.86 17.834 215.228 5.20203 199.702 5.20203Z" fill="#003947"/>
<path d="M199.702 53.0999C188.817 53.0999 179.963 44.2443 179.963 33.3598C179.963 22.4755 188.817 13.6207 199.702 13.6207C210.586 13.6207 219.442 22.4755 219.442 33.3598C219.442 44.2443 210.586 53.0999 199.702 53.0999ZM199.702 18.8229C191.686 18.8229 185.165 25.3442 185.165 33.3598C185.165 41.3764 191.686 47.8977 199.702 47.8977C207.718 47.8977 214.24 41.3764 214.24 33.3598C214.24 25.3442 207.718 18.8229 199.702 18.8229ZM233.962 291.759C233.296 291.759 232.631 291.505 232.123 290.997L207.567 266.44C206.551 265.424 206.551 263.778 207.567 262.762C208.583 261.746 210.229 261.746 211.245 262.762L235.801 287.319C236.817 288.335 236.817 289.982 235.801 290.997C235.293 291.505 234.627 291.759 233.962 291.759Z" fill="#003947"/>
<path d="M209.405 291.76C208.74 291.76 208.074 291.505 207.566 290.997C206.55 289.982 206.55 288.335 207.566 287.319L232.122 262.763C233.138 261.747 234.784 261.747 235.8 262.763C236.816 263.778 236.816 265.425 235.8 266.441L211.244 290.997C210.736 291.506 210.071 291.76 209.405 291.76ZM237.087 118.915H223.195C221.758 118.915 220.594 117.751 220.594 116.314C220.594 114.877 221.758 113.713 223.195 113.713H237.087C238.523 113.713 239.688 114.877 239.688 116.314C239.688 117.751 238.523 118.915 237.087 118.915ZM203.378 115.227C202.711 115.227 202.045 114.974 201.537 114.465C198.676 111.599 197.1 107.792 197.1 103.745V92.8035C197.1 91.3666 198.265 90.2025 199.701 90.2025C201.138 90.2025 202.302 91.3666 202.302 92.8035V103.745C202.302 106.404 203.338 108.905 205.219 110.788C206.234 111.805 206.232 113.452 205.216 114.467C204.708 114.974 204.042 115.227 203.378 115.227ZM268.541 190.805C267.104 190.805 265.94 189.641 265.94 188.204V177.8C265.94 176.363 267.104 175.198 268.541 175.198C269.978 175.198 271.142 176.363 271.142 177.8V188.204C271.142 189.641 269.978 190.805 268.541 190.805ZM223.043 231.916C222.711 231.916 222.374 231.851 222.048 231.716C220.721 231.165 220.091 229.644 220.642 228.317C223.33 221.837 229.29 217.102 236.197 215.957C237.615 215.724 238.953 216.681 239.188 218.098C239.423 219.516 238.464 220.854 237.047 221.09C231.898 221.942 227.453 225.476 225.446 230.31C225.031 231.311 224.063 231.916 223.043 231.916ZM254.68 220.428C253.496 220.428 252.425 219.613 252.148 218.41C251.826 217.009 252.7 215.613 254.099 215.291C259.191 214.12 263.411 210.32 265.112 205.372C265.58 204.013 267.06 203.289 268.418 203.758C269.776 204.225 270.499 205.705 270.032 207.063C267.751 213.695 262.093 218.791 255.266 220.361C255.07 220.406 254.873 220.428 254.68 220.428ZM221.683 260.273C220.247 260.273 219.082 259.109 219.082 257.672V247.268C219.082 245.831 220.247 244.667 221.683 244.667C223.12 244.667 224.284 245.831 224.284 247.268V257.672C224.284 259.109 223.12 260.273 221.683 260.273Z" fill="#003947"/>
</svg>
