<svg width="168" height="168" viewBox="0 0 168 168" fill="none" xmlns="http://www.w3.org/2000/svg">
<path d="M73.112 47.7949C73.4593 48.1857 73.9458 48.4251 74.4674 48.4616C74.9889 48.4981 75.5041 48.329 75.9024 47.9903C76.3008 47.6517 76.5507 47.1706 76.5987 46.6499C76.6466 46.1293 76.4888 45.6106 76.159 45.2049C74.479 43.2269 74.859 42.5869 75.875 40.8749C77.159 38.7099 79.101 35.4379 74.676 30.0769C74.335 29.6792 73.8516 29.4311 73.3297 29.3861C72.8078 29.341 72.289 29.5025 71.8849 29.8359C71.4808 30.1692 71.2236 30.6478 71.1687 31.1688C71.1137 31.6898 71.2654 32.2115 71.591 32.6219C74.226 35.8149 73.551 36.9519 72.435 38.8329C71.298 40.7479 69.581 43.6429 73.112 47.7949ZM80.687 46.9459C81.0307 47.3499 81.5209 47.6009 82.0496 47.6436C82.5784 47.6862 83.1024 47.5171 83.5065 47.1734C83.9106 46.8297 84.1615 46.3395 84.2042 45.8108C84.2469 45.282 84.0777 44.7579 83.734 44.3539C82.054 42.3779 82.434 41.7379 83.449 40.0249C84.734 37.8599 86.676 34.5879 82.251 29.2269C82.0845 29.0224 81.8791 28.8529 81.6468 28.7281C81.4144 28.6033 81.1597 28.5257 80.8973 28.4997C80.6349 28.4737 80.3699 28.4999 80.1176 28.5768C79.8653 28.6536 79.6307 28.7796 79.4273 28.9475C79.2239 29.1153 79.0557 29.3218 78.9324 29.5549C78.8091 29.788 78.7331 30.0432 78.7088 30.3058C78.6846 30.5684 78.7124 30.8332 78.7909 31.085C78.8694 31.3368 78.9968 31.5706 79.166 31.7729C81.801 34.9649 81.126 36.1009 80.009 37.9839C78.873 39.8989 77.156 42.7939 80.687 46.9459ZM121.112 47.7959C121.456 48.1999 121.946 48.4509 122.475 48.4936C123.003 48.5362 123.527 48.3671 123.932 48.0234C124.336 47.6797 124.587 47.1895 124.629 46.6608C124.672 46.132 124.503 45.6079 124.159 45.2039C122.479 43.2269 122.859 42.5869 123.875 40.8739C125.159 38.7099 127.101 35.4379 122.676 30.0769C122.511 29.8687 122.306 29.6955 122.073 29.5674C121.84 29.4394 121.584 29.3591 121.319 29.3312C121.055 29.3033 120.788 29.3284 120.533 29.405C120.278 29.4816 120.042 29.6082 119.837 29.7774C119.632 29.9465 119.462 30.1549 119.339 30.3902C119.215 30.6256 119.14 30.8832 119.117 31.1481C119.094 31.4129 119.124 31.6797 119.206 31.9327C119.287 32.1858 119.418 32.4201 119.591 32.6219C122.226 35.8149 121.551 36.9519 120.435 38.8329C119.298 40.7479 117.581 43.6429 121.112 47.7949V47.7959ZM128.687 46.9459C129.031 47.3499 129.521 47.6009 130.05 47.6436C130.578 47.6862 131.102 47.5171 131.507 47.1734C131.911 46.8297 132.162 46.3395 132.204 45.8108C132.247 45.282 132.078 44.7579 131.734 44.3539C130.054 42.3779 130.434 41.7379 131.449 40.0249C132.734 37.8599 134.676 34.5879 130.251 29.2269C129.912 28.8217 129.427 28.5669 128.901 28.5183C128.375 28.4696 127.851 28.631 127.444 28.9673C127.036 29.3035 126.778 29.7872 126.726 30.3128C126.674 30.8385 126.832 31.3634 127.166 31.7729C129.801 34.9649 129.126 36.1009 128.009 37.9839C126.873 39.8989 125.156 42.7939 128.687 46.9459Z" fill="#923144"/>
<path d="M121 13.5C121.593 13.5 122.173 13.3241 122.667 12.9944C123.16 12.6648 123.545 12.1962 123.772 11.6481C123.999 11.0999 124.058 10.4967 123.942 9.91473C123.827 9.33279 123.541 8.79824 123.121 8.37868C122.702 7.95912 122.167 7.6734 121.585 7.55765C121.003 7.44189 120.4 7.5013 119.852 7.72836C119.304 7.95543 118.835 8.33994 118.506 8.83329C118.176 9.32664 118 9.90666 118 10.5C118.001 11.2954 118.317 12.058 118.88 12.6204C119.442 13.1829 120.205 13.4992 121 13.5ZM121 9C121.297 9 121.587 9.08797 121.833 9.2528C122.08 9.41762 122.272 9.65189 122.386 9.92598C122.499 10.2001 122.529 10.5017 122.471 10.7926C122.413 11.0836 122.27 11.3509 122.061 11.5607C121.851 11.7704 121.584 11.9133 121.293 11.9712C121.002 12.0291 120.7 11.9994 120.426 11.8858C120.152 11.7723 119.918 11.58 119.753 11.3334C119.588 11.0867 119.5 10.7967 119.5 10.5C119.5 10.1023 119.658 9.72088 119.94 9.43963C120.221 9.15839 120.602 9.00027 121 9ZM46 42.5C45.6044 42.5 45.2178 42.6173 44.8889 42.8371C44.56 43.0568 44.3036 43.3692 44.1522 43.7346C44.0009 44.1001 43.9613 44.5022 44.0384 44.8902C44.1156 45.2781 44.3061 45.6345 44.5858 45.9142C44.8655 46.1939 45.2219 46.3844 45.6098 46.4616C45.9978 46.5387 46.3999 46.4991 46.7654 46.3478C47.1308 46.1964 47.4432 45.94 47.6629 45.6111C47.8827 45.2822 48 44.8956 48 44.5C47.9995 43.9697 47.7886 43.4613 47.4136 43.0864C47.0387 42.7114 46.5303 42.5005 46 42.5ZM46 45.5C45.8022 45.5 45.6089 45.4414 45.4444 45.3315C45.28 45.2216 45.1518 45.0654 45.0761 44.8827C45.0004 44.7 44.9806 44.4989 45.0192 44.3049C45.0578 44.1109 45.153 43.9327 45.2929 43.7929C45.4327 43.653 45.6109 43.5578 45.8049 43.5192C45.9989 43.4806 46.2 43.5004 46.3827 43.5761C46.5654 43.6518 46.7216 43.78 46.8315 43.9444C46.9414 44.1089 47 44.3022 47 44.5C46.9997 44.7651 46.8943 45.0193 46.7068 45.2068C46.5193 45.3943 46.2651 45.4997 46 45.5ZM49 10.5C48.6044 10.5 48.2178 10.6173 47.8889 10.8371C47.56 11.0568 47.3036 11.3692 47.1522 11.7346C47.0009 12.1001 46.9613 12.5022 47.0384 12.8902C47.1156 13.2781 47.3061 13.6345 47.5858 13.9142C47.8655 14.1939 48.2219 14.3844 48.6098 14.4616C48.9978 14.5387 49.3999 14.4991 49.7654 14.3478C50.1308 14.1964 50.4432 13.94 50.6629 13.6111C50.8827 13.2822 51 12.8956 51 12.5C50.9995 11.9697 50.7886 11.4613 50.4136 11.0864C50.0387 10.7114 49.5303 10.5005 49 10.5ZM49 13.5C48.8022 13.5 48.6089 13.4414 48.4444 13.3315C48.28 13.2216 48.1518 13.0654 48.0761 12.8827C48.0004 12.7 47.9806 12.4989 48.0192 12.3049C48.0578 12.1109 48.153 11.9327 48.2929 11.7929C48.4327 11.653 48.6109 11.5578 48.8049 11.5192C48.9989 11.4806 49.2 11.5004 49.3827 11.5761C49.5654 11.6518 49.7216 11.78 49.8315 11.9444C49.9414 12.1089 50 12.3022 50 12.5C49.9997 12.7651 49.8943 13.0193 49.7068 13.2068C49.5193 13.3943 49.2651 13.4997 49 13.5ZM159 45.5C158.604 45.5 158.218 45.6173 157.889 45.8371C157.56 46.0568 157.304 46.3692 157.152 46.7346C157.001 47.1001 156.961 47.5022 157.038 47.8902C157.116 48.2781 157.306 48.6345 157.586 48.9142C157.865 49.1939 158.222 49.3844 158.61 49.4616C158.998 49.5387 159.4 49.4991 159.765 49.3478C160.131 49.1964 160.443 48.94 160.663 48.6111C160.883 48.2822 161 47.8956 161 47.5C160.999 46.9697 160.789 46.4613 160.414 46.0864C160.039 45.7114 159.53 45.5005 159 45.5ZM159 48.5C158.802 48.5 158.609 48.4414 158.444 48.3315C158.28 48.2216 158.152 48.0654 158.076 47.8827C158 47.7 157.981 47.4989 158.019 47.3049C158.058 47.1109 158.153 46.9327 158.293 46.7929C158.433 46.653 158.611 46.5578 158.805 46.5192C158.999 46.4806 159.2 46.5004 159.383 46.5761C159.565 46.6518 159.722 46.78 159.831 46.9444C159.941 47.1089 160 47.3022 160 47.5C160 47.7651 159.894 48.0193 159.707 48.2068C159.519 48.3943 159.265 48.4997 159 48.5ZM11 18.5C11 18.1044 10.8827 17.7178 10.6629 17.3889C10.4432 17.06 10.1308 16.8036 9.76537 16.6522C9.39992 16.5009 8.99778 16.4613 8.60982 16.5384C8.22186 16.6156 7.86549 16.8061 7.58579 17.0858C7.30608 17.3655 7.1156 17.7219 7.03843 18.1098C6.96126 18.4978 7.00087 18.8999 7.15224 19.2654C7.30362 19.6308 7.55996 19.9432 7.88886 20.1629C8.21776 20.3827 8.60444 20.5 9 20.5C9.53027 20.4995 10.0387 20.2886 10.4136 19.9136C10.7886 19.5387 10.9995 19.0303 11 18.5ZM8 18.5C8 18.3022 8.05865 18.1089 8.16853 17.9444C8.27841 17.78 8.43459 17.6518 8.61732 17.5761C8.80004 17.5004 9.00111 17.4806 9.19509 17.5192C9.38907 17.5578 9.56726 17.653 9.70711 17.7929C9.84696 17.9327 9.9422 18.1109 9.98079 18.3049C10.0194 18.4989 9.99957 18.7 9.92388 18.8827C9.84819 19.0654 9.72002 19.2216 9.55557 19.3315C9.39112 19.4414 9.19778 19.5 9 19.5C8.73487 19.4997 8.48067 19.3943 8.29319 19.2068C8.10571 19.0193 8.00027 18.7651 8 18.5Z" fill="#2D4356"/>
<path d="M89.067 19.249L90.554 17.294L89.615 16.762L88.661 18.952H88.629L87.659 16.777L86.704 17.325L88.175 19.234V19.265L85.874 18.968V20.032L88.19 19.735V19.766L86.704 21.674L87.595 22.238L88.613 20.032H88.644L89.583 22.222L90.569 21.659L89.067 19.781V19.75L91.429 20.032V18.968L89.067 19.281V19.249ZM13.777 47.567L12.92 48.666L13.434 48.99L14.02 47.72H14.038L14.578 48.981L15.146 48.657L14.281 47.575V47.557L15.641 47.72V47.107L14.281 47.287V47.269L15.137 46.143L14.597 45.837L14.047 47.098H14.029L13.471 45.845L12.92 46.161L13.768 47.26V47.278L12.443 47.107V47.72L13.777 47.549V47.567ZM143.724 31.707V30.664L141.407 30.971V30.94L142.866 29.022L141.945 28.5L141.009 30.648H140.977L140.027 28.515L139.089 29.052L140.533 30.925V30.956L138.276 30.664V31.707L140.548 31.416V31.447L139.089 33.319L139.964 33.872L140.963 31.707H140.992L141.913 33.856L142.881 33.304L141.407 31.462V31.431L143.724 31.707ZM157.443 10.086L158.701 8.43096L157.907 7.98096L157.099 9.83396H157.072L156.252 7.99396L155.444 8.45796L156.689 10.073V10.099L154.742 9.84796V10.748L156.702 10.496V10.523L155.444 12.138L156.198 12.615L157.06 10.748H157.085L157.88 12.601L158.714 12.125L157.443 10.536V10.509L159.442 10.748V9.84796L157.443 10.112V10.086Z" fill="#923144"/>
<path d="M2 146.5C3.10457 146.5 4 145.605 4 144.5C4 143.395 3.10457 142.5 2 142.5C0.89543 142.5 0 143.395 0 144.5C0 145.605 0.89543 146.5 2 146.5Z" fill="#2D4356"/>
<path d="M11 142.5H8C7.46957 142.5 6.96086 142.711 6.58579 143.086C6.21071 143.461 6 143.97 6 144.5C6 145.03 6.21071 145.539 6.58579 145.914C6.96086 146.289 7.46957 146.5 8 146.5H11C11.5304 146.5 12.0391 146.289 12.4142 145.914C12.7893 145.539 13 145.03 13 144.5C13 143.97 12.7893 143.461 12.4142 143.086C12.0391 142.711 11.5304 142.5 11 142.5ZM160 142.5H157C156.47 142.5 155.961 142.711 155.586 143.086C155.211 143.461 155 143.97 155 144.5C155 145.03 155.211 145.539 155.586 145.914C155.961 146.289 156.47 146.5 157 146.5H160C160.53 146.5 161.039 146.289 161.414 145.914C161.789 145.539 162 145.03 162 144.5C162 143.97 161.789 143.461 161.414 143.086C161.039 142.711 160.53 142.5 160 142.5Z" fill="#2D4356"/>
<path d="M166 146.5C167.105 146.5 168 145.605 168 144.5C168 143.395 167.105 142.5 166 142.5C164.895 142.5 164 143.395 164 144.5C164 145.605 164.895 146.5 166 146.5Z" fill="#2D4356"/>
<path d="M118.154 150.5H109.846C109.342 150.539 108.872 150.767 108.529 151.137C108.186 151.508 107.995 151.995 107.995 152.5C107.995 153.005 108.186 153.492 108.529 153.863C108.872 154.233 109.342 154.461 109.846 154.5H118.154C118.658 154.461 119.128 154.233 119.471 153.863C119.814 153.492 120.005 153.005 120.005 152.5C120.005 151.995 119.814 151.508 119.471 151.137C119.128 150.767 118.658 150.539 118.154 150.5ZM58.154 150.5H49.846C49.3423 150.539 48.8719 150.767 48.5287 151.137C48.1856 151.508 47.995 151.995 47.995 152.5C47.995 153.005 48.1856 153.492 48.5287 153.863C48.8719 154.233 49.3423 154.461 49.846 154.5H58.154C58.6576 154.461 59.128 154.233 59.4712 153.863C59.8143 153.492 60.0049 153.005 60.0049 152.5C60.0049 151.995 59.8143 151.508 59.4712 151.137C59.128 150.767 58.6576 150.539 58.154 150.5ZM104 150.5H64C63.4695 150.5 62.9608 150.711 62.5857 151.086C62.2107 151.461 62 151.97 62 152.5C62 153.03 62.2107 153.539 62.5857 153.914C62.9608 154.289 63.4695 154.5 64 154.5H79.94V156.5H72C71.4695 156.5 70.9608 156.711 70.5857 157.086C70.2107 157.461 70 157.97 70 158.5C70 159.03 70.2107 159.539 70.5857 159.914C70.9608 160.289 71.4695 160.5 72 160.5H97C97.5304 160.5 98.0391 160.289 98.4142 159.914C98.7892 159.539 99 159.03 99 158.5C99 157.97 98.7892 157.461 98.4142 157.086C98.0391 156.711 97.5304 156.5 97 156.5H88.06V154.5H104C104.53 154.5 105.039 154.289 105.414 153.914C105.789 153.539 106 153.03 106 152.5C106 151.97 105.789 151.461 105.414 151.086C105.039 150.711 104.53 150.5 104 150.5Z" fill="#923144"/>
<path d="M150.72 142.5H139V137.58C139.5 137.44 139.97 137.3 140.41 137.15C142.202 136.509 144.097 136.204 146 136.25C146.53 136.248 147.038 136.037 147.412 135.662C147.787 135.288 147.998 134.78 148 134.25V96.5C148 95.9747 147.897 95.4545 147.696 94.9691C147.495 94.4837 147.2 94.0427 146.829 93.6713C146.457 93.2998 146.016 93.0052 145.531 92.8042C145.046 92.6032 144.525 92.4999 144 92.5H141V84.99C141.005 84.9846 141.009 84.9776 141.01 84.97L142.57 78.5H146C146.53 78.5 147.039 78.2893 147.414 77.9142C147.789 77.5391 148 77.0304 148 76.5C148 75.9696 147.789 75.4609 147.414 75.0858C147.039 74.7107 146.53 74.5 146 74.5H145C144.993 70.9636 143.649 67.5606 141.238 64.9734C138.827 62.3862 135.527 60.8061 132 60.55V56.5C132 55.9747 131.897 55.4545 131.696 54.9691C131.495 54.4838 131.2 54.0427 130.829 53.6713C130.457 53.2998 130.016 53.0052 129.531 52.8042C129.046 52.6032 128.525 52.4999 128 52.5H124C123.475 52.4999 122.955 52.6032 122.469 52.8042C121.984 53.0052 121.543 53.2998 121.171 53.6713C120.8 54.0427 120.505 54.4838 120.304 54.9691C120.103 55.4545 120 55.9747 120 56.5V60.55C116.473 60.8061 113.173 62.3862 110.762 64.9734C108.351 67.5606 107.007 70.9636 107 74.5H106C105.47 74.5 104.961 74.7107 104.586 75.0858C104.211 75.4609 104 75.9696 104 76.5C104 77.0304 104.211 77.5391 104.586 77.9142C104.961 78.2893 105.47 78.5 106 78.5H109.43L110.99 84.97C110.991 84.9776 110.995 84.9846 111 84.99V92.5H93.06V84.74L94.57 78.5H98C98.5305 78.5 99.0392 78.2893 99.4142 77.9142C99.7893 77.5391 100 77.0304 100 76.5C100 75.9696 99.7893 75.4609 99.4142 75.0858C99.0392 74.7107 98.5305 74.5 98 74.5H97C96.9929 70.9636 95.6491 67.5606 93.2381 64.9734C90.8271 62.3862 87.5272 60.8061 84 60.55V56.5C84.0002 55.9747 83.8968 55.4545 83.6958 54.9691C83.4948 54.4838 83.2002 54.0427 82.8288 53.6713C82.4573 53.2998 82.0163 53.0052 81.5309 52.8042C81.0456 52.6032 80.5254 52.4999 80 52.5H76C75.4747 52.4999 74.9545 52.6032 74.4691 52.8042C73.9838 53.0052 73.5428 53.2998 73.1713 53.6713C72.7998 54.0427 72.5052 54.4838 72.3042 54.9691C72.1033 55.4545 71.9999 55.9747 72 56.5V60.55C68.4729 60.8061 65.1729 62.3862 62.7619 64.9734C60.3509 67.5606 59.0071 70.9636 59 74.5H58C57.4696 74.5 56.9609 74.7107 56.5858 75.0858C56.2107 75.4609 56 75.9696 56 76.5C56 77.0304 56.2107 77.5391 56.5858 77.9142C56.9609 78.2893 57.4696 78.5 58 78.5H61.43L62.94 84.74V92.5H50.24C50.6109 91.854 50.8934 91.1611 51.08 90.44L51.94 86.98C52.0112 86.7044 52.0217 86.4167 51.9708 86.1367C51.9199 85.8567 51.8089 85.591 51.6454 85.3581C51.4818 85.1252 51.2697 84.9305 51.0236 84.7875C50.7775 84.6446 50.5034 84.5567 50.22 84.53C50.6058 83.8784 50.8955 83.1744 51.08 82.44L51.94 78.98C52.0112 78.7044 52.0217 78.4167 51.9708 78.1367C51.9199 77.8567 51.8089 77.591 51.6454 77.3581C51.4818 77.1252 51.2697 76.9305 51.0236 76.7875C50.7775 76.6446 50.5034 76.5567 50.22 76.53C50.6058 75.8784 50.8955 75.1744 51.08 74.44L51.94 70.98C52.0141 70.6854 52.0198 70.3778 51.9569 70.0807C51.8939 69.7835 51.7639 69.5047 51.5767 69.2654C51.3896 69.0262 51.1502 68.8328 50.877 68.7002C50.6037 68.5675 50.3038 68.4991 50 68.5H24C23.6963 68.4991 23.3963 68.5675 23.1231 68.7002C22.8498 68.8328 22.6105 69.0262 22.4233 69.2654C22.2362 69.5047 22.1062 69.7835 22.0432 70.0807C21.9802 70.3778 21.986 70.6854 22.06 70.98L22.92 74.44C23.1046 75.1744 23.3942 75.8784 23.78 76.53C23.4967 76.5567 23.2225 76.6446 22.9764 76.7875C22.7304 76.9305 22.5182 77.1252 22.3547 77.3581C22.1912 77.591 22.0801 77.8567 22.0293 78.1367C21.9784 78.4167 21.9889 78.7044 22.06 78.98L22.92 82.44C23.1046 83.1744 23.3942 83.8784 23.78 84.53C23.4967 84.5567 23.2225 84.6446 22.9764 84.7875C22.7304 84.9305 22.5182 85.1252 22.3547 85.3581C22.1912 85.591 22.0801 85.8567 22.0293 86.1367C21.9784 86.4167 21.9889 86.7044 22.06 86.98L22.92 90.44C23.1056 91.1694 23.3917 91.8694 23.77 92.52C22.7529 92.5783 21.7964 93.0227 21.0957 93.7624C20.3951 94.502 20.0032 95.4812 20 96.5V134.25C20.0016 134.78 20.2128 135.288 20.5876 135.662C20.9623 136.037 21.4701 136.248 22 136.25C23.9028 136.205 25.7976 136.51 27.59 137.15C28.03 137.3 28.49 137.44 29 137.58V142.5H17.28C16.9955 142.463 16.7063 142.487 16.4318 142.57C16.1573 142.654 15.9037 142.795 15.6881 142.984C15.4724 143.173 15.2997 143.407 15.1813 143.668C15.0629 143.929 15.0017 144.213 15.0017 144.5C15.0017 144.787 15.0629 145.071 15.1813 145.332C15.2997 145.593 15.4724 145.827 15.6881 146.016C15.9037 146.205 16.1573 146.346 16.4318 146.43C16.7063 146.513 16.9955 146.537 17.28 146.5H150.72C151.005 146.537 151.294 146.513 151.568 146.43C151.843 146.346 152.096 146.205 152.312 146.016C152.528 145.827 152.7 145.593 152.819 145.332C152.937 145.071 152.998 144.787 152.998 144.5C152.998 144.213 152.937 143.929 152.819 143.668C152.7 143.407 152.528 143.173 152.312 142.984C152.096 142.795 151.843 142.654 151.568 142.57C151.294 142.487 151.005 142.463 150.72 142.5ZM124 56.5H128V60.5H124V56.5ZM121 64.5H131C133.651 64.5042 136.192 65.5592 138.066 67.4336C139.941 69.3081 140.996 71.8491 141 74.5H111C111.004 71.8491 112.059 69.3081 113.934 67.4336C115.808 65.5592 118.349 64.5042 121 64.5ZM114.51 82.5L113.54 78.5H138.46L137.49 82.5H114.51ZM137 86.5V92.5H115V86.5H137ZM76 56.5H80V60.5H76V56.5ZM73 64.5H83C85.6509 64.5042 88.192 65.5592 90.0664 67.4336C91.9409 69.3081 92.9958 71.8491 93 74.5H63C63.0043 71.8491 64.0592 69.3081 65.9336 67.4336C67.8081 65.5592 70.3492 64.5042 73 64.5ZM66.51 82.5L65.54 78.5H90.46L89.49 82.5H66.51ZM89.07 92.5H66.94V86.5H89.06L89.07 92.5ZM47.44 72.5L47.2 73.47C46.9822 74.3345 46.4824 75.1018 45.7797 75.6505C45.0771 76.1992 44.2116 76.4981 43.32 76.5H30.68C29.7885 76.4981 28.923 76.1992 28.2203 75.6505C27.5177 75.1018 27.0179 74.3345 26.8 73.47L26.56 72.5H47.44ZM47.44 80.5L47.2 81.47C46.9822 82.3345 46.4824 83.1018 45.7797 83.6505C45.0771 84.1992 44.2116 84.4981 43.32 84.5H30.68C29.7885 84.4981 28.923 84.1992 28.2203 83.6505C27.5177 83.1018 27.0179 82.3345 26.8 81.47L26.56 80.5H47.44ZM47.44 88.5L47.2 89.47C46.9822 90.3345 46.4824 91.1018 45.7797 91.6505C45.0771 92.1992 44.2116 92.4981 43.32 92.5H30.68C29.7885 92.4981 28.923 92.1992 28.2203 91.6505C27.5177 91.1018 27.0179 90.3345 26.8 89.47L26.56 88.5H47.44ZM37 142.5H33V138.21C33.44 138.23 33.9 138.25 34.4 138.25C35.2687 138.255 36.1369 138.208 37 138.11V142.5ZM127 142.5H41V137.22C41.0715 137.201 41.1416 137.178 41.21 137.15C43.0022 136.509 44.8972 136.204 46.8 136.25C48.6995 136.204 50.5912 136.51 52.38 137.15C54.5651 137.924 56.8723 138.297 59.19 138.25C61.511 138.297 63.8215 137.924 66.01 137.15C67.7989 136.51 69.6905 136.204 71.59 136.25C73.4895 136.204 75.3812 136.51 77.17 137.15C81.595 138.617 86.3751 138.617 90.8 137.15C94.4267 135.95 98.3434 135.95 101.97 137.15C106.395 138.617 111.175 138.617 115.6 137.15C119.227 135.95 123.143 135.95 126.77 137.15C126.85 137.18 126.93 137.2 127 137.22V142.5ZM121.19 132.25C118.869 132.202 116.558 132.575 114.37 133.35C110.743 134.55 106.827 134.55 103.2 133.35C98.7751 131.883 93.995 131.883 89.57 133.35C85.9434 134.55 82.0267 134.55 78.4 133.35C76.215 132.576 73.9078 132.203 71.59 132.25C69.2723 132.203 66.9651 132.576 64.78 133.35C62.9879 133.991 61.0929 134.296 59.19 134.25C57.2905 134.296 55.3989 133.99 53.61 133.35C51.425 132.576 49.1178 132.203 46.8 132.25C44.479 132.203 42.1686 132.576 39.98 133.35C38.1912 133.99 36.2995 134.296 34.4 134.25C32.4973 134.295 30.6024 133.99 28.81 133.35C27.2582 132.799 25.6413 132.453 24 132.32V96.5H144V132.32C142.355 132.452 140.735 132.798 139.18 133.35C135.55 134.55 131.63 134.55 128 133.35C125.815 132.576 123.508 132.203 121.19 132.25ZM135 142.5H131V138.11C131.86 138.208 132.725 138.255 133.59 138.25C134.1 138.25 134.56 138.23 135 138.21V142.5Z" fill="#2D4356"/>
<path d="M144 124.33V128.34C142.776 128.468 141.571 128.74 140.41 129.15C135.982 130.617 131.198 130.617 126.77 129.15C123.143 127.95 119.227 127.95 115.6 129.15C111.175 130.617 106.395 130.617 101.97 129.15C98.3433 127.95 94.4267 127.95 90.8 129.15C86.375 130.617 81.595 130.617 77.17 129.15C75.3811 128.51 73.4895 128.204 71.59 128.25C69.6905 128.204 67.7989 128.51 66.01 129.15C63.8214 129.924 61.511 130.297 59.19 130.25C56.8722 130.297 54.5651 129.924 52.38 129.15C50.5911 128.51 48.6995 128.204 46.8 128.25C44.8972 128.204 43.0021 128.509 41.21 129.15C39.0249 129.924 36.7178 130.297 34.4 130.25C32.0822 130.298 29.7748 129.925 27.59 129.15C26.4293 128.74 25.2243 128.468 24 128.34V124.33C25.6416 124.455 27.2592 124.798 28.81 125.35C30.6024 125.99 32.4972 126.295 34.4 126.25C36.2995 126.296 38.1911 125.99 39.98 125.35C42.1686 124.576 44.479 124.203 46.8 124.25C49.1178 124.203 51.4249 124.576 53.61 125.35C55.3989 125.99 57.2905 126.296 59.19 126.25C61.0928 126.296 62.9879 125.991 64.78 125.35C66.9651 124.576 69.2722 124.203 71.59 124.25C73.9078 124.203 76.2149 124.576 78.4 125.35C82.0266 126.55 85.9434 126.55 89.57 125.35C93.995 123.883 98.775 123.883 103.2 125.35C106.827 126.55 110.743 126.55 114.37 125.35C118.795 123.883 123.575 123.883 128 125.35C131.63 126.55 135.55 126.55 139.18 125.35C140.735 124.799 142.355 124.456 144 124.33ZM24 100.5H144V104.5H24V100.5Z" fill="#923144"/>
</svg>
