<svg width="168" height="168" viewBox="0 0 168 168" fill="none" xmlns="http://www.w3.org/2000/svg">
<path d="M82.5732 75.1906C82.2747 75.1012 81.9593 75.0828 81.6523 75.1369C81.3454 75.191 81.0553 75.3162 80.8054 75.5023C80.5554 75.6885 80.3523 75.9305 80.2125 76.2091C80.0727 76.4876 79.9999 76.795 80 77.1067V86.5272C80 87.0576 80.2107 87.5663 80.5858 87.9414C80.9609 88.3165 81.4696 88.5272 82 88.5272H91.4199C91.7316 88.5271 92.039 88.4542 92.3176 88.3144C92.5961 88.1745 92.8382 87.9715 93.0244 87.7216C93.0421 87.6978 93.0516 87.6701 93.0681 87.6457C92.5876 86.1569 92.2797 84.6178 92.1506 83.0587C91.1589 81.1753 89.8009 79.5091 88.1562 78.1579C86.5115 76.8067 84.6133 75.7979 82.5732 75.1906ZM84 84.5271V80.1313C85.8268 81.1838 87.3432 82.7002 88.3955 84.5271H84ZM77.8105 48.1441C77.7514 47.7115 77.5522 47.3101 77.2434 47.0013C76.9346 46.6925 76.5332 46.4933 76.1005 46.4341C70.6191 45.687 65.7266 47.1499 62.3154 50.5603C58.9052 53.9707 57.4404 58.8664 58.1894 64.3462C58.2485 64.7789 58.4477 65.1803 58.7565 65.4891C59.0653 65.7979 59.4667 65.9971 59.8994 66.0563C60.8123 66.1824 61.7327 66.2463 62.6543 66.2477C64.6879 66.2999 66.7113 65.9448 68.6056 65.2034C70.4999 64.4619 72.2268 63.3489 73.6845 61.9301C77.0947 58.5197 78.5596 53.624 77.8105 48.1441ZM70.8565 59.1018C69.6846 60.215 68.2915 61.0691 66.7678 61.6085C65.2441 62.1479 63.624 62.3606 62.0127 62.2328C61.8427 60.6185 62.0356 58.9866 62.5773 57.4565C63.1189 55.9263 63.9957 54.5365 65.1434 53.3887C66.2912 52.2409 67.6809 51.3641 69.211 50.8223C70.7412 50.2806 72.373 50.0876 73.9873 50.2575C74.1145 51.8688 73.9015 53.4888 73.3621 55.0125C72.8228 56.5361 71.9691 57.9294 70.8565 59.1018Z" fill="#923144"/>
<path d="M21.8252 73.0098C22.1584 73.412 22.5317 73.7792 22.9395 74.1056C22.2749 76.1347 22.1225 78.2967 22.4959 80.3991C22.8692 82.5014 23.7566 84.4788 25.0791 86.1551C25.8027 87.0285 26.6494 87.7921 27.5928 88.4218C27.6066 88.7002 27.6361 88.9735 27.6646 89.2471H31.6887C31.598 88.6139 31.5607 87.9742 31.5772 87.3348C31.5866 86.9651 31.4932 86.6001 31.3076 86.2802C31.1219 85.9604 30.8511 85.6984 30.5254 85.5232C29.6207 85.0436 28.818 84.3924 28.1621 83.6061C26.1299 81.147 25.7686 77.5638 27.1963 74.0216C27.3852 73.5535 27.39 73.0312 27.2097 72.5597C27.0295 72.0882 26.6776 71.7023 26.2246 71.4795C25.7187 71.2368 25.2701 70.8897 24.9082 70.4609C24.5562 70.0138 24.2969 69.501 24.1455 68.9524C23.9941 68.4039 23.9536 67.8307 24.0264 67.2664C24.2901 65.3192 25.3113 63.5547 26.8682 62.3559C29.7373 60.0257 33.5274 59.887 35.3145 62.0502C35.6652 62.4814 35.919 62.983 36.0586 63.521C36.1905 64.0046 36.4988 64.4212 36.9227 64.6887C37.3466 64.9563 37.8553 65.0554 38.3486 64.9664C42.1533 64.2701 45.6347 65.3307 47.6738 67.7976C48.3196 68.5867 48.8049 69.4944 49.1025 70.4697C49.2122 70.8207 49.4165 71.1346 49.693 71.377C49.9696 71.6195 50.3076 71.7809 50.6699 71.8437C53.0835 72.2048 55.2846 73.4277 56.8662 75.2863C58.2296 76.9772 58.9925 79.0731 59.0351 81.2447C59.0457 81.5315 59.1179 81.8127 59.2468 82.0692C59.3757 82.3257 59.5583 82.5514 59.7822 82.7311C60.1987 83.0584 60.5809 83.4271 60.9228 83.8317C62.1497 85.3652 62.793 87.284 62.7384 89.2471H66.731C66.7922 86.3537 65.8268 83.5321 64.0059 81.2828C63.687 80.8992 63.3421 80.5379 62.9737 80.2017C62.7411 77.466 61.6872 74.8645 59.9502 72.7383C58.0313 70.4425 55.4195 68.8309 52.5069 68.1453C52.0678 67.1002 51.4786 66.1247 50.7579 65.2496C49.3496 63.63 47.5669 62.379 45.5648 61.6056C43.5627 60.8322 41.402 60.5597 39.2706 60.8119C39.0256 60.3458 38.733 59.9063 38.3976 59.5003C35.2169 55.6524 28.9132 55.5411 24.3468 59.2513C21.9627 61.1231 20.4165 63.8625 20.046 66.8709C19.9199 67.961 20.0123 69.0654 20.3177 70.1194C20.6232 71.1735 21.1357 72.1561 21.8252 73.0098Z" fill="#2D4356"/>
<path d="M36.4307 87.9316C36.4368 88.4192 36.6223 88.8875 36.9517 89.2471H51.7049L50.1697 87.3892L50.6484 78.5756C50.6772 78.0459 50.4944 77.5266 50.1402 77.1317C49.786 76.7369 49.2894 76.4989 48.7598 76.4701C48.2301 76.4414 47.7107 76.6242 47.3159 76.9784C46.921 77.3326 46.6831 77.8291 46.6543 78.3588L46.4108 82.84L41.3506 76.7161C41.1832 76.5136 40.9776 76.3461 40.7455 76.2231C40.5134 76.1 40.2593 76.0239 39.9977 75.9991C39.7362 75.9742 39.4723 76.0012 39.2212 76.0783C38.9701 76.1554 38.7366 76.2813 38.5341 76.4486C38.3316 76.616 38.164 76.8216 38.041 77.0538C37.918 77.2859 37.8419 77.54 37.817 77.8015C37.7922 78.063 37.8191 78.3269 37.8962 78.578C37.9734 78.8292 38.0992 79.0626 38.2666 79.2651L43.7158 85.8597L38.4111 85.912C37.8807 85.9172 37.3741 86.1329 37.0027 86.5117C36.6313 86.8904 36.4255 87.4012 36.4307 87.9316ZM53.5967 86.7607L53.4616 89.2471H57.4676L57.5908 86.9775C57.6196 86.4478 57.4368 85.9284 57.0826 85.5336C56.7284 85.1387 56.2318 84.9007 55.7022 84.872C55.1725 84.8432 54.6531 85.0261 54.2583 85.3803C53.8634 85.7345 53.6254 86.231 53.5967 86.7607ZM111.688 89.2471H115.745C115.33 86.0844 113.895 83.1432 111.657 80.8697C108.266 77.4789 103.401 76.0179 97.9502 76.767C97.5176 76.8261 97.1162 77.0253 96.8074 77.3341C96.4986 77.6429 96.2994 78.0443 96.2402 78.477C95.64 82.1739 96.2945 85.9654 98.0995 89.2471H103.073C102.004 88.0884 101.185 86.7217 100.667 85.2323C100.149 83.7428 99.9434 82.1627 100.063 80.5904C101.661 80.4675 103.266 80.6806 104.775 81.2158C106.285 81.7511 107.666 82.5966 108.829 83.6979C110.317 85.2189 111.314 87.1524 111.688 89.2471ZM129.466 76.4485C129.056 76.1114 128.53 75.9503 128.002 76.0005C127.474 76.0506 126.988 76.308 126.649 76.7162L121.589 82.84L121.346 78.3588C121.331 78.0965 121.266 77.8396 121.152 77.6028C121.039 77.3659 120.88 77.1538 120.684 76.9784C120.489 76.803 120.26 76.6679 120.013 76.5806C119.765 76.4934 119.502 76.4559 119.24 76.4701C118.978 76.4843 118.721 76.5501 118.484 76.6636C118.247 76.7771 118.035 76.9362 117.86 77.1317C117.684 77.3272 117.549 77.5553 117.462 77.8031C117.375 78.0508 117.337 78.3133 117.352 78.5756L117.546 82.1477C118.736 84.3493 119.489 86.7598 119.766 89.2471H131.048C131.308 88.9626 131.48 88.6088 131.543 88.2286C131.606 87.8485 131.557 87.4582 131.402 87.1052C131.248 86.7522 130.994 86.4516 130.672 86.2398C130.351 86.028 129.974 85.9141 129.589 85.912L124.284 85.8597L129.733 79.2651C130.071 78.8559 130.232 78.3295 130.182 77.8015C130.132 77.2734 129.874 76.7868 129.466 76.4485Z" fill="#923144"/>
<path d="M143.653 59.2523C139.086 55.5382 132.784 55.6524 129.604 59.4994C129.268 59.9058 128.975 60.3456 128.73 60.8119C126.598 60.5598 124.437 60.8324 122.435 61.606C120.433 62.3796 118.65 63.6308 117.242 65.2506C116.521 66.1252 115.932 67.1004 115.493 68.1453C112.581 68.8309 109.969 70.4421 108.05 72.7374C107.804 73.0355 107.575 73.3461 107.358 73.6634C108.651 74.0986 109.894 74.6746 111.062 75.3809C111.087 75.3498 111.108 75.3162 111.134 75.2854C112.716 73.4274 114.917 72.2049 117.33 71.8438C117.692 71.781 118.03 71.6195 118.307 71.3771C118.584 71.1346 118.788 70.8207 118.898 70.4697C119.195 69.4946 119.68 68.5872 120.326 67.7986C121.205 66.7988 122.295 66.0071 123.518 65.4809C124.741 64.9547 126.065 64.7073 127.396 64.7565C128.152 64.7583 128.907 64.8286 129.651 64.9665C130.145 65.0552 130.653 64.956 131.077 64.6885C131.501 64.421 131.809 64.0045 131.941 63.5211C132.081 62.9827 132.335 62.4807 132.687 62.0493C134.473 59.8852 138.263 60.0258 141.132 62.3569C142.689 63.5552 143.71 65.3195 143.974 67.2664C144.047 67.8304 144.006 68.4033 143.855 68.9515C143.704 69.4997 143.445 70.0122 143.093 70.459C142.731 70.8888 142.282 71.2366 141.775 71.4796C141.322 71.7024 140.971 72.0883 140.79 72.5598C140.61 73.0313 140.615 73.5536 140.804 74.0217C142.231 77.5639 141.87 81.1471 139.839 83.6062C139.182 84.3923 138.379 85.0434 137.475 85.5233C137.149 85.6985 136.878 85.9605 136.692 86.2803C136.507 86.6001 136.413 86.9652 136.423 87.3349C136.439 87.9743 136.402 88.614 136.311 89.2471H140.335C140.364 88.9736 140.393 88.7003 140.407 88.4219C141.351 87.7919 142.198 87.0284 142.922 86.1552C144.244 84.4787 145.132 82.5013 145.505 80.399C145.878 78.2967 145.725 76.1347 145.061 74.1057C145.469 73.7789 145.843 73.411 146.176 73.0079C146.865 72.1544 147.377 71.1722 147.683 70.1184C147.988 69.0647 148.08 67.9607 147.954 66.8709C147.584 63.8628 146.038 61.1236 143.653 59.2523Z" fill="#2D4356"/>
<path d="M111.524 48.7204C109.297 46.4981 106.28 45.25 103.133 45.25C99.9871 45.25 96.9693 46.4981 94.7422 48.7204C93.6452 49.8157 93.0201 51.2966 93.0005 52.8466C92.9809 54.3967 93.5683 55.8929 94.6373 57.0156L92.7783 58.8743C91.6414 60.015 91.0029 61.5599 91.0029 63.1704C91.0029 64.781 91.6414 66.3259 92.7783 67.4666L92.7793 67.4676C93.9199 68.6047 95.4648 69.2433 97.0754 69.2431C98.686 69.2429 100.231 68.604 101.371 67.4666L103.229 65.6081C104.352 66.6773 105.848 67.2649 107.398 67.2454C108.948 67.2259 110.429 66.6007 111.524 65.5035C113.746 63.2759 114.994 60.2582 114.994 57.112C114.994 53.9658 113.746 50.948 111.524 48.7204ZM98.543 64.6373C98.1538 65.0266 97.626 65.2453 97.0755 65.2454C96.5251 65.2455 95.9971 65.0269 95.6078 64.6377C95.2186 64.2486 94.9998 63.7207 94.9998 63.1702C94.9997 62.6198 95.2183 62.0919 95.6075 61.7026L97.4604 59.8494L100.396 62.7849L98.543 64.6373ZM108.696 62.6753C108.326 63.0298 107.833 63.2276 107.32 63.2276C106.807 63.2276 106.314 63.0298 105.943 62.6753L97.5703 54.3018C97.3895 54.121 97.2461 53.9064 97.1482 53.6703C97.0504 53.4341 97 53.1809 97 52.9253C97 52.6696 97.0504 52.4165 97.1482 52.1803C97.2461 51.9441 97.3895 51.7295 97.5703 51.5487C99.0458 50.0733 101.047 49.2445 103.134 49.2446C105.22 49.2446 107.221 50.0736 108.697 51.549C110.172 53.0245 111.001 55.0257 111.001 57.1122C111.001 59.1988 110.172 61.1999 108.696 62.6753Z" fill="#923144"/>
<path d="M95.0655 73.6719C91.0236 69.5663 85.6369 67.0557 79.8936 66.6008C74.1502 66.1459 68.4354 67.7771 63.7976 71.1952C64.5803 72.305 65.2299 73.5029 65.733 74.7642C69.6511 71.6923 74.5787 70.2013 79.5426 70.5857C84.5066 70.9701 89.1459 73.202 92.5442 76.8406C92.993 75.5246 93.884 74.4049 95.0655 73.6719Z" fill="#2D4356"/>
<path d="M70.0963 84.5271C70.4687 85.8301 70.6838 87.1731 70.7368 88.5273H74C74.5304 88.5273 75.0391 88.3165 75.4142 87.9414C75.7893 87.5664 76 87.0577 76 86.5272V77.1068C76.0001 76.7951 75.9273 76.4877 75.7875 76.2091C75.6477 75.9305 75.4446 75.6885 75.1946 75.5024C74.9447 75.3162 74.6546 75.1911 74.3477 75.137C74.0407 75.0828 73.7253 75.1012 73.4268 75.1906C71.0799 75.8925 68.9254 77.1234 67.1289 78.7886C67.9975 79.8603 68.7209 81.042 69.2803 82.303C70.076 81.4502 70.9923 80.7186 72 80.1314V84.5271H70.0963Z" fill="#923144"/>
<path d="M38.1104 36.75C38.7038 36.75 39.2838 36.5741 39.7771 36.2444C40.2705 35.9148 40.655 35.4462 40.882 34.898C41.1091 34.3499 41.1685 33.7467 41.0528 33.1647C40.937 32.5828 40.6513 32.0482 40.2317 31.6287C39.8122 31.2091 39.2776 30.9234 38.6957 30.8076C38.1137 30.6919 37.5105 30.7513 36.9624 30.9784C36.4142 31.2054 35.9456 31.5899 35.616 32.0833C35.2864 32.5766 35.1104 33.1567 35.1104 33.75C35.1113 34.5454 35.4277 35.3079 35.9901 35.8703C36.5525 36.4327 37.315 36.7491 38.1104 36.75ZM38.1104 32.25C38.4071 32.25 38.6971 32.338 38.9438 32.5028C39.1904 32.6676 39.3827 32.9019 39.4962 33.176C39.6098 33.4501 39.6395 33.7517 39.5816 34.0426C39.5237 34.3336 39.3809 34.6009 39.1711 34.8107C38.9613 35.0204 38.694 35.1633 38.403 35.2212C38.1121 35.2791 37.8105 35.2493 37.5364 35.1358C37.2623 35.0223 37.028 34.83 36.8632 34.5834C36.6984 34.3367 36.6104 34.0467 36.6104 33.75C36.6108 33.3523 36.769 32.971 37.0502 32.6898C37.3314 32.4086 37.7127 32.2504 38.1104 32.25ZM159.11 52.4136C158.715 52.4136 158.328 52.5309 157.999 52.7507C157.67 52.9705 157.414 53.2828 157.263 53.6483C157.111 54.0137 157.072 54.4159 157.149 54.8038C157.226 55.1918 157.417 55.5481 157.696 55.8279C157.976 56.1076 158.332 56.298 158.72 56.3752C159.108 56.4524 159.51 56.4128 159.876 56.2614C160.241 56.11 160.554 55.8537 160.773 55.5248C160.993 55.1959 161.11 54.8092 161.11 54.4136C161.11 53.8834 160.899 53.375 160.524 53.0001C160.149 52.6252 159.641 52.4142 159.11 52.4136ZM159.11 55.4136C158.913 55.4136 158.719 55.355 158.555 55.2451C158.39 55.1352 158.262 54.979 158.187 54.7963C158.111 54.6136 158.091 54.4125 158.13 54.2185C158.168 54.0246 158.263 53.8464 158.403 53.7065C158.543 53.5667 158.721 53.4714 158.915 53.4329C159.109 53.3943 159.31 53.4141 159.493 53.4898C159.676 53.5654 159.832 53.6936 159.942 53.8581C160.052 54.0225 160.11 54.2159 160.11 54.4136C160.11 54.6788 160.005 54.933 159.817 55.1205C159.63 55.3079 159.376 55.4134 159.11 55.4136ZM8.88957 19.4136C8.49401 19.4136 8.10733 19.5309 7.77843 19.7507C7.44953 19.9705 7.19319 20.2828 7.04181 20.6483C6.89044 21.0137 6.85083 21.4159 6.928 21.8038C7.00517 22.1918 7.19565 22.5481 7.47536 22.8279C7.75506 23.1076 8.11143 23.298 8.49939 23.3752C8.88735 23.4524 9.28949 23.4128 9.65494 23.2614C10.0204 23.11 10.3327 22.8537 10.5525 22.5248C10.7723 22.1959 10.8896 21.8092 10.8896 21.4136C10.889 20.8834 10.6781 20.375 10.3031 20.0001C9.92818 19.6252 9.41982 19.4142 8.88957 19.4136ZM8.88957 22.4136C8.69179 22.4136 8.49845 22.355 8.334 22.2451C8.16955 22.1352 8.04138 21.979 7.96569 21.7963C7.89001 21.6136 7.8702 21.4125 7.90879 21.2185C7.94737 21.0246 8.04261 20.8464 8.18247 20.7065C8.32232 20.5667 8.5005 20.4714 8.69448 20.4329C8.88846 20.3943 9.08953 20.4141 9.27226 20.4898C9.45498 20.5654 9.61116 20.6936 9.72104 20.8581C9.83092 21.0225 9.88957 21.2159 9.88957 21.4136C9.88931 21.6788 9.78387 21.933 9.59639 22.1205C9.40891 22.3079 9.15471 22.4134 8.88957 22.4136ZM116.89 12.75C116.494 12.75 116.107 12.8673 115.778 13.0871C115.45 13.3068 115.193 13.6192 115.042 13.9846C114.89 14.3501 114.851 14.7522 114.928 15.1402C115.005 15.5281 115.196 15.8845 115.475 16.1642C115.755 16.4439 116.111 16.6344 116.499 16.7116C116.887 16.7887 117.289 16.7491 117.655 16.5978C118.02 16.4464 118.333 16.19 118.553 15.8611C118.772 15.5322 118.89 15.1456 118.89 14.75C118.889 14.2198 118.678 13.7114 118.303 13.3365C117.928 12.9615 117.42 12.7506 116.89 12.75ZM116.89 15.75C116.692 15.75 116.498 15.6914 116.334 15.5815C116.17 15.4716 116.041 15.3154 115.966 15.1327C115.89 14.95 115.87 14.7489 115.909 14.5549C115.947 14.3609 116.043 14.1827 116.182 14.0429C116.322 13.903 116.5 13.8078 116.694 13.7692C116.888 13.7306 117.09 13.7504 117.272 13.8261C117.455 13.9018 117.611 14.03 117.721 14.1944C117.831 14.3589 117.89 14.5522 117.89 14.75C117.889 15.0151 117.784 15.2693 117.596 15.4568C117.409 15.6443 117.155 15.7497 116.89 15.75ZM87.8896 41.4136C87.8896 41.0181 87.7723 40.6314 87.5525 40.3025C87.3328 39.9736 87.0204 39.7173 86.6549 39.5659C86.2895 39.4145 85.8874 39.3749 85.4994 39.4521C85.1114 39.5292 84.7551 39.7197 84.4754 39.9994C84.1957 40.2791 84.0052 40.6355 83.928 41.0235C83.8508 41.4114 83.8904 41.8136 84.0418 42.179C84.1932 42.5445 84.4495 42.8568 84.7784 43.0766C85.1073 43.2963 85.494 43.4136 85.8896 43.4136C86.4198 43.413 86.9282 43.2021 87.3031 42.8272C87.6781 42.4522 87.889 41.9439 87.8896 41.4136ZM84.8896 41.4136C84.8896 41.2159 84.9482 41.0225 85.0581 40.8581C85.168 40.6936 85.3242 40.5654 85.5069 40.4898C85.6896 40.4141 85.8907 40.3943 86.0847 40.4329C86.2786 40.4714 86.4568 40.5667 86.5967 40.7065C86.7365 40.8464 86.8318 41.0246 86.8704 41.2185C86.9089 41.4125 86.8891 41.6136 86.8135 41.7963C86.7378 41.979 86.6096 42.1352 86.4451 42.2451C86.2807 42.355 86.0874 42.4136 85.8896 42.4136C85.6244 42.4134 85.3702 42.3079 85.1828 42.1205C84.9953 41.933 84.8898 41.6788 84.8896 41.4136Z" fill="#2D4356"/>
<path d="M16.303 55.425L17.79 53.469L16.851 52.938L15.897 55.127H15.865L14.895 52.953L13.94 53.501L15.411 55.41V55.441L13.11 55.143V56.207L15.426 55.91V55.942L13.94 57.85L14.831 58.414L15.849 56.207H15.88L16.819 58.398L17.805 57.835L16.303 55.957V55.926L18.665 56.207V55.143L16.303 55.456V55.425Z" fill="#923144"/>
<path d="M62.781 16.48L61.925 17.579L62.439 17.904L63.025 16.633H63.043L63.583 17.895L64.151 17.57L63.286 16.489V16.471L64.646 16.633V16.021L63.286 16.201V16.183L64.142 15.057L63.602 14.75L63.052 16.011H63.034L62.476 14.759L61.925 15.075L62.773 16.174V16.192L61.448 16.021V16.633L62.781 16.462V16.48Z" fill="#923144"/>
<path d="M122.614 39.441V38.398L120.297 38.705V38.674L121.755 36.756L120.834 36.234L119.898 38.382H119.867L118.916 36.249L117.979 36.786L119.422 38.659V38.69L117.165 38.398V39.441L119.437 39.15V39.181L117.979 41.053L118.854 41.606L119.852 39.441H119.882L120.803 41.59L121.77 41.038L120.297 39.196V39.165L122.614 39.441Z" fill="#923144"/>
<path d="M151.333 19.999L152.591 18.345L151.796 17.895L150.989 19.748H150.962L150.142 17.908L149.333 18.371L150.578 19.987V20.013L148.632 19.761V20.661L150.591 20.41V20.437L149.333 22.051L150.088 22.528L150.949 20.661H150.975L151.769 22.515L152.604 22.038L151.333 20.449V20.423L153.331 20.661V19.761L151.333 20.026V19.999Z" fill="#923144"/>
<path d="M2 141.25C3.10457 141.25 4 140.355 4 139.25C4 138.145 3.10457 137.25 2 137.25C0.89543 137.25 0 138.145 0 139.25C0 140.355 0.89543 141.25 2 141.25Z" fill="#2D4356"/>
<path d="M11 137.25H8C7.46957 137.25 6.96086 137.461 6.58579 137.836C6.21071 138.211 6 138.72 6 139.25C6 139.78 6.21071 140.289 6.58579 140.664C6.96086 141.039 7.46957 141.25 8 141.25H11C11.5304 141.25 12.0391 141.039 12.4142 140.664C12.7893 140.289 13 139.78 13 139.25C13 138.72 12.7893 138.211 12.4142 137.836C12.0391 137.461 11.5304 137.25 11 137.25ZM160 137.25H157C156.47 137.25 155.961 137.461 155.586 137.836C155.211 138.211 155 138.72 155 139.25C155 139.78 155.211 140.289 155.586 140.664C155.961 141.039 156.47 141.25 157 141.25H160C160.53 141.25 161.039 141.039 161.414 140.664C161.789 140.289 162 139.78 162 139.25C162 138.72 161.789 138.211 161.414 137.836C161.039 137.461 160.53 137.25 160 137.25Z" fill="#2D4356"/>
<path d="M166 141.25C167.105 141.25 168 140.355 168 139.25C168 138.145 167.105 137.25 166 137.25C164.895 137.25 164 138.145 164 139.25C164 140.355 164.895 141.25 166 141.25Z" fill="#2D4356"/>
<path d="M118.154 145.25H109.846C109.343 145.29 108.874 145.518 108.532 145.889C108.19 146.26 108 146.746 108 147.25C108 147.754 108.19 148.24 108.532 148.611C108.874 148.982 109.343 149.21 109.846 149.25H118.154C118.657 149.21 119.126 148.982 119.468 148.611C119.81 148.24 120 147.754 120 147.25C120 146.746 119.81 146.26 119.468 145.889C119.126 145.518 118.657 145.29 118.154 145.25ZM58.1539 145.25H49.8461C49.3433 145.29 48.8742 145.518 48.5321 145.889C48.1899 146.26 48 146.746 48 147.25C48 147.754 48.1899 148.24 48.5321 148.611C48.8742 148.982 49.3433 149.21 49.8461 149.25H58.1539C58.6566 149.21 59.1258 148.982 59.4679 148.611C59.81 148.24 60 147.754 60 147.25C60 146.746 59.81 146.26 59.4679 145.889C59.1258 145.518 58.6566 145.29 58.1539 145.25ZM104 145.25H64C63.4696 145.25 62.9609 145.461 62.5858 145.836C62.2107 146.211 62 146.72 62 147.25C62 147.78 62.2107 148.289 62.5858 148.664C62.9609 149.039 63.4696 149.25 64 149.25H79.94V151.25H72C71.4696 151.25 70.9609 151.461 70.5858 151.836C70.2107 152.211 70 152.72 70 153.25C70 153.78 70.2107 154.289 70.5858 154.664C70.9609 155.039 71.4696 155.25 72 155.25H97C97.5304 155.25 98.0391 155.039 98.4142 154.664C98.7893 154.289 99 153.78 99 153.25C99 152.72 98.7893 152.211 98.4142 151.836C98.0391 151.461 97.5304 151.25 97 151.25H88.06V149.25H104C104.53 149.25 105.039 149.039 105.414 148.664C105.789 148.289 106 147.78 106 147.25C106 146.72 105.789 146.211 105.414 145.836C105.039 145.461 104.53 145.25 104 145.25Z" fill="#923144"/>
<path d="M150.721 137.25H106.783C116.257 133.816 124.854 128.33 131.96 121.185C139.065 114.04 144.503 105.411 147.884 95.9183C147.992 95.6166 148.025 95.2933 147.982 94.9759C147.939 94.6584 147.819 94.356 147.635 94.0941C147.45 93.8323 147.205 93.6187 146.921 93.4713C146.636 93.3239 146.32 93.2471 146 93.2473H22C21.6796 93.2471 21.3638 93.3239 21.0793 93.4713C20.7948 93.6187 20.5499 93.8323 20.3652 94.0941C20.1805 94.356 20.0615 94.6584 20.0182 94.9758C19.9748 95.2933 20.0085 95.6166 20.1162 95.9183C23.4969 105.411 28.9347 114.04 36.0403 121.185C43.1459 128.33 51.7435 133.816 61.2175 137.25H17.2787C16.9942 137.213 16.705 137.237 16.4305 137.32C16.1559 137.404 15.9024 137.545 15.6867 137.734C15.4711 137.924 15.2983 138.157 15.18 138.418C15.0616 138.679 15.0004 138.963 15.0004 139.25C15.0004 139.537 15.0616 139.821 15.18 140.082C15.2983 140.343 15.4711 140.577 15.6867 140.766C15.9024 140.955 16.1559 141.096 16.4305 141.18C16.705 141.263 16.9942 141.287 17.2787 141.25H150.721C151.006 141.287 151.295 141.263 151.57 141.18C151.844 141.096 152.098 140.955 152.313 140.766C152.529 140.577 152.702 140.343 152.82 140.082C152.938 139.821 153 139.537 153 139.25C153 138.963 152.938 138.679 152.82 138.418C152.702 138.157 152.529 137.924 152.313 137.734C152.098 137.545 151.844 137.404 151.57 137.32C151.295 137.237 151.006 137.213 150.721 137.25ZM24.9023 97.2475H143.098C142.362 99.0566 141.54 100.814 140.655 102.528H27.3455C26.4601 100.814 25.6382 99.0566 24.9023 97.2475ZM29.5944 106.528H138.406C132.752 115.902 124.772 123.656 115.24 129.039C105.708 134.421 94.9468 137.25 84 137.25C73.0532 137.25 62.292 134.421 52.7599 129.039C43.2278 123.656 35.2481 115.902 29.5944 106.528Z" fill="#2D4356"/>
</svg>
