<svg width="168" height="168" viewBox="0 0 168 168" fill="none" xmlns="http://www.w3.org/2000/svg">
<path d="M85 18C85.5933 18 86.1734 17.8241 86.6667 17.4944C87.1601 17.1648 87.5446 16.6962 87.7716 16.1481C87.9987 15.5999 88.0581 14.9967 87.9424 14.4147C87.8266 13.8328 87.5409 13.2982 87.1213 12.8787C86.7018 12.4591 86.1672 12.1734 85.5853 12.0576C85.0033 11.9419 84.4001 12.0013 83.852 12.2284C83.3038 12.4554 82.8352 12.8399 82.5056 13.3333C82.1759 13.8266 82 14.4067 82 15C82 15.7957 82.3161 16.5587 82.8787 17.1213C83.4413 17.6839 84.2044 18 85 18ZM85 13.5C85.2967 13.5 85.5867 13.588 85.8334 13.7528C86.08 13.9176 86.2723 14.1519 86.3858 14.426C86.4993 14.7001 86.5291 15.0017 86.4712 15.2926C86.4133 15.5836 86.2704 15.8509 86.0607 16.0607C85.8509 16.2704 85.5836 16.4133 85.2926 16.4712C85.0017 16.5291 84.7001 16.4994 84.426 16.3858C84.1519 16.2723 83.9176 16.08 83.7528 15.8334C83.588 15.5867 83.5 15.2967 83.5 15C83.5 14.6022 83.658 14.2206 83.9393 13.9393C84.2206 13.658 84.6022 13.5 85 13.5ZM157 67C157.396 67 157.782 66.8827 158.111 66.6629C158.44 66.4432 158.696 66.1308 158.848 65.7654C158.999 65.3999 159.039 64.9978 158.962 64.6098C158.884 64.2219 158.694 63.8655 158.414 63.5858C158.135 63.3061 157.778 63.1156 157.39 63.0384C157.002 62.9613 156.6 63.0009 156.235 63.1522C155.869 63.3036 155.557 63.56 155.337 63.8889C155.117 64.2178 155 64.6044 155 65C155 65.5304 155.211 66.0391 155.586 66.4142C155.961 66.7893 156.47 67 157 67ZM157 64C157.198 64 157.391 64.0587 157.556 64.1685C157.72 64.2784 157.848 64.4346 157.924 64.6173C158 64.8 158.019 65.0011 157.981 65.1951C157.942 65.3891 157.847 65.5673 157.707 65.7071C157.567 65.847 157.389 65.9422 157.195 65.9808C157.001 66.0194 156.8 65.9996 156.617 65.9239C156.435 65.8482 156.278 65.72 156.169 65.5556C156.059 65.3911 156 65.1978 156 65C156 64.7348 156.105 64.4804 156.293 64.2929C156.48 64.1054 156.735 64 157 64ZM17 8C17 7.60444 16.8827 7.21776 16.6629 6.88886C16.4432 6.55996 16.1308 6.30362 15.7654 6.15224C15.3999 6.00087 14.9978 5.96126 14.6098 6.03843C14.2219 6.1156 13.8655 6.30608 13.5858 6.58579C13.3061 6.86549 13.1156 7.22186 13.0384 7.60982C12.9613 7.99778 13.0009 8.39992 13.1522 8.76537C13.3036 9.13082 13.56 9.44318 13.8889 9.66294C14.2178 9.8827 14.6044 10 15 10C15.5304 10 16.0391 9.78929 16.4142 9.41421C16.7893 9.03914 17 8.53043 17 8ZM14 8C14 7.80222 14.0587 7.60888 14.1685 7.44443C14.2784 7.27998 14.4346 7.15181 14.6173 7.07612C14.8 7.00043 15.0011 6.98063 15.1951 7.01922C15.3891 7.0578 15.5673 7.15304 15.7071 7.29289C15.847 7.43275 15.9422 7.61093 15.9808 7.80491C16.0194 7.99889 15.9996 8.19996 15.9239 8.38268C15.8482 8.56541 15.72 8.72159 15.5556 8.83147C15.3911 8.94135 15.1978 9 15 9C14.7348 9 14.4804 8.89464 14.2929 8.70711C14.1054 8.51957 14 8.26522 14 8ZM159 23C159.396 23 159.782 22.8827 160.111 22.6629C160.44 22.4432 160.696 22.1308 160.848 21.7654C160.999 21.3999 161.039 20.9978 160.962 20.6098C160.884 20.2219 160.694 19.8655 160.414 19.5858C160.135 19.3061 159.778 19.1156 159.39 19.0384C159.002 18.9613 158.6 19.0009 158.235 19.1522C157.869 19.3036 157.557 19.56 157.337 19.8889C157.117 20.2178 157 20.6044 157 21C157 21.5304 157.211 22.0391 157.586 22.4142C157.961 22.7893 158.47 23 159 23ZM159 20C159.198 20 159.391 20.0586 159.556 20.1685C159.72 20.2784 159.848 20.4346 159.924 20.6173C160 20.8 160.019 21.0011 159.981 21.1951C159.942 21.3891 159.847 21.5673 159.707 21.7071C159.567 21.847 159.389 21.9422 159.195 21.9808C159.001 22.0194 158.8 21.9996 158.617 21.9239C158.435 21.8482 158.278 21.72 158.169 21.5556C158.059 21.3911 158 21.1978 158 21C158 20.7348 158.105 20.4804 158.293 20.2929C158.48 20.1054 158.735 20 159 20ZM30 52C30.3956 52 30.7822 51.8827 31.1111 51.6629C31.44 51.4432 31.6964 51.1308 31.8478 50.7654C31.9991 50.3999 32.0387 49.9978 31.9616 49.6098C31.8844 49.2219 31.6939 48.8655 31.4142 48.5858C31.1345 48.3061 30.7781 48.1156 30.3902 48.0384C30.0022 47.9613 29.6001 48.0009 29.2346 48.1522C28.8692 48.3036 28.5568 48.56 28.3371 48.8889C28.1173 49.2178 28 49.6044 28 50C28 50.5304 28.2107 51.0391 28.5858 51.4142C28.9609 51.7893 29.4696 52 30 52ZM30 49C30.1978 49 30.3911 49.0586 30.5556 49.1685C30.72 49.2784 30.8482 49.4346 30.9239 49.6173C30.9996 49.8 31.0194 50.0011 30.9808 50.1951C30.9422 50.3891 30.847 50.5673 30.7071 50.7071C30.5673 50.847 30.3891 50.9422 30.1951 50.9808C30.0011 51.0194 29.8 50.9996 29.6173 50.9239C29.4346 50.8482 29.2784 50.72 29.1685 50.5556C29.0587 50.3911 29 50.1978 29 50C29 49.7348 29.1054 49.4804 29.2929 49.2929C29.4804 49.1054 29.7348 49 30 49Z" fill="#2D4356"/>
<path d="M2 148C3.10457 148 4 147.105 4 146C4 144.895 3.10457 144 2 144C0.89543 144 0 144.895 0 146C0 147.105 0.89543 148 2 148Z" fill="#2D4356"/>
<path d="M11 144H8C7.46957 144 6.96086 144.211 6.58579 144.586C6.21071 144.961 6 145.47 6 146C6 146.53 6.21071 147.039 6.58579 147.414C6.96086 147.789 7.46957 148 8 148H11C11.5304 148 12.0391 147.789 12.4142 147.414C12.7893 147.039 13 146.53 13 146C13 145.47 12.7893 144.961 12.4142 144.586C12.0391 144.211 11.5304 144 11 144ZM160 144H157C156.47 144 155.961 144.211 155.586 144.586C155.211 144.961 155 145.47 155 146C155 146.53 155.211 147.039 155.586 147.414C155.961 147.789 156.47 148 157 148H160C160.53 148 161.039 147.789 161.414 147.414C161.789 147.039 162 146.53 162 146C162 145.47 161.789 144.961 161.414 144.586C161.039 144.211 160.53 144 160 144Z" fill="#2D4356"/>
<path d="M166 148C167.105 148 168 147.105 168 146C168 144.895 167.105 144 166 144C164.895 144 164 144.895 164 146C164 147.105 164.895 148 166 148Z" fill="#2D4356"/>
<path d="M150.721 144H17.2791C16.9945 143.963 16.7053 143.987 16.4308 144.07C16.1563 144.154 15.9027 144.295 15.6871 144.484C15.4714 144.673 15.2987 144.907 15.1803 145.168C15.062 145.429 15.0007 145.713 15.0007 146C15.0007 146.287 15.062 146.57 15.1803 146.832C15.2987 147.093 15.4714 147.326 15.6871 147.516C15.9027 147.705 16.1563 147.846 16.4308 147.93C16.7053 148.013 16.9945 148.037 17.2791 148H150.721C151.006 148.037 151.295 148.013 151.569 147.93C151.844 147.846 152.097 147.705 152.313 147.516C152.529 147.326 152.701 147.093 152.82 146.832C152.938 146.57 152.999 146.287 152.999 146C152.999 145.713 152.938 145.429 152.82 145.168C152.701 144.907 152.529 144.673 152.313 144.484C152.097 144.295 151.844 144.154 151.569 144.07C151.295 143.987 151.006 143.963 150.721 144Z" fill="#2D4356"/>
<path d="M54.001 66C55.1055 66 56.001 65.1046 56.001 64C56.001 62.8954 55.1055 62 54.001 62C52.8964 62 52.001 62.8954 52.001 64C52.001 65.1046 52.8964 66 54.001 66Z" fill="#923144"/>
<path d="M74 33.327C74 37.674 79.564 39.251 85.455 40.92C88.23 41.706 94 43.342 94 44.664C94 45.986 88.227 47.623 85.454 48.409C79.565 50.078 74 51.654 74 56C74 56.5304 74.2107 57.0391 74.5858 57.4142C74.9609 57.7893 75.4696 58 76 58C76.5304 58 77.0391 57.7893 77.4142 57.4142C77.7893 57.0391 78 56.5304 78 56C78 54.679 83.771 53.043 86.543 52.258C92.436 50.588 98 49.011 98 44.664C98 40.317 92.436 38.741 86.545 37.072C83.773 36.286 78 34.649 78 33.327C78 32.005 83.772 30.373 86.545 29.587C92.437 27.919 98 26.344 98 22C98 21.4696 97.7893 20.9609 97.4142 20.5858C97.0391 20.2107 96.5304 20 96 20C95.4696 20 94.9609 20.2107 94.5858 20.5858C94.2107 20.9609 94 21.4696 94 22C94 23.319 88.229 24.953 85.456 25.738C79.566 27.407 74 28.982 74 33.327Z" fill="#2D4356"/>
<path d="M63.454 48.409C57.564 50.078 52 51.654 52 56C52 56.5304 52.2107 57.0391 52.5858 57.4142C52.9609 57.7893 53.4696 58 54 58C54.5304 58 55.0391 57.7893 55.4142 57.4142C55.7893 57.0391 56 56.5304 56 56C56 54.679 61.771 53.043 64.544 52.258C70.436 50.588 76 49.011 76 44.664C76 40.317 70.436 38.741 64.545 37.072C61.773 36.286 56 34.649 56 33.327C56 32.005 61.772 30.373 64.545 29.587C70.437 27.919 76 26.344 76 22C76 21.4696 75.7893 20.9609 75.4142 20.5858C75.0391 20.2107 74.5304 20 74 20C73.4696 20 72.9609 20.2107 72.5858 20.5858C72.2107 20.9609 72 21.4696 72 22C72 23.319 66.229 24.953 63.456 25.738C57.565 27.407 52 28.982 52 33.327C52 37.672 57.565 39.251 63.456 40.92C66.23 41.706 72 43.342 72 44.664C72 45.986 66.228 47.623 63.454 48.409Z" fill="#2D4356"/>
<path d="M38 140C39.1046 140 40 139.105 40 138C40 136.895 39.1046 136 38 136C36.8954 136 36 136.895 36 138C36 139.105 36.8954 140 38 140Z" fill="#2D4356"/>
<path d="M122.002 140C123.107 140 124.002 139.105 124.002 138C124.002 136.895 123.107 136 122.002 136C120.897 136 120.002 136.895 120.002 138C120.002 139.105 120.897 140 122.002 140Z" fill="#2D4356"/>
<path d="M94 91C94 88.2311 93.1789 85.5243 91.6406 83.222C90.1022 80.9197 87.9157 79.1253 85.3576 78.0657C82.7994 77.0061 79.9845 76.7288 77.2687 77.269C74.553 77.8092 72.0584 79.1426 70.1005 81.1005C68.1426 83.0584 66.8092 85.553 66.269 88.2687C65.7288 90.9845 66.0061 93.7994 67.0657 96.3576C68.1253 98.9157 69.9197 101.102 72.222 102.641C74.5243 104.179 77.2311 105 80 105C83.713 105 87.274 103.525 89.8995 100.9C92.525 98.274 94 94.713 94 91ZM70 91C70 89.0222 70.5865 87.0888 71.6853 85.4443C72.7841 83.7998 74.3459 82.5181 76.1732 81.7612C78.0004 81.0043 80.0111 80.8063 81.9509 81.1922C83.8907 81.578 85.6725 82.5304 87.0711 83.9289C88.4696 85.3275 89.422 87.1093 89.8079 89.0491C90.1937 90.9889 89.9957 92.9996 89.2388 94.8268C88.4819 96.6541 87.2002 98.2159 85.5557 99.3147C83.9112 100.414 81.9778 101 80 101C77.3488 100.997 74.8071 99.9422 72.9324 98.0676C71.0578 96.1929 70.0032 93.6512 70 91Z" fill="#2D4356"/>
<path d="M31.1001 64.0001C30.5983 64.6637 30.2547 65.4332 30.0955 66.2498C29.9362 67.0664 29.9655 67.9085 30.1811 68.7121L43.0601 121.637C44.6741 127.389 48.1546 132.442 52.9541 136H46.0001C45.4696 136 44.9609 136.211 44.5858 136.586C44.2108 136.961 44.0001 137.47 44.0001 138C44.0001 138.531 44.2108 139.039 44.5858 139.414C44.9609 139.789 45.4696 140 46.0001 140H114C114.53 140 115.039 139.789 115.414 139.414C115.789 139.039 116 138.531 116 138C116 137.47 115.789 136.961 115.414 136.586C115.039 136.211 114.53 136 114 136H107.046C111.847 132.442 115.33 127.39 116.946 121.637L125.617 86.0001H133.469C133.706 85.9824 133.945 86.0187 134.166 86.1063C134.388 86.194 134.586 86.3306 134.747 86.5061C134.876 86.6937 134.961 86.908 134.996 87.1332C135.031 87.3583 135.014 87.5884 134.947 87.8061L129.077 111.241C128.842 112.008 128.378 112.683 127.746 113.177C127.115 113.671 126.347 113.958 125.546 114.001H124.2C123.67 114.001 123.161 114.212 122.786 114.587C122.411 114.962 122.2 115.471 122.2 116.001C122.2 116.532 122.411 117.04 122.786 117.415C123.161 117.79 123.67 118.001 124.2 118.001H125.547C127.243 117.959 128.881 117.371 130.216 116.325C131.552 115.279 132.515 113.831 132.963 112.194L138.834 88.7591C139.062 87.9482 139.095 87.0946 138.929 86.2687C138.763 85.4428 138.403 84.6681 137.879 84.0083C137.355 83.3485 136.683 82.8224 135.916 82.4732C135.149 82.1241 134.311 81.962 133.469 82.0001H126.59L129.823 68.7121C130.055 67.9122 130.093 67.0687 129.934 66.2511C129.776 65.4335 129.425 64.6653 128.912 64.0098C128.398 63.3543 127.736 62.8302 126.98 62.4808C126.224 62.1314 125.396 61.9666 124.564 62.0001H62.0001C61.4696 62.0001 60.9609 62.2108 60.5858 62.5859C60.2108 62.961 60.0001 63.4697 60.0001 64.0001C60.0001 64.5305 60.2108 65.0392 60.5858 65.4143C60.9609 65.7894 61.4696 66.0001 62.0001 66.0001H124.563C124.786 65.9826 125.01 66.016 125.217 66.0978C125.425 66.1796 125.612 66.3076 125.763 66.4721C125.889 66.6605 125.97 66.8749 126.001 67.0992C126.031 67.3235 126.011 67.5518 125.941 67.7671L114.2 116H45.8001L34.0651 67.7671C33.9949 67.5519 33.9744 67.3236 34.0051 67.0993C34.0357 66.875 34.1168 66.6606 34.2421 66.4721C34.3932 66.3076 34.5798 66.1797 34.7877 66.0979C34.9956 66.0161 35.2194 65.9827 35.4421 66.0001H46.0001C46.5305 66.0001 47.0392 65.7894 47.4143 65.4143C47.7893 65.0392 48.0001 64.5305 48.0001 64.0001C48.0001 63.4697 47.7893 62.961 47.4143 62.5859C47.0392 62.2108 46.5305 62.0001 46.0001 62.0001H35.4381C34.6105 61.9818 33.7897 62.1524 33.038 62.499C32.2863 62.8456 31.6236 63.3589 31.1001 64.0001ZM113.229 120L113.061 120.691C111.3 127.918 103.705 136 96.1741 136H63.8271C56.2961 136 48.7021 127.918 46.9431 120.691L46.7761 120H113.229Z" fill="#2D4356"/>
<path d="M7.58299 73.011L9.06999 71.056L8.13099 70.524L7.17699 72.714H7.14499L6.17499 70.539L5.21999 71.087L6.69099 72.996V73.027L4.39099 72.73V73.794L6.70699 73.497V73.528L5.21999 75.436L6.11199 76L7.12999 73.794H7.15999L8.09899 75.984L9.08499 75.421L7.58299 73.543V73.512L9.94499 73.794V72.73L7.58299 73.042V73.011ZM40.281 16.769L41.137 15.643L40.597 15.337L40.047 16.598H40.029L39.471 15.345L38.92 15.661L39.768 16.76V16.778L38.443 16.607V17.22L39.777 17.049V17.067L38.92 18.166L39.434 18.49L40.02 17.22H40.038L40.578 18.481L41.146 18.157L40.281 17.075V17.057L41.641 17.22V16.607L40.281 16.787V16.769ZM119.683 38.946L121.142 37.028L120.221 36.506L119.285 38.654H119.253L118.302 36.521L117.365 37.059L118.808 38.931V38.962L116.552 38.67V39.713L118.823 39.422V39.453L117.365 41.325L118.24 41.878L119.238 39.713H119.268L120.189 41.862L121.156 41.31L119.683 39.468V39.437L122 39.713V38.67L119.683 38.977V38.946ZM124.442 8.24796V7.34796L122.443 7.61196V7.58596L123.701 5.93096L122.907 5.48096L122.099 7.33396H122.073L121.252 5.49396L120.444 5.95796L121.689 7.57296V7.59896L119.742 7.34796V8.24796L121.702 7.99596V8.02296L120.444 9.63796L121.198 10.115L122.06 8.24796H122.085L122.88 10.101L123.714 9.62496L122.443 8.03596V8.00896L124.442 8.24796ZM118.154 153H109.846C109.342 153.039 108.872 153.267 108.529 153.637C108.186 154.008 107.995 154.495 107.995 155C107.995 155.505 108.186 155.992 108.529 156.362C108.872 156.733 109.342 156.961 109.846 157H118.154C118.658 156.961 119.128 156.733 119.471 156.362C119.814 155.992 120.005 155.505 120.005 155C120.005 154.495 119.814 154.008 119.471 153.637C119.128 153.267 118.658 153.039 118.154 153ZM58.154 153H49.846C49.3423 153.039 48.8719 153.267 48.5288 153.637C48.1856 154.008 47.995 154.495 47.995 155C47.995 155.505 48.1856 155.992 48.5288 156.362C48.8719 156.733 49.3423 156.961 49.846 157H58.154C58.6577 156.961 59.1281 156.733 59.4712 156.362C59.8143 155.992 60.005 155.505 60.005 155C60.005 154.495 59.8143 154.008 59.4712 153.637C59.1281 153.267 58.6577 153.039 58.154 153ZM104 153H64C63.4696 153 62.9609 153.211 62.5858 153.586C62.2107 153.961 62 154.47 62 155C62 155.53 62.2107 156.039 62.5858 156.414C62.9609 156.789 63.4696 157 64 157H79.94V159H72C71.4696 159 70.9609 159.211 70.5858 159.586C70.2107 159.961 70 160.47 70 161C70 161.53 70.2107 162.039 70.5858 162.414C70.9609 162.789 71.4696 163 72 163H97C97.5304 163 98.0391 162.789 98.4142 162.414C98.7893 162.039 99 161.53 99 161C99 160.47 98.7893 159.961 98.4142 159.586C98.0391 159.211 97.5304 159 97 159H88.06V157H104C104.53 157 105.039 156.789 105.414 156.414C105.789 156.039 106 155.53 106 155C106 154.47 105.789 153.961 105.414 153.586C105.039 153.211 104.53 153 104 153Z" fill="#923144"/>
</svg>
