<svg width="326" height="326" viewBox="0 0 326 326" fill="none" xmlns="http://www.w3.org/2000/svg">
<g clip-path="url(#clip0_10_187)">
<path d="M14.0722 149.958C17.096 144.255 21.723 139.562 27.3825 136.458C33.042 133.354 39.4863 131.975 45.9205 132.491C52.3546 133.007 58.497 135.395 63.5899 139.36C68.6828 143.326 72.5033 148.696 74.5802 154.807C78.393 152.142 82.8636 150.573 87.5057 150.272C92.1479 149.97 96.7838 150.948 100.909 153.097C105.035 155.247 108.492 158.486 110.905 162.464C113.317 166.441 114.593 171.004 114.593 175.656L114.639 203.454C118.394 201.26 122.523 199.782 126.817 199.093C123.739 196.023 121.298 192.376 119.633 188.36C117.968 184.344 117.112 180.039 117.115 175.692V165.501C117.107 157.661 119.884 150.072 124.95 144.089C130.016 138.106 137.043 134.116 144.777 132.832C152.511 131.548 160.45 133.052 167.179 137.077C173.907 141.102 178.987 147.385 181.513 154.807C185.326 152.142 189.796 150.573 194.439 150.272C199.081 149.97 203.717 150.948 207.842 153.097C211.968 155.247 215.425 158.486 217.837 162.464C220.25 166.441 221.526 171.004 221.526 175.656L221.582 209.436C226.909 203.95 233.865 200.332 241.414 199.118C238.328 196.047 235.881 192.396 234.211 188.376C232.542 184.356 231.684 180.045 231.686 175.692V165.501C231.678 157.661 234.455 150.072 239.521 144.089C244.588 138.106 251.615 134.116 259.349 132.832C267.083 131.548 275.022 133.052 281.75 137.077C288.479 141.102 293.559 147.385 296.085 154.807C301.146 151.237 307.348 149.664 313.498 150.392C316.581 140.397 318.636 130.115 319.633 119.703C321.543 80.2266 299.258 24.1953 230.492 20.375C161.727 16.5547 163 43.2969 163 43.2969C163 43.2969 122.25 3.82031 59.2149 28.0156C-3.82025 52.2109 5.73053 130.527 5.73053 130.527C5.73053 130.527 9.20604 138.676 14.0722 149.958Z" fill="#FC785E"/>
<path d="M104.866 41.2237C104.867 39.8728 104.331 38.577 103.376 37.6215C102.421 36.6659 101.125 36.1289 99.7743 36.1284C89.231 36.0584 78.7786 38.0817 69.0229 42.081C59.2673 46.0804 50.4025 51.9763 42.9422 59.4269C41.9868 60.3821 41.4499 61.6777 41.4497 63.0288C41.4495 64.3798 41.986 65.6756 42.9412 66.631C43.8964 67.5865 45.192 68.1234 46.543 68.1235C47.8941 68.1237 49.1898 67.5872 50.1453 66.632C56.6621 60.1308 64.4044 54.9876 72.9237 51.5007C81.4429 48.0139 90.5694 46.2526 99.7744 46.3191C101.125 46.3186 102.421 45.7815 103.376 44.826C104.331 43.8704 104.867 42.5746 104.866 41.2237ZM277.791 67.2192C278.806 67.2186 279.798 66.9147 280.639 66.3466C281.48 65.7785 282.133 64.9721 282.512 64.0307C282.892 63.0893 282.982 62.0559 282.771 61.063C282.56 60.0701 282.057 59.163 281.326 58.458C266.066 43.707 245.65 35.495 224.426 35.57C223.074 35.57 221.778 36.1068 220.823 37.0624C219.867 38.0179 219.33 39.3139 219.33 40.6653C219.33 42.0166 219.867 43.3127 220.823 44.2682C221.778 45.2238 223.074 45.7606 224.426 45.7606C243.011 45.6908 260.889 52.8772 274.255 65.79C275.203 66.7084 276.471 67.2211 277.791 67.2192Z" fill="#2D4356"/>
<path d="M16.3453 146.327C12.3666 136.255 10.2794 125.535 10.1883 114.706C10.0508 103.111 12.2413 91.6074 16.6302 80.875C21.0191 70.1426 27.5171 60.4 35.7394 52.2243C44.1763 43.8518 54.1822 37.2261 65.1838 32.7267C76.1855 28.2273 87.9667 25.9426 99.8527 26.0036C121.345 25.9524 142.174 33.4404 158.714 47.1638C159.639 47.9355 160.808 48.3537 162.013 48.3437C163.218 48.3337 164.38 47.8961 165.292 47.1091C200.548 16.7411 254.623 18.505 288.4 51.126C296.943 59.2878 303.761 69.0807 308.452 79.925C313.142 90.7693 315.608 102.445 315.705 114.259C315.835 126.677 313.302 138.979 308.279 150.336C309.055 150.264 309.836 150.215 310.624 150.215C313.417 150.22 316.19 150.688 318.829 151.6C323.627 139.71 326.026 126.988 325.889 114.167C325.785 100.999 323.039 87.9855 317.814 75.8975C312.589 63.8096 304.992 52.8929 295.472 43.7939C277.756 26.8032 254.527 16.7397 230.015 15.4357C205.503 14.1318 181.337 21.6741 161.919 36.6895C121.886 6.09376 64.0939 9.42145 28.5363 45.0193C19.3545 54.1501 12.0983 65.0307 7.1973 77.0165C2.29633 89.0023 -0.149719 101.85 0.00401415 114.798C0.123886 130.134 3.83991 145.227 10.8534 158.866C11.7857 154.348 13.6568 150.076 16.3453 146.327Z" fill="#2D4356"/>
<path d="M264.799 142.574C258.722 142.583 252.897 145.001 248.6 149.298C244.304 153.595 241.886 159.419 241.877 165.496V175.683C241.877 181.759 244.29 187.586 248.587 191.883C252.883 196.179 258.71 198.593 264.786 198.593C270.862 198.593 276.689 196.179 280.985 191.883C285.281 187.586 287.695 181.759 287.695 175.683V165.496C287.692 159.422 285.279 153.598 280.987 149.3C276.694 145.003 270.872 142.584 264.799 142.574ZM277.508 175.683C277.508 179.057 276.167 182.293 273.782 184.679C271.396 187.065 268.16 188.405 264.786 188.405C261.412 188.405 258.176 187.065 255.79 184.679C253.405 182.293 252.064 179.057 252.064 175.683V165.496C252.064 162.122 253.405 158.886 255.79 156.5C258.176 154.115 261.412 152.774 264.786 152.774C268.16 152.774 271.396 154.115 273.782 156.5C276.167 158.886 277.508 162.122 277.508 165.496V175.683Z" fill="#2D4356"/>
<path d="M277.507 165.496V175.683C277.507 179.057 276.167 182.293 273.781 184.679C271.396 187.065 268.16 188.405 264.786 188.405C261.412 188.405 258.176 187.065 255.79 184.679C253.404 182.293 252.064 179.057 252.064 175.683V165.496C252.064 162.122 253.404 158.886 255.79 156.5C258.176 154.115 261.412 152.774 264.786 152.774C268.16 152.774 271.396 154.115 273.781 156.5C276.167 158.886 277.507 162.122 277.507 165.496Z" fill="#E1EBF4"/>
<path d="M150.215 142.574C144.138 142.583 138.313 145.001 134.017 149.298C129.72 153.595 127.302 159.419 127.293 165.496V175.683C127.293 178.694 127.886 181.674 129.038 184.455C130.19 187.236 131.878 189.763 134.007 191.892C136.135 194.02 138.662 195.709 141.443 196.86C144.224 198.012 147.205 198.605 150.215 198.605C153.225 198.605 156.206 198.012 158.987 196.86C161.768 195.709 164.294 194.02 166.423 191.892C168.551 189.763 170.24 187.236 171.392 184.455C172.544 181.674 173.137 178.694 173.137 175.683V165.496C173.127 159.419 170.71 153.595 166.413 149.298C162.116 145.001 156.291 142.583 150.215 142.574ZM162.949 175.683C162.949 179.061 161.607 182.3 159.219 184.688C156.831 187.076 153.592 188.418 150.215 188.418C146.837 188.418 143.598 187.076 141.21 184.688C138.822 182.3 137.48 179.061 137.48 175.683V165.496C137.48 162.119 138.822 158.88 141.21 156.491C143.598 154.103 146.837 152.762 150.215 152.762C153.592 152.762 156.831 154.103 159.219 156.491C161.607 158.88 162.949 162.119 162.949 165.496V175.683Z" fill="#2D4356"/>
<path d="M162.949 165.496V175.683C162.949 179.061 161.607 182.3 159.219 184.688C156.831 187.076 153.592 188.418 150.215 188.418C146.837 188.418 143.598 187.076 141.21 184.688C138.822 182.3 137.48 179.061 137.48 175.683V165.496C137.48 162.119 138.822 158.88 141.21 156.491C143.598 154.103 146.837 152.762 150.215 152.762C153.592 152.762 156.831 154.103 159.219 156.491C161.607 158.88 162.949 162.119 162.949 165.496Z" fill="#E1EBF4"/>
<path d="M43.2714 142.574C37.1976 142.584 31.3758 145.003 27.0834 149.3C22.7909 153.598 20.3784 159.422 20.375 165.496V175.683C20.375 178.692 20.9676 181.671 22.1189 184.45C23.2701 187.23 24.9576 189.755 27.0849 191.883C29.2122 194.01 31.7377 195.697 34.5172 196.849C37.2967 198 40.2757 198.593 43.2841 198.593C46.2926 198.593 49.2716 198 52.0511 196.849C54.8306 195.697 57.356 194.01 59.4833 191.883C61.6107 189.755 63.2981 187.23 64.4494 184.45C65.6007 181.671 66.1933 178.692 66.1933 175.683V165.496C66.1885 159.418 63.772 153.591 59.4743 149.293C55.1767 144.995 49.3492 142.579 43.2714 142.574ZM56.0058 175.683C56.0058 177.354 55.6767 179.008 55.0374 180.552C54.3981 182.095 53.461 183.498 52.2797 184.679C51.0984 185.86 49.696 186.797 48.1525 187.437C46.609 188.076 44.9548 188.405 43.2841 188.405C41.6135 188.405 39.9592 188.076 38.4158 187.437C36.8723 186.797 35.4699 185.86 34.2886 184.679C33.1073 183.498 32.1702 182.095 31.5309 180.552C30.8916 179.008 30.5625 177.354 30.5625 175.683V165.496C30.5625 163.825 30.8916 162.171 31.5309 160.628C32.1702 159.084 33.1073 157.682 34.2886 156.5C35.4699 155.319 36.8723 154.382 38.4158 153.743C39.9592 153.103 41.6135 152.774 43.2841 152.774C44.9548 152.774 46.609 153.103 48.1525 153.743C49.696 154.382 51.0984 155.319 52.2797 156.5C53.461 157.682 54.3981 159.084 55.0374 160.628C55.6767 162.171 56.0058 163.825 56.0058 165.496V175.683Z" fill="#2D4356"/>
<path d="M56.0058 165.496V175.683C56.0058 177.354 55.6767 179.008 55.0374 180.552C54.3981 182.095 53.461 183.498 52.2797 184.679C51.0984 185.86 49.696 186.797 48.1525 187.437C46.609 188.076 44.9548 188.405 43.2841 188.405C41.6135 188.405 39.9592 188.076 38.4158 187.437C36.8723 186.797 35.4699 185.86 34.2886 184.679C33.1073 183.498 32.1702 182.095 31.5309 180.552C30.8916 179.008 30.5625 177.354 30.5625 175.683V165.496C30.5625 163.825 30.8916 162.171 31.5309 160.628C32.1702 159.084 33.1073 157.682 34.2886 156.5C35.4699 155.319 36.8723 154.382 38.4158 153.743C39.9592 153.103 41.6135 152.774 43.2841 152.774C44.9548 152.774 46.609 153.103 48.1525 153.743C49.696 154.382 51.0984 155.319 52.2797 156.5C53.461 157.682 54.3981 159.084 55.0374 160.628C55.6767 162.171 56.0058 163.825 56.0058 165.496Z" fill="#E1EBF4"/>
<path d="M320.804 275.063H302.976V244.475H310.719C314.748 244.456 318.609 242.853 321.467 240.014C324.326 237.174 325.954 233.324 326 229.295L325.898 175.683C325.895 171.631 324.282 167.745 321.413 164.882C318.545 162.018 314.657 160.412 310.604 160.415C306.551 160.418 302.666 162.032 299.802 164.9C296.939 167.768 295.332 171.656 295.336 175.709V208.818H247.021C240.199 208.886 233.681 211.655 228.898 216.52C224.114 221.385 221.454 227.948 221.502 234.771V275.063H188.418V244.475H196.16C200.188 244.459 204.048 242.857 206.904 240.016C209.759 237.175 211.38 233.323 211.416 229.295L211.34 175.683C211.336 171.631 209.723 167.745 206.855 164.882C203.987 162.018 200.099 160.412 196.046 160.415C191.993 160.418 188.107 162.032 185.244 164.9C182.381 167.768 180.774 171.656 180.777 175.709V208.818H132.463C125.639 208.881 119.119 211.65 114.334 216.515C109.55 221.381 106.891 227.947 106.943 234.771V275.063H81.4745V244.475H89.217C93.2464 244.455 97.1069 242.853 99.9656 240.014C102.824 237.174 104.452 233.324 104.498 229.295L104.396 175.683C104.393 171.631 102.78 167.745 99.9116 164.882C97.0435 162.018 93.1553 160.412 89.1024 160.415C85.0496 160.418 81.1641 162.032 78.3007 164.9C75.4373 167.768 73.8305 171.656 73.8339 175.709V208.818H25.5197C18.6972 208.886 12.1796 211.655 7.39588 216.52C2.61212 221.385 -0.0475095 227.948 1.57877e-05 234.771V305.625C0.00398665 306.975 0.541923 308.268 1.49633 309.222C2.45073 310.177 3.74404 310.715 5.09377 310.719H320.804C322.154 310.715 323.447 310.177 324.402 309.222C325.356 308.268 325.894 306.975 325.898 305.625V280.156C325.898 279.487 325.767 278.825 325.511 278.207C325.255 277.589 324.88 277.027 324.407 276.554C323.934 276.081 323.372 275.706 322.754 275.45C322.136 275.194 321.473 275.062 320.804 275.063ZM231.689 234.771C231.638 230.649 233.224 226.675 236.098 223.72C238.972 220.765 242.9 219.07 247.021 219.006H300.429C301.098 219.006 301.761 218.874 302.379 218.618C302.997 218.362 303.559 217.987 304.032 217.514C304.505 217.041 304.88 216.48 305.136 215.862C305.392 215.243 305.523 214.581 305.523 213.912V175.709C305.519 175.036 305.647 174.37 305.901 173.747C306.154 173.124 306.529 172.558 307.002 172.08C307.475 171.602 308.038 171.223 308.658 170.963C309.279 170.704 309.944 170.569 310.617 170.568C311.289 170.566 311.955 170.697 312.577 170.954C313.199 171.21 313.763 171.587 314.239 172.062C314.715 172.537 315.092 173.102 315.349 173.723C315.606 174.345 315.737 175.011 315.736 175.683L315.813 229.244C315.794 230.585 315.249 231.864 314.297 232.807C313.344 233.75 312.059 234.282 310.719 234.287H297.883C296.533 234.291 295.239 234.829 294.285 235.783C293.331 236.738 292.793 238.031 292.789 239.381V275.063H251.198V262.303C251.198 260.955 250.663 259.663 249.71 258.71C248.757 257.757 247.465 257.222 246.117 257.222C244.77 257.222 243.477 257.757 242.524 258.71C241.572 259.663 241.036 260.955 241.036 262.303V275.063H231.689V234.771ZM117.105 234.771C117.06 230.646 118.651 226.672 121.529 223.717C124.407 220.763 128.339 219.069 132.463 219.006H185.871C187.221 219.002 188.514 218.464 189.468 217.51C190.423 216.555 190.961 215.262 190.965 213.912V175.709C190.961 174.358 191.495 173.061 192.448 172.103C193.4 171.146 194.695 170.606 196.046 170.602C197.397 170.599 198.694 171.132 199.651 172.085C200.609 173.038 201.149 174.332 201.152 175.683L201.254 229.244C201.231 230.583 200.685 231.86 199.734 232.802C198.782 233.744 197.499 234.277 196.16 234.287H183.324C182.655 234.287 181.993 234.418 181.375 234.674C180.756 234.93 180.195 235.306 179.722 235.779C179.249 236.252 178.874 236.813 178.618 237.431C178.362 238.049 178.23 238.712 178.23 239.381V275.063H136.64V262.303C136.64 260.952 136.103 259.656 135.148 258.701C134.193 257.746 132.897 257.209 131.546 257.209C130.195 257.209 128.9 257.746 127.944 258.701C126.989 259.656 126.452 260.952 126.452 262.303V275.063H117.105V234.771ZM10.1875 234.771C10.1367 230.649 11.722 226.675 14.5959 223.72C17.4698 220.765 21.3981 219.07 25.5197 219.006H78.9277C80.2774 219.002 81.5707 218.464 82.5251 217.51C83.4795 216.555 84.0175 215.262 84.0214 213.912V175.709C84.018 174.358 84.5515 173.061 85.5043 172.103C86.4572 171.146 87.7515 170.606 89.1024 170.602C90.4534 170.599 91.7503 171.132 92.708 172.085C93.6656 173.038 94.2055 174.332 94.2089 175.683L94.3108 229.244C94.2919 230.585 93.7476 231.864 92.7949 232.807C91.8423 233.75 90.5575 234.282 89.217 234.287H76.3808C75.0311 234.291 73.7378 234.829 72.7834 235.783C71.829 236.738 71.291 238.031 71.287 239.381V275.063H29.6966V262.303C29.6966 260.952 29.1599 259.656 28.2047 258.701C27.2494 257.746 25.9538 257.209 24.6028 257.209C23.2519 257.209 21.9563 257.746 21.001 258.701C20.0457 259.656 19.5091 260.952 19.5091 262.303V275.063H10.1875V234.771ZM315.711 300.531H10.1875V285.25H315.711V300.531Z" fill="#2D4356"/>
<path d="M315.711 285.25H10.1875V300.531H315.711V285.25Z" fill="#D68751"/>
<path d="M315.812 229.244C315.794 230.585 315.249 231.864 314.297 232.807C313.344 233.75 312.059 234.282 310.719 234.287H297.882C296.533 234.291 295.239 234.829 294.285 235.783C293.331 236.738 292.793 238.031 292.789 239.381V275.062H251.198V262.303C251.198 260.955 250.663 259.663 249.71 258.71C248.757 257.757 247.465 257.222 246.117 257.222C244.77 257.222 243.477 257.757 242.524 258.71C241.572 259.663 241.036 260.955 241.036 262.303V275.062H231.689V234.771C231.638 230.649 233.224 226.675 236.098 223.72C238.972 220.765 242.9 219.07 247.021 219.006H300.429C301.098 219.006 301.761 218.874 302.379 218.618C302.997 218.362 303.559 217.987 304.032 217.514C304.505 217.041 304.88 216.48 305.136 215.862C305.392 215.243 305.523 214.581 305.523 213.912V175.709C305.519 175.036 305.647 174.37 305.901 173.747C306.154 173.124 306.529 172.558 307.002 172.08C307.475 171.602 308.038 171.223 308.658 170.963C309.279 170.704 309.944 170.569 310.617 170.568C311.289 170.566 311.955 170.697 312.577 170.954C313.199 171.21 313.763 171.587 314.239 172.062C314.715 172.537 315.092 173.102 315.349 173.723C315.606 174.345 315.737 175.011 315.736 175.683L315.812 229.244ZM201.254 229.244C201.231 230.583 200.685 231.86 199.733 232.802C198.782 233.744 197.499 234.277 196.16 234.287H183.324C182.655 234.287 181.993 234.418 181.375 234.674C180.756 234.93 180.195 235.306 179.722 235.779C179.249 236.252 178.874 236.813 178.618 237.431C178.362 238.049 178.23 238.712 178.23 239.381V275.062H136.64V262.303C136.64 260.952 136.103 259.656 135.148 258.701C134.193 257.746 132.897 257.209 131.546 257.209C130.195 257.209 128.899 257.746 127.944 258.701C126.989 259.656 126.452 260.952 126.452 262.303V275.062H117.105V234.771C117.06 230.646 118.651 226.672 121.529 223.717C124.407 220.763 128.339 219.069 132.463 219.006H185.871C187.221 219.002 188.514 218.464 189.468 217.509C190.423 216.555 190.961 215.262 190.965 213.912V175.709C190.961 174.358 191.495 173.061 192.448 172.103C193.4 171.146 194.695 170.606 196.046 170.602C197.397 170.599 198.694 171.132 199.651 172.085C200.609 173.038 201.149 174.332 201.152 175.683L201.254 229.244ZM94.3107 229.244C94.2918 230.585 93.7475 231.864 92.7949 232.807C91.8423 233.75 90.5575 234.282 89.217 234.287H76.3807C75.031 234.291 73.7377 234.829 72.7833 235.783C71.8289 236.738 71.291 238.031 71.287 239.381V275.062H29.6965V262.303C29.6965 260.952 29.1599 259.656 28.2046 258.701C27.2493 257.746 25.9537 257.209 24.6028 257.209C23.2518 257.209 21.9562 257.746 21.001 258.701C20.0457 259.656 19.509 260.952 19.509 262.303V275.062H10.1875V234.771C10.1367 230.649 11.7219 226.675 14.5959 223.72C17.4698 220.765 21.398 219.07 25.5197 219.006H78.9276C80.2774 219.002 81.5707 218.464 82.5251 217.509C83.4795 216.555 84.0174 215.262 84.0214 213.912V175.709C84.018 174.358 84.5514 173.061 85.5043 172.103C86.4572 171.146 87.7514 170.606 89.1024 170.602C90.4533 170.599 91.7503 171.132 92.7079 172.085C93.6656 173.038 94.2055 174.332 94.2089 175.683L94.3107 229.244Z" fill="#FFDB80"/>
<path opacity="0.3" d="M315.711 114.253C315.711 115.373 315.711 116.494 315.66 117.615C315.02 94.3554 305.227 72.2884 288.408 56.2095C254.611 23.6095 200.541 21.8267 165.292 52.2109C164.377 52.9893 163.217 53.4209 162.016 53.4302C160.815 53.4396 159.648 53.026 158.721 52.2619C142.181 38.5409 121.354 31.0519 99.863 31.0973C87.973 31.0339 76.1875 33.3185 65.1825 37.8201C54.1775 42.3218 44.1695 48.9519 35.7327 57.3302C20.0065 72.9684 10.8811 94.0452 10.2384 116.214C10.213 115.705 10.1875 115.221 10.1875 114.711C10.0526 103.119 12.2438 91.617 16.6315 80.8862C21.0192 70.1553 27.5143 60.4133 35.7327 52.2364C44.1695 43.8582 54.1775 37.228 65.1825 32.7264C76.1875 28.2247 87.973 25.9401 99.863 26.0036C121.354 25.9581 142.181 33.4471 158.721 47.1681C159.648 47.9322 160.815 48.3458 162.016 48.3365C163.217 48.3272 164.377 47.8955 165.292 47.1172C200.541 16.733 254.611 18.5158 288.408 51.1158C296.948 59.2807 303.764 69.0749 308.453 79.9193C313.143 90.7638 315.611 102.438 315.711 114.253Z" fill="#F9DBD7"/>
<path opacity="0.5" d="M162.949 170.59V175.683C162.949 179.061 161.607 182.3 159.219 184.688C156.831 187.076 153.592 188.418 150.215 188.418C146.837 188.418 143.598 187.076 141.21 184.688C138.822 182.3 137.48 179.061 137.48 175.683V170.59C137.48 173.967 138.822 177.206 141.21 179.594C143.598 181.982 146.837 183.324 150.215 183.324C153.592 183.324 156.831 181.982 159.219 179.594C161.607 177.206 162.949 173.967 162.949 170.59Z" fill="#9FA5AA"/>
<path opacity="0.5" d="M56.0058 165.496V170.59C56.0058 168.919 55.6767 167.265 55.0374 165.721C54.3981 164.178 53.461 162.775 52.2797 161.594C51.0984 160.413 49.696 159.476 48.1525 158.836C46.609 158.197 44.9548 157.868 43.2841 157.868C41.6135 157.868 39.9592 158.197 38.4158 158.836C36.8723 159.476 35.4699 160.413 34.2886 161.594C33.1073 162.775 32.1702 164.178 31.5309 165.721C30.8916 167.265 30.5625 168.919 30.5625 170.59V165.496C30.5625 163.825 30.8916 162.171 31.5309 160.628C32.1702 159.084 33.1073 157.682 34.2886 156.5C35.4699 155.319 36.8723 154.382 38.4158 153.743C39.9592 153.103 41.6135 152.774 43.2841 152.774C44.9548 152.774 46.609 153.103 48.1525 153.743C49.696 154.382 51.0984 155.319 52.2797 156.5C53.461 157.682 54.3981 159.084 55.0374 160.628C55.6767 162.171 56.0058 163.825 56.0058 165.496ZM277.507 165.496V170.59C277.507 167.216 276.167 163.98 273.781 161.594C271.396 159.208 268.16 157.868 264.786 157.868C261.412 157.868 258.176 159.208 255.79 161.594C253.404 163.98 252.064 167.216 252.064 170.59V165.496C252.064 162.122 253.404 158.886 255.79 156.5C258.176 154.115 261.412 152.774 264.786 152.774C268.16 152.774 271.396 154.115 273.781 156.5C276.167 158.886 277.507 162.122 277.507 165.496Z" fill="white"/>
<path opacity="0.5" d="M277.507 170.59V175.683C277.507 179.057 276.167 182.293 273.781 184.679C271.396 187.065 268.16 188.405 264.786 188.405C261.412 188.405 258.176 187.065 255.79 184.679C253.404 182.293 252.064 179.057 252.064 175.683V170.59C252.064 173.964 253.404 177.2 255.79 179.585C258.176 181.971 261.412 183.311 264.786 183.311C268.16 183.311 271.396 181.971 273.781 179.585C276.167 177.2 277.507 173.964 277.507 170.59Z" fill="#9FA5AA"/>
<path opacity="0.5" d="M162.949 165.496V170.59C162.949 167.212 161.607 163.973 159.219 161.585C156.831 159.197 153.592 157.855 150.215 157.855C146.837 157.855 143.598 159.197 141.21 161.585C138.822 163.973 137.48 167.212 137.48 170.59V165.496C137.48 162.119 138.822 158.88 141.21 156.491C143.598 154.103 146.837 152.762 150.215 152.762C153.592 152.762 156.831 154.103 159.219 156.491C161.607 158.88 162.949 162.119 162.949 165.496Z" fill="white"/>
<path opacity="0.5" d="M56.0058 170.59V175.683C56.0058 177.354 55.6767 179.008 55.0374 180.552C54.3981 182.095 53.461 183.498 52.2797 184.679C51.0984 185.86 49.696 186.797 48.1525 187.437C46.609 188.076 44.9548 188.405 43.2841 188.405C41.6135 188.405 39.9592 188.076 38.4158 187.437C36.8723 186.797 35.4699 185.86 34.2886 184.679C33.1073 183.498 32.1702 182.095 31.5309 180.552C30.8916 179.008 30.5625 177.354 30.5625 175.683V170.59C30.5625 172.26 30.8916 173.915 31.5309 175.458C32.1702 177.002 33.1073 178.404 34.2886 179.585C35.4699 180.767 36.8723 181.704 38.4158 182.343C39.9592 182.982 41.6135 183.311 43.2841 183.311C44.9548 183.311 46.609 182.982 48.1525 182.343C49.696 181.704 51.0984 180.767 52.2797 179.585C53.461 178.404 54.3981 177.002 55.0374 175.458C55.6767 173.915 56.0058 172.26 56.0058 170.59Z" fill="#9FA5AA"/>
<path opacity="0.5" d="M315.736 175.683V180.777C315.737 180.105 315.606 179.439 315.349 178.817C315.092 178.196 314.715 177.631 314.239 177.156C313.764 176.68 313.199 176.304 312.577 176.047C311.955 175.791 311.289 175.66 310.617 175.661C309.944 175.663 309.279 175.798 308.659 176.057C308.038 176.317 307.475 176.696 307.002 177.174C306.529 177.652 306.154 178.218 305.901 178.841C305.647 179.463 305.519 180.13 305.523 180.803V175.709C305.519 175.036 305.647 174.37 305.901 173.747C306.154 173.124 306.529 172.558 307.002 172.08C307.475 171.602 308.038 171.223 308.659 170.963C309.279 170.704 309.944 170.569 310.617 170.568C311.289 170.566 311.955 170.697 312.577 170.954C313.199 171.21 313.764 171.587 314.239 172.062C314.715 172.537 315.092 173.102 315.349 173.723C315.606 174.345 315.737 175.011 315.736 175.683ZM305.523 213.912V219.006C305.523 219.675 305.392 220.337 305.136 220.955C304.88 221.573 304.505 222.135 304.032 222.608C303.559 223.081 302.997 223.456 302.379 223.712C301.761 223.968 301.098 224.1 300.429 224.1H247.021C242.9 224.163 238.972 225.859 236.098 228.814C233.224 231.769 231.638 235.743 231.689 239.865V234.771C231.638 230.649 233.224 226.675 236.098 223.72C238.972 220.765 242.9 219.07 247.021 219.006H300.429C301.098 219.006 301.761 218.874 302.379 218.618C302.997 218.362 303.559 217.987 304.032 217.514C304.505 217.041 304.88 216.48 305.136 215.862C305.392 215.243 305.523 214.581 305.523 213.912ZM190.965 213.912V219.006C190.961 220.355 190.423 221.649 189.468 222.603C188.514 223.558 187.221 224.096 185.871 224.1H132.463C128.339 224.162 124.407 225.857 121.529 228.811C118.651 231.766 117.06 235.74 117.105 239.865V234.771C117.06 230.646 118.651 226.672 121.529 223.717C124.407 220.763 128.339 219.069 132.463 219.006H185.871C187.221 219.002 188.514 218.464 189.468 217.509C190.423 216.555 190.961 215.262 190.965 213.912ZM201.152 175.683V180.777C201.149 179.426 200.609 178.132 199.651 177.179C198.694 176.226 197.397 175.693 196.046 175.696C194.695 175.7 193.4 176.239 192.448 177.197C191.495 178.155 190.961 179.452 190.965 180.803V175.709C190.961 174.358 191.495 173.061 192.448 172.103C193.4 171.146 194.695 170.606 196.046 170.602C197.397 170.599 198.694 171.132 199.651 172.085C200.609 173.038 201.149 174.332 201.152 175.683ZM94.2089 175.683V180.777C94.2055 179.426 93.6656 178.132 92.7079 177.179C91.7503 176.226 90.4533 175.693 89.1024 175.696C87.7514 175.7 86.4572 176.239 85.5043 177.197C84.5514 178.155 84.018 179.452 84.0214 180.803V175.709C84.018 174.358 84.5514 173.061 85.5043 172.103C86.4572 171.146 87.7514 170.606 89.1024 170.602C90.4533 170.599 91.7503 171.132 92.7079 172.085C93.6656 173.038 94.2055 174.332 94.2089 175.683ZM84.0214 213.912V219.006C84.0174 220.355 83.4795 221.649 82.5251 222.603C81.5707 223.558 80.2774 224.096 78.9276 224.1H25.5197C21.398 224.163 17.4698 225.859 14.5959 228.814C11.7219 231.769 10.1367 235.743 10.1875 239.865V234.771C10.1367 230.649 11.7219 226.675 14.5959 223.72C17.4698 220.765 21.398 219.07 25.5197 219.006H78.9276C80.2774 219.002 81.5707 218.464 82.5251 217.509C83.4795 216.555 84.0174 215.262 84.0214 213.912Z" fill="#F9EDD2"/>
<path opacity="0.4" d="M315.711 295.438H10.1875V300.531H315.711V295.438Z" fill="#72492D"/>
</g>
<defs>
<clipPath id="clip0_10_187">
<rect width="326" height="326" fill="white"/>
</clipPath>
</defs>
</svg>
