<svg width="168" height="168" viewBox="0 0 168 168" fill="none" xmlns="http://www.w3.org/2000/svg">
<path d="M46.01 109.194C47.3907 109.185 48.5037 108.234 48.4959 107.069C48.4882 105.905 47.3627 104.969 45.982 104.978C44.6013 104.987 43.4883 105.938 43.4961 107.103C43.5038 108.267 44.6293 109.203 46.01 109.194Z" fill="#923144"/>
<path d="M39.421 114.509C40.8017 114.5 41.9147 113.549 41.9069 112.384C41.8992 111.22 40.7737 110.284 39.393 110.293C38.0123 110.302 36.8993 111.253 36.9071 112.418C36.9148 113.582 38.0403 114.518 39.421 114.509Z" fill="#923144"/>
<path d="M49.184 116.552C50.5647 116.543 51.6777 115.592 51.6699 114.427C51.6622 113.263 50.5367 112.327 49.156 112.336C47.7753 112.345 46.6623 113.296 46.6701 114.461C46.6778 115.625 47.8033 116.561 49.184 116.552Z" fill="#923144"/>
<path d="M68.1396 126.101C71.3649 128.229 75.1417 129.369 79.0059 129.38C80.1784 129.379 81.3486 129.273 82.5019 129.061C84.9247 128.639 87.2348 127.723 89.2894 126.372C91.3439 125.02 93.0991 123.261 94.4463 121.203C94.5682 121.012 94.6565 120.802 94.7073 120.581C94.7166 120.543 94.7329 120.506 94.7399 120.467C94.751 120.389 94.7574 120.311 94.7592 120.233C94.7622 120.182 94.7722 120.132 94.7714 120.082C94.7706 120.024 94.7582 119.967 94.7524 119.91C94.7483 119.84 94.7405 119.77 94.729 119.7C94.7261 119.687 94.7197 119.674 94.7165 119.66C94.6023 119.158 94.2974 118.719 93.8662 118.437L79.4025 108.98L79.3834 108.968L79.3522 108.947L79.3506 108.946L79.3494 108.945L79.3105 108.92L79.3059 108.917L64.8477 99.4638C64.7355 99.3908 64.6164 99.3292 64.4921 99.2798C64.4504 99.2632 64.4071 99.2561 64.3647 99.2425C64.2826 99.2132 64.1987 99.1893 64.1135 99.1709C64.0807 99.1649 64.0477 99.1665 64.0148 99.1622C63.7105 99.1071 63.3968 99.1387 63.1096 99.2534C63.0646 99.2687 63.0178 99.2778 62.974 99.2962C62.918 99.3199 62.8676 99.3536 62.8142 99.3823C62.751 99.4126 62.6896 99.4463 62.6301 99.4833C62.5818 99.516 62.5404 99.5578 62.4951 99.5946C62.4373 99.6379 62.3818 99.6843 62.3291 99.7336C62.2354 99.8284 62.1513 99.9323 62.0781 100.044C56.5 108.58 59.2197 120.269 68.1396 126.101ZM89.8838 120.611C88.2025 122.504 86.0373 123.903 83.6208 124.658L81.3515 115.032L89.8838 120.611ZM79.6746 125.348C77.0466 125.457 74.4335 124.902 72.0766 123.734L77.3805 115.617L79.6746 125.348ZM64.4549 103.985L72.9767 109.557L63.2666 111.338C62.9924 108.825 63.403 106.284 64.4549 103.985ZM74.0334 113.427L68.7294 121.544C66.7175 119.851 65.1622 117.68 64.2059 115.23L74.0334 113.427ZM54.5925 109.019C54.63 107.647 54.7928 106.282 55.0788 104.94C54.5161 104.955 53.9788 105.177 53.571 105.565C53.1631 105.953 52.9138 106.479 52.8712 107.04C52.903 107.512 53.0884 107.961 53.3991 108.319C53.7099 108.676 54.129 108.922 54.5925 109.019Z" fill="#923144"/>
<path d="M49.5557 122.819C49.6328 122.819 49.7109 122.818 49.7891 122.818C52.5459 122.81 55.2902 122.446 57.9537 121.735C57.2538 120.564 56.6544 119.336 56.1618 118.064C54.0648 118.56 51.9177 118.814 49.7627 118.82C49.6933 118.821 49.626 118.821 49.5576 118.821C40.2392 118.821 33.7344 114.617 33.708 110.805C33.6826 106.963 40.2246 102.639 49.6543 102.577C49.7236 102.576 49.792 102.576 49.8613 102.576C51.7715 102.573 53.677 102.764 55.5486 103.146C55.9418 101.846 56.4543 100.585 57.0796 99.3799C54.712 98.8417 52.2912 98.5726 49.8632 98.5775C49.7851 98.5775 49.706 98.5785 49.6269 98.5785C38.4121 98.6536 29.663 104.035 29.708 110.832C29.7539 117.58 38.4521 122.819 49.5557 122.819ZM99.1924 118.829C99.2354 119.018 99.2685 119.19 99.2939 119.361C99.2966 119.379 99.2945 119.396 99.297 119.414C99.9895 119.844 100.733 120.187 101.509 120.434C103.768 121.135 106.201 121.015 108.38 120.096C110.559 119.178 112.344 117.519 113.419 115.412C114.494 113.306 114.79 110.888 114.256 108.584C113.722 106.281 112.392 104.24 110.499 102.822C110.148 101.045 109.323 99.3962 108.112 98.0502C106.9 96.7041 105.347 95.7108 103.617 95.1753C101.887 94.6399 100.045 94.5823 98.2847 95.0086C96.5246 95.4349 94.9126 96.3293 93.6194 97.5971C91.1884 97.6964 88.8766 98.6768 87.1153 100.355C85.354 102.034 84.2636 104.296 84.0474 106.719L88.3114 109.507C87.9761 108.489 87.9179 107.401 88.1427 106.353C88.3676 105.306 88.8673 104.337 89.5906 103.547C90.3139 102.756 91.2347 102.173 92.2582 101.856C93.2817 101.54 94.3711 101.501 95.4144 101.745C96.0985 100.56 97.1649 99.6424 98.4389 99.1428C99.7128 98.6431 101.119 98.591 102.426 98.995C103.734 99.399 104.865 100.235 105.635 101.366C106.405 102.498 106.768 103.857 106.664 105.221C107.654 105.607 108.526 106.246 109.189 107.076C109.853 107.906 110.286 108.896 110.445 109.947C110.604 110.998 110.482 112.072 110.093 113.06C109.703 114.049 109.06 114.917 108.227 115.578C107.394 116.238 106.402 116.667 105.351 116.821C104.299 116.975 103.226 116.849 102.239 116.455C101.252 116.061 100.386 115.414 99.7298 114.578C99.0731 113.743 98.6486 112.749 98.4991 111.697C97.4883 112.797 96.1071 113.486 94.6201 113.632L96.292 114.725C97.7511 115.669 98.79 117.139 99.1924 118.829Z" fill="#2D4356"/>
<path d="M63.8652 80.8664C63.627 80.3932 63.2107 80.0339 62.7078 79.8673C62.2049 79.7007 61.6564 79.7405 61.1828 79.9778C60.7091 80.2152 60.349 80.6308 60.1815 81.1334C60.0139 81.6359 60.0526 82.1845 60.2891 82.6586L66.6827 95.4069C66.883 95.5116 67.0797 95.6254 67.2715 95.7506L73.8196 100.032L87.8955 96.0434C88.149 95.9726 88.386 95.8523 88.5929 95.6897C88.7998 95.527 88.9725 95.3251 89.1012 95.0955C89.2299 94.8659 89.3119 94.6131 89.3427 94.3518C89.3735 94.0904 89.3523 93.8255 89.2804 93.5723C89.2085 93.3191 89.0874 93.0826 88.9239 92.8764C88.7604 92.6701 88.5577 92.4982 88.3276 92.3704C88.0975 92.2427 87.8444 92.1617 87.5829 92.132C87.3214 92.1023 87.0566 92.1245 86.8037 92.1974L74.9133 95.5668C76.2553 93.1194 77.4431 90.7045 78.4838 88.4126L87.8125 83.4951C88.2816 83.2478 88.6332 82.8242 88.79 82.3176C88.9468 81.811 88.896 81.2629 88.6486 80.7938C88.4013 80.3247 87.9777 79.973 87.4711 79.8162C86.9645 79.6594 86.4164 79.7103 85.9473 79.9576L80.944 82.5954C82.9374 77.5079 83.9695 73.8707 84.0957 73.4155C84.166 73.1625 84.1857 72.8981 84.1538 72.6375C84.1218 72.3768 84.0389 72.125 83.9096 71.8964C83.7804 71.6678 83.6074 71.4669 83.4005 71.3052C83.1936 71.1435 82.9569 71.0241 82.7039 70.9539C82.4509 70.8836 82.1865 70.8639 81.9258 70.8958C81.6652 70.9277 81.4134 71.0107 81.1848 71.14C80.9562 71.2692 80.7553 71.4422 80.5936 71.6491C80.4318 71.856 80.3125 72.0927 80.2422 72.3457C79.206 75.8142 77.9921 79.2271 76.6055 82.571L72.1299 75.0477C71.8583 74.5929 71.4174 74.2645 70.9039 74.1345C70.3904 74.0045 69.8463 74.0835 69.3911 74.3542C68.9358 74.6249 68.6065 75.0652 68.4755 75.5784C68.3446 76.0916 68.4225 76.6359 68.6924 77.0917L74.6441 87.0967C73.5282 89.5277 72.2424 92.0963 70.7894 94.6724L63.8652 80.8664Z" fill="#923144"/>
<path d="M103.843 91.1013C104.161 91.1759 104.477 91.2591 104.789 91.3559C105.857 91.687 106.881 92.1434 107.84 92.7157C107.695 89.5965 108.31 86.4886 109.633 83.6601C112.041 78.6291 116.801 74.7539 123.796 72.1221C125.633 79.9108 125.114 85.7402 122.248 89.4662C120.702 91.3993 118.563 92.7702 116.161 93.3678L119.248 85.136C119.434 84.6393 119.415 84.0889 119.196 83.606C118.976 83.1231 118.574 82.7473 118.077 82.5611C117.58 82.375 117.03 82.3938 116.547 82.6135C116.064 82.8331 115.688 83.2356 115.502 83.7323L111.23 95.1258C111.192 95.2377 111.164 95.3527 111.146 95.4696C111.785 96.1842 112.348 96.9629 112.827 97.7934C112.906 97.8094 112.986 97.8206 113.066 97.8268C113.368 97.8229 120.766 97.901 125.383 91.9514C129.318 86.8784 129.916 79.203 127.161 69.1352C127.104 68.836 126.979 68.5538 126.796 68.31C126.613 68.0662 126.378 67.8671 126.107 67.7278C125.836 67.5886 125.537 67.5127 125.232 67.5061C124.928 67.4994 124.625 67.5622 124.349 67.6895C115.288 70.6697 109.123 75.4606 106.024 81.9343C104.666 84.8045 103.923 87.927 103.843 91.1013Z" fill="#2D4356"/>
<path d="M118.023 121.916C118.93 123.003 120.056 123.886 121.329 124.506C122.601 125.127 123.99 125.471 125.405 125.516C126.82 125.561 128.229 125.306 129.538 124.768C130.847 124.23 132.028 123.421 133.003 122.395C133.977 121.368 134.723 120.146 135.192 118.811C135.66 117.475 135.841 116.055 135.722 114.645C135.603 113.234 135.186 111.865 134.5 110.627C133.814 109.388 132.874 108.309 131.741 107.461C131.401 105.728 130.609 104.116 129.446 102.787C128.283 101.459 126.79 100.461 125.118 99.8948C123.445 99.3286 121.653 99.2142 119.922 99.5631C118.191 99.912 116.583 100.712 115.261 101.882C116.14 102.939 116.859 104.119 117.396 105.385C118.236 104.443 119.349 103.789 120.58 103.513C121.811 103.238 123.097 103.355 124.258 103.85C125.418 104.344 126.395 105.19 127.049 106.268C127.703 107.346 128.003 108.603 127.906 109.861C128.896 110.246 129.767 110.886 130.431 111.715C131.095 112.545 131.528 113.535 131.687 114.586C131.845 115.637 131.724 116.711 131.334 117.699C130.945 118.688 130.301 119.556 129.469 120.217C128.636 120.877 127.644 121.306 126.592 121.46C125.541 121.614 124.468 121.488 123.481 121.094C122.494 120.7 121.628 120.053 120.971 119.217C120.315 118.382 119.89 117.388 119.741 116.336C118.868 117.285 117.715 117.932 116.45 118.183C115.55 119.66 114.381 120.958 113.005 122.007C114.656 122.426 116.389 122.395 118.023 121.916Z" fill="#923144"/>
<path d="M59.1131 68.5577C59.9976 68.5578 61.2192 69.2766 62.5044 69.2766C63.9438 69.2766 65.4632 68.3744 66.6776 64.5507C66.9398 63.7251 67.2818 63.4474 67.6868 63.4475C68.5196 63.4476 69.6181 64.6224 70.833 64.6224C71.8136 64.6224 72.8702 63.8569 73.9241 61.0907C74.2833 60.1479 74.7005 59.7867 75.1646 59.7867C76.6852 59.7868 78.7091 63.6634 80.8483 63.6634C81.222 63.6601 81.5858 63.5431 81.8913 63.328C82.2609 63.0446 82.7059 62.8769 83.1706 62.8459C85.9096 62.8469 85.3546 71.3191 91.0478 71.3191C91.1701 71.3191 91.2961 71.3151 91.4242 71.3071C91.5779 71.2975 91.7217 71.2927 91.8569 71.2928C96.1159 71.2931 91.4263 75.9838 95.828 80.2799C100.369 84.7124 89.5344 86.4176 94.3006 90.4071C94.7822 90.7595 95.1893 91.2036 95.4988 91.7138C96.7515 91.2159 98.0698 90.9024 99.4125 90.783C99.1109 89.8342 98.5854 88.9719 97.8805 88.269C99.1639 87.036 100.953 85.2101 100.966 82.4723C100.946 81.5138 100.728 80.5698 100.324 79.7001C99.9208 78.8303 99.3414 78.0537 98.6225 77.4192C97.7081 76.5267 97.7055 75.8531 97.789 74.281C97.9388 73.3504 97.887 72.3984 97.637 71.4895C97.387 70.5806 96.9446 69.7361 96.3399 69.013C95.7545 68.4288 95.0531 67.974 94.2809 67.678C93.5088 67.382 92.683 67.2514 91.8572 67.2946H91.8556C91.6431 67.2946 91.4169 67.3016 91.175 67.3166C91.1317 67.3193 91.0891 67.3208 91.0479 67.3208C90.5952 67.3208 90.2278 66.9076 89.2472 64.4594C88.4066 62.361 86.9998 58.849 83.172 58.8476C82.4261 58.8516 81.6881 59.0014 80.9996 59.2886C80.7789 59.0766 80.5506 58.8455 80.3771 58.6696C79.1098 57.386 77.5326 55.7886 75.1649 55.7884C74.1123 55.7883 71.52 56.1661 70.186 59.6677C70.1391 59.7907 70.094 59.9043 70.0507 60.0087C69.3137 59.6508 68.5069 59.4598 67.6876 59.4492C66.5642 59.4645 65.4779 59.8562 64.6036 60.5618C63.7294 61.2674 63.1172 62.246 62.8651 63.3409C62.6792 63.9796 62.4215 64.5952 62.097 65.1759C61.961 65.1354 61.8163 65.09 61.698 65.0528C60.8678 64.7535 59.9957 64.587 59.1137 64.5594C58.301 64.5592 54.2254 64.8398 53.7882 70.3891C53.7662 70.6688 53.7495 70.9441 53.7334 71.2133C53.7218 71.4082 53.7082 71.6363 53.6917 71.844C53.3059 71.9031 52.9168 71.9374 52.5267 71.9464C49.5127 72.0473 48.1145 73.4986 47.4722 74.6983C46.0428 77.3681 47.5533 79.9854 48.6607 81.7789C48.1341 82.456 47.7531 83.2346 47.5417 84.0658C47.3302 84.8971 47.2928 85.7631 47.4319 86.6095C43.6779 89.1462 44.2483 93.0202 44.5496 94.9435C45.8741 94.76 47.2074 94.6466 48.5439 94.6039C48.244 92.6707 47.9052 91.0361 49.7975 89.8398C53.4141 87.5536 49.5465 84.9252 52.7543 83.7292C55.962 82.5332 47.3691 76.1195 52.6605 75.9424C57.9518 75.7654 57.5569 73.4811 57.7758 70.7031C57.9081 69.0229 58.4013 68.5575 59.1131 68.5577Z" fill="#2D4356"/>
<path d="M2 145.788C3.10457 145.788 4 144.893 4 143.788C4 142.683 3.10457 141.788 2 141.788C0.89543 141.788 0 142.683 0 143.788C0 144.893 0.89543 145.788 2 145.788Z" fill="#2D4356"/>
<path d="M11 141.788H8C7.46957 141.788 6.96086 141.999 6.58579 142.374C6.21071 142.749 6 143.258 6 143.788C6 144.319 6.21071 144.828 6.58579 145.203C6.96086 145.578 7.46957 145.788 8 145.788H11C11.5304 145.788 12.0391 145.578 12.4142 145.203C12.7893 144.828 13 144.319 13 143.788C13 143.258 12.7893 142.749 12.4142 142.374C12.0391 141.999 11.5304 141.788 11 141.788ZM160 141.788H157C156.47 141.788 155.961 141.999 155.586 142.374C155.211 142.749 155 143.258 155 143.788C155 144.319 155.211 144.828 155.586 145.203C155.961 145.578 156.47 145.788 157 145.788H160C160.53 145.788 161.039 145.578 161.414 145.203C161.789 144.828 162 144.319 162 143.788C162 143.258 161.789 142.749 161.414 142.374C161.039 141.999 160.53 141.788 160 141.788Z" fill="#2D4356"/>
<path d="M166 145.788C167.105 145.788 168 144.893 168 143.788C168 142.683 167.105 141.788 166 141.788C164.895 141.788 164 142.683 164 143.788C164 144.893 164.895 145.788 166 145.788Z" fill="#2D4356"/>
<path d="M118.154 149.788H109.846C109.343 149.829 108.874 150.057 108.532 150.428C108.19 150.798 108 151.284 108 151.788C108 152.293 108.19 152.779 108.532 153.149C108.874 153.52 109.343 153.748 109.846 153.788H118.154C118.657 153.748 119.126 153.52 119.468 153.149C119.81 152.779 120 152.293 120 151.788C120 151.284 119.81 150.798 119.468 150.428C119.126 150.057 118.657 149.829 118.154 149.788ZM58.1539 149.788H49.8461C49.3433 149.829 48.8742 150.057 48.5321 150.428C48.1899 150.798 48 151.284 48 151.788C48 152.293 48.1899 152.779 48.5321 153.149C48.8742 153.52 49.3433 153.748 49.8461 153.788H58.1539C58.6566 153.748 59.1258 153.52 59.4679 153.149C59.81 152.779 60 152.293 60 151.788C60 151.284 59.81 150.798 59.4679 150.428C59.1258 150.057 58.6566 149.829 58.1539 149.788ZM104 149.788H64C63.4696 149.788 62.9609 149.999 62.5858 150.374C62.2107 150.749 62 151.258 62 151.788C62 152.319 62.2107 152.828 62.5858 153.203C62.9609 153.578 63.4696 153.788 64 153.788H79.94V155.788H72C71.4696 155.788 70.9609 155.999 70.5858 156.374C70.2107 156.749 70 157.258 70 157.788C70 158.319 70.2107 158.828 70.5858 159.203C70.9609 159.578 71.4696 159.788 72 159.788H97C97.5304 159.788 98.0391 159.578 98.4142 159.203C98.7893 158.828 99 158.319 99 157.788C99 157.258 98.7893 156.749 98.4142 156.374C98.0391 155.999 97.5304 155.788 97 155.788H88.06V153.788H104C104.53 153.788 105.039 153.578 105.414 153.203C105.789 152.828 106 152.319 106 151.788C106 151.258 105.789 150.749 105.414 150.374C105.039 149.999 104.53 149.788 104 149.788Z" fill="#923144"/>
<path d="M150.721 141.788H122.795C133.617 139.102 140.885 135.085 140.885 129.795C140.882 129.717 140.874 129.639 140.861 129.562C145.361 127.39 148 124.8 148 121.799C148 118.525 144.868 115.738 139.594 113.452C139.809 114.883 139.8 116.338 139.568 117.766C142.46 119.151 144 120.547 144 121.799C144 126.689 120.626 133.794 84 133.794C47.374 133.794 24 126.689 24 121.799C24 120.602 25.4085 119.273 28.0597 117.947C27.2997 116.882 26.7058 115.708 26.2981 114.464C22.3183 116.546 20 118.992 20 121.799C20 124.8 22.6389 127.39 27.1388 129.562C27.1263 129.639 27.1184 129.717 27.1152 129.795C27.1152 135.085 34.3826 139.102 45.2051 141.788H17.2787C16.9942 141.751 16.705 141.775 16.4305 141.859C16.1559 141.942 15.9024 142.083 15.6867 142.273C15.4711 142.462 15.2983 142.695 15.18 142.956C15.0616 143.218 15.0004 143.501 15.0004 143.788C15.0004 144.075 15.0616 144.359 15.18 144.62C15.2983 144.882 15.4711 145.115 15.6867 145.304C15.9024 145.493 16.1559 145.635 16.4305 145.718C16.705 145.802 16.9942 145.826 17.2787 145.788H150.721C151.006 145.826 151.295 145.802 151.57 145.718C151.844 145.635 152.098 145.493 152.313 145.304C152.529 145.115 152.702 144.882 152.82 144.62C152.938 144.359 153 144.075 153 143.788C153 143.501 152.938 143.218 152.82 142.956C152.702 142.695 152.529 142.462 152.313 142.273C152.098 142.083 151.844 141.942 151.57 141.859C151.295 141.775 151.006 141.751 150.721 141.788ZM31.803 131.451C44.0249 135.638 64.0884 137.792 84 137.792C103.912 137.792 123.975 135.638 136.197 131.451C132.46 136.196 113.403 141.752 84.2868 141.788H83.7131C54.5966 141.752 35.5405 136.196 31.803 131.451ZM51.6704 58.7884C52.2638 58.7884 52.8438 58.6124 53.3372 58.2828C53.8305 57.9532 54.215 57.4846 54.4421 56.9364C54.6692 56.3883 54.7286 55.7851 54.6128 55.2031C54.497 54.6212 54.2113 54.0866 53.7918 53.6671C53.3722 53.2475 52.8377 52.9618 52.2557 52.846C51.6738 52.7303 51.0706 52.7897 50.5224 53.0168C49.9742 53.2438 49.5057 53.6283 49.176 54.1217C48.8464 54.615 48.6704 55.195 48.6704 55.7884C48.6714 56.5838 48.9877 57.3463 49.5501 57.9087C50.1125 58.4711 50.8751 58.7875 51.6704 58.7884ZM51.6704 54.2884C51.9671 54.2884 52.2571 54.3764 52.5038 54.5412C52.7505 54.706 52.9427 54.9403 53.0563 55.2144C53.1698 55.4885 53.1995 55.7901 53.1416 56.081C53.0838 56.372 52.9409 56.6393 52.7311 56.8491C52.5213 57.0588 52.2541 57.2017 51.9631 57.2596C51.6721 57.3174 51.3705 57.2877 51.0964 57.1742C50.8223 57.0607 50.5881 56.8684 50.4232 56.6217C50.2584 56.3751 50.1704 56.0851 50.1704 55.7884C50.1708 55.3907 50.329 55.0094 50.6102 54.7282C50.8914 54.4469 51.2727 54.2888 51.6704 54.2884ZM122 14.7884C121.604 14.7884 121.218 14.9057 120.889 15.1255C120.56 15.3452 120.304 15.6576 120.152 16.023C120.001 16.3885 119.961 16.7906 120.038 17.1786C120.116 17.5665 120.306 17.9229 120.586 18.2026C120.865 18.4823 121.222 18.6728 121.61 18.75C121.998 18.8271 122.4 18.7875 122.765 18.6362C123.131 18.4848 123.443 18.2284 123.663 17.8995C123.883 17.5706 124 17.184 124 16.7884C123.999 16.2581 123.788 15.7498 123.414 15.3748C123.039 14.9999 122.53 14.789 122 14.7884ZM122 17.7884C121.802 17.7884 121.609 17.7297 121.444 17.6199C121.28 17.51 121.152 17.3538 121.076 17.1711C121 16.9883 120.981 16.7873 121.019 16.5933C121.058 16.3993 121.153 16.2211 121.293 16.0813C121.433 15.9414 121.611 15.8462 121.805 15.8076C121.999 15.769 122.2 15.7888 122.383 15.8645C122.565 15.9402 122.722 16.0684 122.831 16.2328C122.941 16.3973 123 16.5906 123 16.7884C123 17.0535 122.894 17.3077 122.707 17.4952C122.519 17.6827 122.265 17.7881 122 17.7884ZM84 27.7884C83.6044 27.7884 83.2178 27.9057 82.8889 28.1255C82.56 28.3452 82.3036 28.6576 82.1522 29.023C82.0009 29.3885 81.9613 29.7906 82.0384 30.1786C82.1156 30.5665 82.3061 30.9229 82.5858 31.2026C82.8655 31.4823 83.2219 31.6728 83.6098 31.75C83.9978 31.8271 84.3999 31.7875 84.7654 31.6362C85.1308 31.4848 85.4432 31.2284 85.6629 30.8995C85.8827 30.5706 86 30.184 86 29.7884C85.9994 29.2581 85.7885 28.7498 85.4135 28.3748C85.0386 27.9999 84.5302 27.789 84 27.7884ZM84 30.7884C83.8022 30.7884 83.6089 30.7297 83.4444 30.6199C83.28 30.51 83.1518 30.3538 83.0761 30.1711C83.0004 29.9883 82.9806 29.7873 83.0192 29.5933C83.0578 29.3993 83.153 29.2211 83.2929 29.0813C83.4327 28.9414 83.6109 28.8462 83.8049 28.8076C83.9989 28.769 84.2 28.7888 84.3827 28.8645C84.5654 28.9402 84.7216 29.0684 84.8315 29.2328C84.9413 29.3973 85 29.5906 85 29.7884C84.9997 30.0535 84.8943 30.3077 84.7068 30.4952C84.5193 30.6827 84.2651 30.7881 84 30.7884ZM158.5 27.7884C158.104 27.7884 157.718 27.9057 157.389 28.1255C157.06 28.3452 156.804 28.6576 156.652 29.023C156.501 29.3885 156.461 29.7906 156.538 30.1786C156.616 30.5665 156.806 30.9229 157.086 31.2026C157.365 31.4823 157.722 31.6728 158.11 31.75C158.498 31.8271 158.9 31.7875 159.265 31.6362C159.631 31.4848 159.943 31.2284 160.163 30.8995C160.383 30.5706 160.5 30.184 160.5 29.7884C160.499 29.2581 160.288 28.7498 159.914 28.3748C159.539 27.9999 159.03 27.789 158.5 27.7884ZM158.5 30.7884C158.302 30.7884 158.109 30.7297 157.944 30.6199C157.78 30.51 157.652 30.3538 157.576 30.1711C157.5 29.9883 157.481 29.7873 157.519 29.5933C157.558 29.3993 157.653 29.2211 157.793 29.0813C157.933 28.9414 158.111 28.8462 158.305 28.8076C158.499 28.769 158.7 28.7888 158.883 28.8645C159.065 28.9402 159.222 29.0684 159.331 29.2328C159.441 29.3973 159.5 29.5906 159.5 29.7884C159.5 30.0535 159.394 30.3077 159.207 30.4952C159.019 30.6827 158.765 30.7881 158.5 30.7884ZM17.3047 24.7884C17.3047 24.3928 17.1874 24.0061 16.9677 23.6772C16.7479 23.3484 16.4355 23.092 16.0701 22.9406C15.7046 22.7893 15.3025 22.7496 14.9145 22.8268C14.5266 22.904 14.1702 23.0945 13.8905 23.3742C13.6108 23.6539 13.4203 24.0102 13.3431 24.3982C13.266 24.7862 13.3056 25.1883 13.457 25.5538C13.6083 25.9192 13.8647 26.2316 14.1936 26.4513C14.5225 26.6711 14.9091 26.7884 15.3047 26.7884C15.835 26.7878 16.3433 26.5769 16.7183 26.2019C17.0932 25.827 17.3041 25.3186 17.3047 24.7884ZM14.3047 24.7884C14.3047 24.5906 14.3634 24.3973 14.4732 24.2328C14.5831 24.0684 14.7393 23.9402 14.922 23.8645C15.1048 23.7888 15.3058 23.769 15.4998 23.8076C15.6938 23.8462 15.872 23.9414 16.0118 24.0813C16.1517 24.2211 16.2469 24.3993 16.2855 24.5933C16.3241 24.7873 16.3043 24.9883 16.2286 25.1711C16.1529 25.3538 16.0247 25.51 15.8603 25.6199C15.6958 25.7297 15.5025 25.7884 15.3047 25.7884C15.0396 25.7881 14.7854 25.6827 14.5979 25.4952C14.4104 25.3077 14.305 25.0535 14.3047 24.7884Z" fill="#2D4356"/>
<path d="M10.888 65.8L12.375 63.844L11.436 63.312L10.481 65.502H10.45L9.48 63.328L8.525 63.875L9.996 65.784V65.816L7.695 65.518V66.582L10.011 66.285V66.316L8.525 68.225L9.416 68.788L10.434 66.582H10.465L11.404 68.772L12.39 68.209L10.888 66.332V66.3L13.25 66.582V65.518L10.888 65.831V65.8Z" fill="#923144"/>
<path d="M47.734 9.94198L46.878 11.041L47.392 11.365L47.978 10.095H47.996L48.536 11.356L49.104 11.032L48.239 9.94998V9.93198L49.599 10.095V9.48198L48.239 9.66197V9.64398L49.095 8.51797L48.555 8.21198L48.005 9.47297H47.987L47.429 8.21998L46.878 8.53598L47.726 9.63498V9.65298L46.401 9.48198V10.095L47.734 9.92397V9.94198Z" fill="#923144"/>
<path d="M143.929 46.562V45.519L141.612 45.826V45.795L143.07 43.877L142.149 43.355L141.213 45.503H141.182L140.231 43.37L139.294 43.907L140.737 45.78V45.811L138.48 45.519V46.562L140.752 46.271V46.302L139.294 48.174L140.168 48.727L141.167 46.562H141.197L142.118 48.711L143.085 48.159L141.612 46.317V46.286L143.929 46.562Z" fill="#923144"/>
<path d="M106.351 57.076L107.609 55.422L106.815 54.972L106.008 56.825H105.981L105.16 54.985L104.352 55.448L105.597 57.063V57.09L103.65 56.838V57.738L105.61 57.487V57.513L104.352 59.128L105.106 59.605L105.968 57.738H105.994L106.788 59.592L107.622 59.115L106.351 57.526V57.5L108.35 57.738V56.838L106.351 57.103V57.076Z" fill="#923144"/>
</svg>
