<svg width="168" height="168" viewBox="0 0 168 168" fill="none" xmlns="http://www.w3.org/2000/svg">
<path d="M2 146C3.10457 146 4 145.105 4 144C4 142.895 3.10457 142 2 142C0.89543 142 0 142.895 0 144C0 145.105 0.89543 146 2 146Z" fill="#2D4356"/>
<path d="M11 142H8C7.46957 142 6.96086 142.211 6.58579 142.586C6.21071 142.961 6 143.47 6 144C6 144.53 6.21071 145.039 6.58579 145.414C6.96086 145.789 7.46957 146 8 146H11C11.5304 146 12.0391 145.789 12.4142 145.414C12.7893 145.039 13 144.53 13 144C13 143.47 12.7893 142.961 12.4142 142.586C12.0391 142.211 11.5304 142 11 142ZM160 142H157C156.47 142 155.961 142.211 155.586 142.586C155.211 142.961 155 143.47 155 144C155 144.53 155.211 145.039 155.586 145.414C155.961 145.789 156.47 146 157 146H160C160.53 146 161.039 145.789 161.414 145.414C161.789 145.039 162 144.53 162 144C162 143.47 161.789 142.961 161.414 142.586C161.039 142.211 160.53 142 160 142Z" fill="#2D4356"/>
<path d="M166 146C167.105 146 168 145.105 168 144C168 142.895 167.105 142 166 142C164.895 142 164 142.895 164 144C164 145.105 164.895 146 166 146Z" fill="#2D4356"/>
<path d="M118.154 150H109.846C109.342 150.039 108.872 150.267 108.529 150.637C108.186 151.008 107.995 151.495 107.995 152C107.995 152.505 108.186 152.992 108.529 153.363C108.872 153.733 109.342 153.961 109.846 154H118.154C118.658 153.961 119.128 153.733 119.471 153.363C119.814 152.992 120.005 152.505 120.005 152C120.005 151.495 119.814 151.008 119.471 150.637C119.128 150.267 118.658 150.039 118.154 150ZM58.154 150H49.846C49.3423 150.039 48.8719 150.267 48.5287 150.637C48.1856 151.008 47.995 151.495 47.995 152C47.995 152.505 48.1856 152.992 48.5287 153.363C48.8719 153.733 49.3423 153.961 49.846 154H58.154C58.6576 153.961 59.128 153.733 59.4712 153.363C59.8143 152.992 60.0049 152.505 60.0049 152C60.0049 151.495 59.8143 151.008 59.4712 150.637C59.128 150.267 58.6576 150.039 58.154 150ZM104 150H64C63.4695 150 62.9608 150.211 62.5857 150.586C62.2107 150.961 62 151.47 62 152C62 152.53 62.2107 153.039 62.5857 153.414C62.9608 153.789 63.4695 154 64 154H79.94V156H72C71.4695 156 70.9608 156.211 70.5857 156.586C70.2107 156.961 70 157.47 70 158C70 158.53 70.2107 159.039 70.5857 159.414C70.9608 159.789 71.4695 160 72 160H97C97.5304 160 98.0391 159.789 98.4142 159.414C98.7892 159.039 99 158.53 99 158C99 157.47 98.7892 156.961 98.4142 156.586C98.0391 156.211 97.5304 156 97 156H88.06V154H104C104.53 154 105.039 153.789 105.414 153.414C105.789 153.039 106 152.53 106 152C106 151.47 105.789 150.961 105.414 150.586C105.039 150.211 104.53 150 104 150ZM41.476 98.854C42.87 98.873 44.352 99 45.81 99C46.7652 99.0132 47.7194 98.9328 48.659 98.76C49.7902 98.5804 50.8625 98.1348 51.7878 97.4597C52.713 96.7846 53.4647 95.8994 53.981 94.877C55.361 92.147 55.243 88.452 54.201 85.034C53.2241 82.3775 53.0997 79.4825 53.845 76.752C54.2542 75.6413 54.3062 74.4304 53.9937 73.2887C53.6812 72.147 53.0198 71.1315 52.102 70.384C50.7778 69.4337 49.177 68.9471 47.548 69C46.0588 68.9539 44.5916 69.3677 43.346 70.185C41.269 71.713 41.698 74.065 42.203 76.473C42.844 79.525 41.555 82.234 40.334 84.972C39.2097 87.4276 38.2346 89.9489 37.414 92.522C36.188 96.508 37.727 98.809 41.476 98.854ZM41.237 93.698C42.0082 91.2785 42.9266 88.9084 43.987 86.601L44.123 86.295C45.406 83.428 47.002 79.858 46.118 75.651C45.9342 74.9007 45.823 74.1345 45.786 73.363C46.3876 73.1043 47.0387 72.981 47.6933 73.0018C48.3479 73.0225 48.9899 73.1868 49.574 73.483C49.855 73.713 50.441 74.191 50.017 75.592C49.0473 79.0812 49.1722 82.7841 50.375 86.2C51.19 88.873 51.204 91.506 50.412 93.072C50.171 93.5552 49.8124 93.9701 49.3693 94.2786C48.9262 94.5872 48.4127 94.7795 47.876 94.838C47.1941 94.9585 46.5022 95.0127 45.81 95C45.11 95 44.38 94.966 43.61 94.93C42.9154 94.8929 42.2203 94.8676 41.525 94.854C41.305 94.852 41.077 94.221 41.237 93.698Z" fill="#923144"/>
<path d="M150.721 142H97.632C98.2079 140.692 98.392 139.245 98.162 137.835C97.765 135.482 97.735 133.541 99.367 133.049C100.357 132.765 101.325 132.41 102.263 131.987C104.475 130.945 106.483 128.85 105.167 126.562C104.581 125.587 104.25 124.479 104.205 123.342C104.161 122.204 104.404 121.074 104.912 120.056C105.664 118.181 107.532 117.452 109.506 117.452C109.862 117.453 110.218 117.476 110.571 117.52C110.831 117.553 111.094 117.569 111.356 117.57C112.525 117.569 113.665 117.209 114.623 116.54C115.632 115.823 116.835 115.431 118.073 115.418C119.294 115.455 120.491 115.771 121.571 116.342C124.021 117.594 126.726 118.262 129.477 118.296C130.239 118.296 131 118.242 131.754 118.134C135.03 117.669 138.329 117.316 141.63 117.075C142.906 117.051 144.155 116.711 145.267 116.085C146.379 115.459 147.318 114.567 148 113.489V111.194C146.846 108.476 144.487 107.762 141.881 107.22C137.447 106.298 135.796 103.491 137.731 99.493C140 94.803 139.161 91.06 135.482 87.683C135.297 87.5027 135.131 87.3032 134.988 87.088C134.738 86.739 135.884 85.435 137.553 84.171C138.575 83.394 139.573 82.634 140.565 81.867C141.564 81.1893 142.323 80.2131 142.734 79.078C143.145 77.9429 143.186 76.707 142.852 75.547C142.196 73.014 140.122 72.358 137.814 72.15C136.525 72.036 135.244 71.832 133.739 71.639C134.175 68.967 133.492 67.047 131.119 66.017C130.829 65.894 130.645 65.473 130.464 65.155C128.678 62.055 127.288 58.617 125.023 55.928C122.347 52.752 120.905 49.79 121.443 45.401C121.586 44.5026 121.536 43.584 121.296 42.7065C121.056 41.8289 120.631 41.0127 120.051 40.3123C119.47 39.6118 118.747 39.0433 117.929 38.6445C117.112 38.2458 116.218 38.0261 115.309 38C114.524 38.002 113.747 38.1558 113.021 38.453C111.012 39.4555 109.387 41.087 108.391 43.099C105.451 48.747 102.956 54.628 100.211 60.384C99.8173 61.1879 99.3817 61.9707 98.906 62.729C98.167 63.935 97.326 64.849 96.975 64.849C96.9588 64.8496 96.9426 64.8476 96.927 64.843C96.61 64.748 96.356 63.683 96.357 62.465C96.357 61.7277 96.3553 60.9917 96.352 60.257C96.323 56.086 95.212 54.37 91.314 52.98C89.363 52.285 87.264 52.01 85.299 51.349C84.803 51.1724 84.2814 51.0782 83.755 51.07C83.0705 51.1009 82.4053 51.3065 81.8226 51.667C81.2399 52.0276 80.7591 52.5312 80.426 53.13C77.434 57.426 74.596 61.85 71.356 65.95C69.3191 68.5192 66.9481 70.8047 64.306 72.746C60.941 75.203 59.061 82.951 61.473 86.419C62.705 88.189 64.586 87.923 66.519 88.509C68.5706 89.2925 70.6662 89.9556 72.795 90.495C73.0894 90.5481 73.3879 90.5748 73.687 90.575C78.092 90.575 81.799 84.805 80.544 80.005C80.075 78.209 80.024 76.958 80.585 75.822C80.7388 75.4618 80.9953 75.1548 81.3226 74.9396C81.6499 74.7244 82.0333 74.6104 82.425 74.612C83.064 74.6638 83.6765 74.8899 84.1959 75.2656C84.7154 75.6414 85.1218 76.1523 85.371 76.743L85.57 77.171C86.573 79.331 86.748 82.051 85.19 83.841C83.5983 85.7236 82.4795 87.9594 81.927 90.362C81.36 92.604 78.171 94.308 76.19 94.894C73.8765 95.4459 71.5315 95.8564 69.168 96.123C68.4896 96.1868 67.8163 96.2971 67.153 96.453L57.425 99.49C57.3948 99.4797 57.3629 99.4753 57.331 99.477C56.335 99.477 50.554 102.587 50.554 102.587C48.697 104.279 45.838 106.005 44.286 108.545C43.4322 110.089 42.8334 111.762 42.513 113.497C42.093 115.342 40.863 116.499 39.533 116.499C39.1709 116.497 38.8138 116.414 38.488 116.256C37.4752 115.769 36.4544 115.298 35.426 114.844C34.203 114.261 32.8731 113.936 31.519 113.888C29.122 113.888 27.244 115.25 25.63 118.119C23.632 121.671 21.868 125.356 20 128.981V131.851C22.136 134.099 24.164 136.471 26.462 138.534C27.5471 139.271 28.8017 139.72 30.108 139.838C31.398 140.086 32.776 139.853 34.066 140.094C34.5655 140.188 35.0727 140.237 35.581 140.238C37.8391 140.16 39.976 139.197 41.531 137.558C45.508 133.869 49.577 130.28 53.637 126.684C54.007 126.435 54.4463 126.309 54.892 126.325C57.811 126.241 60.732 126.197 63.3 126.147C66.486 129.444 70.69 135.019 74.218 138.232C74.9339 138.81 75.8279 139.122 76.748 139.116C77.1073 139.123 77.4644 139.059 77.799 138.928C79.229 138.328 79.303 136.195 78.956 134.886C78.381 132.728 79.943 130.362 81.014 130.362C81.409 130.362 81.738 130.685 81.867 131.46C82.591 135.799 84.912 138.925 87.289 142H17.279C16.9945 141.963 16.7053 141.987 16.4308 142.07C16.1562 142.154 15.9027 142.295 15.687 142.484C15.4714 142.673 15.2986 142.907 15.1803 143.168C15.0619 143.429 15.0007 143.713 15.0007 144C15.0007 144.287 15.0619 144.571 15.1803 144.832C15.2986 145.093 15.4714 145.327 15.687 145.516C15.9027 145.705 16.1562 145.846 16.4308 145.93C16.7053 146.013 16.9945 146.037 17.279 146H150.72C151.005 146.037 151.294 146.013 151.568 145.93C151.843 145.846 152.096 145.705 152.312 145.516C152.528 145.327 152.7 145.093 152.819 144.832C152.937 144.571 152.998 144.287 152.998 144C152.998 143.713 152.937 143.429 152.819 143.168C152.7 142.907 152.528 142.673 152.312 142.484C152.096 142.295 151.843 142.154 151.568 142.07C151.294 141.987 151.006 141.963 150.721 142ZM81.014 126.362C80.1397 126.39 79.284 126.622 78.5152 127.039C77.7464 127.457 77.0858 128.048 76.586 128.766C75.6083 130.064 75.0114 131.608 74.862 133.226C73.5 131.771 72.059 130.078 70.648 128.423C69.063 126.563 67.566 124.806 66.176 123.367C65.803 122.981 65.3561 122.674 64.862 122.465C64.3679 122.255 63.8367 122.147 63.3 122.147L63.222 122.148L61.362 122.183C59.233 122.222 57.032 122.262 54.772 122.327C53.3887 122.322 52.0478 122.805 50.985 123.69L50.015 124.549C46.323 127.819 42.505 131.199 38.812 134.623C37.276 136.046 36.317 136.238 35.582 136.238C35.3202 136.236 35.0592 136.211 34.802 136.162C33.9152 136.015 33.0167 135.95 32.118 135.969C31.6957 135.982 31.2732 135.962 30.854 135.909L30.721 135.883C30.1528 135.794 29.5929 135.659 29.047 135.478C27.581 134.152 26.209 132.665 24.759 131.092L24 130.269V129.947C24.4273 129.108 24.8523 128.268 25.275 127.426C26.505 124.986 27.777 122.461 29.117 120.08C30.345 117.896 31.133 117.888 31.518 117.888C32.3203 117.939 33.1044 118.15 33.824 118.508C34.814 118.942 35.824 119.418 36.774 119.87C37.6355 120.283 38.5786 120.498 39.534 120.499C42.815 120.499 45.58 118.042 46.414 114.387C46.6507 113.077 47.0839 111.811 47.699 110.631C48.6817 109.316 49.8696 108.168 51.217 107.23C51.762 106.797 52.323 106.354 52.854 105.893C54.687 104.92 56.931 103.813 57.835 103.469C58.1004 103.442 58.3624 103.389 58.617 103.309C58.617 103.309 68.189 100.319 68.34 100.273C68.447 100.245 68.758 100.209 68.965 100.185C69.255 100.15 69.542 100.115 69.821 100.069C70.477 99.961 71.149 99.869 71.826 99.777C73.6829 99.5693 75.521 99.219 77.324 98.729C78.056 98.513 84.51 96.468 85.805 91.342C86.2055 89.549 87.0291 87.8779 88.207 86.468C90.657 83.653 91.036 79.445 89.191 75.473L89.081 75.234L88.998 75.057C88.4268 73.7761 87.5084 72.6807 86.3467 71.895C85.185 71.1092 83.8265 70.6644 82.425 70.611C81.2866 70.6073 80.1708 70.9291 79.2092 71.5386C78.2477 72.1481 77.4805 73.0198 76.998 74.051C76.033 76.2532 75.9176 78.7347 76.674 81.017C76.8163 81.7634 76.7954 82.5318 76.6128 83.2693C76.4302 84.0069 76.0901 84.6962 75.616 85.29C75.402 85.6269 75.1198 85.9153 74.7876 86.1364C74.4553 86.3576 74.0804 86.5066 73.687 86.574C73.625 86.5744 73.5631 86.5694 73.502 86.559C72.3578 86.3087 71.2364 85.9642 70.149 85.529C69.3339 85.2229 68.5102 84.9401 67.679 84.681C67.0036 84.4851 66.317 84.3298 65.623 84.216C65.313 84.16 64.91 84.086 64.687 84.023C63.735 82.343 64.965 77.217 66.667 75.973C69.6003 73.8174 72.2332 71.2804 74.496 68.429C76.915 65.367 79.116 62.136 81.243 59.011C82.0588 57.8079 82.8812 56.6092 83.71 55.415C83.7816 55.3107 83.859 55.2105 83.942 55.115C83.967 55.121 83.993 55.13 84.022 55.14C85.142 55.517 86.224 55.77 87.27 56.017C88.1825 56.2118 89.0839 56.4558 89.97 56.748C92.167 57.531 92.334 57.653 92.352 60.283C92.3567 61.0077 92.3583 61.734 92.357 62.462C92.353 66.749 94.217 68.207 95.782 68.676C96.1697 68.7889 96.5712 68.8474 96.975 68.85C98.208 68.85 100.105 68.432 102.317 64.818C102.865 63.9409 103.367 63.0357 103.821 62.106C104.817 60.018 105.79 57.892 106.731 55.836C108.386 52.221 110.098 48.482 111.938 44.947C112.781 43.33 115.016 40.653 116.861 42.738C117.114 43.0351 117.3 43.3835 117.406 43.7594C117.511 44.1352 117.534 44.5295 117.473 44.915C116.693 51.271 119.306 55.352 121.963 58.504C123.276 60.2227 124.402 62.0765 125.321 64.034C125.851 65.054 126.398 66.11 126.991 67.138L127.04 67.228C127.558 68.311 128.437 69.1801 129.526 69.686C129.632 69.7292 129.733 69.7842 129.827 69.85C129.887 70.2302 129.874 70.6183 129.791 70.994C129.705 71.5237 129.725 72.0655 129.853 72.5869C129.98 73.1084 130.211 73.5989 130.532 74.0293C130.853 74.4596 131.257 74.821 131.72 75.0919C132.183 75.3628 132.697 75.5376 133.229 75.606C133.689 75.665 134.126 75.726 134.549 75.783C135.542 75.919 136.479 76.048 137.455 76.133C137.899 76.173 138.527 76.113 138.871 76.454C139.004 76.6489 139.081 76.8764 139.095 77.1121C139.108 77.3477 139.056 77.5824 138.946 77.791C138.739 78.1508 138.457 78.4615 138.119 78.702C137.129 79.4658 136.135 80.2258 135.139 80.982C131.079 84.056 129.933 86.892 131.727 89.405C132.031 89.8507 132.383 90.2615 132.777 90.63C135.23 92.883 135.584 94.746 134.131 97.75C132.285 101.563 132.904 104.407 133.748 106.121C134.622 107.896 136.601 110.208 141.067 111.136C142.095 111.231 143.082 111.587 143.935 112.168C143.2 112.761 142.284 113.085 141.339 113.086C137.945 113.334 134.531 113.699 131.191 114.174C130.623 114.255 130.05 114.296 129.477 114.296C127.335 114.262 125.23 113.732 123.327 112.748C121.702 111.904 119.904 111.449 118.073 111.418C116.04 111.431 114.059 112.059 112.39 113.221C112.092 113.446 111.729 113.568 111.356 113.569C111.26 113.569 111.164 113.563 111.068 113.551C110.55 113.486 110.028 113.453 109.506 113.452C105.59 113.452 102.484 115.363 101.2 118.564C100.525 120.031 100.187 121.63 100.212 123.245C100.237 124.859 100.623 126.448 101.343 127.893C101.1 128.08 100.838 128.239 100.56 128.368C99.7978 128.706 99.0129 128.99 98.211 129.218C94.703 130.278 93.358 133.399 94.217 138.5C94.3329 139.299 94.1776 140.114 93.776 140.815C93.6051 141.172 93.3671 141.492 93.075 141.759C92.633 142.137 92.33 142.011 91.985 141.551C91.575 141.006 91.157 140.465 90.739 139.925C88.411 136.919 86.4 134.322 85.812 130.802C85.6941 129.603 85.1406 128.489 84.2563 127.671C83.3721 126.852 82.2185 126.387 81.014 126.362ZM44.5 33C45.0933 33 45.6734 32.8241 46.1667 32.4944C46.6601 32.1648 47.0446 31.6962 47.2716 31.1481C47.4987 30.5999 47.5581 29.9967 47.4424 29.4147C47.3266 28.8328 47.0409 28.2982 46.6213 27.8787C46.2018 27.4591 45.6672 27.1734 45.0853 27.0576C44.5033 26.9419 43.9001 27.0013 43.352 27.2284C42.8038 27.4554 42.3352 27.8399 42.0056 28.3333C41.6759 28.8266 41.5 29.4067 41.5 30C41.5008 30.7954 41.8171 31.558 42.3796 32.1204C42.942 32.6829 43.7046 32.9992 44.5 33ZM44.5 28.5C44.7967 28.5 45.0867 28.588 45.3334 28.7528C45.58 28.9176 45.7723 29.1519 45.8858 29.426C45.9993 29.7001 46.0291 30.0017 45.9712 30.2926C45.9133 30.5836 45.7704 30.8509 45.5607 31.0607C45.3509 31.2704 45.0836 31.4133 44.7926 31.4712C44.5017 31.5291 44.2001 31.4994 43.926 31.3858C43.6519 31.2723 43.4176 31.08 43.2528 30.8334C43.088 30.5867 43 30.2967 43 30C43.0003 29.6023 43.1584 29.2209 43.4396 28.9396C43.7209 28.6584 44.1023 28.5003 44.5 28.5ZM162.5 25C162.104 25 161.718 25.1173 161.389 25.3371C161.06 25.5568 160.804 25.8692 160.652 26.2346C160.501 26.6001 160.461 27.0022 160.538 27.3902C160.616 27.7781 160.806 28.1345 161.086 28.4142C161.365 28.6939 161.722 28.8844 162.11 28.9616C162.498 29.0387 162.9 28.9991 163.265 28.8478C163.631 28.6964 163.943 28.44 164.163 28.1111C164.383 27.7822 164.5 27.3956 164.5 27C164.499 26.4697 164.289 25.9613 163.914 25.5864C163.539 25.2114 163.03 25.0005 162.5 25ZM162.5 28C162.302 28 162.109 27.9414 161.944 27.8315C161.78 27.7216 161.652 27.5654 161.576 27.3827C161.5 27.2 161.481 26.9989 161.519 26.8049C161.558 26.6109 161.653 26.4327 161.793 26.2929C161.933 26.153 162.111 26.0578 162.305 26.0192C162.499 25.9806 162.7 26.0004 162.883 26.0761C163.065 26.1518 163.222 26.28 163.331 26.4444C163.441 26.6089 163.5 26.8022 163.5 27C163.5 27.2651 163.394 27.5193 163.207 27.7068C163.019 27.8943 162.765 27.9997 162.5 28ZM5.5 19C5.10444 19 4.71776 19.1173 4.38886 19.3371C4.05996 19.5568 3.80362 19.8692 3.65224 20.2346C3.50087 20.6001 3.46126 21.0022 3.53843 21.3902C3.6156 21.7781 3.80608 22.1345 4.08579 22.4142C4.36549 22.6939 4.72186 22.8844 5.10982 22.9616C5.49778 23.0387 5.89992 22.9991 6.26537 22.8478C6.63082 22.6964 6.94318 22.44 7.16294 22.1111C7.3827 21.7822 7.5 21.3956 7.5 21C7.49947 20.4697 7.28859 19.9613 6.91363 19.5864C6.53867 19.2114 6.03027 19.0005 5.5 19ZM5.5 22C5.30222 22 5.10888 21.9414 4.94443 21.8315C4.77998 21.7216 4.65181 21.5654 4.57612 21.3827C4.50043 21.2 4.48063 20.9989 4.51922 20.8049C4.5578 20.6109 4.65304 20.4327 4.79289 20.2929C4.93275 20.153 5.11093 20.0578 5.30491 20.0192C5.49889 19.9806 5.69996 20.0004 5.88268 20.0761C6.06541 20.1518 6.22159 20.28 6.33147 20.4444C6.44135 20.6089 6.5 20.8022 6.5 21C6.49974 21.2651 6.39429 21.5193 6.20682 21.7068C6.01934 21.8943 5.76514 21.9997 5.5 22ZM71.105 8.566C70.8215 8.84191 70.6263 9.19569 70.5439 9.58258C70.4615 9.96948 70.4957 10.3721 70.6421 10.7396C70.7885 11.1071 71.0407 11.4228 71.3666 11.647C71.6925 11.8712 72.0776 11.9937 72.4731 11.999C72.8687 12.0043 73.2569 11.8922 73.5887 11.6769C73.9205 11.4615 74.1811 11.1526 74.3373 10.7892C74.4936 10.4258 74.5386 10.0243 74.4666 9.63529C74.3946 9.24632 74.2089 8.88743 73.933 8.604C73.5627 8.22446 73.057 8.00731 72.5269 8.00018C71.9967 7.99306 71.4853 8.19655 71.105 8.566ZM73.197 10.716C73.0552 10.8539 72.8757 10.9466 72.6812 10.9824C72.4867 11.0183 72.2859 10.9956 72.1042 10.9174C71.9226 10.8391 71.7682 10.7088 71.6607 10.5428C71.5531 10.3768 71.4972 10.1826 71.5 9.98486C71.5028 9.78709 71.5642 9.5946 71.6764 9.43172C71.7886 9.26883 71.9466 9.14288 72.1304 9.06979C72.3142 8.9967 72.5155 8.97975 72.7089 9.02108C72.9023 9.06241 73.0791 9.16018 73.217 9.302C73.4016 9.49229 73.5032 9.74805 73.4994 10.0131C73.4957 10.2782 73.3869 10.531 73.197 10.716ZM72.5 45.999C72.5 45.6034 72.3827 45.2168 72.1629 44.8879C71.9432 44.559 71.6308 44.3026 71.2654 44.1512C70.8999 43.9999 70.4978 43.9603 70.1098 44.0374C69.7219 44.1146 69.3655 44.3051 69.0858 44.5848C68.8061 44.8645 68.6156 45.2209 68.5384 45.6088C68.4613 45.9968 68.5009 46.3989 68.6522 46.7644C68.8036 47.1298 69.06 47.4422 69.3889 47.6619C69.7178 47.8817 70.1044 47.999 70.5 47.999C71.0303 47.9985 71.5387 47.7876 71.9136 47.4126C72.2886 47.0377 72.4995 46.5293 72.5 45.999ZM69.5 45.999C69.5 45.8012 69.5587 45.6079 69.6685 45.4434C69.7784 45.279 69.9346 45.1508 70.1173 45.0751C70.3 44.9994 70.5011 44.9796 70.6951 45.0182C70.8891 45.0568 71.0673 45.152 71.2071 45.2919C71.347 45.4317 71.4422 45.6099 71.4808 45.8039C71.5194 45.9979 71.4996 46.199 71.4239 46.3817C71.3482 46.5644 71.22 46.7206 71.0556 46.8305C70.8911 46.9404 70.6978 46.999 70.5 46.999C70.2349 46.9987 69.9807 46.8933 69.7932 46.7058C69.6057 46.5183 69.5003 46.2641 69.5 45.999Z" fill="#2D4356"/>
<path d="M25.083 45.01L26.57 43.055L25.631 42.523L24.677 44.713H24.645L23.675 42.538L22.72 43.086L24.191 44.995V45.026L21.891 44.729V45.793L24.207 45.496V45.527L22.72 47.435L23.612 47.999L24.63 45.793H24.66L25.599 47.983L26.585 47.42L25.083 45.542V45.511L27.445 45.793V44.729L25.083 45.042V45.01ZM96.277 28.066L95.42 29.165L95.934 29.489L96.52 28.219H96.538L97.078 29.48L97.646 29.156L96.781 28.074V28.056L98.141 28.219V27.606L96.781 27.786V27.768L97.637 26.642L97.097 26.336L96.547 27.597H96.529L95.971 26.345L95.42 26.66L96.268 27.759V27.777L94.943 27.606V28.219L96.277 28.048V28.066ZM131.5 17.712V16.669L129.183 16.976V16.945L130.642 15.027L129.721 14.505L128.785 16.653H128.753L127.802 14.52L126.865 15.058L128.308 16.93V16.961L126.052 16.669V17.712L128.323 17.421V17.452L126.865 19.324L127.74 19.877L128.738 17.712H128.768L129.689 19.861L130.656 19.309L129.183 17.467V17.436L131.5 17.712ZM139.943 46.585L141.201 44.93L140.407 44.48L139.599 46.333H139.572L138.752 44.493L137.944 44.957L139.189 46.572V46.598L137.242 46.347V47.247L139.202 46.996V47.022L137.944 48.637L138.698 49.114L139.56 47.247H139.585L140.38 49.1L141.214 48.624L139.943 47.035V47.009L141.942 47.247V46.347L139.943 46.611V46.585Z" fill="#923144"/>
</svg>
