<svg width="326" height="326" viewBox="0 0 326 326" fill="none" xmlns="http://www.w3.org/2000/svg">
<g clip-path="url(#clip0_10_111)">
<path d="M63.2466 112.062H33.5347L28.8638 122.454L61.125 247.895L244.5 250.019L274.637 117.166L261.055 110.634L63.2466 112.062Z" fill="#E1EBF4"/>
<path opacity="0.3" d="M137.536 39.036C137.536 50.1072 151.707 54.1236 166.708 58.3744C173.773 60.3762 188.471 64.5429 188.471 67.9099C188.471 71.2768 173.768 75.4461 166.706 77.4479C151.705 81.7012 137.536 85.7125 137.536 96.7812C137.536 98.1322 138.073 99.4278 139.028 100.383C139.984 101.338 141.279 101.875 142.63 101.875C143.981 101.875 145.277 101.338 146.232 100.383C147.187 99.4278 147.724 98.1322 147.724 96.7812C147.724 93.4168 162.419 89.2501 169.482 87.2508C184.485 82.9976 198.656 78.9786 198.656 67.9099C198.656 56.8412 184.485 52.8247 169.484 48.574C162.422 46.5722 147.719 42.4055 147.719 39.036C147.719 35.6741 162.419 31.5125 169.484 29.5106C184.488 25.2625 198.656 21.2511 198.656 10.1875C198.656 8.83655 198.12 7.54094 197.164 6.58567C196.209 5.63041 194.913 5.09375 193.563 5.09375C192.212 5.09375 190.916 5.63041 189.961 6.58567C189.005 7.54094 188.469 8.83655 188.469 10.1875C188.469 13.5494 173.773 17.7084 166.708 19.7077C151.705 23.961 137.534 27.9698 137.534 39.0385L137.536 39.036Z" fill="#1C2A35"/>
<path opacity="0.3" d="M110.674 77.4505C95.6734 81.6961 81.5 85.71 81.5 96.7812C81.5 98.1322 82.0367 99.4278 82.9919 100.383C83.9472 101.338 85.2428 101.875 86.5938 101.875C87.9447 101.875 89.2403 101.338 90.1956 100.383C91.1508 99.4278 91.6875 98.1322 91.6875 96.7812C91.6875 93.4168 106.383 89.2501 113.448 87.2508C128.454 82.9975 142.628 78.9811 142.628 67.9099C142.628 56.8411 128.457 52.8247 113.453 48.574C106.391 46.5721 91.6875 42.4055 91.6875 39.0359C91.6875 35.6741 106.388 31.5125 113.451 29.5106C128.457 25.2624 142.63 21.2511 142.63 10.1875C142.63 8.83586 142.093 7.5396 141.137 6.58386C140.182 5.62812 138.885 5.09119 137.534 5.09119C136.182 5.09119 134.886 5.62812 133.93 6.58386C132.974 7.5396 132.438 8.83586 132.438 10.1875C132.438 13.5494 117.739 17.7084 110.677 19.7077C95.6708 23.961 81.5 27.9698 81.5 39.0385C81.5 50.1072 95.6734 54.1236 110.677 58.3744C117.742 60.3762 132.44 64.5429 132.44 67.9099C132.44 71.2768 117.737 75.4486 110.674 77.4505Z" fill="#1C2A35"/>
<path d="M61.125 247.895L78.3164 282.713L103.148 300.531H208.844L229.855 277.62L244.5 250.019L61.125 247.895Z" fill="#805943"/>
<path opacity="0.5" d="M237.435 254.688L237.002 256.445C236.27 259.344 235.263 262.167 233.997 264.875C226.662 280.615 210.285 295.438 193.985 295.438H111.619C95.3448 295.438 78.9429 280.615 71.6079 264.875C70.3412 262.167 69.3349 259.344 68.6026 256.445L68.1951 254.688H71.6079C78.9429 270.427 95.3448 285.25 111.619 285.25H193.985C210.285 285.25 226.662 270.427 233.997 254.688H237.435Z" fill="#52392B"/>
<path opacity="0.5" d="M71.3023 122.25C71.2983 123.6 70.7603 124.893 69.8059 125.847C68.8515 126.802 67.5582 127.34 66.2085 127.344H39.3135C38.6216 127.336 37.9357 127.474 37.3015 127.751L35.8243 121.664C35.643 121.115 35.5878 120.533 35.6627 119.959C35.7377 119.386 35.9409 118.837 36.2573 118.353C36.6456 117.939 37.1215 117.617 37.6502 117.41C38.1789 117.202 38.7472 117.116 39.3135 117.156H66.2085C67.5582 117.16 68.8515 117.698 69.8059 118.653C70.7603 119.607 71.2983 120.9 71.3023 122.25ZM269.806 121.664L268.329 127.777C267.692 127.476 266.995 127.328 266.291 127.344H106.959C105.608 127.344 104.312 126.807 103.357 125.852C102.401 124.897 101.865 123.601 101.865 122.25C101.865 120.899 102.401 119.603 103.357 118.648C104.312 117.693 105.608 117.156 106.959 117.156H266.291C266.858 117.113 267.427 117.198 267.956 117.406C268.485 117.613 268.961 117.937 269.347 118.353C269.668 118.835 269.876 119.383 269.955 119.956C270.034 120.53 269.983 121.113 269.806 121.664Z" fill="white"/>
<path d="M86.5963 117.156C89.4095 117.156 91.6901 114.876 91.6901 112.062C91.6901 109.249 89.4095 106.969 86.5963 106.969C83.7831 106.969 81.5026 109.249 81.5026 112.062C81.5026 114.876 83.7831 117.156 86.5963 117.156Z" fill="#2D4356"/>
<path d="M277.614 315.812H28.0182C26.6672 315.812 25.3716 316.349 24.4164 317.304C23.4611 318.26 22.9244 319.555 22.9244 320.906C22.9244 322.257 23.4611 323.553 24.4164 324.508C25.3716 325.463 26.6672 326 28.0182 326H277.614C278.965 326 280.261 325.463 281.216 324.508C282.172 323.553 282.708 322.257 282.708 320.906C282.708 319.555 282.172 318.26 281.216 317.304C280.261 316.349 278.965 315.812 277.614 315.812ZM137.536 33.9422C137.536 45.0135 151.707 49.0299 166.708 53.2806C173.773 55.2825 188.471 59.4492 188.471 62.8161C188.471 66.1831 173.768 70.3523 166.706 72.3542C151.705 76.6075 137.536 80.6188 137.536 91.6875C137.536 93.0384 138.073 94.3341 139.028 95.2893C139.984 96.2446 141.279 96.7812 142.63 96.7812C143.981 96.7812 145.277 96.2446 146.232 95.2893C147.187 94.3341 147.724 93.0384 147.724 91.6875C147.724 88.3231 162.419 84.1564 169.482 82.1571C184.485 77.9038 198.656 73.8848 198.656 62.8161C198.656 51.7474 184.485 47.731 169.484 43.4803C162.422 41.4784 147.719 37.3117 147.719 33.9422C147.719 30.5803 162.419 26.4187 169.484 24.4169C184.488 20.1687 198.656 16.1574 198.656 5.09375C198.656 3.7428 198.12 2.44719 197.164 1.49192C196.209 0.536661 194.913 0 193.563 0C192.212 0 190.916 0.536661 189.961 1.49192C189.005 2.44719 188.469 3.7428 188.469 5.09375C188.469 8.45563 173.773 12.6147 166.708 14.614C151.705 18.8672 137.534 22.876 137.534 33.9448L137.536 33.9422Z" fill="#2D4356"/>
<path d="M110.674 72.3567C95.6734 76.6023 81.5 80.6162 81.5 91.6875C81.5 93.0384 82.0367 94.334 82.9919 95.2893C83.9472 96.2446 85.2428 96.7812 86.5938 96.7812C87.9447 96.7812 89.2403 96.2446 90.1956 95.2893C91.1508 94.334 91.6875 93.0384 91.6875 91.6875C91.6875 88.3231 106.383 84.1564 113.448 82.1571C128.454 77.9038 142.628 73.8874 142.628 62.8161C142.628 51.7474 128.457 47.731 113.453 43.4802C106.391 41.4784 91.6875 37.3117 91.6875 33.9422C91.6875 30.5803 106.388 26.4187 113.451 24.4169C128.457 20.1687 142.63 16.1574 142.63 5.09373C142.63 3.74211 142.093 2.44585 141.137 1.49011C140.182 0.534366 138.885 -0.00256348 137.534 -0.00256348C136.182 -0.00256348 134.886 0.534366 133.93 1.49011C132.974 2.44585 132.438 3.74211 132.438 5.09373C132.438 8.45561 117.739 12.6147 110.677 14.614C95.6708 18.8672 81.5 22.876 81.5 33.9447C81.5 45.0135 95.6734 49.0299 110.677 53.2806C117.742 55.2825 132.44 59.4491 132.44 62.8161C132.44 66.1831 117.737 70.3549 110.674 72.3567Z" fill="#2D4356"/>
<path d="M45.8438 305.625C48.657 305.625 50.9375 303.344 50.9375 300.531C50.9375 297.718 48.657 295.438 45.8438 295.438C43.0305 295.438 40.75 297.718 40.75 300.531C40.75 303.344 43.0305 305.625 45.8438 305.625Z" fill="#2D4356"/>
<path d="M259.786 305.625C262.6 305.625 264.88 303.344 264.88 300.531C264.88 297.718 262.6 295.438 259.786 295.438C256.973 295.438 254.693 297.718 254.693 300.531C254.693 303.344 256.973 305.625 259.786 305.625Z" fill="#2D4356"/>
<path d="M178.281 180.828C178.281 185.865 176.788 190.789 173.989 194.978C171.19 199.166 167.213 202.431 162.559 204.358C157.905 206.286 152.784 206.79 147.844 205.808C142.903 204.825 138.365 202.399 134.803 198.837C131.242 195.275 128.816 190.737 127.833 185.797C126.85 180.856 127.355 175.735 129.282 171.082C131.21 166.428 134.475 162.45 138.663 159.652C142.851 156.853 147.775 155.359 152.813 155.359C159.565 155.366 166.039 158.052 170.814 162.826C175.589 167.601 178.275 174.075 178.281 180.828Z" fill="#805943"/>
<path d="M300.251 163.076C298.89 161.417 297.17 160.088 295.219 159.192C293.269 158.297 291.14 157.857 288.994 157.906H271.471L279.708 124.063C280.298 122.026 280.395 119.877 279.991 117.795C279.588 115.712 278.695 113.756 277.386 112.086C276.078 110.417 274.392 109.082 272.466 108.192C270.54 107.302 268.431 106.883 266.311 106.969H106.971C105.62 106.969 104.325 107.505 103.37 108.461C102.414 109.416 101.878 110.712 101.878 112.062C101.878 113.413 102.414 114.709 103.37 115.664C104.325 116.62 105.62 117.156 106.971 117.156H266.311C266.877 117.113 267.445 117.199 267.973 117.407C268.5 117.616 268.974 117.941 269.358 118.358C269.677 118.838 269.883 119.385 269.961 119.956C270.039 120.527 269.987 121.108 269.808 121.657L239.918 244.5H65.7145L35.8218 121.657C35.6436 121.108 35.5918 120.527 35.6703 119.955C35.7488 119.384 35.9556 118.838 36.2752 118.358C36.6588 117.941 37.132 117.616 37.6591 117.408C38.1862 117.2 38.7536 117.114 39.3187 117.156H66.2188C67.5697 117.156 68.8653 116.62 69.8206 115.664C70.7759 114.709 71.3125 113.413 71.3125 112.062C71.3125 110.712 70.7759 109.416 69.8206 108.461C68.8653 107.505 67.5697 106.969 66.2188 106.969H39.3187C37.1994 106.884 35.0902 107.303 33.1649 108.193C31.2397 109.083 29.5534 110.418 28.2451 112.087C26.9368 113.757 26.044 115.713 25.6401 117.795C25.2362 119.878 25.3329 122.026 25.9221 124.063L58.7259 258.857C62.8375 273.508 71.7028 286.376 83.9272 295.437H66.2188C64.8678 295.437 63.5722 295.974 62.617 296.929C61.6617 297.885 61.125 299.18 61.125 300.531C61.125 301.882 61.6617 303.178 62.617 304.133C63.5722 305.088 64.8678 305.625 66.2188 305.625H239.411C240.762 305.625 242.058 305.088 243.013 304.133C243.968 303.178 244.505 301.882 244.505 300.531C244.505 299.18 243.968 297.885 243.013 296.929C242.058 295.974 240.762 295.437 239.411 295.437H221.698C233.926 286.376 242.795 273.508 246.912 258.857L268.991 168.094H288.991C289.596 168.049 290.203 168.141 290.767 168.364C291.331 168.588 291.836 168.936 292.246 169.382C292.573 169.861 292.788 170.408 292.874 170.981C292.96 171.554 292.915 172.14 292.743 172.693L277.793 232.377C277.195 234.329 276.012 236.05 274.403 237.307C272.794 238.565 270.838 239.297 268.8 239.406H265.369C264.018 239.406 262.723 239.943 261.767 240.898C260.812 241.853 260.275 243.149 260.275 244.5C260.275 245.851 260.812 247.147 261.767 248.102C262.723 249.057 264.018 249.594 265.369 249.594H268.8C273.12 249.486 277.29 247.99 280.692 245.326C284.094 242.662 286.547 238.972 287.687 234.804L302.638 175.121C303.18 173.063 303.247 170.909 302.833 168.822C302.419 166.734 301.535 164.769 300.249 163.074L300.251 163.076ZM194.006 295.437H111.624C92.4414 295.437 73.1004 274.854 68.623 256.447L68.1952 254.687H237.438L237.01 256.447C232.53 274.854 213.189 295.437 194.006 295.437Z" fill="#2D4356"/>
<path opacity="0.5" d="M182.899 180.828C182.899 194.352 171.117 209.009 157.746 209.799C157.236 209.85 154.756 211.551 154.246 211.551C153.737 211.551 148.865 209.055 148.355 209.004C135.01 208.212 123.523 194.352 123.523 180.828C123.523 179.096 127.522 177.39 127.853 175.76C129.035 181.507 132.163 186.67 136.711 190.377C141.258 194.085 146.945 196.109 152.812 196.109C158.68 196.109 164.367 194.085 168.914 190.377C173.462 186.67 176.59 181.507 177.772 175.76C178.103 177.39 182.899 179.096 182.899 180.828Z" fill="#52392B"/>
<path d="M152.813 145.172C145.76 145.172 138.867 147.263 133.003 151.181C127.139 155.099 122.569 160.668 119.87 167.183C117.172 173.698 116.466 180.868 117.841 187.784C119.217 194.701 122.613 201.054 127.6 206.041C132.586 211.028 138.94 214.423 145.856 215.799C152.773 217.175 159.942 216.469 166.458 213.77C172.973 211.071 178.542 206.501 182.46 200.638C186.378 194.774 188.469 187.88 188.469 180.828C188.467 171.372 184.709 162.304 178.023 155.618C171.337 148.931 162.269 145.174 152.813 145.172ZM152.813 206.297C147.775 206.297 142.851 204.803 138.663 202.005C134.475 199.206 131.21 195.228 129.282 190.575C127.355 185.921 126.85 180.8 127.833 175.859C128.816 170.919 131.242 166.381 134.803 162.819C138.365 159.257 142.903 156.831 147.844 155.849C152.784 154.866 157.905 155.37 162.559 157.298C167.213 159.226 171.19 162.49 173.989 166.678C176.788 170.867 178.281 175.791 178.281 180.828C178.27 187.58 175.584 194.051 170.81 198.825C166.036 203.599 159.564 206.286 152.813 206.297Z" fill="#2D4356"/>
</g>
<defs>
<clipPath id="clip0_10_111">
<rect width="326" height="326" fill="white"/>
</clipPath>
</defs>
</svg>
