<svg width="168" height="168" viewBox="0 0 168 168" fill="none" xmlns="http://www.w3.org/2000/svg">
<path d="M35.959 95.0429C36.9454 95.0429 37.745 94.255 37.745 93.2829C37.745 92.3109 36.9454 91.5229 35.959 91.5229C34.9726 91.5229 34.173 92.3109 34.173 93.2829C34.173 94.255 34.9726 95.0429 35.959 95.0429Z" fill="#923144"/>
<path d="M67.993 91.76H65.993C65.7341 91.76 65.4778 91.811 65.2387 91.91C64.9996 92.0091 64.7823 92.1543 64.5993 92.3373C64.4162 92.5203 64.2711 92.7376 64.172 92.9767C64.073 93.2159 64.022 93.4722 64.022 93.731C64.022 93.9898 64.073 94.2461 64.172 94.4853C64.2711 94.7244 64.4162 94.9417 64.5993 95.1247C64.7823 95.3077 64.9996 95.4529 65.2387 95.552C65.4778 95.651 65.7341 95.702 65.993 95.702H67.993C68.5157 95.702 69.017 95.4944 69.3867 95.1247C69.7563 94.7551 69.964 94.2538 69.964 93.731C69.964 93.2083 69.7563 92.7069 69.3867 92.3373C69.017 91.9677 68.5157 91.76 67.993 91.76Z" fill="#923144"/>
<path d="M77.992 91.76H75.992C75.7332 91.76 75.4769 91.811 75.2377 91.91C74.9986 92.0091 74.7813 92.1543 74.5983 92.3373C74.4153 92.5203 74.2701 92.7376 74.171 92.9767C74.072 93.2159 74.021 93.4722 74.021 93.731C74.021 93.9898 74.072 94.2461 74.171 94.4853C74.2701 94.7244 74.4153 94.9417 74.5983 95.1247C74.7813 95.3077 74.9986 95.4529 75.2377 95.552C75.4769 95.651 75.7332 95.702 75.992 95.702H77.992C78.5147 95.702 79.0161 95.4944 79.3857 95.1247C79.7553 94.7551 79.963 94.2538 79.963 93.731C79.963 93.2083 79.7553 92.7069 79.3857 92.3373C79.0161 91.9677 78.5147 91.76 77.992 91.76Z" fill="#2D4356"/>
<path d="M87.99 91.76H85.991C85.7322 91.76 85.4759 91.811 85.2368 91.91C84.9976 92.0091 84.7803 92.1543 84.5973 92.3373C84.4143 92.5203 84.2691 92.7376 84.1701 92.9767C84.071 93.2159 84.02 93.4722 84.02 93.731C84.02 93.9898 84.071 94.2461 84.1701 94.4853C84.2691 94.7244 84.4143 94.9417 84.5973 95.1247C84.7803 95.3077 84.9976 95.4529 85.2368 95.552C85.4759 95.651 85.7322 95.702 85.991 95.702H87.991C88.5138 95.702 89.0151 95.4944 89.3847 95.1247C89.7544 94.7551 89.962 94.2538 89.962 93.731C89.962 93.2083 89.7544 92.7069 89.3847 92.3373C89.0151 91.9677 88.5128 91.76 87.99 91.76Z" fill="#923144"/>
<path d="M97.99 91.76H95.99C95.7311 91.76 95.4748 91.811 95.2357 91.91C94.9966 92.0091 94.7793 92.1543 94.5963 92.3373C94.4132 92.5203 94.2681 92.7376 94.169 92.9767C94.07 93.2159 94.019 93.4722 94.019 93.731C94.019 93.9898 94.07 94.2461 94.169 94.4853C94.2681 94.7244 94.4132 94.9417 94.5963 95.1247C94.7793 95.3077 94.9966 95.4529 95.2357 95.552C95.4748 95.651 95.7311 95.702 95.99 95.702H97.99C98.5127 95.702 99.014 95.4944 99.3837 95.1247C99.7533 94.7551 99.961 94.2538 99.961 93.731C99.961 93.2083 99.7533 92.7069 99.3837 92.3373C99.014 91.9677 98.5127 91.76 97.99 91.76ZM67.993 99.644H65.993C65.4702 99.644 64.9689 99.8517 64.5993 100.221C64.2296 100.591 64.022 101.092 64.022 101.615C64.022 102.138 64.2296 102.639 64.5993 103.009C64.9689 103.378 65.4702 103.586 65.993 103.586H67.993C68.5157 103.586 69.017 103.378 69.3867 103.009C69.7563 102.639 69.964 102.138 69.964 101.615C69.964 101.092 69.7563 100.591 69.3867 100.221C69.017 99.8517 68.5157 99.644 67.993 99.644Z" fill="#2D4356"/>
<path d="M77.992 99.644H75.992C75.4692 99.644 74.9679 99.8517 74.5983 100.221C74.2286 100.591 74.021 101.092 74.021 101.615C74.021 102.138 74.2286 102.639 74.5983 103.009C74.9679 103.378 75.4692 103.586 75.992 103.586H77.992C78.5147 103.586 79.0161 103.378 79.3857 103.009C79.7553 102.639 79.963 102.138 79.963 101.615C79.963 101.092 79.7553 100.591 79.3857 100.221C79.0161 99.8517 78.5147 99.644 77.992 99.644Z" fill="#923144"/>
<path d="M87.99 99.644H85.991C85.4683 99.644 84.9669 99.8517 84.5973 100.221C84.2277 100.591 84.02 101.092 84.02 101.615C84.02 102.138 84.2277 102.639 84.5973 103.009C84.9669 103.378 85.4683 103.586 85.991 103.586H87.991C88.5138 103.586 89.0151 103.378 89.3847 103.009C89.7544 102.639 89.962 102.138 89.962 101.615C89.962 101.092 89.7544 100.591 89.3847 100.221C89.0151 99.8517 88.5128 99.644 87.99 99.644Z" fill="#2D4356"/>
<path d="M97.99 99.644H95.99C95.4672 99.644 94.9659 99.8517 94.5963 100.221C94.2266 100.591 94.019 101.092 94.019 101.615C94.019 102.138 94.2266 102.639 94.5963 103.009C94.9659 103.378 95.4672 103.586 95.99 103.586H97.99C98.5127 103.586 99.0141 103.378 99.3837 103.009C99.7533 102.639 99.961 102.138 99.961 101.615C99.961 101.092 99.7533 100.591 99.3837 100.221C99.0141 99.8517 98.5127 99.644 97.99 99.644Z" fill="#923144"/>
<path d="M83.992 31.958C84.5854 31.958 85.1654 31.782 85.6587 31.4524C86.1521 31.1228 86.5366 30.6542 86.7637 30.106C86.9907 29.5579 87.0501 28.9547 86.9344 28.3727C86.8186 27.7908 86.5329 27.2562 86.1133 26.8367C85.6938 26.4171 85.1592 26.1314 84.5773 26.0156C83.9953 25.8999 83.3921 25.9593 82.844 26.1864C82.2958 26.4134 81.8272 26.7979 81.4976 27.2913C81.168 27.7846 80.992 28.3646 80.992 28.958C80.9928 29.7534 81.3091 30.516 81.8716 31.0784C82.434 31.6409 83.1966 31.9572 83.992 31.958ZM83.992 27.458C84.2887 27.458 84.5787 27.546 84.8254 27.7108C85.072 27.8756 85.2643 28.1099 85.3778 28.384C85.4914 28.6581 85.5211 28.9597 85.4632 29.2506C85.4053 29.5416 85.2625 29.8089 85.0527 30.0187C84.8429 30.2284 84.5756 30.3713 84.2846 30.4292C83.9937 30.487 83.6921 30.4573 83.418 30.3438C83.1439 30.2303 82.9096 30.038 82.7448 29.7913C82.58 29.5447 82.492 29.2547 82.492 28.958C82.4923 28.5602 82.6504 28.1789 82.9316 27.8976C83.2129 27.6164 83.5943 27.4583 83.992 27.458ZM36.658 24.792C36.2625 24.792 35.8758 24.9093 35.5469 25.1291C35.218 25.3488 34.9616 25.6612 34.8103 26.0266C34.6589 26.3921 34.6193 26.7942 34.6964 27.1822C34.7736 27.5701 34.9641 27.9265 35.2438 28.2062C35.5235 28.4859 35.8799 28.6764 36.2678 28.7536C36.6558 28.8307 37.0579 28.7911 37.4234 28.6398C37.7888 28.4884 38.1012 28.232 38.321 27.9031C38.5407 27.5742 38.658 27.1876 38.658 26.792C38.6575 26.2617 38.4466 25.7533 38.0716 25.3784C37.6967 25.0034 37.1883 24.7925 36.658 24.792ZM36.658 27.792C36.4602 27.792 36.2669 27.7333 36.1024 27.6235C35.938 27.5136 35.8098 27.3574 35.7341 27.1747C35.6584 26.9919 35.6386 26.7909 35.6772 26.5969C35.7158 26.4029 35.8111 26.2247 35.9509 26.0849C36.0908 25.945 36.2689 25.8498 36.4629 25.8112C36.6569 25.7726 36.858 25.7924 37.0407 25.8681C37.2234 25.9438 37.3796 26.072 37.4895 26.2364C37.5994 26.4009 37.658 26.5942 37.658 26.792C37.6577 27.0571 37.5523 27.3113 37.3648 27.4988C37.1773 27.6863 36.9231 27.7917 36.658 27.792ZM137.104 25.625C136.708 25.625 136.322 25.7423 135.993 25.9621C135.664 26.1818 135.408 26.4942 135.256 26.8596C135.105 27.2251 135.065 27.6272 135.142 28.0152C135.22 28.4031 135.41 28.7595 135.69 29.0392C135.97 29.3189 136.326 29.5094 136.714 29.5866C137.102 29.6637 137.504 29.6241 137.869 29.4728C138.235 29.3214 138.547 29.065 138.767 28.7361C138.987 28.4072 139.104 28.0206 139.104 27.625C139.103 27.0947 138.893 26.5863 138.518 26.2114C138.143 25.8364 137.634 25.6255 137.104 25.625ZM137.104 28.625C136.906 28.625 136.713 28.5663 136.548 28.4565C136.384 28.3466 136.256 28.1904 136.18 28.0077C136.104 27.8249 136.085 27.6239 136.123 27.4299C136.162 27.2359 136.257 27.0577 136.397 26.9179C136.537 26.778 136.715 26.6828 136.909 26.6442C137.103 26.6056 137.304 26.6254 137.487 26.7011C137.669 26.7768 137.826 26.905 137.935 27.0694C138.045 27.2339 138.104 27.4272 138.104 27.625C138.104 27.8901 137.998 28.1443 137.811 28.3318C137.623 28.5193 137.369 28.6247 137.104 28.625ZM114.938 47.947C114.542 47.947 114.156 48.0643 113.827 48.2841C113.498 48.5038 113.242 48.8162 113.09 49.1816C112.939 49.5471 112.899 49.9492 112.976 50.3372C113.054 50.7251 113.244 51.0815 113.524 51.3612C113.804 51.6409 114.16 51.8314 114.548 51.9086C114.936 51.9857 115.338 51.9461 115.703 51.7948C116.069 51.6434 116.381 51.387 116.601 51.0581C116.821 50.7292 116.938 50.3426 116.938 49.947C116.937 49.4167 116.727 48.9083 116.352 48.5334C115.977 48.1584 115.468 47.9475 114.938 47.947ZM114.938 50.947C114.74 50.947 114.547 50.8883 114.382 50.7785C114.218 50.6686 114.09 50.5124 114.014 50.3297C113.938 50.147 113.919 49.9459 113.957 49.7519C113.996 49.5579 114.091 49.3797 114.231 49.2399C114.371 49.1 114.549 49.0048 114.743 48.9662C114.937 48.9276 115.138 48.9474 115.321 49.0231C115.503 49.0988 115.66 49.227 115.769 49.3914C115.879 49.5559 115.938 49.7492 115.938 49.947C115.938 50.2121 115.832 50.4663 115.645 50.6538C115.457 50.8413 115.203 50.9467 114.938 50.947ZM24.825 66.125C24.825 65.7294 24.7077 65.3428 24.488 65.0139C24.2682 64.685 23.9558 64.4286 23.5904 64.2772C23.2249 64.1259 22.8228 64.0863 22.4348 64.1634C22.0469 64.2406 21.6905 64.4311 21.4108 64.7108C21.1311 64.9905 20.9406 65.3468 20.8634 65.7348C20.7863 66.1228 20.8259 66.5249 20.9773 66.8904C21.1286 67.2558 21.385 67.5682 21.7139 67.7879C22.0428 68.0077 22.4295 68.125 22.825 68.125C23.3553 68.1245 23.8637 67.9136 24.2386 67.5386C24.6136 67.1637 24.8245 66.6553 24.825 66.125ZM21.825 66.125C21.825 65.9272 21.8837 65.7339 21.9935 65.5694C22.1034 65.405 22.2596 65.2768 22.4423 65.2011C22.6251 65.1254 22.8261 65.1056 23.0201 65.1442C23.2141 65.1828 23.3923 65.278 23.5321 65.4179C23.672 65.5577 23.7672 65.7359 23.8058 65.9299C23.8444 66.1239 23.8246 66.3249 23.7489 66.5077C23.6732 66.6904 23.545 66.8466 23.3806 66.9565C23.2161 67.0663 23.0228 67.125 22.825 67.125C22.5599 67.1247 22.3057 67.0193 22.1182 66.8318C21.9307 66.6443 21.8253 66.3901 21.825 66.125Z" fill="#2D4356"/>
<path d="M59.574 51.0009L61.06 49.0459L60.122 48.5139L59.167 50.7039H59.135L58.166 48.5289L57.211 49.0769L58.682 50.9859V51.0169L56.381 50.7199V51.7829L58.697 51.4859V51.5179L57.211 53.4259L58.102 53.9899L59.12 51.7829H59.151L60.09 53.9739L61.076 53.4109L59.574 51.5329V51.5019L61.936 51.7829V50.7199L59.574 51.0319V51.0009ZM7.967 38.2429L7.111 39.3419L7.624 39.6669L8.21 38.3959H8.228L8.769 39.6579L9.336 39.3329L8.472 38.2519V38.2339L9.832 38.3959V37.7839L8.472 37.9639V37.9459L9.328 36.8199L8.787 36.5129L8.237 37.7739H8.219L7.661 36.5219L7.111 36.8379L7.958 37.9369V37.9549L6.633 37.7839V38.3959L7.967 38.2249V38.2429ZM142.553 63.9259V62.8819L140.236 63.1889V63.1579L141.694 61.2399L140.773 60.7189L139.837 62.8669H139.806L138.855 60.7339L137.918 61.2709L139.361 63.1429V63.1739L137.104 62.8819V63.9259L139.376 63.6349V63.6649L137.918 65.5369L138.792 66.0899L139.791 63.9259H139.821L140.742 66.0739L141.709 65.5219L140.236 63.6799V63.6499L142.553 63.9259ZM162.176 41.9129L163.434 40.2579L162.64 39.8079L161.833 41.6609H161.806L160.985 39.8209L160.177 40.2849L161.422 41.8999V41.9259L159.475 41.6749V42.5749L161.435 42.3239V42.3499L160.177 43.9649L160.931 44.4419L161.793 42.5749H161.819L162.613 44.4279L163.447 43.9519L162.176 42.3629V42.3369L164.175 42.5749V41.6749L162.176 41.9389V41.9129Z" fill="#923144"/>
<path d="M2 129.208C3.10457 129.208 4 128.313 4 127.208C4 126.103 3.10457 125.208 2 125.208C0.89543 125.208 0 126.103 0 127.208C0 128.313 0.89543 129.208 2 129.208Z" fill="#2D4356"/>
<path d="M11 125.208H8C7.46957 125.208 6.96086 125.419 6.58579 125.794C6.21071 126.169 6 126.678 6 127.208C6 127.738 6.21071 128.247 6.58579 128.622C6.96086 128.997 7.46957 129.208 8 129.208H11C11.5304 129.208 12.0391 128.997 12.4142 128.622C12.7893 128.247 13 127.738 13 127.208C13 126.678 12.7893 126.169 12.4142 125.794C12.0391 125.419 11.5304 125.208 11 125.208ZM160 125.208H157C156.47 125.208 155.961 125.419 155.586 125.794C155.211 126.169 155 126.678 155 127.208C155 127.738 155.211 128.247 155.586 128.622C155.961 128.997 156.47 129.208 157 129.208H160C160.53 129.208 161.039 128.997 161.414 128.622C161.789 128.247 162 127.738 162 127.208C162 126.678 161.789 126.169 161.414 125.794C161.039 125.419 160.53 125.208 160 125.208Z" fill="#2D4356"/>
<path d="M166 129.208C167.105 129.208 168 128.313 168 127.208C168 126.103 167.105 125.208 166 125.208C164.895 125.208 164 126.103 164 127.208C164 128.313 164.895 129.208 166 129.208Z" fill="#2D4356"/>
<path d="M118.154 133.208H109.846C109.342 133.247 108.872 133.475 108.529 133.845C108.186 134.216 107.995 134.703 107.995 135.208C107.995 135.713 108.186 136.2 108.529 136.571C108.872 136.941 109.342 137.169 109.846 137.208H118.154C118.658 137.169 119.128 136.941 119.471 136.571C119.814 136.2 120.005 135.713 120.005 135.208C120.005 134.703 119.814 134.216 119.471 133.845C119.128 133.475 118.658 133.247 118.154 133.208ZM58.154 133.208H49.846C49.3423 133.247 48.8719 133.475 48.5288 133.845C48.1857 134.216 47.9951 134.703 47.9951 135.208C47.9951 135.713 48.1857 136.2 48.5288 136.571C48.8719 136.941 49.3423 137.169 49.846 137.208H58.154C58.6577 137.169 59.1281 136.941 59.4712 136.571C59.8144 136.2 60.005 135.713 60.005 135.208C60.005 134.703 59.8144 134.216 59.4712 133.845C59.1281 133.475 58.6577 133.247 58.154 133.208ZM104 133.208H64C63.4696 133.208 62.9609 133.419 62.5858 133.794C62.2107 134.169 62 134.678 62 135.208C62 135.738 62.2107 136.247 62.5858 136.622C62.9609 136.997 63.4696 137.208 64 137.208H79.94V139.208H72C71.4696 139.208 70.9609 139.419 70.5858 139.794C70.2107 140.169 70 140.678 70 141.208C70 141.738 70.2107 142.247 70.5858 142.622C70.9609 142.997 71.4696 143.208 72 143.208H97C97.5305 143.208 98.0392 142.997 98.4142 142.622C98.7893 142.247 99 141.738 99 141.208C99 140.678 98.7893 140.169 98.4142 139.794C98.0392 139.419 97.5305 139.208 97 139.208H88.06V137.208H104C104.53 137.208 105.039 136.997 105.414 136.622C105.789 136.247 106 135.738 106 135.208C106 134.678 105.789 134.169 105.414 133.794C105.039 133.419 104.53 133.208 104 133.208Z" fill="#923144"/>
<path d="M150.721 125.208H95.701C96.453 119.472 94.175 115.983 91.925 114.224C92.7614 113.423 93.7613 112.812 94.856 112.433C95.9507 112.055 97.1143 111.918 98.267 112.031C112.931 122.734 118.488 116.545 119.077 115.797C119.392 115.4 119.539 114.897 119.489 114.393C119.439 113.889 119.195 113.424 118.808 113.097C116.916 111.423 115.445 109.326 114.515 106.976C114.438 106.789 114.401 106.589 114.405 106.387C114.409 106.185 114.454 105.986 114.538 105.802C114.621 105.614 114.741 105.445 114.891 105.304C115.041 105.164 115.217 105.055 115.41 104.984C115.647 104.896 115.902 104.869 116.152 104.906C116.402 104.943 116.639 105.042 116.84 105.194L135.887 119.574C137.319 120.66 139.089 121.205 140.884 121.112C142.679 121.02 144.383 120.296 145.696 119.068L145.943 118.837C147.136 117.742 147.866 116.233 147.983 114.619C148.1 113.004 147.596 111.405 146.573 110.15L134.875 95.5961L143.735 80.0261C144.469 78.7323 144.752 77.2315 144.54 75.7593C144.329 74.2872 143.634 72.9269 142.566 71.8921C141.361 70.7188 139.764 70.0342 138.083 69.9707C136.403 69.9071 134.758 70.4692 133.468 71.5481L116.528 85.6511C115.586 86.4044 114.415 86.8134 113.208 86.8105C112.002 86.8076 110.833 86.3929 109.894 85.6351C103.044 80.0988 94.5747 76.9496 85.772 76.6661V68.1401C85.77 67.3412 85.5731 66.5549 85.1985 65.8493C84.8238 65.1437 84.2827 64.5402 83.622 64.0911C82.9554 63.6359 82.1897 63.3467 81.3886 63.2476C80.5876 63.1484 79.7745 63.2422 79.017 63.5211C69.52 67.0141 65.926 73.3051 64.724 76.2271C59.3221 76.1129 53.9261 76.6484 48.652 77.8221C48.5761 77.8344 48.501 77.8511 48.427 77.8721C31.141 81.8681 20.934 92.3031 20.067 100.312C19.677 103.906 21.076 105.882 22.318 106.908C25.458 109.5 30.692 108.703 32.874 108.218C37.6597 111.302 42.8859 113.641 48.374 115.156C48.396 115.163 48.417 115.167 48.439 115.173C55.9084 117.135 63.619 118.025 71.339 117.815L72.296 117.812C74.421 117.812 78.559 121.014 81.884 123.587C82.612 124.15 83.316 124.695 83.998 125.209H17.278C16.9935 125.172 16.7043 125.196 16.4298 125.279C16.1553 125.363 15.9017 125.504 15.6861 125.693C15.4704 125.883 15.2976 126.116 15.1793 126.377C15.0609 126.638 14.9997 126.922 14.9997 127.209C14.9997 127.496 15.0609 127.78 15.1793 128.041C15.2976 128.302 15.4704 128.536 15.6861 128.725C15.9017 128.914 16.1553 129.055 16.4298 129.139C16.7043 129.222 16.9935 129.246 17.278 129.209H150.721C151.006 129.246 151.295 129.222 151.569 129.139C151.844 129.055 152.097 128.914 152.313 128.725C152.529 128.536 152.701 128.302 152.82 128.041C152.938 127.78 152.999 127.496 152.999 127.209C152.999 126.922 152.938 126.638 152.82 126.377C152.701 126.116 152.529 125.883 152.313 125.693C152.097 125.504 151.844 125.363 151.569 125.279C151.295 125.196 151.006 125.171 150.721 125.208ZM48.131 110.954C44.4019 109.82 40.8104 108.274 37.423 106.346C38.9737 105.462 40.329 104.273 41.407 102.851C41.5592 102.641 41.668 102.402 41.7269 102.149C41.7858 101.896 41.7937 101.634 41.7502 101.378C41.7066 101.122 41.6124 100.878 41.4731 100.658C41.3338 100.439 41.1523 100.25 40.939 100.102C40.5065 99.7976 39.9718 99.6752 39.4499 99.7613C38.9281 99.8473 38.4609 100.135 38.149 100.562C36.379 103.01 32.879 104.138 32.685 104.2C30.882 104.715 26.615 105.312 24.886 103.885C24.616 103.663 23.798 102.987 24.042 100.729C24.677 94.8751 32.998 85.8731 48.084 82.0191C50.322 85.6991 56.386 97.8921 48.131 110.954ZM84.354 120.484C79.957 117.083 75.803 113.87 72.296 113.87L71.324 113.872C64.8767 114.021 58.4347 113.401 52.134 112.026C59.828 98.8321 54.916 86.3401 52.134 81.1411C55.9261 80.4724 59.7704 80.1437 63.621 80.1591C63.426 81.0891 63.21 82.2501 63.014 83.5981C62.9783 83.8559 62.9938 84.1183 63.0598 84.3702C63.1258 84.622 63.2409 84.8584 63.3985 85.0656C63.5561 85.2728 63.7531 85.4469 63.9782 85.5777C64.2032 85.7086 64.452 85.7936 64.71 85.8281C64.8048 85.8414 64.9003 85.848 64.996 85.8481C65.4739 85.8501 65.9365 85.6802 66.2995 85.3694C66.6624 85.0585 66.9015 84.6275 66.973 84.1551C67.2229 82.3431 67.5859 80.5486 68.06 78.7821C68.063 78.7691 68.063 78.7571 68.067 78.7441C68.071 78.7281 68.079 78.7131 68.083 78.6961C68.161 78.3841 70.128 70.9961 80.416 67.2121C80.5678 67.1544 80.7314 67.1348 80.8925 67.155C81.0535 67.1752 81.2072 67.2347 81.34 67.3281C81.474 67.4163 81.5838 67.5366 81.6594 67.678C81.735 67.8195 81.7741 67.9776 81.773 68.1381V76.6811H78.742C78.2193 76.6811 77.7179 76.8887 77.3483 77.2584C76.9787 77.628 76.771 78.1293 76.771 78.6521C76.771 79.1748 76.9787 79.6761 77.3483 80.0458C77.7179 80.4154 78.2193 80.6231 78.742 80.6231H83.772C83.797 80.6231 83.819 80.6171 83.842 80.6161C83.865 80.6151 83.889 80.6201 83.913 80.6181C92.4156 80.4881 100.697 83.3315 107.326 88.6571C108.98 90.035 111.064 90.7901 113.217 90.791C115.369 90.7919 117.454 90.0386 119.109 88.6621L136.049 74.5601C136.575 74.1195 137.245 73.89 137.931 73.9158C138.616 73.9417 139.268 74.2212 139.759 74.7001C140.205 75.132 140.496 75.7 140.584 76.3148C140.673 76.9297 140.555 77.5565 140.249 78.0971L130.73 94.8201C130.536 95.1603 130.449 95.5512 130.48 95.9417C130.511 96.3323 130.66 96.7043 130.906 97.0091L143.438 112.599C143.835 113.087 144.031 113.709 143.985 114.337C143.939 114.965 143.654 115.552 143.19 115.977L142.943 116.207C142.324 116.786 141.52 117.127 140.674 117.171C139.828 117.215 138.993 116.958 138.318 116.446L119.271 102.066C118.606 101.565 117.838 101.221 117.022 101.058C116.206 100.894 115.364 100.917 114.558 101.123C113.752 101.329 113.002 101.714 112.365 102.249C111.728 102.784 111.219 103.456 110.877 104.214C110.577 104.877 110.416 105.595 110.403 106.322C110.39 107.05 110.526 107.773 110.803 108.446C111.637 110.509 112.795 112.425 114.233 114.122C112.094 114.575 107.783 114.176 100.231 108.558C99.9699 108.364 99.666 108.236 99.345 108.185C96.412 107.717 90.139 108.335 87.298 113.992C87.1762 114.24 87.1083 114.511 87.0988 114.787C87.0893 115.063 87.1385 115.337 87.243 115.593C87.3492 115.852 87.5079 116.086 87.7091 116.28C87.9104 116.474 88.1497 116.624 88.412 116.721C88.842 116.881 92.585 118.466 91.726 124.771C91.7073 124.919 91.6772 125.066 91.636 125.209H91.435C89.932 124.8 86.491 122.141 84.353 120.486L84.354 120.484Z" fill="#2D4356"/>
</svg>
