<svg width="168" height="168" viewBox="0 0 168 168" fill="none" xmlns="http://www.w3.org/2000/svg">
<path d="M2 152C3.10457 152 4 151.105 4 150C4 148.895 3.10457 148 2 148C0.89543 148 0 148.895 0 150C0 151.105 0.89543 152 2 152Z" fill="#2D4356"/>
<path d="M11 148H8C7.46957 148 6.96086 148.211 6.58579 148.586C6.21071 148.961 6 149.47 6 150C6 150.53 6.21071 151.039 6.58579 151.414C6.96086 151.789 7.46957 152 8 152H11C11.5304 152 12.0391 151.789 12.4142 151.414C12.7893 151.039 13 150.53 13 150C13 149.47 12.7893 148.961 12.4142 148.586C12.0391 148.211 11.5304 148 11 148Z" fill="#2D4356"/>
<path d="M118.154 156H109.846C109.342 156.039 108.872 156.267 108.529 156.637C108.186 157.008 107.995 157.495 107.995 158C107.995 158.505 108.186 158.992 108.529 159.363C108.872 159.733 109.342 159.961 109.846 160H118.154C118.658 159.961 119.128 159.733 119.471 159.363C119.814 158.992 120.005 158.505 120.005 158C120.005 157.495 119.814 157.008 119.471 156.637C119.128 156.267 118.658 156.039 118.154 156ZM58.1541 156H49.8461C49.3424 156.039 48.872 156.267 48.5289 156.637C48.1857 157.008 47.9951 157.495 47.9951 158C47.9951 158.505 48.1857 158.992 48.5289 159.363C48.872 159.733 49.3424 159.961 49.8461 160H58.1541C58.6578 159.961 59.1282 159.733 59.4713 159.363C59.8144 158.992 60.005 158.505 60.005 158C60.005 157.495 59.8144 157.008 59.4713 156.637C59.1282 156.267 58.6578 156.039 58.1541 156ZM104 156H64.0001C63.4696 156 62.9609 156.211 62.5859 156.586C62.2108 156.961 62.0001 157.47 62.0001 158C62.0001 158.53 62.2108 159.039 62.5859 159.414C62.9609 159.789 63.4696 160 64.0001 160H79.9401V162H72.0001C71.4696 162 70.9609 162.211 70.5859 162.586C70.2108 162.961 70.0001 163.47 70.0001 164C70.0001 164.53 70.2108 165.039 70.5859 165.414C70.9609 165.789 71.4696 166 72.0001 166H97.0001C97.5305 166 98.0392 165.789 98.4143 165.414C98.7894 165.039 99.0001 164.53 99.0001 164C99.0001 163.47 98.7894 162.961 98.4143 162.586C98.0392 162.211 97.5305 162 97.0001 162H88.0601V160H104C104.531 160 105.039 159.789 105.414 159.414C105.789 159.039 106 158.53 106 158C106 157.47 105.789 156.961 105.414 156.586C105.039 156.211 104.531 156 104 156Z" fill="#923144"/>
<path d="M160 148H157C156.47 148 155.961 148.211 155.586 148.586C155.211 148.961 155 149.47 155 150C155 150.53 155.211 151.039 155.586 151.414C155.961 151.789 156.47 152 157 152H160C160.53 152 161.039 151.789 161.414 151.414C161.789 151.039 162 150.53 162 150C162 149.47 161.789 148.961 161.414 148.586C161.039 148.211 160.53 148 160 148Z" fill="#2D4356"/>
<path d="M166 152C167.105 152 168 151.105 168 150C168 148.895 167.105 148 166 148C164.895 148 164 148.895 164 150C164 151.105 164.895 152 166 152Z" fill="#2D4356"/>
<path d="M150.72 148H148V145C147.999 143.674 147.473 142.403 146.535 141.465C145.597 140.527 144.326 140.001 143 140H142V136C142 135.475 141.897 134.954 141.696 134.469C141.495 133.984 141.2 133.543 140.829 133.171C140.457 132.8 140.016 132.505 139.531 132.304C139.046 132.103 138.525 132 138 132H131V94H138.41C138.826 93.9996 139.232 93.8693 139.571 93.6273C139.91 93.3853 140.165 93.0437 140.3 92.65L147.89 70.65C147.984 70.3633 148.015 70.0597 147.98 69.76C148.003 69.6044 148.007 69.4464 147.99 69.29C147.96 69.0285 147.879 68.7755 147.751 68.5454C147.624 68.3153 147.452 68.1127 147.245 67.9492C147.039 67.7857 146.803 67.6645 146.549 67.5925C146.296 67.5206 146.031 67.4994 145.77 67.53C138.91 68.32 127.05 68.27 124.4 64.79C124.214 64.5447 123.973 64.3458 123.698 64.2088C123.422 64.0718 123.118 64.0003 122.81 64H121V52H128.69C129.098 51.9994 129.497 51.8747 129.832 51.6425C130.168 51.4104 130.425 51.0817 130.57 50.7L137.87 31.27L137.9 31.16C137.923 31.0949 137.939 31.028 137.95 30.96C137.969 30.8984 137.979 30.8344 137.98 30.77C137.988 30.707 137.991 30.6435 137.99 30.58C137.992 30.5065 137.989 30.433 137.98 30.36V30.26C137.97 30.2378 137.963 30.2142 137.96 30.19C137.94 30.11 137.92 30.04 137.9 29.97C137.887 29.911 137.867 29.8538 137.84 29.8C137.796 29.6788 137.736 29.5643 137.66 29.46C137.623 29.4043 137.583 29.3508 137.54 29.3C137.506 29.2546 137.469 29.2112 137.43 29.17C137.38 29.12 137.32 29.07 137.27 29.02C137.22 28.99 137.18 28.95 137.13 28.92C137.072 28.8797 137.012 28.843 136.95 28.81C136.89 28.78 136.84 28.75 136.79 28.73C136.76 28.72 136.73 28.7 136.7 28.69L136.59 28.66C136.531 28.6388 136.471 28.6221 136.41 28.61L136.19 28.58C136.137 28.5718 136.084 28.5684 136.03 28.57C135.95 28.5684 135.87 28.5717 135.79 28.58H135.7C129.04 29.6 117.54 29.6 115.01 25.26C114.746 24.8079 114.316 24.4772 113.811 24.3388C113.306 24.2005 112.767 24.2655 112.31 24.52C107.06 27.45 96.07 29.34 84.3 29.34C72.13 29.34 60.98 27.36 55.9 24.29C55.665 24.1488 55.404 24.0565 55.1325 24.0187C54.8609 23.9809 54.5846 23.9984 54.32 24.07C54.0567 24.1452 53.8117 24.2736 53.6002 24.4473C53.3886 24.6211 53.2149 24.8364 53.09 25.08C51.01 29.07 41.44 29.76 32.88 28.66L32.28 28.58H32.19C32.1203 28.5717 32.0501 28.5684 31.98 28.57C31.9132 28.5681 31.8463 28.5715 31.78 28.58L31.6 28.61C31.5242 28.6194 31.4501 28.6396 31.38 28.67C31.35 28.68 31.32 28.68 31.3 28.69C31.2715 28.6993 31.2445 28.7127 31.22 28.73C31.1514 28.7594 31.0846 28.7928 31.02 28.83C30.9679 28.8563 30.9177 28.8864 30.87 28.92C30.82 28.96 30.76 29 30.71 29.04C30.6609 29.0806 30.6141 29.124 30.57 29.17C30.5296 29.2224 30.4862 29.2725 30.44 29.32C30.4 29.37 30.37 29.42 30.33 29.47C30.3 29.52 30.27 29.58 30.24 29.64C30.21 29.69 30.18 29.75 30.15 29.81C30.13 29.87 30.11 29.93 30.09 29.98C30.0697 30.0525 30.053 30.1259 30.04 30.2C30.0287 30.2253 30.0219 30.2524 30.02 30.28V30.37C30.0115 30.4464 30.0081 30.5232 30.01 30.6C30.0086 30.6568 30.012 30.7137 30.02 30.77L30.05 30.97C30.0619 31.0378 30.0787 31.1046 30.1 31.17L30.13 31.26L37.42 50.7C37.5647 51.0817 37.822 51.4104 38.1577 51.6425C38.4935 51.8747 38.8918 51.9994 39.3 52H47V64H45.19C44.8639 64.0004 44.543 64.0808 44.2553 64.2342C43.9676 64.3877 43.7219 64.6094 43.54 64.88C41.68 67.62 33.75 68.67 22.85 67.59L22.22 67.53C21.6937 67.4709 21.1654 67.6231 20.7511 67.953C20.3368 68.283 20.0703 68.7638 20.01 69.29C19.9932 69.4464 19.9966 69.6044 20.02 69.76C19.9853 70.0597 20.016 70.3633 20.11 70.65L27.69 92.65C27.8254 93.0437 28.0803 93.3853 28.4191 93.6273C28.7579 93.8693 29.1637 93.9996 29.58 94H37V132H30C29.4747 132 28.9545 132.103 28.4691 132.304C27.9838 132.505 27.5427 132.8 27.1713 133.171C26.7998 133.543 26.5052 133.984 26.3042 134.469C26.1032 134.954 25.9999 135.475 26 136V140H25C23.6741 140.001 22.4026 140.527 21.4651 141.465C20.5275 142.403 20.0005 143.674 20 145V148H17.28C16.9955 147.963 16.7063 147.987 16.4318 148.07C16.1572 148.154 15.9037 148.295 15.688 148.484C15.4724 148.673 15.2996 148.907 15.1813 149.168C15.0629 149.429 15.0017 149.713 15.0017 150C15.0017 150.287 15.0629 150.571 15.1813 150.832C15.2996 151.093 15.4724 151.327 15.688 151.516C15.9037 151.705 16.1572 151.846 16.4318 151.93C16.7063 152.013 16.9955 152.037 17.28 152H150.72C151.005 152.037 151.294 152.013 151.568 151.93C151.843 151.846 152.096 151.705 152.312 151.516C152.528 151.327 152.7 151.093 152.819 150.832C152.937 150.571 152.998 150.287 152.998 150C152.998 149.713 152.937 149.429 152.819 149.168C152.7 148.907 152.528 148.673 152.312 148.484C152.096 148.295 151.843 148.154 151.568 148.07C151.294 147.987 151.005 147.963 150.72 148ZM55.48 28.6C61.64 31.54 72.4 33.34 84.3 33.34C95.86 33.34 106.48 31.62 112.7 28.8C116.29 32.54 123.4 33.24 128.92 33.14C121.07 36.68 104.86 39.71 83.33 39.71C62.27 39.71 46.35 36.67 38.63 33.12C44.57 33.3 51.92 32.58 55.48 28.6ZM40.68 48L36.35 36.46C45.39 40.91 62.82 43.71 83.33 43.71C104.39 43.71 122.71 40.73 131.76 36.15L127.31 48H40.68ZM117 52V64H51V52H117ZM30.72 72.01C37.07 72.01 43.2 71.08 46.14 68H121.92C124.9 70.85 130.83 71.74 136.11 71.91C123.36 75.23 97.65 78 75.31 78C53.71 78 37.58 75.31 29.29 71.99C29.77 72 30.25 72.01 30.72 72.01ZM31.01 90L25.76 74.76C34.99 79.2 53.47 82 75.31 82C94.67 82 129.55 79.31 142.52 73.96L136.98 90H31.01ZM94 106H74C71.3491 106.004 68.8081 107.059 66.9336 108.934C65.0592 110.808 64.0042 113.349 64 116V132H41V94H127V132H104V116C103.996 113.349 102.941 110.808 101.066 108.934C99.1919 107.059 96.6509 106.004 94 106ZM100 116V132H68V116C68.0013 114.409 68.6339 112.884 69.7588 111.759C70.8838 110.634 72.4091 110.001 74 110H94C95.5909 110.001 97.1162 110.634 98.2412 111.759C99.3661 112.884 99.9987 114.409 100 116ZM30 136H138V140H30V136ZM144 148H24V145C24.0008 144.735 24.1064 144.481 24.2938 144.294C24.4811 144.106 24.735 144.001 25 144H143C143.265 144.001 143.519 144.106 143.706 144.294C143.894 144.481 143.999 144.735 144 145V148ZM81 8C81.5933 8 82.1734 7.82405 82.6667 7.49441C83.1601 7.16477 83.5446 6.69623 83.7716 6.14805C83.9987 5.59987 84.0581 4.99667 83.9424 4.41473C83.8266 3.83279 83.5409 3.29824 83.1213 2.87868C82.7018 2.45912 82.1672 2.1734 81.5853 2.05765C81.0033 1.94189 80.4001 2.0013 79.852 2.22836C79.3038 2.45543 78.8352 2.83994 78.5056 3.33329C78.1759 3.82664 78 4.40666 78 5C78.0008 5.79541 78.3171 6.55801 78.8796 7.12044C79.442 7.68288 80.2046 7.99921 81 8ZM81 3.5C81.2967 3.5 81.5867 3.58798 81.8334 3.7528C82.08 3.91762 82.2723 4.15189 82.3858 4.42598C82.4993 4.70007 82.5291 5.00167 82.4712 5.29264C82.4133 5.58361 82.2704 5.85088 82.0607 6.06066C81.8509 6.27044 81.5836 6.4133 81.2926 6.47118C81.0017 6.52906 80.7001 6.49935 80.426 6.38582C80.1519 6.27229 79.9176 6.08003 79.7528 5.83336C79.588 5.58668 79.5 5.29667 79.5 5C79.5003 4.60226 79.6584 4.22088 79.9396 3.93963C80.2209 3.65839 80.6023 3.50027 81 3.5ZM149.856 3C149.46 3 149.074 3.1173 148.745 3.33706C148.416 3.55682 148.16 3.86918 148.008 4.23463C147.857 4.60009 147.817 5.00222 147.894 5.39018C147.972 5.77814 148.162 6.13451 148.442 6.41422C148.721 6.69392 149.078 6.8844 149.466 6.96157C149.854 7.03874 150.256 6.99914 150.621 6.84776C150.987 6.69639 151.299 6.44004 151.519 6.11114C151.739 5.78224 151.856 5.39556 151.856 5C151.855 4.46973 151.645 3.96133 151.27 3.58637C150.895 3.21141 150.386 3.00053 149.856 3ZM149.856 6C149.658 6 149.465 5.94135 149.3 5.83147C149.136 5.72159 149.008 5.56541 148.932 5.38268C148.856 5.19996 148.837 4.99889 148.875 4.80491C148.914 4.61093 149.009 4.43275 149.149 4.29289C149.289 4.15304 149.467 4.0578 149.661 4.01922C149.855 3.98063 150.056 4.00043 150.239 4.07612C150.421 4.15181 150.578 4.27998 150.687 4.44443C150.797 4.60888 150.856 4.80222 150.856 5C150.856 5.26514 150.75 5.51934 150.563 5.70682C150.375 5.89429 150.121 5.99974 149.856 6ZM9.5 3C9.10444 3 8.71776 3.1173 8.38886 3.33706C8.05996 3.55682 7.80362 3.86918 7.65224 4.23463C7.50087 4.60009 7.46126 5.00222 7.53843 5.39018C7.6156 5.77814 7.80608 6.13451 8.08579 6.41422C8.36549 6.69392 8.72186 6.8844 9.10982 6.96157C9.49778 7.03874 9.89992 6.99914 10.2654 6.84776C10.6308 6.69639 10.9432 6.44004 11.1629 6.11114C11.3827 5.78224 11.5 5.39556 11.5 5C11.4995 4.46973 11.2886 3.96133 10.9136 3.58637C10.5387 3.21141 10.0303 3.00053 9.5 3ZM9.5 6C9.30222 6 9.10888 5.94135 8.94443 5.83147C8.77998 5.72159 8.65181 5.56541 8.57612 5.38268C8.50043 5.19996 8.48063 4.99889 8.51922 4.80491C8.5578 4.61093 8.65304 4.43275 8.79289 4.29289C8.93275 4.15304 9.11093 4.0578 9.30491 4.01922C9.49889 3.98063 9.69996 4.00043 9.88268 4.07612C10.0654 4.15181 10.2216 4.27998 10.3315 4.44443C10.4414 4.60888 10.5 4.80222 10.5 5C10.4997 5.26514 10.3943 5.51934 10.2068 5.70682C10.0193 5.89429 9.76514 5.99974 9.5 6ZM162 26.596C161.604 26.596 161.218 26.7133 160.889 26.9331C160.56 27.1528 160.304 27.4652 160.152 27.8306C160.001 28.1961 159.961 28.5982 160.038 28.9862C160.116 29.3741 160.306 29.7305 160.586 30.0102C160.865 30.2899 161.222 30.4804 161.61 30.5576C161.998 30.6347 162.4 30.5951 162.765 30.4438C163.131 30.2924 163.443 30.036 163.663 29.7071C163.883 29.3782 164 28.9916 164 28.596C163.999 28.0657 163.789 27.5573 163.414 27.1824C163.039 26.8074 162.53 26.5965 162 26.596ZM162 29.596C161.802 29.596 161.609 29.5374 161.444 29.4275C161.28 29.3176 161.152 29.1614 161.076 28.9787C161 28.796 160.981 28.5949 161.019 28.4009C161.058 28.2069 161.153 28.0287 161.293 27.8889C161.433 27.749 161.611 27.6538 161.805 27.6152C161.999 27.5766 162.2 27.5964 162.383 27.6721C162.565 27.7478 162.722 27.876 162.831 28.0404C162.941 28.2049 163 28.3982 163 28.596C163 28.8611 162.894 29.1153 162.707 29.3028C162.519 29.4903 162.265 29.5957 162 29.596ZM21.75 46.343C21.75 45.9474 21.6327 45.5608 21.4129 45.2319C21.1932 44.903 20.8808 44.6466 20.5154 44.4952C20.1499 44.3439 19.7478 44.3043 19.3598 44.3814C18.9719 44.4586 18.6155 44.6491 18.3358 44.9288C18.0561 45.2085 17.8656 45.5649 17.7884 45.9528C17.7113 46.3408 17.7509 46.7429 17.9022 47.1084C18.0536 47.4738 18.31 47.7862 18.6389 48.0059C18.9678 48.2257 19.3544 48.343 19.75 48.343C20.2803 48.3425 20.7887 48.1316 21.1636 47.7566C21.5386 47.3817 21.7495 46.8733 21.75 46.343ZM18.75 46.343C18.75 46.1452 18.8086 45.9519 18.9185 45.7874C19.0284 45.623 19.1846 45.4948 19.3673 45.4191C19.55 45.3434 19.7511 45.3236 19.9451 45.3622C20.1391 45.4008 20.3173 45.496 20.4571 45.6359C20.597 45.7757 20.6922 45.9539 20.7308 46.1479C20.7694 46.3419 20.7496 46.543 20.6739 46.7257C20.5982 46.9084 20.47 47.0646 20.3056 47.1745C20.1411 47.2844 19.9478 47.343 19.75 47.343C19.4849 47.3427 19.2307 47.2373 19.0432 47.0498C18.8557 46.8623 18.7503 46.6081 18.75 46.343Z" fill="#2D4356"/>
<path d="M6.4149 31.0831L7.9019 29.1281L6.9629 28.5961L6.0089 30.7861H5.9769L5.0079 28.6111L4.0519 29.1591L5.5239 31.0681V31.0991L3.2229 30.8021V31.8651L5.5389 31.5691V31.6001L4.0519 33.5081L4.9439 34.0721L5.9619 31.8651H5.9919L6.9309 34.0561L7.9169 33.4931L6.4149 31.6151V31.5841L8.7769 31.8651V30.8021L6.4149 31.1141V31.0831ZM44.8559 17.6341L43.9999 18.7331L44.5139 19.0581L45.0999 17.7871H45.1169L45.6579 19.0491L46.2259 18.7251L45.3609 17.6431V17.6251L46.7209 17.7871V17.1751L45.3609 17.3551V17.3371L46.2169 16.2111L45.6759 15.9041L45.1269 17.1661H45.1089L44.5499 15.9131L43.9999 16.2291L44.8469 17.3281V17.3461L43.5219 17.1751V17.7871L44.8559 17.6161V17.6341ZM154.581 50.3991V49.3561L152.264 49.6621V49.6321L153.722 47.7141L152.801 47.1921L151.865 49.3401H151.834L150.883 47.2071L149.946 47.7441L151.389 49.6171V49.6471L149.132 49.3561V50.3991L151.404 50.1081V50.1391L149.946 52.0101L150.82 52.5631L151.819 50.3991H151.849L152.77 52.5481L153.737 51.9951L152.264 50.1541V50.1231L154.581 50.3991ZM116.748 19.5861L118.006 17.9311L117.211 17.4811L116.404 19.3341H116.377L115.557 17.4941L114.748 17.9581L115.993 19.5731V19.5991L114.047 19.3481V20.2481L116.006 19.9961V20.0231L114.748 21.6381L115.503 22.1151L116.364 20.2481H116.39L117.185 22.1011L118.019 21.6251L116.748 20.0361V20.0091L118.746 20.2481V19.3481L116.748 19.6121V19.5861ZM40.9999 98.0001H127V102H40.9999V98.0001Z" fill="#923144"/>
</svg>
