<svg width="168" height="168" viewBox="0 0 168 168" fill="none" xmlns="http://www.w3.org/2000/svg">
<path d="M22.0869 43.7681L42.0684 43.8916H42.0811C42.3427 43.8925 42.6019 43.8417 42.8439 43.7424C43.086 43.643 43.3061 43.497 43.4916 43.3126C43.6772 43.1282 43.8247 42.909 43.9256 42.6676C44.0265 42.4262 44.0788 42.1673 44.0797 41.9057C44.0805 41.6441 44.0298 41.3849 43.9304 41.1428C43.8311 40.9008 43.685 40.6807 43.5006 40.4951C43.3162 40.3095 43.0971 40.1621 42.8557 40.0612C42.6143 39.9603 42.3554 39.908 42.0938 39.9071L22.1123 39.7836H22.0996C21.5712 39.7819 21.0638 39.9902 20.689 40.3626C20.3142 40.735 20.1027 41.2411 20.101 41.7695C20.0993 42.2979 20.3076 42.8053 20.68 43.1801C21.0524 43.5549 21.5585 43.7664 22.0869 43.7681Z" fill="#2D4356"/>
<path d="M22.1357 35.842L42.1182 35.9656H42.1309C42.6592 35.9673 43.1666 35.759 43.5415 35.3866C43.9163 35.0142 44.1278 34.5081 44.1295 33.9797C44.1311 33.4513 43.9229 32.9439 43.5504 32.5691C43.178 32.1943 42.6719 31.9828 42.1436 31.9811L22.1611 31.8576H22.1484C21.8864 31.8562 21.6268 31.9064 21.3842 32.0055C21.1417 32.1046 20.9211 32.2506 20.735 32.435C20.549 32.6195 20.4012 32.8388 20.3 33.0805C20.1988 33.3222 20.1463 33.5814 20.1455 33.8434C20.1447 34.1054 20.1955 34.365 20.2951 34.6073C20.3947 34.8496 20.5412 35.0699 20.7261 35.2555C20.9109 35.4411 21.1306 35.5885 21.3725 35.6891C21.6144 35.7898 21.8737 35.8417 22.1357 35.842Z" fill="#923144"/>
<path d="M55.8447 24.1017L22.208 23.9315H22.1982C21.9363 23.9304 21.6767 23.9809 21.4343 24.0802C21.1918 24.1795 20.9714 24.3256 20.7855 24.5102C20.5997 24.6948 20.452 24.9142 20.3511 25.1559C20.2501 25.3976 20.1978 25.6569 20.1972 25.9188C20.1965 26.1808 20.2475 26.4403 20.3473 26.6825C20.4471 26.9247 20.5936 27.1449 20.7786 27.3304C20.9636 27.5159 21.1833 27.6631 21.4252 27.7635C21.6671 27.864 21.9265 27.9158 22.1885 27.9159L55.8232 28.0862C58.2907 28.0898 60.6575 29.0652 62.4111 30.8012C63.6448 32.0165 64.4999 33.5632 64.8732 35.2542C66.123 34.8003 67.3991 34.4032 68.6883 34.0375C68.1139 31.7387 66.9183 29.6422 65.2324 27.9772C62.735 25.5005 59.362 24.108 55.8447 24.1017ZM21.9902 59.6212L35.5923 59.6901C36.3888 58.3285 37.2402 57.0046 38.1464 55.7184L22.0098 55.6369H22C21.738 55.6357 21.4784 55.6862 21.236 55.7855C20.9936 55.8848 20.7732 56.0309 20.5873 56.2155C20.4014 56.4001 20.2538 56.6195 20.1528 56.8612C20.0519 57.103 19.9996 57.3622 19.9989 57.6242C19.9983 57.8861 20.0493 58.1456 20.1491 58.3878C20.2489 58.6301 20.3954 58.8502 20.5804 59.0357C20.7653 59.2212 20.9851 59.3684 21.227 59.4689C21.4689 59.5694 21.7283 59.6211 21.9902 59.6212ZM141.911 34.771L103.319 35.3239C106.189 36.3829 108.967 37.676 111.626 39.1901L141.972 38.7555C142.51 38.7487 143.029 38.9558 143.414 39.3313C143.601 39.5143 143.75 39.7332 143.85 39.9749C143.951 40.2166 144.002 40.4761 144 40.7379L143.979 44.1913C143.977 44.4532 143.924 44.7121 143.82 44.9527C143.716 45.1932 143.565 45.4103 143.376 45.5911C142.981 45.9594 142.459 46.16 141.919 46.1504L120.712 45.6127C122.2 46.9018 123.621 48.2681 124.967 49.7058L141.812 50.133C141.87 50.1349 141.929 50.1359 141.987 50.1359C143.542 50.1405 145.038 49.538 146.155 48.4568C146.729 47.9091 147.186 47.2513 147.5 46.5227C147.813 45.7941 147.976 45.0097 147.979 44.2166L148 40.7633C148.007 39.97 147.854 39.1834 147.549 38.4508C147.245 37.7181 146.796 37.0545 146.229 36.4997C145.069 35.3837 143.52 34.7636 141.911 34.771Z" fill="#2D4356"/>
<path d="M32 87.6825C31.9599 97.9758 34.9755 108.049 40.6649 116.627C46.3544 125.206 54.4616 131.902 63.9599 135.869C73.4581 139.836 83.92 140.895 94.0204 138.911C104.121 136.928 113.405 131.991 120.698 124.727C127.991 117.462 132.963 108.197 134.986 98.1047C137.009 88.0121 135.991 77.5461 132.061 68.0325C128.132 58.5188 121.467 50.3855 112.911 44.6627C104.355 38.9398 94.2933 35.8849 84 35.8849C70.2356 35.8581 57.0243 41.3003 47.2724 51.0142C37.5205 60.7282 32.0269 73.9181 32 87.6825ZM84 39.8693C93.4486 39.9061 102.675 42.7416 110.513 48.0178C118.351 53.294 124.451 60.7743 128.041 69.5143C131.631 78.2543 132.552 87.8621 130.686 97.1248C128.82 106.387 124.251 114.889 117.557 121.558C110.863 128.226 102.343 132.761 93.073 134.591C83.8032 136.421 74.199 135.463 65.4731 131.839C56.7471 128.214 49.2907 122.086 44.0451 114.227C38.7995 106.368 36 97.1312 36 87.6825C36.0392 74.9814 41.1148 62.8144 50.1134 53.8507C59.1121 44.8871 71.2988 39.859 84 39.8693Z" fill="#923144"/>
<path d="M38 87.6825C38 92.1388 46.5252 95.1564 47.883 99.171C49.2839 103.313 44.3652 110.835 46.9708 114.273C49.583 117.72 58.2289 115.091 61.8059 117.591C65.3219 120.048 65.7523 129.054 69.9645 130.368C70.2943 130.469 70.6376 130.52 70.9826 130.518C74.9036 130.518 79.887 124.524 84 124.524C88.1134 124.524 93.0964 130.518 97.0176 130.518C97.3626 130.52 97.7059 130.469 98.0357 130.368C102.248 129.054 102.678 120.048 106.194 117.591C109.771 115.091 118.417 117.72 121.029 114.274C123.635 110.836 118.716 103.313 120.117 99.1713C121.475 95.1564 130 92.1389 130 87.6825C130 83.2261 121.475 80.2086 120.117 76.194C118.716 72.0519 123.635 64.5296 121.029 61.0917C118.417 57.6449 109.771 60.2743 106.194 57.7743C102.678 55.317 102.248 46.3105 98.0355 44.9972C97.7057 44.8957 97.3625 44.8451 97.0175 44.847C93.0965 44.8478 88.113 50.841 84 50.841C79.8867 50.841 74.9036 44.8471 70.9825 44.8471C70.6375 44.8452 70.2942 44.8959 69.9644 44.9974C65.7522 46.3106 65.3221 55.3168 61.8062 57.7741C58.2292 60.2741 49.5832 57.6447 46.9711 61.0913C44.3654 64.5292 49.284 72.0517 47.8831 76.1938C46.5252 80.2084 38 83.226 38 87.6825ZM51.0359 68.1034C50.5602 66.6175 50.2801 65.076 50.2026 63.5177C51.7333 63.1566 53.3045 62.9963 54.8766 63.0406C55.6745 63.02 56.479 62.9987 57.2778 62.9518C60.4358 59.5656 64.2065 56.808 68.3905 54.8248C68.6194 54.2686 68.8414 53.7091 69.0587 53.1512C69.5657 51.8494 70.4844 49.4906 71.1422 48.8529C72.5539 49.4365 73.8883 50.1921 75.115 51.1024C75.5983 51.4243 76.0974 51.7519 76.6042 52.0758C81.4839 51.0741 86.5162 51.0741 91.3959 52.0758C91.9027 51.752 92.4017 51.4244 92.8849 51.1026C94.1119 50.1925 95.4463 49.4369 96.8579 48.853C97.5158 49.4908 98.4344 51.8497 98.9414 53.1514C99.1586 53.7093 99.3807 54.2689 99.6095 54.8248C103.794 56.8081 107.564 59.5657 110.722 62.952C111.521 62.9989 112.326 63.0202 113.124 63.0409C114.696 62.9966 116.267 63.157 117.798 63.518C117.72 65.0762 117.44 66.6177 116.964 68.1035C116.731 68.9937 116.501 69.8929 116.308 70.7933C118.246 74.4523 119.537 78.4185 120.125 82.517C120.859 83.1513 121.627 83.7583 122.393 84.3554C123.535 85.246 125.625 86.8749 125.977 87.6825C125.625 88.4901 123.535 90.1193 122.393 91.0099C121.627 91.6068 120.859 92.214 120.125 92.8483C119.537 96.9467 118.246 100.913 116.308 104.572C116.501 105.472 116.731 106.371 116.964 107.262C117.44 108.747 117.72 110.289 117.797 111.847C116.267 112.208 114.696 112.369 113.123 112.324C112.326 112.345 111.521 112.366 110.722 112.413C107.564 115.799 103.793 118.557 99.6094 120.54C99.3806 121.096 99.1585 121.656 98.9412 122.214C98.4342 123.516 97.5156 125.874 96.8579 126.512C95.4461 125.928 94.1118 125.173 92.885 124.263C92.4017 123.941 91.9026 123.613 91.3958 123.289C86.5162 124.291 81.484 124.291 76.6044 123.289C76.0975 123.613 75.5985 123.941 75.1153 124.262C73.8885 125.173 72.5543 125.929 71.1426 126.513C70.4848 125.875 69.5658 123.516 69.0586 122.214C68.8414 121.656 68.6193 121.096 68.3905 120.54C64.2064 118.557 60.4357 115.799 57.2776 112.413C56.4789 112.366 55.6743 112.345 54.8764 112.324C53.3043 112.368 51.7331 112.208 50.2024 111.847C50.2799 110.289 50.5601 108.747 51.0358 107.261C51.2687 106.371 51.4987 105.472 51.6921 104.572C49.7543 100.913 48.4629 96.9465 47.8748 92.848C47.1414 92.2138 46.3727 91.6066 45.6069 91.0096C44.4647 90.119 42.3754 88.4901 42.0234 87.6824C42.3753 86.8748 44.4647 85.2457 45.6071 84.3551C46.3728 83.7581 47.1414 83.151 47.8748 82.5167C48.463 78.4182 49.7544 74.4521 51.6921 70.793C51.4988 69.8927 51.2689 68.9936 51.0359 68.1034Z" fill="#2D4356"/>
<path d="M84 120.056C90.3975 120.031 96.6442 118.111 101.951 114.539C107.259 110.966 111.388 105.902 113.819 99.9838C116.25 94.0661 116.873 87.5608 115.61 81.2893C114.347 75.0177 111.253 69.2611 106.721 64.7461C102.188 60.2312 96.4196 57.1604 90.1431 55.9215C83.8667 54.6826 77.3639 55.3311 71.4557 57.7851C65.5475 60.2391 60.4989 64.3886 56.9472 69.7097C53.3955 75.0308 51.5 81.2849 51.5 87.6825C51.5168 96.2852 54.9503 104.529 61.0453 110.6C67.1402 116.671 75.3973 120.073 84 120.056ZM58.5 85.6903H55.578C56.0093 79.5469 58.4397 73.7135 62.4978 69.0811L64.5547 71.1301C64.9284 71.5042 65.4354 71.7148 65.9643 71.7155C66.4932 71.7161 67.0007 71.5069 67.3754 71.1336C67.7501 70.7604 67.9613 70.2537 67.9627 69.7248C67.9641 69.1959 67.7555 68.6881 67.3828 68.3129L65.3259 66.2639C69.9881 62.2167 75.841 59.7972 82 59.3711V62.2816C82 62.812 82.2107 63.3208 82.5858 63.6958C82.9609 64.0709 83.4696 64.2816 84 64.2816C84.5304 64.2816 85.0391 64.0709 85.4142 63.6958C85.7893 63.3208 86 62.812 86 62.2816V59.3711C92.159 59.7972 98.0119 62.2167 102.674 66.2639L100.617 68.3129C100.247 68.6886 100.041 69.1956 100.043 69.7231C100.046 70.2505 100.257 70.7555 100.63 71.1278C101.004 71.5 101.51 71.7092 102.037 71.7096C102.565 71.71 103.071 71.5016 103.445 71.13L105.502 69.081C109.56 73.7134 111.991 79.5468 112.422 85.6902H109.5C109.238 85.6894 108.978 85.7403 108.736 85.8401C108.493 85.9398 108.273 86.0864 108.087 86.2715C107.902 86.4566 107.754 86.6765 107.654 86.9186C107.553 87.1607 107.501 87.4203 107.501 87.6824C107.501 87.9446 107.553 88.2041 107.654 88.4463C107.754 88.6884 107.902 88.9083 108.087 89.0933C108.273 89.2784 108.493 89.425 108.736 89.5248C108.978 89.6245 109.238 89.6754 109.5 89.6746H112.422C111.991 95.818 109.56 101.651 105.502 106.284L103.445 104.235C103.071 103.861 102.565 103.651 102.036 103.651C101.508 103.65 101 103.86 100.626 104.233C100.252 104.606 100.04 105.112 100.039 105.641C100.037 106.169 100.245 106.677 100.617 107.052L102.674 109.101C98.012 113.148 92.159 115.568 86 115.994V113.083C86 112.553 85.7893 112.044 85.4142 111.669C85.0391 111.294 84.5304 111.083 84 111.083C83.4696 111.083 82.9609 111.294 82.5858 111.669C82.2107 112.044 82 112.553 82 113.083V115.994C75.841 115.568 69.9881 113.148 65.3259 109.101L67.3828 107.052C67.7549 106.677 67.963 106.169 67.9614 105.641C67.9597 105.112 67.7485 104.606 67.374 104.233C66.9996 103.86 66.4925 103.651 65.9639 103.651C65.4354 103.651 64.9286 103.861 64.5547 104.235L62.4978 106.284C58.4397 101.651 56.0093 95.8181 55.578 89.6747H58.5C58.7623 89.6757 59.0222 89.6249 59.2648 89.5253C59.5073 89.4256 59.7279 89.279 59.9137 89.0939C60.0995 88.9088 60.2469 88.6889 60.3475 88.4467C60.4481 88.2045 60.4999 87.9448 60.4999 87.6825C60.4999 87.4202 60.4481 87.1605 60.3475 86.9183C60.2469 86.6761 60.0995 86.4562 59.9137 86.2711C59.7279 86.086 59.5073 85.9394 59.2648 85.8397C59.0222 85.7401 58.7623 85.6893 58.5 85.6903Z" fill="#923144"/>
<path d="M79.6845 83.5404C78.783 84.4726 78.2077 85.6716 78.0447 86.9581C77.8817 88.2446 78.1398 89.5492 78.7803 90.6768C79.4208 91.8043 80.4093 92.694 81.5978 93.2128C82.7862 93.7316 84.1108 93.8514 85.3731 93.5544C86.6353 93.2575 87.7675 92.5596 88.6 91.5654C89.4325 90.5712 89.9206 89.334 89.9912 88.0392C90.0618 86.7444 89.7111 85.4615 88.9916 84.3826C88.2721 83.3038 87.2225 82.487 86 82.0546V73.0784C86 72.5479 85.7893 72.0392 85.4142 71.6641C85.0392 71.2891 84.5304 71.0784 84 71.0784C83.4696 71.0784 82.9609 71.2891 82.5858 71.6641C82.2107 72.0392 82 72.5479 82 73.0784V79.2438L75.7891 66.8693C75.5521 66.3959 75.137 66.0358 74.6349 65.8681C74.1328 65.7004 73.5846 65.7388 73.1107 65.9748C72.6369 66.2108 72.276 66.6252 72.1073 67.127C71.9386 67.6288 71.9759 68.177 72.2109 68.6514L79.6845 83.5404ZM84 85.6903C84.3937 85.6918 84.7781 85.81 85.1047 86.0298C85.4313 86.2497 85.6854 86.5613 85.835 86.9255C85.9846 87.2897 86.0229 87.69 85.9452 88.0759C85.8674 88.4619 85.6771 88.8161 85.3982 89.0939C85.1192 89.3718 84.7642 89.5607 84.378 89.637C83.9918 89.7132 83.5916 89.6733 83.228 89.5223C82.8645 89.3713 82.5538 89.1159 82.3352 88.7885C82.1167 88.461 82 88.0762 82 87.6825C82.0005 87.4204 82.0526 87.1609 82.1534 86.9189C82.2542 86.6769 82.4017 86.4571 82.5874 86.2721C82.7731 86.0872 82.9934 85.9406 83.2358 85.8407C83.4782 85.7409 83.7379 85.6898 84 85.6903Z" fill="#2D4356"/>
<path d="M22.0371 51.6952L41.1582 51.8124C42.0031 50.8126 42.8828 49.8444 43.7974 48.9078C43.6305 48.5864 43.3792 48.3164 43.0704 48.1271C42.7617 47.9378 42.4071 47.8362 42.0449 47.8333L22.0625 47.7107H22.0498C21.7882 47.7099 21.5289 47.7606 21.2869 47.8599C21.0449 47.9593 20.8248 48.1053 20.6392 48.2897C20.4536 48.4741 20.3062 48.6933 20.2053 48.9347C20.1044 49.1761 20.052 49.435 20.0512 49.6966C20.0504 49.9582 20.1011 50.2175 20.2004 50.4595C20.2998 50.7015 20.4458 50.9216 20.6302 51.1072C20.8146 51.2928 21.0338 51.4402 21.2752 51.5411C21.5166 51.642 21.7755 51.6944 22.0371 51.6952Z" fill="#923144"/>
<path d="M2 151.932C3.10457 151.932 4 151.037 4 149.932C4 148.827 3.10457 147.932 2 147.932C0.89543 147.932 0 148.827 0 149.932C0 151.037 0.89543 151.932 2 151.932Z" fill="#2D4356"/>
<path d="M11 147.932H8C7.46957 147.932 6.96086 148.142 6.58579 148.517C6.21071 148.892 6 149.401 6 149.932C6 150.462 6.21071 150.971 6.58579 151.346C6.96086 151.721 7.46957 151.932 8 151.932H11C11.5304 151.932 12.0391 151.721 12.4142 151.346C12.7893 150.971 13 150.462 13 149.932C13 149.401 12.7893 148.892 12.4142 148.517C12.0391 148.142 11.5304 147.932 11 147.932Z" fill="#2D4356"/>
<path d="M118.154 155.932H109.846C109.343 155.972 108.874 156.2 108.532 156.571C108.19 156.941 108 157.427 108 157.932C108 158.436 108.19 158.922 108.532 159.292C108.874 159.663 109.343 159.891 109.846 159.932H118.154C118.657 159.891 119.126 159.663 119.468 159.292C119.81 158.922 120 158.436 120 157.932C120 157.427 119.81 156.941 119.468 156.571C119.126 156.2 118.657 155.972 118.154 155.932ZM58.1539 155.932H49.8461C49.3433 155.972 48.8742 156.2 48.5321 156.571C48.1899 156.941 48 157.427 48 157.932C48 158.436 48.1899 158.922 48.5321 159.292C48.8742 159.663 49.3433 159.891 49.8461 159.932H58.1539C58.6566 159.891 59.1258 159.663 59.4679 159.292C59.81 158.922 60 158.436 60 157.932C60 157.427 59.81 156.941 59.4679 156.571C59.1258 156.2 58.6566 155.972 58.1539 155.932ZM104 155.932H64C63.4696 155.932 62.9609 156.142 62.5858 156.517C62.2107 156.892 62 157.401 62 157.932C62 158.462 62.2107 158.971 62.5858 159.346C62.9609 159.721 63.4696 159.932 64 159.932H79.94V161.932H72C71.4696 161.932 70.9609 162.142 70.5858 162.517C70.2107 162.892 70 163.401 70 163.932C70 164.462 70.2107 164.971 70.5858 165.346C70.9609 165.721 71.4696 165.932 72 165.932H97C97.5304 165.932 98.0391 165.721 98.4142 165.346C98.7893 164.971 99 164.462 99 163.932C99 163.401 98.7893 162.892 98.4142 162.517C98.0391 162.142 97.5304 161.932 97 161.932H88.06V159.932H104C104.53 159.932 105.039 159.721 105.414 159.346C105.789 158.971 106 158.462 106 157.932C106 157.401 105.789 156.892 105.414 156.517C105.039 156.142 104.53 155.932 104 155.932Z" fill="#923144"/>
<path d="M160 147.932H157C156.47 147.932 155.961 148.142 155.586 148.517C155.211 148.892 155 149.401 155 149.932C155 150.462 155.211 150.971 155.586 151.346C155.961 151.721 156.47 151.932 157 151.932H160C160.53 151.932 161.039 151.721 161.414 151.346C161.789 150.971 162 150.462 162 149.932C162 149.401 161.789 148.892 161.414 148.517C161.039 148.142 160.53 147.932 160 147.932Z" fill="#2D4356"/>
<path d="M166 151.932C167.105 151.932 168 151.037 168 149.932C168 148.827 167.105 147.932 166 147.932C164.895 147.932 164 148.827 164 149.932C164 151.037 164.895 151.932 166 151.932Z" fill="#2D4356"/>
<path d="M150.721 147.932H134.843C141.876 144.588 146.823 139.405 147.965 133.375C148.02 133.087 148.01 132.791 147.937 132.507C147.863 132.223 147.728 131.959 147.54 131.734C147.352 131.508 147.116 131.327 146.85 131.202C146.584 131.078 146.294 131.013 146 131.013L119.215 131.014C117.429 132.455 115.558 133.785 113.61 134.998L143.317 134.998C140.191 142.409 129.391 147.766 116.698 147.932H115.615C107.89 147.849 100.651 145.826 95.4126 142.297C86.7087 144.101 77.7008 143.811 69.1306 141.453L25.7696 142.393C25.3477 142.394 24.9419 142.231 24.6387 141.937C24.4409 141.741 24.2844 141.507 24.1782 141.249C24.0721 140.991 24.0185 140.714 24.0206 140.435L24 136.982C23.9951 136.703 24.0458 136.425 24.1493 136.165C24.2527 135.905 24.4068 135.669 24.6025 135.469C24.7459 135.322 24.917 135.205 25.1058 135.124C25.2947 135.043 25.4977 135 25.7031 134.998C25.7236 134.998 25.7451 134.999 25.7647 134.999L54.3908 134.998C52.4431 133.786 50.5714 132.455 48.7862 131.014L25.7803 131.014C24.2896 131.011 22.8572 131.593 21.791 132.635C21.2172 133.208 20.7633 133.89 20.4558 134.64C20.1483 135.39 19.9933 136.195 20 137.006L20.0205 140.459C20.0232 141.269 20.1874 142.071 20.5035 142.817C20.8195 143.563 21.2811 144.239 21.8613 144.805C22.3925 145.32 23.021 145.725 23.7101 145.994C24.3992 146.264 25.1352 146.394 25.875 146.376L92.2236 144.938C93.8112 146.092 95.5037 147.094 97.2789 147.931H17.2787C16.9942 147.894 16.705 147.918 16.4305 148.002C16.1559 148.085 15.9024 148.226 15.6867 148.416C15.4711 148.605 15.2983 148.838 15.18 149.099C15.0616 149.361 15.0004 149.645 15.0004 149.931C15.0004 150.218 15.0616 150.502 15.18 150.763C15.2983 151.025 15.4711 151.258 15.6867 151.447C15.9024 151.637 16.1559 151.778 16.4305 151.861C16.705 151.945 16.9942 151.969 17.2787 151.931H150.721C151.006 151.969 151.295 151.945 151.57 151.861C151.844 151.778 152.098 151.637 152.313 151.447C152.529 151.258 152.702 151.025 152.82 150.763C152.938 150.502 153 150.218 153 149.931C153 149.645 152.938 149.361 152.82 149.099C152.702 148.838 152.529 148.605 152.313 148.416C152.098 148.226 151.844 148.085 151.57 148.002C151.295 147.918 151.006 147.894 150.721 147.932ZM91 26.9315C91.5933 26.9315 92.1734 26.7556 92.6667 26.4259C93.1601 26.0963 93.5446 25.6277 93.7716 25.0796C93.9987 24.5314 94.0581 23.9282 93.9424 23.3462C93.8266 22.7643 93.5409 22.2298 93.1213 21.8102C92.7018 21.3906 92.1672 21.1049 91.5853 20.9892C91.0033 20.8734 90.4001 20.9328 89.852 21.1599C89.3038 21.3869 88.8352 21.7715 88.5056 22.2648C88.1759 22.7582 88 23.3382 88 23.9315C88.0009 24.7269 88.3173 25.4894 88.8797 26.0518C89.4421 26.6142 90.2046 26.9306 91 26.9315ZM91 22.4315C91.2967 22.4315 91.5867 22.5195 91.8334 22.6843C92.08 22.8491 92.2723 23.0834 92.3858 23.3575C92.4993 23.6316 92.5291 23.9332 92.4712 24.2242C92.4133 24.5151 92.2704 24.7824 92.0607 24.9922C91.8509 25.202 91.5836 25.3448 91.2926 25.4027C91.0017 25.4606 90.7001 25.4309 90.426 25.3173C90.1519 25.2038 89.9176 25.0115 89.7528 24.7649C89.588 24.5182 89.5 24.2282 89.5 23.9315C89.5004 23.5338 89.6586 23.1525 89.9398 22.8713C90.221 22.5901 90.6023 22.4319 91 22.4315ZM4 32.771C3.60444 32.771 3.21776 32.8883 2.88886 33.108C2.55996 33.3278 2.30362 33.6402 2.15224 34.0056C2.00087 34.3711 1.96126 34.7732 2.03843 35.1612C2.1156 35.5491 2.30608 35.9055 2.58579 36.1852C2.86549 36.4649 3.22186 36.6554 3.60982 36.7326C3.99778 36.8097 4.39992 36.7701 4.76537 36.6187C5.13082 36.4674 5.44318 36.211 5.66294 35.8821C5.8827 35.5532 6 35.1666 6 34.771C5.99939 34.2407 5.78849 33.7324 5.41355 33.3574C5.0386 32.9825 4.53025 32.7716 4 32.771ZM4 35.771C3.80222 35.771 3.60888 35.7123 3.44443 35.6025C3.27998 35.4926 3.15181 35.3364 3.07612 35.1537C3.00043 34.9709 2.98063 34.7699 3.01922 34.5759C3.0578 34.3819 3.15304 34.2037 3.29289 34.0639C3.43275 33.924 3.61093 33.8288 3.80491 33.7902C3.99889 33.7516 4.19996 33.7714 4.38268 33.8471C4.56541 33.9228 4.72159 34.051 4.83147 34.2154C4.94135 34.3799 5 34.5732 5 34.771C4.99974 35.0361 4.89429 35.2903 4.70682 35.4778C4.51934 35.6653 4.26514 35.7707 4 35.771ZM163 11.4021C162.604 11.4021 162.218 11.5194 161.889 11.7392C161.56 11.9589 161.304 12.2713 161.152 12.6367C161.001 13.0022 160.961 13.4043 161.038 13.7923C161.116 14.1802 161.306 14.5366 161.586 14.8163C161.865 15.096 162.222 15.2865 162.61 15.3637C162.998 15.4408 163.4 15.4012 163.765 15.2499C164.131 15.0985 164.443 14.8421 164.663 14.5132C164.883 14.1843 165 13.7977 165 13.4021C164.999 12.8719 164.788 12.3635 164.414 11.9886C164.039 11.6136 163.53 11.4027 163 11.4021ZM163 14.4021C162.802 14.4021 162.609 14.3435 162.444 14.2336C162.28 14.1237 162.152 13.9675 162.076 13.7848C162 13.6021 161.981 13.401 162.019 13.207C162.058 13.013 162.153 12.8348 162.293 12.695C162.433 12.5551 162.611 12.4599 162.805 12.4213C162.999 12.3827 163.2 12.4025 163.383 12.4782C163.565 12.5539 163.722 12.6821 163.831 12.8465C163.941 13.011 164 13.2043 164 13.4021C164 13.6672 163.894 13.9214 163.707 14.1089C163.519 14.2964 163.265 14.4018 163 14.4021ZM153 55.6635C152.604 55.6635 152.218 55.7808 151.889 56.0005C151.56 56.2203 151.304 56.5326 151.152 56.8981C151.001 57.2635 150.961 57.6657 151.038 58.0536C151.116 58.4416 151.306 58.798 151.586 59.0777C151.865 59.3574 152.222 59.5479 152.61 59.625C152.998 59.7022 153.4 59.6626 153.765 59.5112C154.131 59.3598 154.443 59.1035 154.663 58.7746C154.883 58.4457 155 58.059 155 57.6635C154.999 57.1332 154.788 56.6249 154.414 56.2499C154.039 55.875 153.53 55.6641 153 55.6635ZM153 58.6635C152.802 58.6635 152.609 58.6048 152.444 58.4949C152.28 58.385 152.152 58.2289 152.076 58.0461C152 57.8634 151.981 57.6623 152.019 57.4684C152.058 57.2744 152.153 57.0962 152.293 56.9564C152.433 56.8165 152.611 56.7213 152.805 56.6827C152.999 56.6441 153.2 56.6639 153.383 56.7396C153.565 56.8153 153.722 56.9434 153.831 57.1079C153.941 57.2723 154 57.4657 154 57.6635C154 57.9286 153.894 58.1828 153.707 58.3703C153.519 58.5578 153.265 58.6632 153 58.6635ZM44.0234 17.4021C44.0234 17.0065 43.9061 16.6199 43.6863 16.291C43.4666 15.9621 43.1542 15.7057 42.7887 15.5543C42.4233 15.403 42.0212 15.3634 41.6332 15.4405C41.2452 15.5177 40.8889 15.7082 40.6092 15.9879C40.3295 16.2676 40.139 16.624 40.0618 17.0119C39.9846 17.3999 40.0242 17.802 40.1756 18.1675C40.327 18.5329 40.5833 18.8453 40.9122 19.065C41.2411 19.2848 41.6278 19.4021 42.0234 19.4021C42.5536 19.4015 43.062 19.1906 43.4369 18.8156C43.8119 18.4407 44.0228 17.9323 44.0234 17.4021ZM41.0234 17.4021C41.0234 17.2043 41.082 17.011 41.1919 16.8465C41.3018 16.6821 41.458 16.5539 41.6407 16.4782C41.8234 16.4025 42.0245 16.3827 42.2185 16.4213C42.4125 16.4599 42.5906 16.5551 42.7305 16.695C42.8703 16.8348 42.9656 17.013 43.0042 17.207C43.0428 17.401 43.0229 17.6021 42.9473 17.7848C42.8716 17.9675 42.7434 18.1237 42.5789 18.2336C42.4145 18.3435 42.2212 18.4021 42.0234 18.4021C41.7582 18.4018 41.504 18.2964 41.3166 18.1089C41.1291 17.9214 41.0236 17.6672 41.0234 17.4021Z" fill="#2D4356"/>
<path d="M121.007 4.55599L122.494 2.59999L121.555 2.06799L120.601 4.25799H120.569L119.599 2.08399L118.644 2.63199L120.115 4.54099V4.57199L117.814 4.27399V5.33799L120.13 5.04099V5.07199L118.644 6.98099L119.536 7.54499L120.553 5.33799H120.584L121.523 7.52899L122.509 6.96599L121.007 5.08799V5.05699L123.369 5.33799V4.27399L121.007 4.58699V4.55599Z" fill="#923144"/>
<path d="M10.207 5.95998L9.351 7.05898L9.864 7.38298L10.451 6.11298H10.468L11.009 7.37398L11.577 7.04998L10.712 5.96798V5.95098L12.072 6.11298V5.49998L10.712 5.67998V5.66198L11.568 4.53598L11.027 4.22998L10.478 5.49098H10.459L9.901 4.23898L9.351 4.55398L10.198 5.65298V5.67098L8.873 5.49998V6.11298L10.207 5.94198V5.95998Z" fill="#923144"/>
<path d="M144.172 27.434V26.39L141.856 26.697V26.666L143.314 24.748L142.393 24.226L141.457 26.375H141.426L140.475 24.241L139.538 24.779L140.981 26.651V26.682L138.724 26.39V27.434L140.996 27.142V27.173L139.538 29.045L140.412 29.598L141.411 27.434H141.441L142.362 29.582L143.329 29.03L141.856 27.188V27.157L144.172 27.434Z" fill="#923144"/>
<path d="M69.04 5.59399L70.298 3.93999L69.503 3.48999L68.696 5.34299H68.669L67.849 3.50299L67.04 3.96599L68.285 5.58199V5.60799L66.339 5.35599V6.25599L68.298 6.00499V6.03199L67.04 7.64599L67.795 8.12299L68.656 6.25599H68.682L69.476 8.10999L70.311 7.63299L69.04 6.04399V6.01799L71.038 6.25599V5.35599L69.04 5.62099V5.59399Z" fill="#923144"/>
</svg>
