<svg width="168" height="168" viewBox="0 0 168 168" fill="none" xmlns="http://www.w3.org/2000/svg">
<path d="M138.645 84.7849C137.279 83.2446 135.801 81.8064 134.225 80.4819C133.339 81.501 132.36 82.4351 131.3 83.2719C132.864 84.5425 134.323 85.9384 135.66 87.4459C140.405 92.7739 145.62 100.977 143.515 109.802C142.888 112.998 141.018 115.814 138.315 117.632C137.34 118.206 136.256 118.572 135.132 118.707C134.009 118.841 132.869 118.742 131.786 118.415C127.714 117.195 123.814 115.459 120.182 113.25C122.285 110.215 125.085 108.733 129.384 109.207C130.137 109.909 130.722 110.773 131.094 111.733C130.901 112.186 130.882 112.693 131.04 113.159C131.198 113.625 131.522 114.017 131.95 114.259C132.413 114.514 132.958 114.577 133.467 114.436C133.976 114.294 134.41 113.959 134.675 113.502C138.025 107.577 120.505 97.3119 118.497 96.1599C114.066 93.5581 109.353 91.4687 104.45 89.9319C103.923 89.7717 103.389 89.6389 102.848 89.5339C102.868 89.6789 103.34 92.5289 103.521 93.4599C103.546 93.5879 105.041 100.258 105.881 103.579C106.051 104.248 106.221 104.925 106.391 105.603C107.381 103.666 107.923 101.531 107.977 99.3559C107.947 97.9295 107.729 96.5132 107.328 95.1439C113.685 97.7495 119.67 101.184 125.126 105.359C116.338 107.045 113.552 117.027 111.056 126.014C110.491 128.047 109.929 130.051 109.321 131.967C108.456 139.059 105.854 144.796 101.627 148.911C109.742 145.594 112.481 135.826 114.909 127.084C115.803 123.575 116.931 120.131 118.283 116.772C122.19 119.133 126.383 120.985 130.76 122.282C131.897 122.589 133.07 122.747 134.248 122.751C136.403 122.759 138.519 122.176 140.366 121.067C142.163 119.893 143.71 118.376 144.918 116.602C146.126 114.828 146.971 112.833 147.405 110.731C149.911 100.228 144.025 90.8239 138.645 84.7849Z" fill="#2D4356"/>
<path d="M80.001 140.001C81.1055 140.001 82.001 139.106 82.001 138.001C82.001 136.896 81.1055 136.001 80.001 136.001C78.8964 136.001 78.001 136.896 78.001 138.001C78.001 139.106 78.8964 140.001 80.001 140.001Z" fill="#923144"/>
<path d="M46.454 83.742C52.6676 85.2384 59.0377 85.9871 65.429 85.972C65.5735 84.6449 65.648 83.311 65.652 81.976C59.5346 82.0043 53.4359 81.3 47.486 79.878C45.5471 79.4246 43.7227 78.576 42.1268 77.3853C40.5309 76.1946 39.1978 74.6874 38.211 72.958C35.761 68.628 35.327 62.77 37.018 56.888C41.198 42.356 55.338 34.848 66.463 31.108C81.328 26.111 94.708 27.146 109.848 34.462C117.628 38.222 127.611 45.165 130.982 56.888C132.673 62.77 132.239 68.628 129.789 72.958C128.802 74.6875 127.469 76.1947 125.873 77.3854C124.277 78.5761 122.453 79.4247 120.514 79.878C114.569 81.2984 108.475 82.0028 102.362 81.976C102.329 82.799 102.434 85.514 102.469 85.977C108.894 85.9969 115.299 85.2465 121.546 83.742C123.996 83.1456 126.299 82.0566 128.315 80.5412C130.33 79.0259 132.016 77.116 133.27 74.928C136.245 69.668 136.812 62.69 134.825 55.782C131.045 42.639 120.102 34.976 111.588 30.861C95.434 23.054 81.123 21.962 65.188 27.317C53.155 31.361 37.833 39.583 33.174 55.783C31.188 62.69 31.754 69.668 34.73 74.927C35.9833 77.1154 37.6691 79.0256 39.6848 80.5411C41.7004 82.0566 44.0036 83.1457 46.454 83.742ZM56.944 126.014C54.449 117.028 51.667 107.04 42.883 105.352C48.3358 101.18 54.3167 97.749 60.67 95.147C60.2696 96.5154 60.0517 97.9306 60.022 99.356C60.0738 101.454 60.5834 103.515 61.515 105.396C61.725 104.516 61.935 103.641 62.145 102.77C62.921 99.555 64.145 93.923 64.145 93.923C64.163 93.84 64.93 89.677 64.952 89.539C64.4652 89.6214 63.9885 89.7552 63.53 89.938C58.6335 91.4743 53.9274 93.5617 49.502 96.16C47.493 97.311 29.974 107.577 33.324 113.502C33.4984 113.811 33.7517 114.067 34.058 114.246C34.3642 114.424 34.7125 114.518 35.067 114.518C35.3955 114.512 35.7177 114.427 36.0056 114.268C36.2935 114.11 36.5386 113.884 36.7195 113.61C36.9004 113.335 37.0117 113.021 37.0439 112.694C37.076 112.367 37.028 112.037 36.904 111.733C37.2765 110.773 37.8615 109.91 38.615 109.208C42.912 108.735 45.712 110.217 47.815 113.251C44.1837 115.46 40.2847 117.195 36.213 118.415C35.1297 118.743 33.9903 118.843 32.8665 118.708C31.7428 118.573 30.6592 118.207 29.684 117.633C26.9815 115.815 25.1111 112.999 24.484 109.803C22.379 100.977 27.594 92.773 32.34 87.446C33.6772 85.9386 35.135 84.5426 36.699 83.272C35.6391 82.4352 34.6599 81.5012 33.774 80.482C32.1976 81.8065 30.7203 83.2447 29.354 84.785C23.974 90.824 18.088 100.228 20.594 110.731C21.028 112.833 21.8735 114.828 23.0817 116.602C24.2899 118.376 25.837 119.893 27.634 121.067C29.0748 121.895 30.6659 122.429 32.3147 122.637C33.9635 122.846 35.6373 122.725 37.239 122.281C41.6153 120.984 45.8076 119.133 49.714 116.772C51.0674 120.13 52.1953 123.575 53.09 127.084C55.47 135.65 58.137 145.214 65.879 148.717C60.774 143.489 58.658 137.201 58.214 130.464C57.7762 128.985 57.3528 127.501 56.944 126.014Z" fill="#2D4356"/>
<path d="M92.239 124.036C91.9807 124.084 91.7345 124.183 91.5143 124.326C91.2941 124.469 91.1043 124.654 90.9557 124.871C90.8071 125.088 90.7027 125.332 90.6483 125.589C90.594 125.846 90.5908 126.111 90.639 126.369C91.352 130.195 91.379 134.985 87.464 136.076C86.9531 136.218 86.5196 136.558 86.259 137.02C85.9983 137.482 85.9318 138.028 86.074 138.539C86.2296 139.041 86.5714 139.465 87.0293 139.724C87.4872 139.982 88.0266 140.056 88.537 139.929C93.791 138.465 95.99 133.256 94.571 125.636C94.4734 125.115 94.173 124.654 93.7359 124.354C93.2987 124.054 92.7603 123.94 92.239 124.036Z" fill="#923144"/>
<path d="M2 152C3.10457 152 4 151.105 4 150C4 148.895 3.10457 148 2 148C0.89543 148 0 148.895 0 150C0 151.105 0.89543 152 2 152Z" fill="#2D4356"/>
<path d="M11 148H8C7.46957 148 6.96086 148.211 6.58579 148.586C6.21071 148.961 6 149.47 6 150C6 150.53 6.21071 151.039 6.58579 151.414C6.96086 151.789 7.46957 152 8 152H11C11.5304 152 12.0391 151.789 12.4142 151.414C12.7893 151.039 13 150.53 13 150C13 149.47 12.7893 148.961 12.4142 148.586C12.0391 148.211 11.5304 148 11 148ZM160 148H157C156.47 148 155.961 148.211 155.586 148.586C155.211 148.961 155 149.47 155 150C155 150.53 155.211 151.039 155.586 151.414C155.961 151.789 156.47 152 157 152H160C160.53 152 161.039 151.789 161.414 151.414C161.789 151.039 162 150.53 162 150C162 149.47 161.789 148.961 161.414 148.586C161.039 148.211 160.53 148 160 148Z" fill="#2D4356"/>
<path d="M166 152C167.105 152 168 151.105 168 150C168 148.895 167.105 148 166 148C164.895 148 164 148.895 164 150C164 151.105 164.895 152 166 152Z" fill="#2D4356"/>
<path d="M118.154 156H109.846C109.342 156.039 108.872 156.267 108.529 156.637C108.186 157.008 107.995 157.495 107.995 158C107.995 158.505 108.186 158.992 108.529 159.363C108.872 159.733 109.342 159.961 109.846 160H118.154C118.658 159.961 119.128 159.733 119.471 159.363C119.814 158.992 120.005 158.505 120.005 158C120.005 157.495 119.814 157.008 119.471 156.637C119.128 156.267 118.658 156.039 118.154 156ZM58.154 156H49.846C49.3423 156.039 48.8719 156.267 48.5288 156.637C48.1857 157.008 47.9951 157.495 47.9951 158C47.9951 158.505 48.1857 158.992 48.5288 159.363C48.8719 159.733 49.3423 159.961 49.846 160H58.154C58.6577 159.961 59.1281 159.733 59.4712 159.363C59.8144 158.992 60.005 158.505 60.005 158C60.005 157.495 59.8144 157.008 59.4712 156.637C59.1281 156.267 58.6577 156.039 58.154 156ZM104 156H64C63.4696 156 62.9609 156.211 62.5858 156.586C62.2107 156.961 62 157.47 62 158C62 158.53 62.2107 159.039 62.5858 159.414C62.9609 159.789 63.4696 160 64 160H79.94V162H72C71.4696 162 70.9609 162.211 70.5858 162.586C70.2107 162.961 70 163.47 70 164C70 164.53 70.2107 165.039 70.5858 165.414C70.9609 165.789 71.4696 166 72 166H97C97.5305 166 98.0392 165.789 98.4142 165.414C98.7893 165.039 99 164.53 99 164C99 163.47 98.7893 162.961 98.4142 162.586C98.0392 162.211 97.5305 162 97 162H88.06V160H104C104.53 160 105.039 159.789 105.414 159.414C105.789 159.039 106 158.53 106 158C106 157.47 105.789 156.961 105.414 156.586C105.039 156.211 104.53 156 104 156Z" fill="#923144"/>
<path d="M150.721 148H96.441C104.699 142.244 107.549 130.857 104.452 115.033C103.764 111.516 102.869 107.98 102.004 104.56C100.369 98.097 98.678 91.414 98.377 84.769C98.2384 82.5244 98.3785 80.2712 98.794 78.061C99.0176 78.0478 99.2403 78.0221 99.461 77.984C106.756 77.01 118.995 74.48 118.995 68.477C118.995 61.28 100.855 58.002 84 58.002C67.145 58.002 49.005 61.28 49.005 68.477C49.005 74.479 61.238 77.009 68.53 77.983C68.82 78.023 69.055 78.051 69.391 78.073C70.558 85.19 68.375 94.003 66.035 103.708C62.112 119.97 58.057 136.785 70.227 147.337C70.497 147.572 70.789 147.782 71.074 148H17.28C16.9955 147.963 16.7063 147.987 16.4318 148.07C16.1573 148.154 15.9037 148.295 15.6881 148.484C15.4724 148.673 15.2997 148.907 15.1813 149.168C15.0629 149.429 15.0017 149.713 15.0017 150C15.0017 150.287 15.0629 150.571 15.1813 150.832C15.2997 151.093 15.4724 151.327 15.6881 151.516C15.9037 151.705 16.1573 151.846 16.4318 151.93C16.7063 152.013 16.9955 152.037 17.28 152H150.72C151.005 152.037 151.294 152.013 151.568 151.93C151.843 151.846 152.096 151.705 152.312 151.516C152.528 151.327 152.7 151.093 152.819 150.832C152.937 150.571 152.998 150.287 152.998 150C152.998 149.713 152.937 149.429 152.819 149.168C152.7 148.907 152.528 148.673 152.312 148.484C152.096 148.295 151.843 148.154 151.568 148.07C151.294 147.987 151.006 147.963 150.721 148ZM108.907 65.013C112.947 66.266 114.996 67.624 114.996 68.477C114.996 69.352 111.435 72.166 100.201 73.834C100.281 73.674 100.352 73.508 100.437 73.353C102.239 70.068 106.497 65.131 108.907 65.013ZM53.004 68.477C53.004 67.643 54.965 66.327 58.826 65.098C63.777 67.153 66.708 70.162 68.252 73.9C56.659 72.242 53.004 69.363 53.004 68.477ZM72.847 144.315C62.515 135.357 66.281 119.745 69.922 104.646C73.785 88.632 77.751 72.134 64.669 63.645C67.0199 63.1957 69.3891 62.8487 71.77 62.605C73.3896 64.5964 74.4999 66.9523 75.005 69.469C75.0632 69.7276 75.1722 69.9721 75.3257 70.1882C75.4792 70.4043 75.6741 70.5877 75.8991 70.7278C76.1242 70.8679 76.3748 70.9619 76.6364 71.0043C76.8981 71.0467 77.1656 71.0366 77.4233 70.9747C77.681 70.9128 77.9239 70.8003 78.1378 70.6437C78.3517 70.4871 78.5323 70.2896 78.6691 70.0626C78.806 69.8356 78.8963 69.5836 78.9349 69.3214C78.9735 69.0591 78.9596 68.7918 78.894 68.535C78.3875 66.319 77.5498 64.1921 76.409 62.226C78.1757 62.1193 80.0394 62.05 82 62.018V74.002C82 74.5324 82.2107 75.0411 82.5858 75.4162C82.9609 75.7913 83.4696 76.002 84 76.002C84.5305 76.002 85.0392 75.7913 85.4142 75.4162C85.7893 75.0411 86 74.5324 86 74.002V62.018C87.9627 62.0467 89.8264 62.116 91.591 62.226C90.4502 64.1924 89.6124 66.3197 89.106 68.536C88.9823 69.0518 89.0686 69.5957 89.3458 70.048C89.6231 70.5002 90.0687 70.8238 90.5845 70.9475C91.1004 71.0712 91.6442 70.985 92.0965 70.7077C92.5487 70.4304 92.8723 69.9848 92.996 69.469C93.5014 66.9526 94.6113 64.5969 96.23 62.605C98.844 62.879 101.186 63.231 103.26 63.631C100.74 65.8688 98.6019 68.5027 96.93 71.429C94.965 75.015 94.13 79.437 94.38 84.95C94.701 92.001 96.443 98.884 98.127 105.541C98.978 108.909 99.859 112.391 100.527 115.801C102.931 128.085 102.765 143.533 88.321 147.363C86.6068 147.819 84.8375 148.033 83.064 148H83.008C79.2967 147.984 75.7058 146.682 72.847 144.315ZM68.305 8C68.8984 8 69.4784 7.82405 69.9717 7.49441C70.4651 7.16476 70.8496 6.69623 71.0767 6.14805C71.3037 5.59987 71.3631 4.99667 71.2474 4.41473C71.1316 3.83279 70.8459 3.29824 70.4264 2.87868C70.0068 2.45912 69.4722 2.1734 68.8903 2.05764C68.3084 1.94189 67.7052 2.0013 67.157 2.22836C66.6088 2.45542 66.1403 2.83994 65.8106 3.33329C65.481 3.82664 65.305 4.40666 65.305 5C65.3058 5.79541 65.6221 6.55801 66.1846 7.12044C66.747 7.68288 67.5096 7.99921 68.305 8ZM68.305 3.5C68.6017 3.5 68.8917 3.58797 69.1384 3.7528C69.3851 3.91762 69.5773 4.15189 69.6908 4.42597C69.8044 4.70006 69.8341 5.00166 69.7762 5.29264C69.7183 5.58361 69.5755 5.85088 69.3657 6.06066C69.1559 6.27044 68.8886 6.4133 68.5977 6.47118C68.3067 6.52906 68.0051 6.49935 67.731 6.38582C67.4569 6.27229 67.2226 6.08003 67.0578 5.83336C66.893 5.58668 66.805 5.29667 66.805 5C66.8053 4.60226 66.9634 4.22088 67.2447 3.93963C67.5259 3.65839 67.9073 3.50026 68.305 3.5ZM160.555 58.25C160.159 58.25 159.773 58.3673 159.444 58.5871C159.115 58.8068 158.859 59.1192 158.707 59.4846C158.556 59.8501 158.516 60.2522 158.593 60.6402C158.671 61.0281 158.861 61.3845 159.141 61.6642C159.421 61.9439 159.777 62.1344 160.165 62.2116C160.553 62.2887 160.955 62.2491 161.32 62.0978C161.686 61.9464 161.998 61.69 162.218 61.3611C162.438 61.0322 162.555 60.6456 162.555 60.25C162.554 59.7197 162.344 59.2113 161.969 58.8364C161.594 58.4614 161.085 58.2505 160.555 58.25ZM160.555 61.25C160.357 61.25 160.164 61.1914 159.999 61.0815C159.835 60.9716 159.707 60.8154 159.631 60.6327C159.555 60.45 159.536 60.2489 159.574 60.0549C159.613 59.8609 159.708 59.6827 159.848 59.5429C159.988 59.403 160.166 59.3078 160.36 59.2692C160.554 59.2306 160.755 59.2504 160.938 59.3261C161.12 59.4018 161.277 59.53 161.387 59.6944C161.496 59.8589 161.555 60.0522 161.555 60.25C161.555 60.5151 161.449 60.7693 161.262 60.9568C161.074 61.1443 160.82 61.2497 160.555 61.25ZM138.5 1.25C138.104 1.25 137.718 1.3673 137.389 1.58706C137.06 1.80682 136.804 2.11918 136.652 2.48463C136.501 2.85009 136.461 3.25222 136.538 3.64018C136.616 4.02814 136.806 4.38451 137.086 4.66421C137.366 4.94392 137.722 5.1344 138.11 5.21157C138.498 5.28874 138.9 5.24913 139.265 5.09776C139.631 4.94638 139.943 4.69004 140.163 4.36114C140.383 4.03224 140.5 3.64556 140.5 3.25C140.5 2.71973 140.289 2.21133 139.914 1.83637C139.539 1.46141 139.03 1.25053 138.5 1.25ZM138.5 4.25C138.302 4.25 138.109 4.19135 137.944 4.08147C137.78 3.97159 137.652 3.81541 137.576 3.63268C137.5 3.44996 137.481 3.24889 137.519 3.05491C137.558 2.86093 137.653 2.68275 137.793 2.54289C137.933 2.40304 138.111 2.3078 138.305 2.26921C138.499 2.23063 138.7 2.25043 138.883 2.32612C139.065 2.40181 139.222 2.52998 139.331 2.69443C139.441 2.85888 139.5 3.05222 139.5 3.25C139.5 3.51514 139.394 3.76934 139.207 3.95681C139.019 4.14429 138.765 4.24974 138.5 4.25ZM139.75 41.5C139.354 41.5 138.968 41.6173 138.639 41.8371C138.31 42.0568 138.054 42.3692 137.902 42.7346C137.751 43.1001 137.711 43.5022 137.788 43.8902C137.866 44.2781 138.056 44.6345 138.336 44.9142C138.616 45.1939 138.972 45.3844 139.36 45.4616C139.748 45.5387 140.15 45.4991 140.515 45.3478C140.881 45.1964 141.193 44.94 141.413 44.6111C141.633 44.2822 141.75 43.8956 141.75 43.5C141.75 42.9697 141.539 42.4613 141.164 42.0864C140.789 41.7114 140.28 41.5005 139.75 41.5ZM139.75 44.5C139.552 44.5 139.359 44.4414 139.194 44.3315C139.03 44.2216 138.902 44.0654 138.826 43.8827C138.75 43.7 138.731 43.4989 138.769 43.3049C138.808 43.1109 138.903 42.9327 139.043 42.7929C139.183 42.653 139.361 42.5578 139.555 42.5192C139.749 42.4806 139.95 42.5004 140.133 42.5761C140.315 42.6518 140.472 42.78 140.581 42.9444C140.691 43.1089 140.75 43.3022 140.75 43.5C140.75 43.7651 140.644 44.0193 140.457 44.2068C140.269 44.3943 140.015 44.4997 139.75 44.5ZM32.25 37.5C32.25 37.1044 32.1327 36.7178 31.913 36.3889C31.6932 36.06 31.3809 35.8036 31.0154 35.6522C30.6499 35.5009 30.2478 35.4613 29.8598 35.5384C29.4719 35.6156 29.1155 35.8061 28.8358 36.0858C28.5561 36.3655 28.3656 36.7219 28.2885 37.1098C28.2113 37.4978 28.2509 37.8999 28.4023 38.2654C28.5536 38.6308 28.81 38.9432 29.1389 39.1629C29.4678 39.3827 29.8545 39.5 30.25 39.5C30.7803 39.4995 31.2887 39.2886 31.6637 38.9136C32.0386 38.5387 32.2495 38.0303 32.25 37.5ZM29.25 37.5C29.25 37.3022 29.3087 37.1089 29.4186 36.9444C29.5284 36.78 29.6846 36.6518 29.8673 36.5761C30.0501 36.5004 30.2511 36.4806 30.4451 36.5192C30.6391 36.5578 30.8173 36.653 30.9571 36.7929C31.097 36.9327 31.1922 37.1109 31.2308 37.3049C31.2694 37.4989 31.2496 37.7 31.1739 37.8827C31.0982 38.0654 30.9701 38.2216 30.8056 38.3315C30.6412 38.4414 30.4478 38.5 30.25 38.5C29.9849 38.4997 29.7307 38.3943 29.5432 38.2068C29.3557 38.0193 29.2503 37.7651 29.25 37.5Z" fill="#2D4356"/>
<path d="M10.888 69.0111L12.375 67.0561L11.436 66.5241L10.481 68.7141H10.45L9.48001 66.5391L8.52501 67.0871L9.99601 68.9961V69.0271L7.69501 68.7301V69.7941L10.011 69.4971V69.5281L8.52501 71.4361L9.41601 72.0001L10.434 69.7941H10.465L11.404 71.9841L12.39 71.4211L10.888 69.5431V69.5121L13.25 69.7941V68.7301L10.888 69.0421V69.0111ZM7.99501 12.2971L7.13901 13.3961L7.65301 13.7211L8.23901 12.4501H8.25601L8.79701 13.7121L9.36501 13.3881L8.50001 12.3061V12.2881L9.86001 12.4501V11.8381L8.50001 12.0181V12.0001L9.35601 10.8741L8.81501 10.5681L8.26601 11.8291H8.24801L7.68901 10.5761L7.13901 10.8921L7.98601 11.9911V12.0091L6.66101 11.8381V12.4501L7.99501 12.2791V12.2971ZM165.427 21.5411V20.4981L163.11 20.8051V20.7741L164.568 18.8561L163.647 18.3341L162.711 20.4821H162.68L161.729 18.3491L160.792 18.8861L162.235 20.7591V20.7901L159.978 20.4981V21.5411L162.25 21.2501V21.2811L160.792 23.1531L161.666 23.7061L162.665 21.5411H162.695L163.616 23.6901L164.583 23.1381L163.11 21.2961V21.2651L165.427 21.5411ZM116.748 19.5861L118.006 17.9311L117.211 17.4811L116.404 19.3341H116.377L115.557 17.4941L114.748 17.9581L115.993 19.5731V19.5991L114.047 19.3481V20.2481L116.006 19.9961V20.0231L114.748 21.6381L115.503 22.1151L116.364 20.2481H116.39L117.185 22.1011L118.019 21.6251L116.748 20.0361V20.0091L118.746 20.2481V19.3481L116.748 19.6121V19.5861Z" fill="#923144"/>
</svg>
