<svg width="168" height="168" viewBox="0 0 168 168" fill="none" xmlns="http://www.w3.org/2000/svg">
<path d="M118.124 48.562C118.987 48.562 119.687 47.8623 119.687 46.999C119.687 46.1358 118.987 45.436 118.124 45.436C117.261 45.436 116.561 46.1358 116.561 46.999C116.561 47.8623 117.261 48.562 118.124 48.562Z" fill="#923144"/>
<path d="M66.8047 10C67.398 10 67.9781 9.82405 68.4714 9.49441C68.9648 9.16477 69.3493 8.69623 69.5763 8.14805C69.8034 7.59987 69.8628 6.99667 69.7471 6.41473C69.6313 5.83279 69.3456 5.29824 68.926 4.87868C68.5065 4.45912 67.9719 4.1734 67.39 4.05765C66.808 3.94189 66.2048 4.0013 65.6567 4.22836C65.1085 4.45543 64.6399 4.83994 64.3103 5.33329C63.9807 5.82664 63.8047 6.40666 63.8047 7C63.8056 7.79537 64.122 8.5579 64.6844 9.12032C65.2468 9.68273 66.0093 9.99909 66.8047 10ZM66.8047 5.5C67.1014 5.5 67.3914 5.58797 67.6381 5.7528C67.8847 5.91762 68.077 6.15189 68.1905 6.42598C68.3041 6.70007 68.3338 7.00167 68.2759 7.29264C68.218 7.58361 68.0751 7.85088 67.8654 8.06066C67.6556 8.27044 67.3883 8.4133 67.0973 8.47118C66.8064 8.52906 66.5048 8.49935 66.2307 8.38582C65.9566 8.27229 65.7223 8.08003 65.5575 7.83336C65.3927 7.58668 65.3047 7.29667 65.3047 7C65.3051 6.6023 65.4633 6.22099 65.7445 5.93977C66.0257 5.65855 66.407 5.50039 66.8047 5.5ZM162.305 53.1667C161.909 53.1667 161.522 53.284 161.194 53.5037C160.865 53.7235 160.608 54.0359 160.457 54.4013C160.306 54.7668 160.266 55.1689 160.343 55.5569C160.42 55.9448 160.611 56.3012 160.891 56.5809C161.17 56.8606 161.527 57.0511 161.915 57.1282C162.302 57.2054 162.705 57.1658 163.07 57.0144C163.436 56.8631 163.748 56.6067 163.968 56.2778C164.187 55.9489 164.305 55.5622 164.305 55.1667C164.304 54.6364 164.093 54.1281 163.718 53.7531C163.343 53.3782 162.835 53.1673 162.305 53.1667ZM162.305 56.1667C162.107 56.1667 161.914 56.108 161.749 55.9981C161.585 55.8883 161.457 55.7321 161.381 55.5494C161.305 55.3666 161.285 55.1656 161.324 54.9716C161.363 54.7776 161.458 54.5994 161.598 54.4596C161.737 54.3197 161.916 54.2245 162.11 54.1859C162.304 54.1473 162.505 54.1671 162.687 54.2428C162.87 54.3185 163.026 54.4467 163.136 54.6111C163.246 54.7755 163.305 54.9689 163.305 55.1667C163.304 55.4318 163.199 55.686 163.012 55.8735C162.824 56.061 162.57 56.1664 162.305 56.1667ZM92.6667 24.1146C92.2711 24.1146 91.8844 24.2319 91.5555 24.4517C91.2266 24.6714 90.9703 24.9838 90.8189 25.3492C90.6675 25.7147 90.6279 26.1168 90.7051 26.5048C90.7823 26.8928 90.9727 27.2491 91.2524 27.5288C91.5322 27.8085 91.8885 27.999 92.2765 28.0762C92.6644 28.1534 93.0666 28.1137 93.432 27.9624C93.7975 27.811 94.1098 27.5547 94.3296 27.2258C94.5494 26.8969 94.6667 26.5102 94.6667 26.1146C94.6661 25.5844 94.4551 25.076 94.0802 24.7011C93.7053 24.3261 93.1969 24.1152 92.6667 24.1146ZM92.6667 27.1146C92.4689 27.1146 92.2755 27.056 92.1111 26.9461C91.9466 26.8362 91.8185 26.68 91.7428 26.4973C91.6671 26.3146 91.6473 26.1135 91.6859 25.9195C91.7245 25.7255 91.8197 25.5474 91.9596 25.4075C92.0994 25.2677 92.2776 25.1724 92.4716 25.1338C92.6656 25.0952 92.8666 25.115 93.0493 25.1907C93.2321 25.2664 93.3882 25.3946 93.4981 25.559C93.608 25.7235 93.6667 25.9168 93.6667 26.1146C93.6664 26.3797 93.561 26.6339 93.3735 26.8214C93.186 27.0089 92.9318 27.1143 92.6667 27.1146ZM162.305 6C161.909 6 161.522 6.1173 161.194 6.33706C160.865 6.55682 160.608 6.86918 160.457 7.23463C160.306 7.60009 160.266 8.00222 160.343 8.39018C160.42 8.77814 160.611 9.13451 160.891 9.41421C161.17 9.69392 161.527 9.8844 161.915 9.96157C162.302 10.0387 162.705 9.99914 163.07 9.84776C163.436 9.69638 163.748 9.44004 163.968 9.11114C164.187 8.78224 164.305 8.39556 164.305 8C164.304 7.46975 164.093 6.9614 163.718 6.58646C163.343 6.21152 162.835 6.00061 162.305 6ZM162.305 9C162.107 9 161.914 8.94135 161.749 8.83147C161.585 8.72159 161.457 8.56541 161.381 8.38268C161.305 8.19996 161.285 7.99889 161.324 7.80491C161.363 7.61093 161.458 7.43275 161.598 7.29289C161.737 7.15304 161.916 7.0578 162.11 7.01922C162.304 6.98063 162.505 7.00043 162.687 7.07612C162.87 7.15181 163.026 7.27998 163.136 7.44443C163.246 7.60888 163.305 7.80222 163.305 8C163.304 8.26514 163.199 8.51934 163.012 8.70682C162.824 8.89429 162.57 8.99974 162.305 9ZM9.69528 9C9.69528 8.60444 9.57799 8.21776 9.35822 7.88886C9.13846 7.55996 8.8261 7.30362 8.46065 7.15224C8.0952 7.00087 7.69306 6.96126 7.3051 7.03843C6.91714 7.1156 6.56077 7.30608 6.28107 7.58579C6.00136 7.86549 5.81088 8.22186 5.73371 8.60982C5.65654 8.99778 5.69615 9.39992 5.84752 9.76537C5.9989 10.1308 6.25524 10.4432 6.58414 10.6629C6.91304 10.8827 7.29972 11 7.69528 11C8.22553 10.9994 8.73389 10.7885 9.10883 10.4135C9.48377 10.0386 9.69468 9.53025 9.69528 9ZM6.69528 9C6.69528 8.80222 6.75393 8.60888 6.86381 8.44443C6.97369 8.27998 7.12987 8.15181 7.3126 8.07612C7.49533 8.00043 7.69639 7.98063 7.89037 8.01922C8.08435 8.0578 8.26254 8.15304 8.40239 8.29289C8.54224 8.43275 8.63748 8.61093 8.67607 8.80491C8.71465 8.99889 8.69485 9.19996 8.61916 9.38268C8.54347 9.56541 8.4153 9.72159 8.25085 9.83147C8.0864 9.94135 7.89306 10 7.69528 10C7.43015 9.99974 7.17595 9.89429 6.98847 9.70682C6.80099 9.51934 6.69555 9.26514 6.69528 9Z" fill="#2D4356"/>
<path d="M9.111 43.8491L10.597 41.8941L9.658 41.3621L8.704 43.5521H8.672L7.703 41.3771L6.747 41.9251L8.219 43.8341V43.8651L5.918 43.5681V44.6321L8.234 44.3351V44.3661L6.747 46.2741L7.639 46.8381L8.657 44.6321H8.688L9.627 46.8221L10.613 46.2591L9.111 44.3811V44.3501L11.473 44.6321V43.5681L9.111 43.8811V43.8491Z" fill="#923144"/>
<path d="M46.513 26.723L45.657 27.822L46.17 28.147L46.757 26.876H46.774L47.315 28.138L47.883 27.813L47.018 26.732V26.714L48.378 26.876V26.264L47.018 26.444V26.426L47.874 25.3L47.333 24.993L46.784 26.254H46.765L46.207 25.002L45.657 25.317L46.504 26.417V26.435L45.179 26.264V26.876L46.513 26.705V26.723Z" fill="#923144"/>
<path d="M151.317 32.2671V31.2241L149 31.5311V31.5001L150.458 29.5821L149.537 29.0601L148.601 31.2081H148.57L147.619 29.0751L146.682 29.6121L148.125 31.4851V31.5161L145.868 31.2241V32.2671L148.14 31.9761V32.0071L146.682 33.8791L147.557 34.4321L148.555 32.2671H148.585L149.506 34.4161L150.473 33.8641L149 32.0221V31.9911L151.317 32.2671Z" fill="#923144"/>
<path d="M120.038 9.78798L121.296 8.13298L120.501 7.68298L119.694 9.53598H119.667L118.847 7.69598L118.038 8.15998L119.283 9.77498V9.80098L117.336 9.54998V10.45L119.296 10.199V10.225L118.038 11.84L118.793 12.317L119.654 10.45H119.68L120.474 12.303L121.309 11.827L120.038 10.238V10.212L122.036 10.45V9.54998L120.038 9.81398V9.78798Z" fill="#923144"/>
<path d="M2 150C3.10457 150 4 149.105 4 148C4 146.895 3.10457 146 2 146C0.89543 146 0 146.895 0 148C0 149.105 0.89543 150 2 150Z" fill="#2D4356"/>
<path d="M11 146H8C7.46957 146 6.96086 146.211 6.58579 146.586C6.21071 146.961 6 147.47 6 148C6 148.53 6.21071 149.039 6.58579 149.414C6.96086 149.789 7.46957 150 8 150H11C11.5304 150 12.0391 149.789 12.4142 149.414C12.7893 149.039 13 148.53 13 148C13 147.47 12.7893 146.961 12.4142 146.586C12.0391 146.211 11.5304 146 11 146ZM160 146H157C156.47 146 155.961 146.211 155.586 146.586C155.211 146.961 155 147.47 155 148C155 148.53 155.211 149.039 155.586 149.414C155.961 149.789 156.47 150 157 150H160C160.53 150 161.039 149.789 161.414 149.414C161.789 149.039 162 148.53 162 148C162 147.47 161.789 146.961 161.414 146.586C161.039 146.211 160.53 146 160 146Z" fill="#2D4356"/>
<path d="M166 150C167.105 150 168 149.105 168 148C168 146.895 167.105 146 166 146C164.895 146 164 146.895 164 148C164 149.105 164.895 150 166 150Z" fill="#2D4356"/>
<path d="M118.154 154H109.846C109.343 154.04 108.874 154.268 108.532 154.639C108.19 155.01 108 155.496 108 156C108 156.504 108.19 156.99 108.532 157.361C108.874 157.732 109.343 157.96 109.846 158H118.154C118.657 157.96 119.126 157.732 119.468 157.361C119.81 156.99 120 156.504 120 156C120 155.496 119.81 155.01 119.468 154.639C119.126 154.268 118.657 154.04 118.154 154ZM58.1539 154H49.8461C49.3433 154.04 48.8742 154.268 48.5321 154.639C48.1899 155.01 48 155.496 48 156C48 156.504 48.1899 156.99 48.5321 157.361C48.8742 157.732 49.3433 157.96 49.8461 158H58.1539C58.6566 157.96 59.1258 157.732 59.4679 157.361C59.81 156.99 60 156.504 60 156C60 155.496 59.81 155.01 59.4679 154.639C59.1258 154.268 58.6566 154.04 58.1539 154ZM104 154H64C63.4696 154 62.9609 154.211 62.5858 154.586C62.2107 154.961 62 155.47 62 156C62 156.53 62.2107 157.039 62.5858 157.414C62.9609 157.789 63.4696 158 64 158H79.94V160H72C71.4696 160 70.9609 160.211 70.5858 160.586C70.2107 160.961 70 161.47 70 162C70 162.53 70.2107 163.039 70.5858 163.414C70.9609 163.789 71.4696 164 72 164H97C97.5304 164 98.0391 163.789 98.4142 163.414C98.7893 163.039 99 162.53 99 162C99 161.47 98.7893 160.961 98.4142 160.586C98.0391 160.211 97.5304 160 97 160H88.06V158H104C104.53 158 105.039 157.789 105.414 157.414C105.789 157.039 106 156.53 106 156C106 155.47 105.789 154.961 105.414 154.586C105.039 154.211 104.53 154 104 154Z" fill="#923144"/>
<path d="M150.72 146H112.47C112.173 145.289 111.791 144.617 111.33 144H114C114.282 144 114.56 143.94 114.817 143.824C115.074 143.709 115.303 143.54 115.49 143.329C115.678 143.119 115.818 142.871 115.902 142.602C115.987 142.333 116.013 142.05 115.98 141.77C115.94 141.41 114.82 133.13 101.67 132.76H100.36C99.71 130.33 98.61 125.03 99.9201 120.56C99.9579 120.419 99.9814 120.275 99.99 120.13C100.18 119.67 100.36 119.21 100.53 118.77C100.997 117.403 101.593 116.084 102.31 114.83C110.91 114.15 118.4 109.4 123.42 101.44C129.12 92.3901 130.6 80.4701 127.11 71.7601C126.74 70.8501 126.44 70.0001 126.18 69.2001C127.12 69.6635 128.144 69.9322 129.19 69.9901C129.283 69.9986 129.377 70.0019 129.47 70.0001C131.13 70.0001 133.92 69.3601 135.94 65.5501C139.46 58.9101 133.18 50.1401 131.05 47.4701C132.753 46.8649 134.607 46.8333 136.33 47.3801C136.694 47.5111 137.088 47.5336 137.464 47.445C137.84 47.3563 138.183 47.1602 138.45 46.8806C138.716 46.6009 138.896 46.2498 138.967 45.8698C139.039 45.4898 138.998 45.0973 138.85 44.7401C137.824 42.3515 136.091 40.3338 133.886 38.9575C131.68 37.5812 129.107 36.9122 126.51 37.0401C128.047 33.978 128.4 30.4561 127.5 27.1501C126.79 24.7601 125.34 22.8201 123.82 22.2001C123.465 22.0572 123.084 21.9904 122.701 22.0042C122.319 22.018 121.944 22.112 121.6 22.2801C120.43 22.8301 119.43 24.3701 118.64 26.0401C117.01 24.7461 115.087 23.8737 113.04 23.5001C112.603 23.4319 112.155 23.5095 111.767 23.721C111.378 23.9324 111.07 24.266 110.89 24.6701C110.489 25.6516 110.197 26.6745 110.02 27.7201C108.611 27.0827 107.072 26.7868 105.527 26.8563C103.982 26.9258 102.476 27.3588 101.13 28.1201C100.878 28.2711 100.662 28.4756 100.498 28.7193C100.334 28.963 100.225 29.2398 100.18 29.5301C99.7836 31.9933 100.063 34.518 100.987 36.8353C101.911 39.1527 103.447 41.176 105.43 42.6901C103.957 44.7583 102.742 46.9981 101.81 49.3601C100.78 51.8901 99.8899 54.4101 98.9999 56.9801C96.9408 62.9099 93.4753 68.2524 88.9 72.55L88.78 72.67C81.56 79.45 77.15 82.02 74.59 82.93C74.05 77.7 72 65.09 64.54 57.43C61.32 54.2316 58.797 50.4013 57.13 46.18C55 40.52 50.02 33.78 38.46 34C38.0991 34.007 37.7468 34.1113 37.4403 34.3019C37.1338 34.4925 36.8844 34.7623 36.7185 35.0829C36.5526 35.4034 36.4763 35.7629 36.4977 36.1232C36.5191 36.4835 36.6373 36.8313 36.84 37.13C36.89 37.21 40.73 42.88 43.99 48.04C41.19 46.97 38.15 46.34 36.11 47.44C35.3992 47.839 34.8121 48.4263 34.4134 49.1372C34.0147 49.8482 33.8197 50.6554 33.85 51.47C33.69 56.75 36.35 59.34 38.3 61.24C38.4 61.34 38.5 61.43 38.6 61.53C37.829 61.7622 37.1128 62.1476 36.4942 62.6631C35.8757 63.1786 35.3675 63.8135 35 64.53C34.6492 65.409 34.509 66.3579 34.5906 67.3008C34.6722 68.2437 34.9734 69.1544 35.47 69.96C33.41 70.15 31.14 70.8 29.88 72.54C29.03 73.72 28.37 75.81 30 79.1C30.1482 79.399 30.3681 79.6566 30.64 79.85L39.56 86.14C36.94 87.75 33.36 90.51 32.11 94.2C31.7017 95.3982 31.5592 96.6709 31.6921 97.9298C31.8251 99.1887 32.2304 100.404 32.88 101.49C33.0335 101.763 33.2487 101.997 33.5087 102.172C33.7686 102.348 34.0659 102.46 34.3769 102.5C34.6879 102.539 35.0039 102.506 35.2996 102.402C35.5953 102.298 35.8626 102.126 36.08 101.9C36.9544 100.977 37.897 100.121 38.9 99.34C38.93 99.8681 39.0554 100.387 39.27 100.87C39.96 102.44 41.45 103.49 43.78 104.06C41.9 108.22 41.23 114.67 47.27 120.3C47.6432 120.647 48.1347 120.837 48.644 120.834C49.1532 120.83 49.6419 120.632 50.01 120.28C50.17 120.14 52.5 117.92 54.74 115.39C55.09 118.9 56 123.02 58.24 125.08C58.4377 125.267 58.6724 125.411 58.929 125.503C59.1856 125.594 59.4585 125.63 59.73 125.61C60.0025 125.591 60.2681 125.517 60.5106 125.391C60.7531 125.265 60.9673 125.092 61.14 124.88C62.9408 122.687 64.5817 120.368 66.05 117.94C68.41 120.35 72.9501 123.15 80.9901 122.43C81.4274 123.838 82.104 125.161 82.9901 126.34C83.1201 134.07 75.6001 142.35 75.5301 142.43C75.2031 142.783 75.0141 143.242 74.9976 143.723C74.9811 144.204 75.1381 144.675 75.44 145.05C75.7359 145.39 76.0568 145.708 76.4 146H17.28C16.9953 145.963 16.706 145.986 16.4313 146.07C16.1565 146.153 15.9028 146.294 15.6869 146.484C15.4711 146.673 15.2982 146.906 15.1797 147.168C15.0612 147.429 14.9999 147.713 14.9999 148C14.9999 148.287 15.0612 148.571 15.1797 148.832C15.2982 149.094 15.4711 149.327 15.6869 149.516C15.9028 149.706 16.1565 149.847 16.4313 149.93C16.706 150.014 16.9953 150.037 17.28 150H150.72C151.005 150.037 151.294 150.014 151.569 149.93C151.843 149.847 152.097 149.706 152.313 149.516C152.529 149.327 152.702 149.094 152.82 148.832C152.939 148.571 153 148.287 153 148C153 147.713 152.939 147.429 152.82 147.168C152.702 146.906 152.529 146.673 152.313 146.484C152.097 146.294 151.843 146.153 151.569 146.07C151.294 145.986 151.005 145.963 150.72 146ZM132.72 43.04C131.312 43.1904 129.934 43.5476 128.63 44.1C128.387 43.0141 127.972 41.9742 127.4 41.02C129.357 41.0397 131.243 41.7558 132.72 43.04ZM126.88 55.33C127.566 53.8524 128.118 52.3163 128.53 50.74C130.96 53.96 134.41 59.9 132.4 63.68C131.13 66.08 129.8 66.01 129.37 66C127.57 65.92 125.73 64.2 125.01 62.84C125.056 60.2272 125.695 57.6591 126.88 55.33ZM104.02 31.17C105.076 30.7789 106.225 30.7127 107.32 30.98C108.414 31.2474 109.403 31.8359 110.16 32.67C110.432 32.943 110.777 33.1319 111.153 33.214C111.53 33.296 111.922 33.2679 112.283 33.1328C112.644 32.9977 112.958 32.7615 113.188 32.4524C113.418 32.1433 113.554 31.7745 113.58 31.39C113.663 30.2312 113.82 29.0788 114.05 27.94C115.29 28.43 116.82 29.32 117.16 30.83C117.257 31.2593 117.493 31.6448 117.831 31.9267C118.169 32.2087 118.59 32.3715 119.03 32.39C119.468 32.3993 119.897 32.2685 120.255 32.0166C120.613 31.7648 120.881 31.4051 121.02 30.99C121.489 29.4592 122.109 27.9786 122.87 26.57C123.324 27.264 123.643 28.0376 123.81 28.85C124.19 30.57 124.16 33.25 122.21 36.63C121.23 36.2111 120.197 35.9285 119.14 35.79C118.18 35.61 113.13 34.95 108.07 39.67C106.733 38.7094 105.661 37.4264 104.953 35.9404C104.245 34.4543 103.924 32.8133 104.02 31.17ZM82.06 112C81.7967 111.99 81.534 112.032 81.2872 112.124C81.0404 112.216 80.8144 112.357 80.6226 112.537C80.4308 112.718 80.2769 112.935 80.17 113.176C80.0631 113.417 80.0053 113.677 80 113.94C79.946 115.456 80.0095 116.974 80.19 118.48C70.31 119.19 67.63 113.51 67.52 113.28C67.361 112.901 67.0888 112.58 66.7405 112.362C66.3923 112.143 65.9851 112.038 65.5746 112.06C65.1641 112.082 64.7704 112.23 64.4474 112.484C64.1243 112.738 63.8878 113.086 63.77 113.48C63.26 115.18 61.35 118 59.78 120.12C58.8061 116.75 58.3906 113.244 58.55 109.74C58.5653 109.289 58.4278 108.846 58.1598 108.484C57.8919 108.121 57.5093 107.859 57.0739 107.741C56.6386 107.623 56.1762 107.655 55.7616 107.833C55.347 108.011 55.0046 108.323 54.79 108.72C53.72 110.71 50.73 113.93 48.69 115.98C43.95 110.15 48.07 104.41 48.59 103.73C48.8144 103.443 48.9563 103.101 49.0003 102.74C49.0444 102.379 48.9889 102.012 48.84 101.68C48.6922 101.347 48.4552 101.062 48.1551 100.855C47.8551 100.649 47.5037 100.529 47.14 100.51C44.18 100.32 43.1 99.63 42.93 99.26C42.76 98.89 43.15 98.03 43.5 97.59C43.7963 97.2191 43.951 96.7548 43.9364 96.2803C43.9217 95.8058 43.7387 95.3519 43.42 95C43.1338 94.685 42.7849 94.4334 42.3957 94.2611C42.0065 94.0889 41.5856 94 41.16 94H41.12C39.41 94 37.33 95.38 35.65 96.8C35.6711 96.3537 35.7553 95.9127 35.9 95.49C37.1 91.94 42.27 89.03 44.15 88.21C44.477 88.07 44.7607 87.8451 44.9717 87.5587C45.1826 87.2723 45.3132 86.9347 45.35 86.5808C45.3867 86.227 45.3282 85.8698 45.1805 85.5461C45.0328 85.2225 44.8013 84.9442 44.51 84.74L33.38 76.89C32.98 75.95 32.88 75.22 33.13 74.88C33.77 73.98 36.75 73.71 39.02 74.02C39.4204 74.0742 39.8278 74.0062 40.1888 73.825C40.5499 73.6437 40.8477 73.3575 41.0434 73.0041C41.239 72.6506 41.3234 72.2463 41.2853 71.844C41.2472 71.4418 41.0885 71.0605 40.83 70.75C38.79 68.32 38.37 66.8 38.64 66.19C39 65.4 40.97 64.91 42.18 64.88C42.5068 64.8755 42.8274 64.7908 43.1138 64.6333C43.4001 64.4757 43.6434 64.2503 43.8222 63.9767C44.0009 63.7031 44.1097 63.3898 44.139 63.0643C44.1683 62.7388 44.1171 62.4111 43.99 62.11C43.2897 60.6779 42.3026 59.4049 41.09 58.37C39.29 56.62 37.74 55.11 37.85 51.6C37.85 51.39 37.9 51.02 38.01 50.96C39.2 50.32 44.05 52.07 48.19 54.62C48.5645 54.8522 49.0052 54.9542 49.4436 54.91C49.882 54.8658 50.2935 54.6779 50.6141 54.3756C50.9346 54.0733 51.1463 53.6735 51.2161 53.2384C51.2859 52.8034 51.2099 52.3574 51 51.97C49.05 48.38 44.99 42.15 42.42 38.28C47.72 39.19 51.4 42.31 53.39 47.59C55.2481 52.3296 58.0672 56.6333 61.67 60.23C68.41 67.14 70.21 79.3 70.65 83.76C69.2214 83.7494 67.8171 83.3889 66.56 82.71C66.3249 82.5925 66.069 82.5224 65.8069 82.5038C65.5447 82.4851 65.2815 82.5183 65.0321 82.6014C64.7828 82.6845 64.5523 82.8159 64.3538 82.9881C64.1552 83.1603 63.9925 83.3699 63.875 83.605C63.7575 83.8401 63.6874 84.096 63.6688 84.3581C63.6501 84.6203 63.6833 84.8835 63.7664 85.1329C63.8495 85.3822 63.9809 85.6127 64.1531 85.8113C64.3253 86.0098 64.5349 86.1725 64.77 86.29C66.5411 87.2247 68.5077 87.7283 70.51 87.76C71.4478 87.7759 72.3814 87.6304 73.27 87.33C77.59 86.85 83.72 82.91 91.51 75.59L91.64 75.47C92.42 74.73 93.16 73.96 93.88 73.18L98.19 67.63C100.102 64.7156 101.643 61.5748 102.78 58.28C103.65 55.77 104.52 53.31 105.51 50.87C110.65 38.27 118.09 39.66 118.38 39.72C118.462 39.739 118.546 39.7523 118.63 39.76C120.419 39.9504 122.069 40.8133 123.246 42.1741C124.423 43.535 125.039 45.2921 124.97 47.09C124.878 49.4121 124.277 51.6856 123.21 53.75C121.736 56.6662 120.982 59.8927 121.01 63.16C121.003 63.2801 121.007 63.4005 121.02 63.52C121.203 66.3392 121.813 69.1142 122.83 71.75V71.77H122.84C122.84 71.78 122.85 71.79 122.85 71.81C123.09 72.4 124.94 77.23 124.94 80.5C125.264 87.12 123.554 93.6806 120.04 99.3C115.65 106.27 109.13 110.38 101.68 110.86C99.26 111.02 98.23 113.66 96.8 117.31C95.38 120.94 93.44 125.91 90.54 126C85.57 126.11 84.6001 120.58 84.5001 119.95C84.4949 119.899 84.4848 119.849 84.47 119.8C84.46 119.76 84.4601 119.72 84.4501 119.68C84.0371 117.837 83.8856 115.945 84.0001 114.06C84.0127 113.53 83.8162 113.017 83.453 112.632C83.0899 112.246 82.5894 112.019 82.06 112ZM91.87 146C88.22 146 87.42 143.55 87.35 143.31C87.2631 142.967 87.0882 142.653 86.8427 142.399C86.5971 142.145 86.2894 141.959 85.95 141.86C85.6088 141.766 85.2488 141.763 84.9064 141.853C84.564 141.942 84.2513 142.121 84 142.37C83.6372 142.809 83.1862 143.166 82.6762 143.42C82.1663 143.673 81.6088 143.816 81.04 143.84C80.6212 143.816 80.2122 143.703 79.84 143.51C81.94 140.86 85.78 135.33 86.76 129.31C87.4071 129.571 88.0813 129.759 88.77 129.87C88.5461 133.725 88.9446 137.591 89.95 141.32C90.0717 141.735 90.3245 142.1 90.6706 142.359C91.0167 142.619 91.4374 142.759 91.87 142.76H98.61C103.92 142.91 106.54 144.55 107.82 146H91.87ZM105.76 140C103.481 139.2 101.085 138.781 98.67 138.76H93.44C92.764 135.75 92.5482 132.655 92.8 129.58C93.7817 129.2 94.6763 128.625 95.43 127.89C95.6664 130.45 96.1863 132.975 96.98 135.42C97.1177 135.811 97.3734 136.151 97.7119 136.391C98.0504 136.631 98.4551 136.76 98.87 136.76H101.61C106.92 136.91 109.54 138.55 110.82 140H105.76Z" fill="#2D4356"/>
<path d="M122.84 71.77H122.83V71.75C122.831 71.7577 122.834 71.7648 122.84 71.77Z" fill="#2D4356"/>
<path d="M124.94 80.5C124.424 81.6327 123.843 82.7346 123.2 83.8C122.968 84.1743 122.618 84.4615 122.206 84.617C121.794 84.7725 121.342 84.7876 120.92 84.66C120.498 84.5323 120.131 84.2691 119.874 83.9111C119.617 83.553 119.486 83.1203 119.5 82.68C119.398 81.2872 118.955 79.9409 118.21 78.76C116.047 81.944 113.257 84.6527 110.01 86.72C109.706 86.9049 109.356 87.0018 109 87C108.629 87.001 108.265 86.897 107.95 86.6999C107.64 86.5081 107.388 86.2356 107.22 85.9115C107.053 85.5874 106.977 85.2239 107 84.86C107.28 80.79 107.67 77.6499 108.04 75.3499C105.321 76.6994 102.523 77.8816 99.66 78.8899C99.2359 79.0382 98.7743 79.0396 98.3494 78.8937C97.9245 78.7478 97.561 78.4633 97.3174 78.0858C97.0739 77.7083 96.9643 77.2598 97.0065 76.8126C97.0487 76.3653 97.2401 75.9452 97.55 75.62C98.6028 74.28 99.4426 72.7858 100.04 71.19C98.0585 72.0579 95.9948 72.7246 93.88 73.1799L98.19 67.6299C99.8101 67.0008 101.267 66.0128 102.45 64.7399C102.741 64.3836 103.145 64.1383 103.596 64.0456C104.046 63.953 104.515 64.0185 104.922 64.2312C105.33 64.4438 105.652 64.7906 105.834 65.2131C106.016 65.6355 106.046 66.1077 105.92 66.55C105.276 68.7496 104.505 70.9099 103.61 73.0199C106.27 71.8399 108.71 70.57 109.5 69.68C109.803 69.3355 110.216 69.1059 110.668 69.0299C111.121 68.9539 111.586 69.0361 111.985 69.2626C112.384 69.4891 112.693 69.8462 112.859 70.2737C113.026 70.7012 113.04 71.1731 112.9 71.61C112.14 74.5579 111.635 77.5656 111.39 80.5999C113.398 78.7271 115.072 76.5255 116.34 74.0899C116.493 73.7922 116.718 73.5374 116.994 73.3487C117.27 73.16 117.59 73.0435 117.923 73.0097C118.256 72.9759 118.592 73.0259 118.9 73.1552C119.209 73.2845 119.481 73.489 119.69 73.7499C120.552 74.8556 121.312 76.0371 121.96 77.2799C122.74 75.2299 123.23 73.1199 122.83 71.7699H122.84C122.84 71.7799 122.85 71.7899 122.85 71.8099C123.09 72.3999 124.94 77.23 124.94 80.5Z" fill="#923144"/>
</svg>
