<svg width="168" height="168" viewBox="0 0 168 168" fill="none" xmlns="http://www.w3.org/2000/svg">
<path d="M2 150.884C3.10457 150.884 4 149.989 4 148.884C4 147.779 3.10457 146.884 2 146.884C0.89543 146.884 0 147.779 0 148.884C0 149.989 0.89543 150.884 2 150.884Z" fill="#2D4356"/>
<path d="M11 146.884H8C7.46957 146.884 6.96086 147.095 6.58579 147.47C6.21071 147.845 6 148.354 6 148.884C6 149.414 6.21071 149.923 6.58579 150.298C6.96086 150.673 7.46957 150.884 8 150.884H11C11.5304 150.884 12.0391 150.673 12.4142 150.298C12.7893 149.923 13 149.414 13 148.884C13 148.354 12.7893 147.845 12.4142 147.47C12.0391 147.095 11.5304 146.884 11 146.884Z" fill="#2D4356"/>
<path d="M118.154 154.884H109.846C109.342 154.923 108.872 155.151 108.529 155.522C108.186 155.892 107.995 156.379 107.995 156.884C107.995 157.389 108.186 157.876 108.529 158.247C108.872 158.617 109.342 158.845 109.846 158.884H118.154C118.658 158.845 119.128 158.617 119.471 158.247C119.814 157.876 120.005 157.389 120.005 156.884C120.005 156.379 119.814 155.892 119.471 155.522C119.128 155.151 118.658 154.923 118.154 154.884ZM58.154 154.884H49.846C49.3423 154.923 48.8719 155.151 48.5288 155.522C48.1856 155.892 47.995 156.379 47.995 156.884C47.995 157.389 48.1856 157.876 48.5288 158.247C48.8719 158.617 49.3423 158.845 49.846 158.884H58.154C58.6577 158.845 59.1281 158.617 59.4712 158.247C59.8143 157.876 60.005 157.389 60.005 156.884C60.005 156.379 59.8143 155.892 59.4712 155.522C59.1281 155.151 58.6577 154.923 58.154 154.884ZM104 154.884H64C63.4696 154.884 62.9608 155.095 62.5858 155.47C62.2107 155.845 62 156.354 62 156.884C62 157.414 62.2107 157.923 62.5858 158.298C62.9608 158.673 63.4696 158.884 64 158.884H79.94V160.884H72C71.4696 160.884 70.9608 161.095 70.5858 161.47C70.2107 161.845 70 162.354 70 162.884C70 163.414 70.2107 163.923 70.5858 164.298C70.9608 164.673 71.4696 164.884 72 164.884H97C97.5304 164.884 98.0391 164.673 98.4142 164.298C98.7893 163.923 99 163.414 99 162.884C99 162.354 98.7893 161.845 98.4142 161.47C98.0391 161.095 97.5304 160.884 97 160.884H88.06V158.884H104C104.53 158.884 105.039 158.673 105.414 158.298C105.789 157.923 106 157.414 106 156.884C106 156.354 105.789 155.845 105.414 155.47C105.039 155.095 104.53 154.884 104 154.884ZM101.401 108.434L103.941 110.284L102.971 113.278C102.707 114.082 102.704 114.949 102.963 115.755C103.223 116.561 103.731 117.263 104.415 117.762C105.1 118.26 105.924 118.529 106.771 118.529C107.617 118.529 108.442 118.261 109.126 117.763L111.666 115.913L114.206 117.763C114.891 118.26 115.715 118.527 116.561 118.527C117.407 118.526 118.231 118.257 118.915 117.759C119.599 117.261 120.107 116.559 120.367 115.754C120.627 114.949 120.625 114.082 120.362 113.278L119.392 110.284L121.866 108.481C122.565 107.993 123.091 107.296 123.367 106.489C123.643 105.682 123.655 104.808 123.401 103.994C123.147 103.18 122.64 102.469 121.954 101.962C121.268 101.456 120.439 101.181 119.586 101.178H116.441L115.471 98.1841C115.212 97.379 114.704 96.6769 114.02 96.1789C113.336 95.6808 112.512 95.4125 111.666 95.4125C110.821 95.4125 109.997 95.6808 109.313 96.1789C108.629 96.6769 108.121 97.379 107.862 98.1841L106.892 101.178H103.752C102.906 101.18 102.082 101.45 101.399 101.949C100.715 102.447 100.206 103.149 99.9458 103.954C99.6851 104.759 99.6856 105.626 99.9471 106.43C100.209 107.235 100.717 107.936 101.401 108.434ZM109.798 105.189L111.667 99.423L113.535 105.189H119.581L114.69 108.752L116.558 114.518L111.667 110.955L106.775 114.518L108.644 108.752L103.752 105.189H109.798ZM80.96 77.53C81.1454 77.7163 81.3657 77.8641 81.6084 77.9649C81.851 78.0658 82.1112 78.1177 82.374 78.1177C82.6368 78.1177 82.897 78.0658 83.1396 77.9649C83.3823 77.8641 83.6026 77.7163 83.788 77.53L123.436 37.7751C124.007 37.228 124.767 36.9226 125.557 36.9226C126.348 36.9226 127.108 37.228 127.679 37.7751C128.242 38.3398 128.558 39.1047 128.558 39.9021C128.558 40.6994 128.242 41.4643 127.679 42.029L93.029 76.7721C92.653 77.1471 92.4415 77.6561 92.4408 78.1871C92.4402 78.7181 92.6505 79.2276 93.0255 79.6035C93.4005 79.9795 93.9095 80.1911 94.4405 80.1917C94.9715 80.1924 95.481 79.9821 95.857 79.6071L130.506 44.8671C131.163 44.2182 131.686 43.4459 132.044 42.5945C132.401 41.7431 132.588 40.8293 132.591 39.9058C132.595 38.9822 132.416 38.067 132.065 37.2128C131.713 36.3587 131.197 35.5823 130.545 34.9283C129.893 34.2744 129.118 33.7558 128.264 33.4023C127.411 33.0488 126.496 32.8673 125.573 32.8684C124.649 32.8695 123.735 33.0531 122.883 33.4086C122.03 33.7641 121.257 34.2846 120.606 34.94L80.96 74.696C80.5849 75.0724 80.3742 75.5822 80.3742 76.1136C80.3742 76.6449 80.5849 77.1537 80.96 77.53Z" fill="#923144"/>
<path d="M160 146.884H157C156.47 146.884 155.961 147.095 155.586 147.47C155.211 147.845 155 148.354 155 148.884C155 149.414 155.211 149.923 155.586 150.298C155.961 150.673 156.47 150.884 157 150.884H160C160.53 150.884 161.039 150.673 161.414 150.298C161.789 149.923 162 149.414 162 148.884C162 148.354 161.789 147.845 161.414 147.47C161.039 147.095 160.53 146.884 160 146.884Z" fill="#2D4356"/>
<path d="M166 150.884C167.105 150.884 168 149.989 168 148.884C168 147.779 167.105 146.884 166 146.884C164.895 146.884 164 147.779 164 148.884C164 149.989 164.895 150.884 166 150.884Z" fill="#2D4356"/>
<path d="M150.721 146.884L109.918 146.873C110.627 145.655 111 144.271 111 142.862V139.734C119.497 134.924 126.565 127.945 131.484 119.511C136.404 111.076 138.997 101.488 139 91.724V82.7C139 80.862 137.776 78.971 130.584 77.288C130.858 76.4906 130.999 75.6533 131 74.81C130.99 72.7414 130.16 70.7611 128.692 69.3037C127.224 67.8462 125.238 67.0307 123.169 67.036C122.952 67.0361 122.735 67.0451 122.519 67.063C121.734 65.1329 120.216 63.5924 118.298 62.779L114.915 66.171C115.022 66.161 115.125 66.141 115.235 66.141C116.189 66.1371 117.109 66.4902 117.816 67.1309C118.523 67.7716 118.964 68.6534 119.053 69.603C119.077 69.916 119.175 70.2189 119.338 70.4871C119.502 70.7553 119.726 70.9813 119.993 71.1469C120.259 71.3124 120.561 71.4128 120.874 71.4399C121.187 71.467 121.502 71.4202 121.793 71.303C122.231 71.1313 122.698 71.0444 123.169 71.047C123.668 71.0389 124.163 71.1301 124.626 71.3153C125.089 71.5006 125.511 71.7761 125.867 72.1259C126.222 72.4758 126.505 72.8928 126.697 73.3529C126.89 73.8129 126.989 74.3067 126.989 74.8055C126.989 75.3043 126.89 75.7981 126.697 76.2582C126.505 76.7182 126.222 77.1353 125.867 77.4851C125.511 77.835 125.089 78.1105 124.626 78.2957C124.163 78.481 123.668 78.5722 123.169 78.564C122.637 78.564 122.127 78.7753 121.751 79.1513C121.375 79.5273 121.164 80.0373 121.164 80.569C121.164 81.1008 121.375 81.6108 121.751 81.9868C122.127 82.3628 122.637 82.574 123.169 82.574C124.956 82.5759 126.689 81.9669 128.082 80.848C130.279 81.1884 132.423 81.8109 134.46 82.7C130.408 84.907 111.803 87.713 84 87.713C56.197 87.713 37.592 84.907 33.54 82.7C35.5781 81.8105 37.7225 81.1876 39.92 80.847C41.3117 81.966 43.0442 82.5754 44.83 82.574C45.3618 82.574 45.8717 82.3628 46.2477 81.9868C46.6238 81.6108 46.835 81.1008 46.835 80.569C46.835 80.0373 46.6238 79.5273 46.2477 79.1513C45.8717 78.7753 45.3618 78.564 44.83 78.564C44.3313 78.5722 43.8359 78.481 43.3728 78.2957C42.9096 78.1105 42.488 77.835 42.1324 77.4851C41.7769 77.1353 41.4945 76.7182 41.3017 76.2582C41.109 75.7981 41.0097 75.3043 41.0097 74.8055C41.0097 74.3067 41.109 73.8129 41.3017 73.3529C41.4945 72.8928 41.7769 72.4758 42.1324 72.1259C42.488 71.7761 42.9096 71.5006 43.3728 71.3153C43.8359 71.1301 44.3313 71.0389 44.83 71.047C45.3013 71.0431 45.7689 71.1303 46.207 71.304C46.4989 71.4215 46.8143 71.4684 47.1278 71.441C47.4412 71.4136 47.7437 71.3126 48.0108 71.1463C48.2778 70.98 48.5019 70.753 48.6648 70.4838C48.8276 70.2146 48.9246 69.9108 48.948 69.597C49.0357 68.6474 49.4767 67.7652 50.1837 67.1252C50.8908 66.4852 51.8123 66.134 52.766 66.141C53.2357 66.137 53.7016 66.2243 54.138 66.398C54.43 66.516 54.7457 66.5634 55.0594 66.5364C55.3731 66.5093 55.6761 66.4085 55.9435 66.2423C56.2109 66.076 56.4353 65.8489 56.5984 65.5796C56.7615 65.3102 56.8587 65.0061 56.882 64.692C56.9699 63.7427 57.4109 62.861 58.1177 62.2212C58.8245 61.5814 59.7457 61.2302 60.699 61.237C61.0865 61.2362 61.4719 61.2925 61.843 61.404C62.294 61.541 62.779 61.5143 63.2122 61.3286C63.6455 61.1429 63.9992 60.8101 64.211 60.389C64.5305 59.7547 65.021 59.2223 65.6271 58.8519C66.2332 58.4815 66.9307 58.288 67.641 58.293C68.111 58.2889 68.5773 58.3762 69.014 58.55C69.306 58.668 69.6217 58.7154 69.9354 58.6884C70.2491 58.6613 70.5521 58.5605 70.8195 58.3943C71.0869 58.228 71.3113 58.0009 71.4744 57.7316C71.6375 57.4622 71.7347 57.1581 71.758 56.844C71.8459 55.8946 72.2868 55.0126 72.9935 54.3725C73.7003 53.7324 74.6215 53.3807 75.575 53.387C76.0457 53.3833 76.5127 53.4709 76.95 53.645C77.2419 53.7625 77.5573 53.8094 77.8708 53.782C78.1842 53.7546 78.4867 53.6536 78.7538 53.4873C79.0208 53.321 79.2449 53.094 79.4078 52.8248C79.5706 52.5556 79.6676 52.2518 79.691 51.938C79.7791 50.9886 80.2203 50.1067 80.9272 49.4668C81.6342 48.8268 82.5555 48.4754 83.509 48.482C83.5926 48.4815 83.6761 48.4865 83.759 48.497C83.9217 48.5168 84.0863 48.5168 84.249 48.497C84.3326 48.487 84.4168 48.482 84.501 48.482C85.4532 48.4766 86.3728 48.8286 87.0779 49.4686C87.783 50.1085 88.2224 50.9898 88.309 51.938C88.3324 52.2509 88.429 52.5539 88.5912 52.8225C88.7533 53.0911 88.9764 53.3178 89.2423 53.4843C89.5083 53.6508 89.8097 53.7523 90.1221 53.7808C90.4346 53.8092 90.7494 53.7637 91.041 53.648C91.485 53.4738 91.9581 53.3856 92.435 53.388C92.9721 53.3899 93.5028 53.5044 93.9929 53.7242C94.4829 53.944 94.9214 54.2642 95.28 54.664L98.102 51.834C97.3736 51.0613 96.4955 50.4449 95.5212 50.0223C94.547 49.5998 93.4969 49.3799 92.435 49.376C92.215 49.376 91.997 49.385 91.781 49.403C91.1971 47.9492 90.192 46.7031 88.8949 45.8245C87.5978 44.9459 86.0677 44.4749 84.501 44.472C84.334 44.472 84.167 44.478 84.005 44.492C83.84 44.4789 83.6745 44.4722 83.509 44.472C81.9411 44.4743 80.4095 44.9448 79.1107 45.8232C77.8119 46.7015 76.805 47.9477 76.219 49.402C76.0063 49.3854 75.7917 49.3767 75.575 49.376C74.0069 49.3784 72.4754 49.8492 71.1767 50.7279C69.878 51.6067 68.8714 52.8533 68.286 54.308C68.0727 54.2914 67.858 54.2827 67.642 54.282C66.4552 54.2767 65.2828 54.5423 64.2143 55.0587C63.1457 55.5752 62.2091 56.3287 61.476 57.262C61.2187 57.238 60.9597 57.226 60.699 57.226C59.131 57.2282 57.5995 57.6986 56.3006 58.577C55.0018 59.4554 53.9949 60.7016 53.409 62.156C53.197 62.1394 52.9827 62.131 52.766 62.131C51.198 62.1331 49.6664 62.6034 48.3675 63.4818C47.0686 64.3602 46.0618 65.6066 45.476 67.061C45.2627 67.045 45.0477 67.0367 44.831 67.036C42.7637 67.0294 40.7781 67.8431 39.31 69.2987C37.8419 70.7542 37.0111 72.7327 37 74.8C37.0012 75.6467 37.1424 76.4874 37.418 77.288C30.224 78.97 29 80.862 29 82.7V91.724C29.0031 101.488 31.5965 111.076 36.5155 119.511C41.4346 127.945 48.5031 134.924 57 139.734V142.862C57.0003 144.271 57.3736 145.654 58.082 146.872L17.279 146.884C16.9945 146.847 16.7053 146.871 16.4308 146.954C16.1562 147.038 15.9027 147.179 15.687 147.368C15.4714 147.558 15.2986 147.791 15.1803 148.052C15.0619 148.313 15.0007 148.597 15.0007 148.884C15.0007 149.171 15.0619 149.455 15.1803 149.716C15.2986 149.977 15.4714 150.211 15.687 150.4C15.9027 150.589 16.1562 150.73 16.4308 150.814C16.7053 150.897 16.9945 150.921 17.279 150.884H150.72C151.005 150.921 151.294 150.897 151.568 150.814C151.843 150.73 152.096 150.589 152.312 150.4C152.528 150.211 152.7 149.977 152.819 149.716C152.937 149.455 152.998 149.171 152.998 148.884C152.998 148.597 152.937 148.313 152.819 148.052C152.7 147.791 152.528 147.558 152.312 147.368C152.096 147.179 151.843 147.038 151.568 146.954C151.294 146.871 151.006 146.847 150.721 146.884ZM61 142.862V140.857H107V142.862C107 143.924 106.579 144.942 105.829 145.694C105.079 146.446 104.062 146.869 103 146.872H65C63.9382 146.869 62.9208 146.446 62.171 145.694C61.4211 144.942 61 143.924 61 142.862ZM46.262 89.651C58.786 91.1264 71.3898 91.8187 84 91.724C96.6102 91.8187 109.214 91.1264 121.738 89.651C128.326 88.778 132.445 87.81 135 86.795V91.724C134.997 100.987 132.482 110.076 127.721 118.023C122.96 125.969 116.132 132.474 107.965 136.846H91C64.777 136.846 46.215 117.514 44.978 89.475C45.396 89.534 45.822 89.593 46.262 89.651ZM33 91.724V86.794C35.5767 87.7288 38.2377 88.412 40.946 88.834C41.425 102.887 46.176 115.662 54.475 125.006C58.9814 130.114 64.5658 134.158 70.825 136.846H60.035C51.8681 132.474 45.0404 125.969 40.2794 118.023C35.5184 110.076 33.0026 100.987 33 91.724ZM33 57.499C33.5933 57.499 34.1734 57.3231 34.6667 56.9934C35.1601 56.6638 35.5446 56.1953 35.7716 55.6471C35.9987 55.0989 36.0581 54.4957 35.9424 53.9138C35.8266 53.3318 35.5409 52.7973 35.1213 52.3777C34.7018 51.9582 34.1672 51.6724 33.5853 51.5567C33.0033 51.4409 32.4001 51.5003 31.8519 51.7274C31.3038 51.9545 30.8352 52.339 30.5056 52.8323C30.1759 53.3257 30 53.9057 30 54.499C30.0008 55.2944 30.3171 56.057 30.8796 56.6195C31.442 57.1819 32.2046 57.4982 33 57.499ZM33 52.999C33.2967 52.999 33.5867 53.087 33.8334 53.2518C34.08 53.4167 34.2723 53.6509 34.3858 53.925C34.4993 54.1991 34.5291 54.5007 34.4712 54.7917C34.4133 55.0826 34.2704 55.3499 34.0607 55.5597C33.8509 55.7695 33.5836 55.9123 33.2926 55.9702C33.0017 56.0281 32.7001 55.9984 32.426 55.8849C32.1519 55.7713 31.9176 55.5791 31.7528 55.3324C31.588 55.0857 31.5 54.7957 31.5 54.499C31.5003 54.1013 31.6584 53.7199 31.9396 53.4387C32.2209 53.1574 32.6023 52.9993 33 52.999ZM5 37.884C4.60444 37.884 4.21776 38.0013 3.88886 38.2211C3.55996 38.4409 3.30362 38.7532 3.15224 39.1187C3.00087 39.4841 2.96126 39.8863 3.03843 40.2742C3.1156 40.6622 3.30608 41.0185 3.58579 41.2982C3.86549 41.578 4.22186 41.7684 4.60982 41.8456C4.99778 41.9228 5.39992 41.8832 5.76537 41.7318C6.13082 41.5804 6.44318 41.3241 6.66294 40.9952C6.8827 40.6663 7 40.2796 7 39.884C6.99947 39.3538 6.78859 38.8454 6.41363 38.4704C6.03867 38.0954 5.53027 37.8846 5 37.884ZM5 40.884C4.80222 40.884 4.60888 40.8254 4.44443 40.7155C4.27998 40.6056 4.15181 40.4494 4.07612 40.2667C4.00043 40.084 3.98063 39.8829 4.01922 39.6889C4.0578 39.495 4.15304 39.3168 4.29289 39.1769C4.43275 39.0371 4.61093 38.9418 4.80491 38.9032C4.99889 38.8647 5.19996 38.8845 5.38268 38.9602C5.56541 39.0358 5.72159 39.164 5.83147 39.3285C5.94135 39.4929 6 39.6863 6 39.884C5.99974 40.1492 5.89429 40.4034 5.70682 40.5908C5.51934 40.7783 5.26514 40.8838 5 40.884ZM98.305 38.884C97.9094 38.884 97.5228 39.0013 97.1939 39.2211C96.865 39.4409 96.6086 39.7532 96.4572 40.1187C96.3059 40.4841 96.2663 40.8863 96.3434 41.2742C96.4206 41.6622 96.6111 42.0185 96.8908 42.2982C97.1705 42.578 97.5269 42.7684 97.9148 42.8456C98.3028 42.9228 98.7049 42.8832 99.0704 42.7318C99.4358 42.5804 99.7482 42.3241 99.9679 41.9952C100.188 41.6663 100.305 41.2796 100.305 40.884C100.304 40.3538 100.094 39.8454 99.7186 39.4704C99.3437 39.0954 98.8353 38.8846 98.305 38.884ZM98.305 41.884C98.1072 41.884 97.9139 41.8254 97.7494 41.7155C97.585 41.6056 97.4568 41.4494 97.3811 41.2667C97.3054 41.084 97.2856 40.8829 97.3242 40.6889C97.3628 40.495 97.458 40.3168 97.5979 40.1769C97.7377 40.0371 97.9159 39.9418 98.1099 39.9032C98.3039 39.8647 98.505 39.8845 98.6877 39.9602C98.8704 40.0358 99.0266 40.164 99.1365 40.3285C99.2463 40.4929 99.305 40.6863 99.305 40.884C99.3047 41.1492 99.1993 41.4034 99.0118 41.5908C98.8243 41.7783 98.5701 41.8838 98.305 41.884ZM164 16.682C163.604 16.682 163.218 16.7993 162.889 17.0191C162.56 17.2389 162.304 17.5512 162.152 17.9167C162.001 18.2821 161.961 18.6843 162.038 19.0722C162.116 19.4602 162.306 19.8165 162.586 20.0962C162.865 20.376 163.222 20.5664 163.61 20.6436C163.998 20.7208 164.4 20.6812 164.765 20.5298C165.131 20.3784 165.443 20.1221 165.663 19.7932C165.883 19.4643 166 19.0776 166 18.682C165.999 18.1518 165.789 17.6434 165.414 17.2684C165.039 16.8934 164.53 16.6826 164 16.682ZM164 19.682C163.802 19.682 163.609 19.6234 163.444 19.5135C163.28 19.4036 163.152 19.2474 163.076 19.0647C163 18.882 162.981 18.6809 163.019 18.4869C163.058 18.293 163.153 18.1148 163.293 17.9749C163.433 17.8351 163.611 17.7398 163.805 17.7012C163.999 17.6627 164.2 17.6825 164.383 17.7582C164.565 17.8338 164.722 17.962 164.831 18.1265C164.941 18.2909 165 18.4843 165 18.682C165 18.9472 164.894 19.2014 164.707 19.3888C164.519 19.5763 164.265 19.6818 164 19.682ZM18.305 12.884C18.305 12.4885 18.1877 12.1018 17.9679 11.7729C17.7482 11.444 17.4358 11.1877 17.0704 11.0363C16.7049 10.8849 16.3028 10.8453 15.9148 10.9225C15.5269 10.9996 15.1705 11.1901 14.8908 11.4698C14.6111 11.7495 14.4206 12.1059 14.3434 12.4939C14.2663 12.8818 14.3059 13.2839 14.4572 13.6494C14.6086 14.0149 14.865 14.3272 15.1939 14.547C15.5228 14.7667 15.9094 14.884 16.305 14.884C16.8353 14.8835 17.3437 14.6726 17.7186 14.2977C18.0936 13.9227 18.3045 13.4143 18.305 12.884ZM15.305 12.884C15.305 12.6863 15.3637 12.4929 15.4735 12.3285C15.5834 12.164 15.7396 12.0358 15.9223 11.9602C16.105 11.8845 16.3061 11.8647 16.5001 11.9032C16.6941 11.9418 16.8723 12.0371 17.0121 12.1769C17.152 12.3168 17.2472 12.495 17.2858 12.6889C17.3244 12.8829 17.3046 13.084 17.2289 13.2667C17.1532 13.4494 17.025 13.6056 16.8606 13.7155C16.6961 13.8254 16.5028 13.884 16.305 13.884C16.0399 13.8838 15.7857 13.7783 15.5982 13.5908C15.4107 13.4034 15.3053 13.1492 15.305 12.884Z" fill="#2D4356"/>
<path d="M144.415 57.248L145.902 55.292L144.963 54.761L144.009 56.95H143.977L143.008 54.776L142.052 55.324L143.524 57.233V57.264L141.223 56.966V58.03L143.539 57.733V57.765L142.052 59.673L142.944 60.237L143.962 58.03H143.992L144.931 60.221L145.917 59.658L144.415 57.78V57.749L146.777 58.03V56.966L144.415 57.279V57.248ZM83.595 4.84597L82.738 5.94497L83.252 6.26997L83.838 4.99897H83.856L84.396 6.26097L84.964 5.93697L84.099 4.85497V4.83697L85.46 4.99897V4.38697L84.099 4.56697V4.54897L84.956 3.42297L84.415 3.11597L83.865 4.37797H83.847L83.289 3.12497L82.738 3.44097L83.586 4.53997V4.55797L82.261 4.38697V4.99897L83.595 4.82797V4.84597ZM56.724 25.405V24.362L54.407 24.668V24.638L55.866 22.72L54.945 22.198L54.009 24.346H53.977L53.027 22.213L52.089 22.75L53.533 24.623V24.653L51.276 24.362V25.405L53.548 25.114V25.144L52.089 27.016L52.964 27.569L53.963 25.405H53.992L54.913 27.554L55.881 27.001L54.407 25.159V25.129L56.724 25.405ZM116.748 18.469L118.006 16.815L117.211 16.365L116.404 18.218H116.377L115.557 16.378L114.748 16.841L115.993 18.457V18.483L114.047 18.231V19.131L116.006 18.88V18.907L114.748 20.521L115.503 20.998L116.364 19.131H116.39L117.185 20.985L118.019 20.508L116.748 18.919V18.893L118.746 19.131V18.231L116.748 18.496V18.469Z" fill="#923144"/>
</svg>
