<svg width="168" height="168" viewBox="0 0 168 168" fill="none" xmlns="http://www.w3.org/2000/svg">
<path d="M47.2383 119.564C46.8788 119.174 46.3791 118.943 45.8491 118.921C45.3191 118.9 44.8022 119.09 44.4121 119.449C44.0221 119.809 43.7908 120.308 43.7692 120.838C43.7476 121.368 43.9374 121.885 44.2969 122.275C49.3569 127.759 55.4955 132.139 62.3276 135.139C69.1598 138.139 76.5382 139.694 84 139.709C84.2636 139.71 84.5248 139.659 84.7687 139.559C85.0126 139.46 85.2344 139.312 85.4213 139.127C85.6082 138.941 85.7565 138.72 85.8577 138.476C85.9589 138.233 86.011 137.972 86.011 137.709C86.011 137.445 85.9589 137.184 85.8577 136.941C85.7565 136.697 85.6082 136.476 85.4213 136.29C85.2344 136.105 85.0126 135.958 84.7687 135.858C84.5248 135.758 84.2636 135.707 84 135.709C77.0908 135.695 70.259 134.254 63.933 131.476C57.6069 128.698 51.9232 124.643 47.2383 119.564ZM86 76.7095C86 76.1791 85.7893 75.6704 85.4142 75.2954C85.0391 74.9203 84.5304 74.7096 84 74.7096C53.6797 74.7096 34.8018 80.9487 29.5107 85.142C29.3043 85.3049 29.132 85.507 29.0037 85.7365C28.8754 85.9661 28.7937 86.2188 28.7632 86.48C28.7327 86.7412 28.754 87.0059 28.8259 87.2588C28.8978 87.5118 29.0189 87.7481 29.1823 87.9542C29.3456 88.1603 29.548 88.3322 29.7779 88.46C30.0077 88.5877 30.2605 88.6689 30.5218 88.6989C30.7831 88.7289 31.0477 88.707 31.3005 88.6346C31.5533 88.5621 31.7894 88.4405 31.9951 88.2767C35.127 85.7944 51.4033 78.7095 84 78.7095C84.5304 78.7095 85.0391 78.4988 85.4142 78.1237C85.7893 77.7487 86 77.24 86 76.7095ZM84 98.7092C114.32 98.7092 133.198 92.47 138.489 88.2767C138.696 88.1139 138.868 87.9119 138.997 87.6823C139.125 87.4526 139.207 87.1999 139.238 86.9386C139.268 86.6773 139.247 86.4125 139.175 86.1595C139.103 85.9064 138.982 85.67 138.819 85.4638C138.655 85.2576 138.453 85.0857 138.223 84.9579C137.993 84.8301 137.74 84.7489 137.479 84.719C137.217 84.6891 136.952 84.7111 136.7 84.7837C136.447 84.8563 136.211 84.9781 136.005 85.142C132.873 87.6244 116.597 94.7092 84 94.7092C83.7364 94.7078 83.4752 94.7585 83.2313 94.8583C82.9874 94.9582 82.7656 95.1053 82.5787 95.2911C82.3918 95.477 82.2435 95.6979 82.1423 95.9413C82.0411 96.1847 81.989 96.4456 81.989 96.7092C81.989 96.9728 82.0411 97.2337 82.1423 97.4771C82.2435 97.7205 82.3918 97.9414 82.5787 98.1273C82.7656 98.3131 82.9874 98.4602 83.2313 98.5601C83.4752 98.66 83.7364 98.7106 84 98.7092ZM65.2305 87.2953C64.2592 87.7441 63.1917 87.9449 62.1238 87.8797C61.0558 87.8144 60.0207 87.4851 59.1113 86.9213C58.6711 86.6269 58.1322 86.5191 57.6127 86.6215C57.0931 86.7239 56.6354 87.0281 56.3397 87.4674C56.0441 87.9068 55.9348 88.4454 56.0357 88.9652C56.1366 89.4851 56.4394 89.9437 56.8779 90.2406C58.6087 91.3173 60.6024 91.8971 62.6406 91.9163C64.1619 91.9172 65.662 91.5599 67.0195 90.8733C67.2552 90.7563 67.4654 90.5939 67.6382 90.3955C67.811 90.197 67.9429 89.9665 68.0265 89.717C68.11 89.4675 68.1435 89.2039 68.125 88.9415C68.1065 88.679 68.0364 88.4228 67.9188 88.1874C67.8011 87.9521 67.6381 87.7423 67.4393 87.57C67.2404 87.3978 67.0095 87.2664 66.7597 87.1836C66.51 87.1007 66.2464 87.0679 65.984 87.0871C65.7216 87.1062 65.4655 87.177 65.2305 87.2953ZM96.2295 81.853C95.9693 81.8886 95.7186 81.975 95.4918 82.1074C95.265 82.2398 95.0665 82.4156 94.9076 82.6247C94.7488 82.8338 94.6326 83.0721 94.5659 83.3261C94.4991 83.5801 94.4831 83.8448 94.5186 84.105C94.5541 84.3652 94.6405 84.6158 94.7729 84.8426C94.9053 85.0694 95.0811 85.2679 95.2902 85.4268C95.4993 85.5857 95.7377 85.7018 95.9916 85.7686C96.2456 85.8353 96.5103 85.8514 96.7705 85.8159C96.8066 85.812 100.685 85.4086 101.359 87.3617C101.533 87.862 101.899 88.2728 102.375 88.5041C102.851 88.7354 103.4 88.7683 103.901 88.5956C104.401 88.4228 104.813 88.0586 105.046 87.5827C105.278 87.1068 105.312 86.5581 105.141 86.0571C103.731 81.9712 98.877 81.4917 96.2295 81.853Z" fill="#923144"/>
<path d="M124.286 46.7022C123.408 45.3666 122.252 44.2374 120.895 43.3922C119.539 42.547 118.015 42.0061 116.43 41.8067C114.919 41.6084 113.384 41.7176 111.916 42.1277C110.449 42.5379 109.08 43.2405 107.891 44.1935C106.762 45.0922 105.83 46.2129 105.152 47.4863C104.474 48.7597 104.064 50.1586 103.948 51.5967L102.007 75.604C101.965 76.1322 102.134 76.6554 102.478 77.0588C102.821 77.4621 103.311 77.7126 103.839 77.7553C104.367 77.798 104.891 77.6294 105.295 77.2865C105.698 76.9435 105.95 76.4543 105.993 75.9263L107.935 51.9189C108.009 51.0216 108.267 50.1491 108.692 49.3553C109.117 48.5615 109.7 47.8633 110.405 47.3037C111.172 46.6901 112.055 46.2381 113.001 45.9751C113.947 45.7121 114.937 45.6435 115.91 45.7735C116.923 45.8982 117.896 46.241 118.764 46.7783C119.631 47.3156 120.372 48.0346 120.935 48.8857C121.454 49.667 121.794 50.5529 121.932 51.4806C122.071 52.4084 122.003 53.3551 121.734 54.2538L115.008 77.146C114.932 77.3985 114.907 77.6634 114.934 77.9256C114.961 78.1877 115.04 78.442 115.166 78.6736C115.291 78.9053 115.462 79.1098 115.667 79.2755C115.872 79.4411 116.107 79.5646 116.36 79.6389C116.613 79.7132 116.878 79.7367 117.14 79.7082C117.402 79.6797 117.656 79.5996 117.887 79.4727C118.118 79.3458 118.322 79.1744 118.486 78.9686C118.651 78.7627 118.773 78.5263 118.846 78.273L125.572 55.3808C125.998 53.9273 126.104 52.3986 125.882 50.9003C125.66 49.402 125.116 47.9696 124.286 46.7022Z" fill="#2D4356"/>
<path d="M114.69 56.7098C115.167 56.7093 115.627 56.5386 115.989 56.2285C116.351 55.9184 116.59 55.4893 116.663 55.0185L116.976 53.0185C117.016 52.7591 117.005 52.4942 116.943 52.239C116.881 51.9838 116.77 51.7433 116.615 51.5312C116.46 51.3191 116.265 51.1395 116.041 51.0028C115.817 50.8661 115.568 50.7748 115.309 50.7343C115.049 50.6938 114.784 50.7048 114.529 50.7666C114.274 50.8284 114.033 50.9399 113.821 51.0947C113.609 51.2495 113.43 51.4446 113.293 51.6688C113.156 51.893 113.065 52.1419 113.024 52.4013L112.712 54.4013C112.668 54.6867 112.686 54.9783 112.765 55.2561C112.844 55.5339 112.982 55.7912 113.17 56.0105C113.358 56.2298 113.591 56.4059 113.854 56.5266C114.116 56.6473 114.402 56.7098 114.69 56.7098ZM68.1211 21.8228C67.8732 21.7356 67.6106 21.6982 67.3483 21.7128C67.0859 21.7274 66.8291 21.7937 66.5924 21.9078C66.3558 22.022 66.144 22.1817 65.9693 22.3779C65.7945 22.5742 65.6603 22.803 65.5742 23.0512C65.4053 23.5336 61.5391 34.9319 69.4815 40.6242C76.0245 45.3106 77.7335 47.9278 75.6836 55.165C75.5394 55.6754 75.6037 56.2223 75.8625 56.6854C76.1212 57.1484 76.5532 57.4899 77.0635 57.6346C77.2411 57.6847 77.4248 57.7103 77.6094 57.7108C78.0447 57.7101 78.4679 57.5676 78.8151 57.3049C79.1622 57.0422 79.4143 56.6735 79.5332 56.2548C82.2051 46.8165 79.1729 42.6456 71.8115 37.3723C66.3233 33.4397 69.3047 24.5043 69.3515 24.3666C69.5252 23.8661 69.4932 23.3171 69.2626 22.8402C69.0319 22.3632 68.6213 21.9973 68.1211 21.8228ZM63.2461 42.7638C62.7299 42.6421 62.1866 42.7301 61.7353 43.0086C61.284 43.2871 60.9616 43.7332 60.8389 44.2491C60.748 44.632 58.7002 53.6718 65.6895 58.5448C70.2373 61.7166 67.9336 67.7136 67.8359 67.9597C67.637 68.4515 67.6416 69.0022 67.8488 69.4907C68.0559 69.9791 68.4486 70.3652 68.9404 70.5642C69.4323 70.7631 69.983 70.7584 70.4714 70.5513C70.9599 70.3442 71.346 69.9515 71.5449 69.4597C72.8223 66.3005 73.7207 59.2684 67.9766 55.2637C63.249 51.9668 64.6631 45.4708 64.7324 45.166C64.8533 44.6504 64.7647 44.1079 64.4861 43.6575C64.2074 43.2071 63.7615 42.8857 63.2461 42.7638Z" fill="#923144"/>
<path d="M76.301 66.8568C76.1216 68.2369 75.7784 69.5906 75.2787 70.8894C78.106 70.7745 81.0111 70.7096 84 70.7096C89.0156 70.7096 93.8063 70.8844 98.3508 71.1972L98.6717 67.2283C93.8236 66.8844 88.8879 66.7096 84 66.7096C81.4402 66.7096 78.8677 66.762 76.301 66.8568ZM83.9917 11.4583C84.5851 11.4583 85.1651 11.2823 85.6585 10.9527C86.1518 10.6231 86.5363 10.1545 86.7634 9.60634C86.9904 9.05816 87.0499 8.45496 86.9341 7.87301C86.8183 7.29107 86.5326 6.75652 86.1131 6.33697C85.6935 5.91741 85.159 5.63169 84.577 5.51593C83.9951 5.40017 83.3919 5.45958 82.8437 5.68665C82.2955 5.91371 81.827 6.29823 81.4973 6.79158C81.1677 7.28492 80.9917 7.86494 80.9917 8.45829C80.9927 9.25366 81.309 10.0162 81.8714 10.5786C82.4338 11.141 83.1964 11.4574 83.9917 11.4583ZM83.9917 6.95829C84.2884 6.95829 84.5784 7.04626 84.8251 7.21108C85.0718 7.3759 85.264 7.61017 85.3776 7.88426C85.4911 8.15835 85.5208 8.45995 85.4629 8.75092C85.405 9.04189 85.2622 9.30917 85.0524 9.51895C84.8426 9.72873 84.5753 9.87159 84.2844 9.92946C83.9934 9.98734 83.6918 9.95764 83.4177 9.84411C83.1436 9.73057 82.9094 9.53831 82.7445 9.29164C82.5797 9.04497 82.4917 8.75496 82.4917 8.45829C82.4921 8.06058 82.6503 7.67928 82.9315 7.39806C83.2127 7.11684 83.594 6.95868 83.9917 6.95829ZM36.6584 4.29163C36.2628 4.29163 35.8762 4.40892 35.5473 4.62869C35.2184 4.84845 34.962 5.16081 34.8106 5.52626C34.6593 5.89171 34.6197 6.29384 34.6968 6.68181C34.774 7.06977 34.9645 7.42613 35.2442 7.70584C35.5239 7.98554 35.8803 8.17603 36.2682 8.2532C36.6562 8.33037 37.0583 8.29076 37.4238 8.13939C37.7892 7.98801 38.1016 7.73167 38.3213 7.40277C38.5411 7.07387 38.6584 6.68719 38.6584 6.29163C38.6578 5.76138 38.4469 5.25302 38.0719 4.87808C37.697 4.50314 37.1886 4.29223 36.6584 4.29163ZM36.6584 7.29163C36.4606 7.29163 36.2673 7.23298 36.1028 7.1231C35.9384 7.01321 35.8102 6.85704 35.7345 6.67431C35.6588 6.49158 35.639 6.29052 35.6776 6.09654C35.7162 5.90255 35.8114 5.72437 35.9513 5.58452C36.0911 5.44467 36.2693 5.34943 36.4633 5.31084C36.6573 5.27226 36.8584 5.29206 37.0411 5.36775C37.2238 5.44343 37.38 5.57161 37.4899 5.73606C37.5998 5.90051 37.6584 6.09384 37.6584 6.29163C37.6581 6.55676 37.5527 6.81096 37.3652 6.99844C37.1777 7.18592 36.9235 7.29136 36.6584 7.29163ZM137.104 5.12496C136.709 5.12496 136.322 5.24225 135.993 5.46202C135.664 5.68178 135.408 5.99414 135.256 6.35959C135.105 6.72504 135.065 7.12717 135.143 7.51514C135.22 7.9031 135.41 8.25946 135.69 8.53917C135.97 8.81887 136.326 9.00936 136.714 9.08653C137.102 9.1637 137.504 9.12409 137.87 8.97272C138.235 8.82134 138.547 8.56499 138.767 8.2361C138.987 7.9072 139.104 7.52052 139.104 7.12496C139.104 6.59471 138.893 6.08635 138.518 5.71141C138.143 5.33647 137.634 5.12556 137.104 5.12496ZM137.104 8.12496C136.906 8.12496 136.713 8.06631 136.549 7.95643C136.384 7.84654 136.256 7.69037 136.18 7.50764C136.105 7.32491 136.085 7.12385 136.123 6.92987C136.162 6.73588 136.257 6.5577 136.397 6.41785C136.537 6.278 136.715 6.18276 136.909 6.14417C137.103 6.10559 137.304 6.12539 137.487 6.20108C137.67 6.27676 137.826 6.40494 137.936 6.56939C138.046 6.73384 138.104 6.92717 138.104 7.12496C138.104 7.39009 137.999 7.64429 137.811 7.83177C137.624 8.01925 137.369 8.12469 137.104 8.12496ZM108.624 26.7083C108.228 26.7083 107.841 26.8256 107.513 27.0453C107.184 27.2651 106.927 27.5775 106.776 27.9429C106.625 28.3084 106.585 28.7105 106.662 29.0985C106.739 29.4864 106.93 29.8428 107.21 30.1225C107.489 30.4022 107.846 30.5927 108.234 30.6699C108.622 30.747 109.024 30.7074 109.389 30.556C109.755 30.4047 110.067 30.1483 110.287 29.8194C110.506 29.4905 110.624 29.1038 110.624 28.7083C110.623 28.178 110.412 27.6697 110.037 27.2947C109.662 26.9198 109.154 26.7089 108.624 26.7083ZM108.624 29.7083C108.426 29.7083 108.233 29.6496 108.068 29.5398C107.904 29.4299 107.776 29.2737 107.7 29.091C107.624 28.9082 107.604 28.7072 107.643 28.5132C107.682 28.3192 107.777 28.141 107.917 28.0012C108.056 27.8613 108.235 27.7661 108.429 27.7275C108.623 27.6889 108.824 27.7087 109.006 27.7844C109.189 27.8601 109.345 27.9883 109.455 28.1527C109.565 28.3172 109.624 28.5105 109.624 28.7083C109.623 28.9734 109.518 29.2276 109.331 29.4151C109.143 29.6026 108.889 29.708 108.624 29.7083ZM24.8251 45.625C24.8251 45.2294 24.7078 44.8427 24.488 44.5138C24.2683 44.1849 23.9559 43.9286 23.5904 43.7772C23.225 43.6258 22.8229 43.5862 22.4349 43.6634C22.0469 43.7406 21.6906 43.931 21.4109 44.2107C21.1312 44.4904 20.9407 44.8468 20.8635 45.2348C20.7863 45.6227 20.8259 46.0249 20.9773 46.3903C21.1287 46.7558 21.385 47.0681 21.7139 47.2879C22.0428 47.5077 22.4295 47.625 22.8251 47.625C23.3553 47.6243 23.8637 47.4134 24.2386 47.0385C24.6136 46.6636 24.8245 46.1552 24.8251 45.625ZM21.8251 45.625C21.8251 45.4272 21.8837 45.2338 21.9936 45.0694C22.1035 44.9049 22.2597 44.7768 22.4424 44.7011C22.6251 44.6254 22.8262 44.6056 23.0202 44.6442C23.2141 44.6828 23.3923 44.778 23.5322 44.9178C23.672 45.0577 23.7673 45.2359 23.8059 45.4299C23.8444 45.6238 23.8246 45.8249 23.749 46.0076C23.6733 46.1904 23.5451 46.3465 23.3806 46.4564C23.2162 46.5663 23.0229 46.625 22.8251 46.625C22.5599 46.6247 22.3057 46.5193 22.1183 46.3318C21.9308 46.1443 21.8253 45.8901 21.8251 45.625Z" fill="#2D4356"/>
<path d="M51.923 32.7201L53.41 30.7641L52.471 30.2321L51.517 32.4221H51.485L50.515 30.2471L49.56 30.7951L51.031 32.7041V32.7361L48.73 32.4381V33.5021L51.046 33.2051V33.2361L49.56 35.1451L50.452 35.7081L51.469 33.5021H51.5L52.439 35.6921L53.425 35.1291L51.923 33.2521V33.2201L54.285 33.5021V32.4381L51.923 32.7511V32.7201Z" fill="#923144"/>
<path d="M7.967 17.7429L7.111 18.8419L7.624 19.1669L8.21 17.8959H8.228L8.769 19.1579L9.336 18.8329L8.472 17.7519V17.7339L9.832 17.8959V17.2839L8.472 17.4639V17.4459L9.328 16.3199L8.787 16.0129L8.237 17.2739H8.219L7.661 16.0219L7.111 16.3379L7.958 17.4369V17.4549L6.633 17.2839V17.8959L7.967 17.7249V17.7429Z" fill="#923144"/>
<path d="M145.277 43.426V42.382L142.96 42.689V42.658L144.418 40.74L143.497 40.219L142.561 42.367H142.53L141.579 40.234L140.642 40.771L142.085 42.643V42.674L139.828 42.382V43.426L142.1 43.135V43.165L140.642 45.037L141.517 45.59L142.515 43.426H142.545L143.466 45.574L144.433 45.022L142.96 43.18V43.15L145.277 43.426Z" fill="#923144"/>
<path d="M162.176 21.413L163.434 19.758L162.64 19.308L161.833 21.161H161.806L160.985 19.321L160.177 19.785L161.422 21.4V21.426L159.475 21.175V22.075L161.435 21.824V21.85L160.177 23.465L160.931 23.942L161.793 22.075H161.819L162.613 23.928L163.447 23.452L162.176 21.863V21.837L164.175 22.075V21.175L162.176 21.439V21.413Z" fill="#923144"/>
<path d="M2 149.708C3.10457 149.708 4 148.813 4 147.708C4 146.603 3.10457 145.708 2 145.708C0.89543 145.708 0 146.603 0 147.708C0 148.813 0.89543 149.708 2 149.708Z" fill="#2D4356"/>
<path d="M11 145.708H8C7.46957 145.708 6.96086 145.919 6.58579 146.294C6.21071 146.669 6 147.178 6 147.708C6 148.239 6.21071 148.748 6.58579 149.123C6.96086 149.498 7.46957 149.708 8 149.708H11C11.5304 149.708 12.0391 149.498 12.4142 149.123C12.7893 148.748 13 148.239 13 147.708C13 147.178 12.7893 146.669 12.4142 146.294C12.0391 145.919 11.5304 145.708 11 145.708ZM160 145.708H157C156.47 145.708 155.961 145.919 155.586 146.294C155.211 146.669 155 147.178 155 147.708C155 148.239 155.211 148.748 155.586 149.123C155.961 149.498 156.47 149.708 157 149.708H160C160.53 149.708 161.039 149.498 161.414 149.123C161.789 148.748 162 148.239 162 147.708C162 147.178 161.789 146.669 161.414 146.294C161.039 145.919 160.53 145.708 160 145.708Z" fill="#2D4356"/>
<path d="M166 149.708C167.105 149.708 168 148.813 168 147.708C168 146.603 167.105 145.708 166 145.708C164.895 145.708 164 146.603 164 147.708C164 148.813 164.895 149.708 166 149.708Z" fill="#2D4356"/>
<path d="M118.154 153.708H109.846C109.343 153.749 108.874 153.977 108.532 154.347C108.19 154.718 108 155.204 108 155.708C108 156.213 108.19 156.699 108.532 157.069C108.874 157.44 109.343 157.668 109.846 157.708H118.154C118.657 157.668 119.126 157.44 119.468 157.069C119.81 156.699 120 156.213 120 155.708C120 155.204 119.81 154.718 119.468 154.347C119.126 153.977 118.657 153.749 118.154 153.708ZM58.1539 153.708H49.8461C49.3433 153.749 48.8742 153.977 48.5321 154.347C48.1899 154.718 48 155.204 48 155.708C48 156.213 48.1899 156.699 48.5321 157.069C48.8742 157.44 49.3433 157.668 49.8461 157.708H58.1539C58.6566 157.668 59.1258 157.44 59.4679 157.069C59.81 156.699 60 156.213 60 155.708C60 155.204 59.81 154.718 59.4679 154.347C59.1258 153.977 58.6566 153.749 58.1539 153.708ZM104 153.708H64C63.4696 153.708 62.9609 153.919 62.5858 154.294C62.2107 154.669 62 155.178 62 155.708C62 156.239 62.2107 156.748 62.5858 157.123C62.9609 157.498 63.4696 157.708 64 157.708H79.94V159.708H72C71.4696 159.708 70.9609 159.919 70.5858 160.294C70.2107 160.669 70 161.178 70 161.708C70 162.239 70.2107 162.748 70.5858 163.123C70.9609 163.498 71.4696 163.708 72 163.708H97C97.5304 163.708 98.0391 163.498 98.4142 163.123C98.7893 162.748 99 162.239 99 161.708C99 161.178 98.7893 160.669 98.4142 160.294C98.0391 159.919 97.5304 159.708 97 159.708H88.06V157.708H104C104.53 157.708 105.039 157.498 105.414 157.123C105.789 156.748 106 156.239 106 155.708C106 155.178 105.789 154.669 105.414 154.294C105.039 153.919 104.53 153.708 104 153.708Z" fill="#923144"/>
<path d="M150.721 145.708H106.244C118.25 141.238 128.641 133.272 136.078 122.84C143.514 112.407 147.654 99.9853 147.963 87.1773C147.972 87.0208 148 86.8676 148 86.7093C148 86.6316 147.983 86.5569 147.98 86.4796C147.984 86.2221 148 85.9677 148 85.7094C147.999 85.3325 147.891 84.9636 147.688 84.6459C146.015 78.7299 137.217 74.1986 125.102 71.1728L123.978 74.9971C136.548 78.1351 144 82.5514 144 86.7093C144 94.2766 119.358 102.709 84 102.709C48.6416 102.709 24 94.2766 24 86.7093C24 80.6319 39.9023 74.0005 64.4769 71.6232C63.745 70.4552 63.4946 69.049 63.7783 67.7002C41.7421 69.8953 22.7288 75.7006 20.2744 84.7149C20.0966 85.0163 20.0019 85.3595 20 85.7094C20 85.9475 20.0154 86.182 20.018 86.4195C20.0143 86.5165 20 86.6116 20 86.7093C20 86.8676 20.0275 87.0208 20.0372 87.1773C20.3465 99.9853 24.4862 112.407 31.9224 122.84C39.3585 133.272 49.7501 141.238 61.7565 145.708H17.2787C16.9942 145.671 16.705 145.695 16.4305 145.779C16.1559 145.862 15.9024 146.003 15.6867 146.192C15.4711 146.382 15.2983 146.615 15.18 146.876C15.0616 147.138 15.0004 147.421 15.0004 147.708C15.0004 147.995 15.0616 148.279 15.18 148.54C15.2983 148.802 15.4711 149.035 15.6867 149.224C15.9024 149.413 16.1559 149.555 16.4305 149.638C16.705 149.722 16.9942 149.745 17.2787 149.708H150.721C151.006 149.745 151.295 149.722 151.57 149.638C151.844 149.555 152.098 149.413 152.313 149.224C152.529 149.035 152.702 148.802 152.82 148.54C152.938 148.279 153 147.995 153 147.708C153 147.421 152.938 147.138 152.82 146.876C152.702 146.615 152.529 146.382 152.313 146.192C152.098 146.003 151.844 145.862 151.57 145.779C151.295 145.695 151.006 145.671 150.721 145.708ZM24.6764 94.5955C34.8407 102.51 59.997 106.709 84 106.709C108.003 106.709 133.159 102.51 143.324 94.5955C141.18 108.8 134.018 121.767 123.135 131.144C112.251 140.522 98.3684 145.689 84.0026 145.708H83.9974C69.6316 145.689 55.7486 140.522 44.8655 131.144C33.9823 121.767 26.8198 108.8 24.6764 94.5955Z" fill="#2D4356"/>
</svg>
