<svg width="168" height="168" viewBox="0 0 168 168" fill="none" xmlns="http://www.w3.org/2000/svg">
<path d="M65.0001 69.7251L64.8431 70.6811C64.8309 70.7531 64.8386 70.827 64.8652 70.895C64.8917 70.963 64.9363 71.0224 64.9941 71.0671C65.0507 71.1104 65.1186 71.1362 65.1896 71.1416C65.2606 71.1469 65.3317 71.1314 65.3941 71.0971L66.2191 70.6461L67.0431 71.0961C67.1057 71.1296 67.1765 71.1447 67.2473 71.1395C67.3181 71.1344 67.386 71.1093 67.4431 71.0671C67.5007 71.0223 67.5452 70.9628 67.5719 70.8949C67.5987 70.827 67.6067 70.7531 67.5951 70.6811L67.4371 69.7251L68.1031 69.0481C68.1543 68.9954 68.1904 68.9299 68.2074 68.8584C68.2245 68.787 68.222 68.7122 68.2001 68.6421C68.1793 68.5728 68.1395 68.5108 68.0853 68.4631C68.031 68.4154 67.9644 68.3838 67.8931 68.3721L66.9721 68.2321L66.5591 67.3631C66.5297 67.2973 66.4819 67.2415 66.4215 67.2024C66.361 67.1632 66.2906 67.1424 66.2186 67.1424C66.1466 67.1424 66.0761 67.1632 66.0157 67.2024C65.9553 67.2415 65.9075 67.2973 65.8781 67.3631L65.4661 68.2331L64.5441 68.3731C64.4728 68.3846 64.4063 68.416 64.352 68.4635C64.2977 68.5111 64.2579 68.573 64.2371 68.6421C64.2151 68.7121 64.2124 68.7868 64.2293 68.8583C64.2462 68.9297 64.282 68.9953 64.3331 69.0481L65.0001 69.7251ZM100.781 69.7251L100.624 70.6811C100.612 70.7531 100.62 70.827 100.646 70.895C100.673 70.963 100.717 71.0224 100.775 71.0671C100.832 71.1104 100.9 71.1362 100.971 71.1416C101.042 71.1469 101.113 71.1314 101.175 71.0971L102 70.6461L102.824 71.0961C102.888 71.1277 102.96 71.1409 103.031 71.1342C103.102 71.1275 103.17 71.1012 103.228 71.0582C103.285 71.0152 103.329 70.9572 103.355 70.8906C103.381 70.8241 103.389 70.7515 103.376 70.6811L103.219 69.7251L103.885 69.0481C103.936 68.9953 103.972 68.9297 103.989 68.8583C104.006 68.7868 104.003 68.7121 103.981 68.6421C103.96 68.5728 103.921 68.5108 103.866 68.4631C103.812 68.4154 103.745 68.3838 103.674 68.3721L102.753 68.2321L102.34 67.3631C102.311 67.2976 102.263 67.2421 102.202 67.2031C102.142 67.1642 102.072 67.1435 102 67.1435C101.928 67.1435 101.858 67.1642 101.798 67.2031C101.737 67.2421 101.69 67.2976 101.66 67.3631L101.247 68.2331L100.325 68.3731C100.254 68.3848 100.188 68.4162 100.134 68.4638C100.079 68.5113 100.04 68.5731 100.019 68.6421C99.9968 68.712 99.9939 68.7867 100.011 68.8582C100.027 68.9296 100.063 68.9953 100.114 69.0481L100.781 69.7251ZM82.7811 60.5821L82.6241 61.5381C82.6117 61.6102 82.6193 61.6843 82.6459 61.7525C82.6725 61.8207 82.7171 61.8804 82.7751 61.9251C82.8317 61.9683 82.8996 61.9942 82.9706 61.9996C83.0416 62.0049 83.1127 61.9894 83.1751 61.9551L84.0001 61.5031L84.8241 61.9541C84.8866 61.9881 84.9576 62.0033 85.0285 61.998C85.0994 61.9927 85.1673 61.967 85.2241 61.9241C85.2817 61.8793 85.3262 61.8198 85.353 61.7519C85.3797 61.684 85.3877 61.6101 85.3761 61.5381L85.2191 60.5821L85.8851 59.9051C85.9361 59.8523 85.972 59.7867 85.9889 59.7153C86.0058 59.6438 86.0031 59.5691 85.9811 59.4991C85.9603 59.4298 85.9205 59.3678 85.8663 59.3201C85.812 59.2724 85.7454 59.2408 85.6741 59.2291L84.7531 59.0891L84.3401 58.2211C84.3106 58.1556 84.2628 58.1001 84.2025 58.0611C84.1421 58.0222 84.0719 58.0015 84.0001 58.0015C83.9283 58.0015 83.858 58.0222 83.7977 58.0611C83.7374 58.1001 83.6896 58.1556 83.6601 58.2211L83.2471 59.0901L82.3251 59.2301C82.254 59.2418 82.1877 59.2732 82.1336 59.3208C82.0795 59.3683 82.0398 59.4301 82.0191 59.4991C81.9968 59.569 81.9939 59.6437 82.0106 59.7152C82.0274 59.7866 82.0631 59.8523 82.1141 59.9051L82.7811 60.5821ZM41.0001 110H48.0001C48.5305 110 49.0392 109.789 49.4143 109.414C49.7894 109.039 50.0001 108.531 50.0001 108V100C50.0617 98.4763 49.5179 96.9901 48.4874 95.8659C47.4569 94.7417 46.0234 94.0709 44.5001 94.0001C42.9767 94.0709 41.5433 94.7417 40.5128 95.8659C39.4823 96.9901 38.9385 98.4763 39.0001 100V108C39.0001 108.531 39.2108 109.039 39.5859 109.414C39.9609 109.789 40.4696 110 41.0001 110ZM43.0001 100C43.0001 98.9161 43.6861 98.0001 44.5001 98.0001C45.3141 98.0001 46.0001 98.9161 46.0001 100V106H43.0001V100ZM41.0001 132H48.0001C48.5305 132 49.0392 131.789 49.4143 131.414C49.7894 131.039 50.0001 130.531 50.0001 130V122C50.0617 120.476 49.5179 118.99 48.4874 117.866C47.4569 116.742 46.0234 116.071 44.5001 116C42.9767 116.071 41.5433 116.742 40.5128 117.866C39.4823 118.99 38.9385 120.476 39.0001 122V130C39.0001 130.531 39.2108 131.039 39.5859 131.414C39.9609 131.789 40.4696 132 41.0001 132ZM43.0001 122C43.0001 120.916 43.6861 120 44.5001 120C45.3141 120 46.0001 120.916 46.0001 122V128H43.0001V122ZM120 110H127C127.531 110 128.039 109.789 128.414 109.414C128.789 109.039 129 108.531 129 108V100C129.065 99.2384 128.971 98.4715 128.724 97.748C128.477 97.0245 128.083 96.3601 127.566 95.797C127.049 95.234 126.42 94.7844 125.721 94.4769C125.021 94.1694 124.265 94.0106 123.5 94.0106C122.736 94.0106 121.979 94.1694 121.28 94.4769C120.58 94.7844 119.951 95.234 119.434 95.797C118.917 96.3601 118.523 97.0245 118.276 97.748C118.029 98.4715 117.935 99.2384 118 100V108C118 108.531 118.211 109.039 118.586 109.414C118.961 109.789 119.47 110 120 110ZM122 100C122 98.9161 122.686 98.0001 123.5 98.0001C124.314 98.0001 125 98.9161 125 100V106H122V100ZM120 132H127C127.531 132 128.039 131.789 128.414 131.414C128.789 131.039 129 130.531 129 130V122C129.065 121.238 128.971 120.471 128.724 119.748C128.477 119.024 128.083 118.36 127.566 117.797C127.049 117.234 126.42 116.784 125.721 116.477C125.021 116.169 124.265 116.011 123.5 116.011C122.736 116.011 121.979 116.169 121.28 116.477C120.58 116.784 119.951 117.234 119.434 117.797C118.917 118.36 118.523 119.024 118.276 119.748C118.029 120.471 117.935 121.238 118 122V130C118 130.531 118.211 131.039 118.586 131.414C118.961 131.789 119.47 132 120 132ZM122 122C122 120.916 122.686 120 123.5 120C124.314 120 125 120.916 125 122V128H122V122Z" fill="#923144"/>
<path d="M2 152C3.10457 152 4 151.105 4 150C4 148.895 3.10457 148 2 148C0.89543 148 0 148.895 0 150C0 151.105 0.89543 152 2 152Z" fill="#2D4356"/>
<path d="M11 148H8C7.46957 148 6.96086 148.211 6.58579 148.586C6.21071 148.961 6 149.47 6 150C6 150.53 6.21071 151.039 6.58579 151.414C6.96086 151.789 7.46957 152 8 152H11C11.5304 152 12.0391 151.789 12.4142 151.414C12.7893 151.039 13 150.53 13 150C13 149.47 12.7893 148.961 12.4142 148.586C12.0391 148.211 11.5304 148 11 148Z" fill="#2D4356"/>
<path d="M118.154 156H109.846C109.342 156.039 108.872 156.267 108.529 156.637C108.186 157.008 107.995 157.495 107.995 158C107.995 158.505 108.186 158.992 108.529 159.363C108.872 159.733 109.342 159.961 109.846 160H118.154C118.658 159.961 119.128 159.733 119.471 159.363C119.814 158.992 120.005 158.505 120.005 158C120.005 157.495 119.814 157.008 119.471 156.637C119.128 156.267 118.658 156.039 118.154 156ZM58.1541 156H49.8461C49.3424 156.039 48.872 156.267 48.5289 156.637C48.1857 157.008 47.9951 157.495 47.9951 158C47.9951 158.505 48.1857 158.992 48.5289 159.363C48.872 159.733 49.3424 159.961 49.8461 160H58.1541C58.6578 159.961 59.1282 159.733 59.4713 159.363C59.8144 158.992 60.005 158.505 60.005 158C60.005 157.495 59.8144 157.008 59.4713 156.637C59.1282 156.267 58.6578 156.039 58.1541 156ZM104 156H64.0001C63.4696 156 62.9609 156.211 62.5859 156.586C62.2108 156.961 62.0001 157.47 62.0001 158C62.0001 158.53 62.2108 159.039 62.5859 159.414C62.9609 159.789 63.4696 160 64.0001 160H79.9401V162H72.0001C71.4696 162 70.9609 162.211 70.5859 162.586C70.2108 162.961 70.0001 163.47 70.0001 164C70.0001 164.53 70.2108 165.039 70.5859 165.414C70.9609 165.789 71.4696 166 72.0001 166H97.0001C97.5305 166 98.0392 165.789 98.4143 165.414C98.7894 165.039 99.0001 164.53 99.0001 164C99.0001 163.47 98.7894 162.961 98.4143 162.586C98.0392 162.211 97.5305 162 97.0001 162H88.0601V160H104C104.531 160 105.039 159.789 105.414 159.414C105.789 159.039 106 158.53 106 158C106 157.47 105.789 156.961 105.414 156.586C105.039 156.211 104.531 156 104 156Z" fill="#923144"/>
<path d="M160 148H157C156.47 148 155.961 148.211 155.586 148.586C155.211 148.961 155 149.47 155 150C155 150.53 155.211 151.039 155.586 151.414C155.961 151.789 156.47 152 157 152H160C160.53 152 161.039 151.789 161.414 151.414C161.789 151.039 162 150.53 162 150C162 149.47 161.789 148.961 161.414 148.586C161.039 148.211 160.53 148 160 148Z" fill="#2D4356"/>
<path d="M166 152C167.105 152 168 151.105 168 150C168 148.895 167.105 148 166 148C164.895 148 164 148.895 164 150C164 151.105 164.895 152 166 152Z" fill="#2D4356"/>
<path d="M150.721 148H148V142C148 141.47 147.789 140.961 147.414 140.586C147.039 140.211 146.531 140 146 140H145V48.678L147.588 45.297C147.856 44.9478 148.001 44.52 148 44.08V38C148 37.4696 147.789 36.9609 147.414 36.5858C147.039 36.2107 146.531 36 146 36H132C131.47 36 130.961 36.2107 130.586 36.5858C130.211 36.9609 130 37.4696 130 38V44.081C130 44.5206 130.145 44.9481 130.412 45.297L133 48.677V82H131V75.964C131 72.946 127.951 70.809 127.422 70.467C126.614 69.883 124.727 68.421 124.725 68.419C124.375 68.1474 123.944 67.9999 123.5 67.9999C123.057 67.9999 122.626 68.1474 122.275 68.419C122.275 68.419 120.387 69.882 119.66 70.411C119.049 70.809 116 72.946 116 75.964V82H114V56C113.978 54.3897 113.319 52.8537 112.167 51.7289C111.014 50.6041 109.462 49.9824 107.852 50H60.1481C58.5378 49.9824 56.9862 50.6041 55.8336 51.7289C54.6811 52.8537 54.0217 54.3897 54.0001 56V82H52.0001V75.964C52.0001 72.946 48.9511 70.809 48.4221 70.467C47.6141 69.883 45.7271 68.421 45.7251 68.419C45.3745 68.1474 44.9436 67.9999 44.5001 67.9999C44.0566 67.9999 43.6257 68.1474 43.2751 68.419C43.2751 68.419 41.3871 69.882 40.6601 70.411C40.0491 70.809 37.0001 72.946 37.0001 75.964V82H35.0001V48.678L37.5881 45.297C37.8558 44.9478 38.0006 44.52 38.0001 44.08V38C38.0001 37.4696 37.7894 36.9609 37.4143 36.5858C37.0392 36.2107 36.5305 36 36.0001 36H22.0001C21.4697 36 20.961 36.2107 20.5859 36.5858C20.2108 36.9609 20.0001 37.4696 20.0001 38V44.081C19.9998 44.5206 20.1447 44.9481 20.4121 45.297L23.0001 48.677V140H22.0001C21.4697 140 20.961 140.211 20.5859 140.586C20.2108 140.961 20.0001 141.47 20.0001 142V148H17.2791C16.9946 147.963 16.7054 147.987 16.4309 148.07C16.1563 148.154 15.9028 148.295 15.6871 148.484C15.4715 148.673 15.2987 148.907 15.1804 149.168C15.062 149.429 15.0008 149.713 15.0008 150C15.0008 150.287 15.062 150.571 15.1804 150.832C15.2987 151.093 15.4715 151.327 15.6871 151.516C15.9028 151.705 16.1563 151.846 16.4309 151.93C16.7054 152.013 16.9946 152.037 17.2791 152H150.72C151.005 152.037 151.294 152.013 151.568 151.93C151.843 151.846 152.096 151.705 152.312 151.516C152.528 151.327 152.7 151.093 152.819 150.832C152.937 150.571 152.998 150.287 152.998 150C152.998 149.713 152.937 149.429 152.819 149.168C152.7 148.907 152.528 148.673 152.312 148.484C152.096 148.295 151.843 148.154 151.568 148.07C151.294 147.987 151.006 147.963 150.721 148ZM134 40H144V43.403L142.013 46H135.987L134 43.403V40ZM141 50V140H137V50H141ZM120 75.964C120 75.402 120.976 74.337 121.924 73.707C122.31 73.427 122.937 72.952 123.501 72.522C124.076 72.961 124.727 73.453 125.151 73.759C126.024 74.337 127 75.402 127 75.964V82H120V75.964ZM114 86H133V140H114V86ZM58.0001 56C58.021 55.4504 58.2587 54.9314 58.6612 54.5565C59.0638 54.1817 59.5984 53.9816 60.1481 54H107.852C108.402 53.9816 108.936 54.1817 109.339 54.5565C109.742 54.9314 109.979 55.4504 110 56V140H105V88.774C105 80.677 95.0041 74.184 94.6601 73.966C91.8701 71.981 85.2781 66.96 85.2121 66.909C84.8598 66.6531 84.4356 66.5152 84.0001 66.5152C83.5647 66.5152 83.1404 66.6531 82.7881 66.909C82.7221 66.96 76.1311 71.981 73.4221 73.911C72.9961 74.184 63.0001 80.677 63.0001 88.774V140H58.0001V56ZM84.0001 115C81.3489 115.003 78.8072 116.058 76.9325 117.932C75.0579 119.807 74.0033 122.349 74.0001 125V140H67.0001V98H101V140H94.0001V125C93.9969 122.349 92.9423 119.807 91.0677 117.932C89.193 116.058 86.6513 115.003 84.0001 115ZM90.0001 125V140H78.0001V125C78.0001 123.409 78.6323 121.883 79.7575 120.757C80.8827 119.632 82.4088 119 84.0001 119C85.5914 119 87.1175 119.632 88.2427 120.757C89.368 121.883 90.0001 123.409 90.0001 125ZM67.0001 94V88.774C67.0001 83.871 73.1931 78.814 75.6601 77.226C77.7911 75.709 81.9401 72.574 84.0001 71.012C86.0631 72.577 90.2301 75.722 92.4221 77.28C94.8081 78.808 101 83.85 101 88.774V94H67.0001ZM41.0001 75.964C41.0001 75.402 41.9761 74.337 42.9241 73.707C43.3101 73.427 43.9371 72.952 44.5011 72.522C45.0761 72.961 45.7271 73.453 46.1511 73.759C47.0241 74.337 48.0001 75.402 48.0001 75.964V82H41.0001V75.964ZM35.0001 86H54.0001V140H35.0001V86ZM24.0001 40H34.0001V43.403L32.0131 46H25.9871L24.0001 43.403V40ZM31.0001 50V140H27.0001V50H31.0001ZM24.0001 148V144H144V148H24.0001ZM86.0581 30C86.6514 30 87.2315 29.8241 87.7248 29.4944C88.2182 29.1648 88.6027 28.6962 88.8297 28.1481C89.0568 27.5999 89.1162 26.9967 89.0005 26.4147C88.8847 25.8328 88.599 25.2982 88.1794 24.8787C87.7599 24.4591 87.2253 24.1734 86.6434 24.0576C86.0614 23.9419 85.4582 24.0013 84.9101 24.2284C84.3619 24.4554 83.8933 24.8399 83.5637 25.3333C83.2341 25.8266 83.0581 26.4067 83.0581 27C83.0589 27.7954 83.3752 28.558 83.9377 29.1204C84.5001 29.6829 85.2627 29.9992 86.0581 30ZM86.0581 25.5C86.3548 25.5 86.6448 25.588 86.8915 25.7528C87.1381 25.9176 87.3304 26.1519 87.4439 26.426C87.5575 26.7001 87.5872 27.0017 87.5293 27.2926C87.4714 27.5836 87.3285 27.8509 87.1188 28.0607C86.909 28.2704 86.6417 28.4133 86.3507 28.4712C86.0598 28.5291 85.7582 28.4993 85.4841 28.3858C85.21 28.2723 84.9757 28.08 84.8109 27.8334C84.6461 27.5867 84.5581 27.2967 84.5581 27C84.5584 26.6023 84.7165 26.2209 84.9977 25.9396C85.279 25.6584 85.6604 25.5003 86.0581 25.5ZM115.058 5C114.663 5 114.276 5.1173 113.947 5.33706C113.618 5.55682 113.362 5.86918 113.21 6.23463C113.059 6.60009 113.019 7.00222 113.097 7.39018C113.174 7.77814 113.364 8.13451 113.644 8.41421C113.924 8.69392 114.28 8.8844 114.668 8.96157C115.056 9.03874 115.458 8.99913 115.823 8.84776C116.189 8.69638 116.501 8.44004 116.721 8.11114C116.941 7.78224 117.058 7.39556 117.058 7C117.058 6.46973 116.847 5.96133 116.472 5.58637C116.097 5.21141 115.588 5.00053 115.058 5ZM115.058 8C114.86 8 114.667 7.94135 114.503 7.83147C114.338 7.72159 114.21 7.56541 114.134 7.38268C114.059 7.19996 114.039 6.99889 114.077 6.80491C114.116 6.61093 114.211 6.43275 114.351 6.29289C114.491 6.15304 114.669 6.0578 114.863 6.01921C115.057 5.98063 115.258 6.00043 115.441 6.07612C115.624 6.15181 115.78 6.27998 115.89 6.44443C115.999 6.60888 116.058 6.80222 116.058 7C116.058 7.26514 115.952 7.51934 115.765 7.70681C115.577 7.89429 115.323 7.99974 115.058 8ZM61.0581 2C60.6625 2 60.2759 2.1173 59.947 2.33706C59.6181 2.55682 59.3617 2.86918 59.2103 3.23463C59.059 3.60009 59.0194 4.00222 59.0965 4.39018C59.1737 4.77814 59.3642 5.13451 59.6439 5.41421C59.9236 5.69392 60.28 5.8844 60.6679 5.96157C61.0559 6.03874 61.458 5.99913 61.8235 5.84776C62.1889 5.69638 62.5013 5.44004 62.721 5.11114C62.9408 4.78224 63.0581 4.39556 63.0581 4C63.0576 3.46973 62.8467 2.96133 62.4717 2.58637C62.0968 2.21141 61.5884 2.00053 61.0581 2ZM61.0581 5C60.8603 5 60.667 4.94135 60.5025 4.83147C60.3381 4.72159 60.2099 4.56541 60.1342 4.38268C60.0585 4.19996 60.0387 3.99889 60.0773 3.80491C60.1159 3.61093 60.2111 3.43275 60.351 3.29289C60.4909 3.15304 60.669 3.0578 60.863 3.01921C61.057 2.98063 61.2581 3.00043 61.4408 3.07612C61.6235 3.15181 61.7797 3.27998 61.8896 3.44443C61.9995 3.60888 62.0581 3.80222 62.0581 4C62.0578 4.26514 61.9524 4.51934 61.7649 4.70681C61.5774 4.89429 61.3232 4.99974 61.0581 5ZM135.058 23C134.663 23 134.276 23.1173 133.947 23.3371C133.618 23.5568 133.362 23.8692 133.21 24.2346C133.059 24.6001 133.019 25.0022 133.097 25.3902C133.174 25.7781 133.364 26.1345 133.644 26.4142C133.924 26.6939 134.28 26.8844 134.668 26.9616C135.056 27.0387 135.458 26.9991 135.823 26.8478C136.189 26.6964 136.501 26.44 136.721 26.1111C136.941 25.7822 137.058 25.3956 137.058 25C137.058 24.4697 136.847 23.9613 136.472 23.5864C136.097 23.2114 135.588 23.0005 135.058 23ZM135.058 26C134.86 26 134.667 25.9414 134.503 25.8315C134.338 25.7216 134.21 25.5654 134.134 25.3827C134.059 25.2 134.039 24.9989 134.077 24.8049C134.116 24.6109 134.211 24.4327 134.351 24.2929C134.491 24.153 134.669 24.0578 134.863 24.0192C135.057 23.9806 135.258 24.0004 135.441 24.0761C135.624 24.1518 135.78 24.28 135.89 24.4444C135.999 24.6089 136.058 24.8022 136.058 25C136.058 25.2651 135.952 25.5193 135.765 25.7068C135.577 25.8943 135.323 25.9997 135.058 26ZM7.05811 39C7.05811 38.6044 6.94081 38.2178 6.72105 37.8889C6.50128 37.56 6.18893 37.3036 5.82347 37.1522C5.45802 37.0009 5.05589 36.9613 4.66793 37.0384C4.27996 37.1156 3.9236 37.3061 3.64389 37.5858C3.36419 37.8655 3.17371 38.2219 3.09654 38.6098C3.01937 38.9978 3.05897 39.3999 3.21035 39.7654C3.36172 40.1308 3.61807 40.4432 3.94697 40.6629C4.27586 40.8827 4.66254 41 5.05811 41C5.58838 40.9995 6.09678 40.7886 6.47174 40.4136C6.84669 40.0387 7.05758 39.5303 7.05811 39ZM4.05811 39C4.05811 38.8022 4.11676 38.6089 4.22664 38.4444C4.33652 38.28 4.4927 38.1518 4.67542 38.0761C4.85815 38.0004 5.05922 37.9806 5.2532 38.0192C5.44718 38.0578 5.62536 38.153 5.76521 38.2929C5.90507 38.4327 6.00031 38.6109 6.03889 38.8049C6.07748 38.9989 6.05767 39.2 5.98199 39.3827C5.9063 39.5654 5.77813 39.7216 5.61368 39.8315C5.44923 39.9414 5.25589 40 5.05811 40C4.79297 39.9997 4.53877 39.8943 4.35129 39.7068C4.16381 39.5193 4.05837 39.2651 4.05811 39Z" fill="#2D4356"/>
<path d="M45.641 27.011L47.128 25.056L46.189 24.524L45.235 26.714H45.203L44.233 24.539L43.278 25.087L44.749 26.996V27.027L42.448 26.73V27.794L44.764 27.497V27.528L43.278 29.436L44.169 30L45.187 27.794H45.218L46.157 29.984L47.143 29.421L45.641 27.543V27.512L48.003 27.794V26.73L45.641 27.042V27.011ZM8.83398 7.06696L7.97798 8.16596L8.49198 8.48996L9.07798 7.21996H9.09498L9.63598 8.48096L10.204 8.15696L9.33898 7.07496V7.05696L10.699 7.21996V6.60696L9.33898 6.78696V6.76896L10.195 5.64296L9.65498 5.33696L9.10498 6.59796H9.08698L8.52798 5.34496L7.97798 5.66096L8.82598 6.75996V6.77796L7.50098 6.60696V7.21996L8.83398 7.04896V7.06696ZM164.058 47.713V46.67L161.741 46.977V46.946L163.199 45.028L162.278 44.506L161.342 46.654H161.311L160.36 44.521L159.423 45.059L160.866 46.931V46.962L158.609 46.67V47.713L160.881 47.422V47.453L159.423 49.325L160.298 49.878L161.296 47.713H161.326L162.247 49.862L163.214 49.31L161.741 47.468V47.437L164.058 47.713ZM158.501 5.58596L159.759 3.93096L158.965 3.48096L158.157 5.33396H158.13L157.31 3.49396L156.501 3.95796L157.746 5.57296V5.59896L155.8 5.34796V6.24796L157.759 5.99596V6.02296L156.501 7.63796L157.256 8.11496L158.117 6.24796H158.143L158.938 8.10096L159.772 7.62496L158.501 6.03596V6.00896L160.499 6.24796V5.34796L158.501 5.61196V5.58596Z" fill="#923144"/>
</svg>
