<svg width="168" height="168" viewBox="0 0 168 168" fill="none" xmlns="http://www.w3.org/2000/svg">
<path d="M2 148C3.10457 148 4 147.105 4 146C4 144.895 3.10457 144 2 144C0.89543 144 0 144.895 0 146C0 147.105 0.89543 148 2 148Z" fill="#2D4356"/>
<path d="M11 144H8C7.46957 144 6.96086 144.211 6.58579 144.586C6.21071 144.961 6 145.47 6 146C6 146.53 6.21071 147.039 6.58579 147.414C6.96086 147.789 7.46957 148 8 148H11C11.5304 148 12.0391 147.789 12.4142 147.414C12.7893 147.039 13 146.53 13 146C13 145.47 12.7893 144.961 12.4142 144.586C12.0391 144.211 11.5304 144 11 144ZM160 144H157C156.47 144 155.961 144.211 155.586 144.586C155.211 144.961 155 145.47 155 146C155 146.53 155.211 147.039 155.586 147.414C155.961 147.789 156.47 148 157 148H160C160.53 148 161.039 147.789 161.414 147.414C161.789 147.039 162 146.53 162 146C162 145.47 161.789 144.961 161.414 144.586C161.039 144.211 160.53 144 160 144Z" fill="#2D4356"/>
<path d="M166 148C167.105 148 168 147.105 168 146C168 144.895 167.105 144 166 144C164.895 144 164 144.895 164 146C164 147.105 164.895 148 166 148Z" fill="#2D4356"/>
<path d="M118.154 152H109.846C109.342 152.039 108.872 152.267 108.529 152.637C108.186 153.008 107.995 153.495 107.995 154C107.995 154.505 108.186 154.992 108.529 155.363C108.872 155.733 109.342 155.961 109.846 156H118.154C118.658 155.961 119.128 155.733 119.471 155.363C119.814 154.992 120.005 154.505 120.005 154C120.005 153.495 119.814 153.008 119.471 152.637C119.128 152.267 118.658 152.039 118.154 152ZM58.154 152H49.846C49.3423 152.039 48.8719 152.267 48.5287 152.637C48.1856 153.008 47.995 153.495 47.995 154C47.995 154.505 48.1856 154.992 48.5287 155.363C48.8719 155.733 49.3423 155.961 49.846 156H58.154C58.6576 155.961 59.128 155.733 59.4712 155.363C59.8143 154.992 60.0049 154.505 60.0049 154C60.0049 153.495 59.8143 153.008 59.4712 152.637C59.128 152.267 58.6576 152.039 58.154 152ZM104 152H64C63.4695 152 62.9608 152.211 62.5857 152.586C62.2107 152.961 62 153.47 62 154C62 154.53 62.2107 155.039 62.5857 155.414C62.9608 155.789 63.4695 156 64 156H79.94V158H72C71.4695 158 70.9608 158.211 70.5857 158.586C70.2107 158.961 70 159.47 70 160C70 160.53 70.2107 161.039 70.5857 161.414C70.9608 161.789 71.4695 162 72 162H97C97.5304 162 98.0391 161.789 98.4142 161.414C98.7892 161.039 99 160.53 99 160C99 159.47 98.7892 158.961 98.4142 158.586C98.0391 158.211 97.5304 158 97 158H88.06V156H104C104.53 156 105.039 155.789 105.414 155.414C105.789 155.039 106 154.53 106 154C106 153.47 105.789 152.961 105.414 152.586C105.039 152.211 104.53 152 104 152Z" fill="#923144"/>
<path d="M150.721 144H108.901C108.901 143.96 108.912 143.923 108.911 143.884L108.843 141.57L111.919 138.144C112.494 137.48 112.835 136.644 112.887 135.767C112.94 134.89 112.703 134.02 112.212 133.291L110.429 130.644C109.663 129.685 108.783 128.824 107.809 128.078L107.279 127.606C108.573 127.305 109.702 126.517 110.432 125.407C112.089 124.508 113.503 123.219 114.551 121.652C114.976 121.024 115.213 120.287 115.235 119.529C115.784 119.446 116.309 119.249 116.777 118.951C117.245 118.654 117.646 118.262 117.955 117.801L118.971 116.285L120.381 116.843L123.299 119.675C123.762 120.124 124.327 120.455 124.946 120.639C125.565 120.823 126.219 120.854 126.852 120.73L131.15 119.892L134.504 120.296C135.029 120.36 135.561 120.319 136.07 120.175C136.579 120.032 137.055 119.789 137.469 119.46L140.732 116.871L145.694 114.551C146.355 114.242 146.918 113.758 147.324 113.152C147.729 112.546 147.961 111.84 147.995 111.112C148.028 110.383 147.862 109.66 147.514 109.019C147.166 108.378 146.649 107.844 146.02 107.476L142.742 105.556C141.85 105.034 140.791 104.878 139.786 105.12L138.679 102.904C138.388 102.322 137.959 101.819 137.43 101.44C136.901 101.06 136.287 100.816 135.642 100.728C135.463 100.703 135.282 100.691 135.101 100.691C134.541 100.691 133.988 100.808 133.476 101.036C132.964 101.263 132.506 101.595 132.131 102.011L131.369 102.855L130.344 102.381L132.43 99.397C132.822 98.8366 133.064 98.1851 133.132 97.5047C133.201 96.8242 133.093 96.1376 132.821 95.5104C132.548 94.8832 132.12 94.3363 131.575 93.9221C131.031 93.5078 130.39 93.2399 129.713 93.144L126.316 92.664C125.758 92.5872 125.191 92.6279 124.65 92.7836C124.109 92.9393 123.607 93.2065 123.175 93.568L109.924 104.761L108.259 103.505C107.565 102.981 106.719 102.698 105.849 102.698C105.794 102.698 100.646 102.911 100.646 102.911L99.9761 98.111C99.8749 97.3867 99.5772 96.704 99.1152 96.137C98.6533 95.5701 98.0449 95.1405 97.3561 94.895L97.7771 89.499C97.837 88.728 97.6722 87.9561 97.3027 87.2768C96.9332 86.5974 96.3748 86.0397 95.6951 85.671L91.715 83.513C91.6237 83.4631 91.5303 83.4171 91.4351 83.375L89.6211 82.568L87.4161 79.837C86.8257 79.1059 85.9967 78.606 85.0746 78.425C84.1525 78.2439 83.196 78.3933 82.3731 78.847L80.3531 79.961C80.3531 79.961 72.2131 79.431 72.1271 79.431C71.9881 79.431 65.4101 80.106 65.4101 80.106L61.6821 76.729L61.4371 75.232C61.3473 74.6822 61.1438 74.1572 60.8395 73.6905C60.5353 73.2239 60.1369 72.8259 59.6701 72.522L41.4021 60.645C40.8753 60.3027 40.2753 60.0893 39.6508 60.0221C39.0262 59.9549 38.3946 60.0357 37.8071 60.258L22.5851 66.016C21.8253 66.3033 21.171 66.8152 20.7093 67.4835C20.2475 68.1517 20.0001 68.9447 20.0001 69.757V104.9C20.0002 105.931 20.3986 106.923 21.1123 107.667C21.8259 108.412 22.7996 108.852 23.8301 108.896C23.8301 108.896 29.5651 109.141 29.6211 109.141C30.193 109.141 30.7583 109.018 31.2788 108.781C31.7993 108.544 32.2629 108.198 32.6383 107.766C33.0137 107.335 33.2922 106.828 33.455 106.28C33.6178 105.731 33.6611 105.154 33.5821 104.588L33.1921 101.784C34.8289 101.679 36.3907 101.059 37.6546 100.014C38.9185 98.9681 39.8198 97.5501 40.2301 95.962L46.0271 99.472C46.0291 99.4876 46.0308 99.5033 46.0321 99.519C46.2751 104.519 49.8841 108.353 50.2951 108.774C51.0284 109.526 52.0281 109.959 53.0781 109.979L58.4921 110.087L60.6371 110.88L62.6551 114.707L62.7421 117.384C62.7617 117.989 62.9183 118.581 63.2001 119.117C63.4819 119.653 63.8816 120.117 64.3691 120.476L77.6641 130.391C77.791 130.487 77.9236 130.576 78.0611 130.656L91.9151 138.631L91.4901 141.024C91.402 141.54 91.4168 142.069 91.5335 142.58C91.6502 143.09 91.8665 143.573 92.1701 144H17.2791C16.9945 143.963 16.7053 143.987 16.4308 144.07C16.1563 144.154 15.9027 144.295 15.6871 144.484C15.4714 144.673 15.2987 144.907 15.1803 145.168C15.062 145.429 15.0007 145.713 15.0007 146C15.0007 146.287 15.062 146.571 15.1803 146.832C15.2987 147.093 15.4714 147.327 15.6871 147.516C15.9027 147.705 16.1563 147.846 16.4308 147.93C16.7053 148.013 16.9945 148.037 17.2791 148H150.72C151.005 148.037 151.294 148.013 151.568 147.93C151.843 147.846 152.096 147.705 152.312 147.516C152.528 147.327 152.7 147.093 152.819 146.832C152.937 146.571 152.998 146.287 152.998 146C152.998 145.713 152.937 145.429 152.819 145.168C152.7 144.907 152.528 144.673 152.312 144.484C152.096 144.295 151.843 144.154 151.568 144.07C151.294 143.987 151.006 143.963 150.721 144ZM101.049 143.042L98.4731 141.603L95.4291 141.723L96.0161 138.416C96.092 137.847 95.9974 137.268 95.7443 136.752C95.4912 136.236 95.0909 135.807 94.5941 135.519L91.0961 133.687L80.0891 127.209L66.7401 117.254L66.6231 113.656L63.4611 107.659L59.2461 106.101L53.1571 105.981C53.1571 105.981 50.2031 102.954 50.0271 99.325C50.0203 98.7407 49.881 98.1655 49.6198 97.6427C49.3586 97.12 48.9823 96.6633 48.5191 96.307L39.9251 91.108L36.5291 92.908C36.5291 92.908 37.1851 97.842 32.0411 97.842C31.8664 97.842 31.6841 97.836 31.4941 97.824L28.9181 100.102L29.6211 105.141L24.0001 104.9V69.757L39.2231 64L57.4891 75.875L57.9581 78.754L64.0471 84.271L72.1271 83.433L81.2601 84.03L84.3051 82.352L87.1151 85.831L89.8091 87.029L93.7891 89.187L93.0871 98.185L96.0141 98.664L96.909 105.078C96.9919 105.602 97.2568 106.079 97.6572 106.427C98.0577 106.775 98.5679 106.97 99.0981 106.978C99.1271 106.978 105.85 106.698 105.85 106.698L108.469 108.674C108.905 108.989 109.43 109.156 109.968 109.148C110.559 109.156 111.134 108.958 111.594 108.587L125.756 96.624L129.152 97.104L125.475 102.362C125.324 102.559 125.22 102.788 125.171 103.032C125.123 103.276 125.131 103.527 125.196 103.767C125.26 104.007 125.38 104.229 125.544 104.415C125.708 104.602 125.913 104.748 126.143 104.842L130.547 106.884C130.882 107.034 131.246 107.109 131.613 107.105C132.002 107.11 132.388 107.036 132.747 106.887C133.106 106.738 133.431 106.518 133.703 106.24L135.101 104.691L137.677 109.848L140.722 109.008L144 110.928L138.614 113.446L134.984 116.326L131.003 115.845L126.085 116.805L122.595 113.417L118.372 111.747C118.108 111.652 117.82 111.645 117.552 111.729C117.283 111.812 117.05 111.981 116.886 112.209L114.632 115.575L112.512 115.885C112.277 115.894 112.046 115.952 111.834 116.055C111.622 116.158 111.433 116.304 111.28 116.483C111.128 116.662 111.013 116.872 110.945 117.097C110.877 117.323 110.857 117.56 110.885 117.794L111.237 119.412C111.237 119.412 109.769 121.583 108.127 122.023C107.864 122.06 107.619 122.179 107.427 122.363C107.235 122.547 107.105 122.786 107.056 123.047C106.946 124.504 101.784 123.874 101.646 124.271C101.279 125.103 101.02 125.979 100.875 126.877C100.821 127.427 106.803 132.42 107.111 132.877L108.894 135.525L104.796 140.043L104.913 144H104.905L101.049 143.042ZM68.3051 16C68.8984 16 69.4784 15.8241 69.9718 15.4944C70.4651 15.1648 70.8496 14.6962 71.0767 14.1481C71.3038 13.5999 71.3632 12.9967 71.2474 12.4147C71.1317 11.8328 70.8459 11.2982 70.4264 10.8787C70.0068 10.4591 69.4723 10.1734 68.8903 10.0576C68.3084 9.94189 67.7052 10.0013 67.157 10.2284C66.6088 10.4554 66.1403 10.8399 65.8106 11.3333C65.481 11.8266 65.3051 12.4067 65.3051 13C65.3058 13.7954 65.6222 14.558 66.1846 15.1204C66.747 15.6829 67.5096 15.9992 68.3051 16ZM68.3051 11.5C68.6017 11.5 68.8917 11.588 69.1384 11.7528C69.3851 11.9176 69.5773 12.1519 69.6909 12.426C69.8044 12.7001 69.8341 13.0017 69.7762 13.2926C69.7184 13.5836 69.5755 13.8509 69.3657 14.0607C69.1559 14.2704 68.8887 14.4133 68.5977 14.4712C68.3067 14.5291 68.0051 14.4994 67.731 14.3858C67.4569 14.2723 67.2227 14.08 67.0578 13.8334C66.893 13.5867 66.8051 13.2967 66.8051 13C66.8053 12.6023 66.9634 12.2209 67.2447 11.9396C67.5259 11.6584 67.9073 11.5003 68.3051 11.5ZM158.305 77C157.909 77 157.523 77.1173 157.194 77.3371C156.865 77.5568 156.609 77.8692 156.457 78.2346C156.306 78.6001 156.266 79.0022 156.343 79.3902C156.421 79.7781 156.611 80.1345 156.891 80.4142C157.171 80.6939 157.527 80.8844 157.915 80.9616C158.303 81.0387 158.705 80.9991 159.07 80.8478C159.436 80.6964 159.748 80.44 159.968 80.1111C160.188 79.7822 160.305 79.3956 160.305 79C160.305 78.4697 160.094 77.9613 159.719 77.5864C159.344 77.2114 158.835 77.0005 158.305 77ZM158.305 80C158.107 80 157.914 79.9413 157.749 79.8315C157.585 79.7216 157.457 79.5654 157.381 79.3827C157.305 79.2 157.286 78.9989 157.324 78.8049C157.363 78.6109 157.458 78.4327 157.598 78.2929C157.738 78.153 157.916 78.0578 158.11 78.0192C158.304 77.9806 158.505 78.0004 158.688 78.0761C158.87 78.1518 159.027 78.28 159.137 78.4444C159.246 78.6089 159.305 78.8022 159.305 79C159.305 79.2651 159.199 79.5193 159.012 79.7068C158.824 79.8943 158.57 79.9997 158.305 80ZM98.3051 48C97.9095 48 97.5228 48.1173 97.1939 48.3371C96.865 48.5568 96.6087 48.8692 96.4573 49.2346C96.3059 49.6001 96.2663 50.0022 96.3435 50.3902C96.4207 50.7781 96.6111 51.1345 96.8908 51.4142C97.1705 51.6939 97.5269 51.8844 97.9149 51.9616C98.3028 52.0387 98.705 51.9991 99.0704 51.8478C99.4359 51.6964 99.7482 51.44 99.968 51.1111C100.188 50.7822 100.305 50.3956 100.305 50C100.305 49.4697 100.094 48.9613 99.7187 48.5864C99.3437 48.2114 98.8353 48.0005 98.3051 48ZM98.3051 51C98.1073 51 97.9139 50.9414 97.7495 50.8315C97.585 50.7216 97.4569 50.5654 97.3812 50.3827C97.3055 50.2 97.2857 49.9989 97.3243 49.8049C97.3628 49.6109 97.4581 49.4327 97.5979 49.2929C97.7378 49.153 97.916 49.0578 98.11 49.0192C98.3039 48.9806 98.505 49.0004 98.6877 49.0761C98.8705 49.1518 99.0266 49.28 99.1365 49.4444C99.2464 49.6089 99.3051 49.8022 99.3051 50C99.3048 50.2651 99.1994 50.5193 99.0119 50.7068C98.8244 50.8943 98.5702 50.9997 98.3051 51ZM158.305 18C157.909 18 157.523 18.1173 157.194 18.3371C156.865 18.5568 156.609 18.8692 156.457 19.2346C156.306 19.6001 156.266 20.0022 156.343 20.3902C156.421 20.7781 156.611 21.1345 156.891 21.4142C157.171 21.6939 157.527 21.8844 157.915 21.9616C158.303 22.0387 158.705 21.9991 159.07 21.8478C159.436 21.6964 159.748 21.44 159.968 21.1111C160.188 20.7822 160.305 20.3956 160.305 20C160.305 19.4697 160.094 18.9613 159.719 18.5864C159.344 18.2114 158.835 18.0005 158.305 18ZM158.305 21C158.107 21 157.914 20.9414 157.749 20.8315C157.585 20.7216 157.457 20.5654 157.381 20.3827C157.305 20.2 157.286 19.9989 157.324 19.8049C157.363 19.6109 157.458 19.4327 157.598 19.2929C157.738 19.153 157.916 19.0578 158.11 19.0192C158.304 18.9806 158.505 19.0004 158.688 19.0761C158.87 19.1518 159.027 19.28 159.137 19.4444C159.246 19.6089 159.305 19.8022 159.305 20C159.305 20.2651 159.199 20.5193 159.012 20.7068C158.824 20.8943 158.57 20.9997 158.305 21ZM17.3051 36C17.3051 35.6044 17.1878 35.2178 16.968 34.8889C16.7482 34.56 16.4359 34.3036 16.0704 34.1522C15.705 34.0009 15.3028 33.9613 14.9149 34.0384C14.5269 34.1156 14.1705 34.3061 13.8908 34.5858C13.6111 34.8655 13.4207 35.2219 13.3435 35.6098C13.2663 35.9978 13.3059 36.3999 13.4573 36.7654C13.6087 37.1308 13.865 37.4432 14.1939 37.6629C14.5228 37.8827 14.9095 38 15.3051 38C15.8353 37.9995 16.3437 37.7886 16.7187 37.4136C17.0936 37.0387 17.3045 36.5303 17.3051 36ZM14.3051 36C14.3051 35.8022 14.3637 35.6089 14.4736 35.4444C14.5835 35.28 14.7396 35.1518 14.9224 35.0761C15.1051 35.0004 15.3062 34.9806 15.5001 35.0192C15.6941 35.0578 15.8723 35.153 16.0122 35.2929C16.152 35.4327 16.2473 35.6109 16.2858 35.8049C16.3244 35.9989 16.3046 36.2 16.2289 36.3827C16.1532 36.5654 16.0251 36.7216 15.8606 36.8315C15.6962 36.9414 15.5028 37 15.3051 37C15.0399 36.9997 14.7857 36.8943 14.5982 36.7068C14.4108 36.5193 14.3053 36.2651 14.3051 36Z" fill="#2D4356"/>
<path d="M10.8879 77.011L12.3749 75.056L11.4359 74.524L10.4809 76.714H10.4499L9.47995 74.539L8.52495 75.087L9.99595 76.996V77.027L7.69495 76.73V77.794L10.0109 77.497V77.528L8.52495 79.436L9.41595 80L10.4339 77.794H10.4649L11.4039 79.984L12.3899 79.421L10.8879 77.543V77.512L13.2499 77.794V76.73L10.8879 77.042V77.011ZM52.0809 42.067L51.2249 43.166L51.7389 43.49L52.3249 42.22H52.3419L52.8829 43.481L53.4509 43.157L52.5859 42.075V42.057L53.9459 42.22V41.607L52.5859 41.787V41.769L53.4419 40.643L52.9019 40.337L52.3519 41.598H52.3339L51.7749 40.345L51.2249 40.661L52.0719 41.76V41.778L50.7469 41.607V42.22L52.0809 42.049V42.067ZM155.305 55.713V54.67L152.988 54.977V54.946L154.446 53.028L153.525 52.506L152.589 54.654H152.558L151.607 52.521L150.67 53.059L152.113 54.931V54.962L149.856 54.67V55.713L152.128 55.422V55.453L150.67 57.325L151.545 57.878L152.543 55.713H152.573L153.494 57.862L154.461 57.31L152.988 55.468V55.437L155.305 55.713ZM116.748 27.586L118.006 25.931L117.211 25.481L116.404 27.334H116.377L115.557 25.494L114.748 25.958L115.993 27.573V27.599L114.047 27.348V28.248L116.006 27.996V28.023L114.748 29.638L115.503 30.115L116.364 28.248H116.39L117.185 30.101L118.019 29.625L116.748 28.036V28.009L118.746 28.248V27.348L116.748 27.612V27.586Z" fill="#923144"/>
</svg>
