<svg width="326" height="326" viewBox="0 0 326 326" fill="none" xmlns="http://www.w3.org/2000/svg">
<g clip-path="url(#clip0_10_208)">
<path d="M163 258.561C226.525 258.561 278.022 207.064 278.022 143.539C278.022 80.0144 226.525 28.5173 163 28.5173C99.4751 28.5173 47.978 80.0144 47.978 143.539C47.978 207.064 99.4751 258.561 163 258.561Z" fill="#81D9E3"/>
<path d="M20.0807 119.872C21.0239 119.763 21.9724 119.706 22.9218 119.703H30.458C36.3743 88.887 52.8435 61.0955 77.0332 41.1081C101.223 21.1208 131.621 10.1869 163 10.1869C194.379 10.1869 224.777 21.1208 248.967 41.1081C273.156 61.0955 289.626 88.887 295.542 119.703H303.078C304.028 119.706 304.976 119.763 305.919 119.872C299.982 86.2815 282.402 55.8559 256.267 33.9353C230.132 12.0147 197.111 0 163 0C128.889 0 95.8679 12.0147 69.7327 33.9353C43.5975 55.8559 26.0183 86.2815 20.0807 119.872ZM252.141 295.437H198.656V285.887C225.666 278.866 250.108 264.275 269.104 243.831C288.1 223.386 300.859 197.94 305.88 170.488C304.949 170.59 304.014 170.641 303.078 170.641H295.488C290.396 196.403 277.957 220.142 259.672 238.992C241.387 257.842 218.038 270.997 192.442 276.871C191.313 277.131 190.305 277.766 189.584 278.673C188.862 279.579 188.469 280.704 188.469 281.863V285.25H137.531V281.863C137.531 280.704 137.138 279.579 136.416 278.673C135.695 277.766 134.687 277.131 133.558 276.871C107.962 270.997 84.6126 257.842 66.3277 238.992C48.0427 220.142 35.6036 196.403 30.5115 170.641H22.9218C21.9859 170.641 21.0506 170.59 20.1203 170.488C25.1404 197.94 37.8997 223.386 56.8957 243.831C75.8918 264.275 100.334 278.866 127.344 285.887V295.437H73.8593C69.1326 295.443 64.601 297.323 61.2587 300.665C57.9164 304.007 56.0364 308.539 56.0312 313.266V320.906C56.0352 322.256 56.5731 323.549 57.5275 324.504C58.4819 325.458 59.7752 325.996 61.125 326H264.875C266.225 325.996 267.518 325.458 268.472 324.504C269.427 323.549 269.965 322.256 269.969 320.906V313.266C269.964 308.539 268.084 304.007 264.741 300.665C261.399 297.323 256.867 295.443 252.141 295.437ZM259.781 315.812H66.2187V313.266C66.2246 311.241 67.0315 309.301 68.4631 307.869C69.8948 306.438 71.8347 305.631 73.8593 305.625H132.437C133.787 305.621 135.081 305.083 136.035 304.129C136.989 303.174 137.527 301.881 137.531 300.531V295.437H188.469V300.531C188.473 301.881 189.011 303.174 189.965 304.129C190.919 305.083 192.213 305.621 193.562 305.625H252.141C254.165 305.631 256.105 306.438 257.537 307.869C258.968 309.301 259.775 311.241 259.781 313.266V315.812Z" fill="#2D4356"/>
<path d="M259.781 313.266V315.812H66.2188V313.266C66.2247 311.241 67.0316 309.301 68.4632 307.869C69.8948 306.438 71.8348 305.631 73.8594 305.625H132.438C133.787 305.621 135.081 305.083 136.035 304.129C136.989 303.174 137.527 301.881 137.531 300.531V295.438H188.469V300.531C188.473 301.881 189.011 303.174 189.965 304.129C190.919 305.083 192.213 305.621 193.562 305.625H252.141C254.165 305.631 256.105 306.438 257.537 307.869C258.968 309.301 259.775 311.241 259.781 313.266Z" fill="#D68751"/>
<path d="M303.078 129.891H281.684C277.979 101.031 263.886 74.5103 242.041 55.2905C220.196 36.0707 192.096 25.469 163 25.469C133.904 25.469 105.804 36.0707 83.9591 55.2905C62.1141 74.5103 48.0206 101.031 44.3156 129.891H22.9219C18.869 129.891 14.9822 131.501 12.1164 134.366C9.25061 137.232 7.64063 141.119 7.64062 145.172C7.64063 149.225 9.25061 153.112 12.1164 155.977C14.9822 158.843 18.869 160.453 22.9219 160.453H44.3156C48.0206 189.313 62.1141 215.834 83.9591 235.053C105.804 254.273 133.904 264.875 163 264.875C192.096 264.875 220.196 254.273 242.041 235.053C263.886 215.834 277.979 189.313 281.684 160.453H303.078C307.131 160.453 311.018 158.843 313.884 155.977C316.749 153.112 318.359 149.225 318.359 145.172C318.359 141.119 316.749 137.232 313.884 134.366C311.018 131.501 307.131 129.891 303.078 129.891ZM43.4242 150.266H22.9219C21.5709 150.266 20.2753 149.729 19.32 148.774C18.3648 147.818 17.8281 146.523 17.8281 145.172C17.8281 143.821 18.3648 142.525 19.32 141.57C20.2753 140.615 21.5709 140.078 22.9219 140.078H43.4242C43.3478 141.759 43.2969 143.466 43.2969 145.172C43.2969 146.878 43.3478 148.585 43.4242 150.266ZM198.962 70.4976C202.477 66.0915 201.381 59.4186 200.77 55.8276L200.49 54.1721C199.599 49.2566 199.42 46.6333 200.923 45.9457C202.035 45.4377 202.922 44.541 203.419 43.4243C218.558 49.4748 232.163 58.8119 243.254 70.7613C254.344 82.7106 262.643 96.9739 267.549 112.521C265.113 112.864 262.716 113.444 260.392 114.253C257.482 115.504 254.28 115.918 251.147 115.45C249.87 115.012 248.674 114.367 247.607 113.54C245.089 111.595 242.085 110.379 238.922 110.025C237.032 109.913 235.141 110.242 233.399 110.988C231.658 111.733 230.115 112.874 228.891 114.32C227.668 115.766 226.798 117.477 226.351 119.318C225.904 121.159 225.891 123.078 226.315 124.924C226.721 126.426 227.33 127.865 228.124 129.203C228.2 129.356 228.302 129.509 228.378 129.687C228.251 129.687 228.073 129.661 227.92 129.661C227.06 129.5 226.216 129.261 225.398 128.948C222.689 127.746 219.676 127.4 216.764 127.955C215.161 128.322 213.663 129.049 212.383 130.082C211.103 131.114 210.076 132.425 209.378 133.915C208.588 135.789 208.217 137.813 208.291 139.846C208.366 141.879 208.885 143.87 209.812 145.681C210.97 147.962 212.575 149.987 214.531 151.636C216.486 153.285 218.753 154.525 221.196 155.283C222.727 155.841 224.195 156.558 225.577 157.422C224.97 158.346 224.307 159.23 223.59 160.071C222.903 160.912 222.266 161.701 221.756 162.44C220.763 163.866 219.668 165.267 218.496 166.744C215.368 170.297 212.847 174.341 211.034 178.714C209.78 182.561 209.069 186.565 208.92 190.608C208.78 193.144 208.439 195.665 207.901 198.147C207.135 200.354 205.902 202.369 204.285 204.056C201.118 207.642 197.506 210.808 193.537 213.479C191.423 215.007 188.545 216.484 186.941 214.829C184.099 211.586 182.212 207.619 181.49 203.368C181.123 201.214 180.936 199.033 180.93 196.848C180.971 193.258 180.49 189.68 179.504 186.228C179.052 184.946 178.499 183.702 177.848 182.509C177.233 181.603 176.841 180.565 176.702 179.478C177.492 171.379 174.461 166.795 171.787 164.35C165.114 158.263 154.57 159.715 152.252 160.122C148.427 160.022 144.692 158.944 141.403 156.989L140.333 156.506C134.169 153.653 131.903 148.661 132.769 139.773C133.382 135.249 135.309 131.004 138.31 127.563C141.311 124.123 145.255 121.638 149.654 120.416C158.008 118.302 166.285 120.416 176.218 123.422C181.807 124.516 187.486 125.088 193.18 125.128L193.741 125.153C196.033 125.44 198.359 125.262 200.582 124.632C202.804 124.002 204.878 122.932 206.679 121.486C208.713 119.706 209.996 117.222 210.27 114.533C210.604 111.957 210.372 109.339 209.589 106.862C208.806 104.386 207.491 102.11 205.737 100.194C198.758 92.9355 185.795 93.4194 175.378 93.8015C171.942 94.0034 168.497 93.9864 165.063 93.7505C165.19 93.5468 165.318 93.3176 165.47 93.0629C165.973 92.7473 166.491 92.4582 167.024 92.1969C168.692 91.4623 170.205 90.4164 171.481 89.1152C174.123 85.5366 175.559 81.2109 175.582 76.7629V76.7119C175.785 75.1074 183.12 73.5283 190.353 74.0886C190.471 74.1098 190.591 74.1183 190.71 74.1141C191.041 74.1141 191.372 74.1141 191.678 74.0886C193.079 74.0515 194.456 73.7113 195.713 73.0914C196.971 72.4715 198.079 71.5866 198.962 70.4976ZM98.1566 56.9991C98.2247 57.1069 98.3014 57.2091 98.3858 57.3047C100.128 59.9051 101.396 62.7938 102.13 65.8368C102.803 68.5604 102.829 71.404 102.206 74.1396C101.289 76.7629 99.1498 78.6985 94.9984 80.6596C94.2598 80.9907 93.5213 81.3472 92.7827 81.6783C87.0937 83.8245 81.9896 87.2795 77.8834 91.764C75.3111 94.8202 70.6248 98.1566 68.1034 98.1566H68.0016C67.6959 98.1566 67.3648 98.1311 66.83 97.418C66.4018 96.8186 65.8448 96.3225 65.2 95.9663C72.9808 80.5746 84.2698 67.2267 98.1566 56.9991ZM86.823 195.243C85.8742 198.726 85.6317 202.363 86.1098 205.94C86.8479 208.499 86.5743 211.244 85.3458 213.606C84.8475 213.933 84.2874 214.153 83.7003 214.254C83.1132 214.355 82.5116 214.334 81.933 214.192C80.7854 214.052 79.6247 214.313 78.6475 214.931C69.1676 203.523 62.1162 190.299 57.9251 176.071C53.7341 161.843 52.4917 146.908 54.2739 132.183C54.6402 132.281 55.0158 132.341 55.3945 132.361C61.507 132.565 70.5994 134.399 71.0069 138.626C70.5821 143.86 70.6589 149.122 71.2361 154.341C72.1275 162.363 77.7052 167.126 82.6206 171.328C87.2559 175.327 90.1084 178.001 90.3886 181.771C90.3157 184.242 89.753 186.675 88.7331 188.927C87.9819 190.842 87.3691 192.808 86.8994 194.811L86.823 195.243ZM163 254.688C134.644 254.696 107.398 243.671 87.0267 223.947C89.202 223.388 91.1779 222.232 92.7317 220.61C97.3925 215.695 96.8831 208.182 96.1445 204.132C95.9362 201.854 96.1521 199.557 96.7812 197.357L96.8831 196.899C97.2598 195.367 97.7362 193.861 98.3094 192.391C99.8667 188.802 100.631 184.918 100.551 181.006C99.9394 172.755 94.2598 167.89 89.2425 163.611C85.2439 160.173 81.8056 157.219 81.3472 153.169C80.8344 148.491 80.7832 143.773 81.1944 139.085C81.2156 138.899 81.2241 138.712 81.2198 138.525C80.9142 128.846 71.4653 122.759 55.9294 122.174C57.146 116.589 58.7893 111.105 60.8448 105.772C62.765 107.357 65.1563 108.262 67.645 108.344H68.1034C77.1194 108.344 85.3203 98.7424 85.6769 98.3349C88.8446 95.0258 92.7312 92.4899 97.0359 90.9235C97.8 90.5924 98.5895 90.2358 99.3536 89.8538C102.17 88.7542 104.731 87.0883 106.877 84.9593C109.024 82.8302 110.711 80.2832 111.833 77.476C113.081 73.1287 113.195 68.5342 112.164 64.1304C111.17 59.5378 109.284 55.1851 106.612 51.3196C119.051 43.8223 132.862 38.8865 147.235 36.8024C147.411 37.8076 147.88 38.7382 148.585 39.4766C148.697 40.585 148.74 41.6993 148.712 42.813V43.5771C148.737 46.4805 148.661 48.5944 147.617 49.4604C146.324 50.3207 144.919 50.9978 143.44 51.4724C142.447 51.8544 141.453 52.2365 140.511 52.6694C135.746 54.588 131.371 57.3584 127.598 60.8449C123.422 65.0727 123.804 68.7402 124.848 71.0579C125.115 71.6726 125.502 72.2278 125.987 72.6911C126.471 73.1543 127.043 73.5163 127.67 73.7558C128.296 73.9953 128.963 74.1076 129.633 74.086C130.303 74.0645 130.962 73.9095 131.572 73.6302C132.569 73.1811 133.396 72.4245 133.932 71.4713C134.468 70.518 134.685 69.4182 134.551 68.3327C134.645 68.2068 134.747 68.0876 134.857 67.9761C137.79 65.4061 141.141 63.3561 144.764 61.9146C145.503 61.5835 146.293 61.2779 147.057 60.9977C149.59 60.1702 151.967 58.9218 154.086 57.3047C158.95 53.3061 158.925 47.4229 158.9 43.5261V42.9404C159.031 40.5276 158.764 38.1097 158.11 35.7836C159.74 35.7072 161.37 35.6563 163 35.6563C172.987 35.6659 182.927 37.0368 192.544 39.7313C188.392 44.5449 189.691 51.7271 190.455 55.9804L190.735 57.483C191.268 59.5879 191.389 61.7758 191.092 63.9266H190.965C186.457 63.5701 167.075 62.8569 165.496 75.4385C165.457 75.6916 165.431 75.9467 165.42 76.2026C165.509 78.3107 165.006 80.4017 163.968 82.2386C163.46 82.5813 162.923 82.8795 162.363 83.13C160.226 84.0222 158.376 85.4848 157.015 87.3579C155.92 89.0897 152.609 94.3618 155.385 99.1499C158.517 104.6 166.133 104.346 175.76 103.963C183.706 103.683 194.581 103.276 198.427 107.274C199.17 108.129 199.708 109.143 199.999 110.238C200.291 111.333 200.328 112.479 200.108 113.591C199.853 114.253 198.096 115.17 194.276 114.966L193.664 114.941C188.799 114.906 183.944 114.48 179.147 113.667C170.131 110.942 158.9 107.555 147.133 110.534C140.707 112.279 134.946 115.897 130.583 120.927C126.22 125.957 123.452 132.171 122.632 138.779C121.333 151.972 125.867 161.039 136.054 165.751L137.098 166.235C142.034 169.016 147.632 170.407 153.296 170.259C153.5 170.233 153.678 170.208 153.882 170.182C155.461 169.851 162.007 169.214 164.936 171.889C165.445 172.347 167.024 173.773 166.566 178.46C166.388 181.534 167.171 184.587 168.807 187.195C169.197 187.91 169.537 188.65 169.826 189.411C170.48 191.947 170.789 194.56 170.743 197.179C170.76 199.973 171.024 202.76 171.532 205.507C172.63 211.642 175.448 217.339 179.657 221.935C180.796 223.158 182.176 224.131 183.71 224.793C185.245 225.455 186.9 225.791 188.571 225.781C192.542 225.606 196.361 224.2 199.497 221.756C204.205 218.573 208.47 214.779 212.18 210.474C214.765 207.665 216.673 204.302 217.758 200.643C218.467 197.623 218.901 194.546 219.057 191.449C219.165 188.312 219.687 185.203 220.61 182.203C222.089 178.871 224.073 175.787 226.494 173.06C227.716 171.532 228.964 169.928 230.136 168.221C230.492 167.686 230.976 167.126 231.46 166.54C233.599 163.917 236.528 160.351 235.942 155.894C235.744 154.558 235.264 153.28 234.535 152.143C233.807 151.006 232.845 150.036 231.715 149.298C229.641 147.873 227.4 146.71 225.042 145.834C222.011 144.586 220.33 143.898 218.929 141.122C218.447 140.233 218.337 139.189 218.624 138.219C218.7 138.066 218.751 137.939 219.184 137.837C220.177 137.927 221.149 138.176 222.062 138.576C223.638 139.174 225.28 139.584 226.952 139.798C228.767 140.148 230.639 140.058 232.412 139.535C234.184 139.012 235.806 138.072 237.14 136.793C241.266 132.055 238.438 126.86 237.089 124.364C236.765 123.808 236.484 123.23 236.248 122.632C236.176 122.336 236.176 122.026 236.247 121.73C236.317 121.433 236.458 121.158 236.656 120.926C236.859 120.674 237.121 120.475 237.418 120.346C237.715 120.217 238.039 120.163 238.362 120.187C239.692 120.56 240.931 121.202 242.004 122.072C244.109 123.613 246.485 124.745 249.008 125.408C253.871 126.288 258.883 125.785 263.474 123.956C265.506 123.194 267.63 122.706 269.79 122.505C269.903 122.502 270.014 122.485 270.122 122.454C273.514 138.409 273.299 154.921 269.49 170.782C265.681 186.643 258.376 201.452 248.108 214.127C237.84 226.802 224.87 237.022 210.144 244.039C195.419 251.057 179.312 254.695 163 254.688ZM303.078 150.266H282.576C282.652 148.585 282.703 146.878 282.703 145.172C282.703 143.466 282.652 141.759 282.576 140.078H303.078C304.429 140.078 305.725 140.615 306.68 141.57C307.635 142.525 308.172 143.821 308.172 145.172C308.172 146.523 307.635 147.818 306.68 148.774C305.725 149.729 304.429 150.266 303.078 150.266Z" fill="#2D4356"/>
<path d="M308.172 145.172C308.168 146.522 307.63 147.815 306.676 148.769C305.721 149.724 304.428 150.262 303.078 150.266H282.576C282.652 148.585 282.703 146.878 282.703 145.172C282.703 143.465 282.652 141.759 282.576 140.078H303.078C304.428 140.082 305.721 140.62 306.676 141.574C307.63 142.529 308.168 143.822 308.172 145.172Z" fill="#D68751"/>
<path d="M267.549 112.521C265.113 112.864 262.716 113.444 260.393 114.253C257.482 115.504 254.28 115.918 251.147 115.45C249.87 115.012 248.674 114.367 247.607 113.54C245.089 111.595 242.085 110.379 238.922 110.025C237.032 109.913 235.141 110.242 233.399 110.988C231.658 111.733 230.115 112.874 228.891 114.32C227.668 115.766 226.798 117.477 226.351 119.318C225.904 121.159 225.892 123.078 226.315 124.924C226.722 126.426 227.33 127.865 228.124 129.203C228.2 129.356 228.302 129.509 228.378 129.687C228.251 129.687 228.073 129.661 227.92 129.661C227.06 129.5 226.216 129.261 225.398 128.948C222.689 127.746 219.676 127.4 216.764 127.955C215.161 128.321 213.663 129.049 212.383 130.081C211.103 131.114 210.076 132.425 209.379 133.915C208.588 135.789 208.217 137.813 208.291 139.846C208.366 141.879 208.885 143.87 209.812 145.681C210.971 147.962 212.575 149.987 214.531 151.636C216.486 153.285 218.753 154.525 221.196 155.283C222.727 155.841 224.195 156.558 225.577 157.422C224.97 158.346 224.307 159.23 223.59 160.071C222.903 160.912 222.266 161.701 221.756 162.44C220.763 163.866 219.668 165.267 218.496 166.744C215.368 170.297 212.847 174.341 211.034 178.714C209.78 182.561 209.069 186.564 208.92 190.608C208.78 193.144 208.439 195.665 207.901 198.147C207.135 200.354 205.902 202.369 204.285 204.056C201.118 207.641 197.506 210.808 193.537 213.479C191.423 215.007 188.545 216.484 186.941 214.829C184.099 211.586 182.212 207.619 181.49 203.368C181.123 201.214 180.936 199.033 180.93 196.848C180.971 193.257 180.49 189.68 179.504 186.227C179.052 184.946 178.499 183.702 177.848 182.509C177.233 181.603 176.841 180.565 176.702 179.478C177.492 171.379 174.461 166.795 171.787 164.35C165.114 158.263 154.57 159.715 152.252 160.122C148.427 160.022 144.692 158.944 141.403 156.989L140.333 156.505C134.169 153.653 131.903 148.661 132.769 139.772C133.382 135.248 135.309 131.004 138.31 127.563C141.311 124.123 145.256 121.638 149.654 120.416C158.008 118.302 166.286 120.416 176.218 123.422C181.807 124.516 187.486 125.088 193.181 125.128L193.741 125.153C196.033 125.439 198.359 125.262 200.582 124.632C202.804 124.002 204.878 122.932 206.679 121.486C208.713 119.706 209.996 117.222 210.27 114.533C210.604 111.957 210.372 109.339 209.589 106.862C208.806 104.385 207.491 102.11 205.737 100.194C198.758 92.9354 185.795 93.4194 175.378 93.8014C171.942 94.0033 168.497 93.9863 165.063 93.7504C165.19 93.5467 165.318 93.3175 165.471 93.0628C165.973 92.7472 166.491 92.4581 167.024 92.1969C168.692 91.4622 170.205 90.4163 171.481 89.1151C174.123 85.5365 175.559 81.2108 175.582 76.7628V76.7119C175.785 75.1073 183.12 73.5283 190.353 74.0886C190.471 74.1097 190.591 74.1182 190.71 74.114C191.041 74.114 191.372 74.114 191.678 74.0886C193.079 74.0514 194.456 73.7112 195.713 73.0913C196.971 72.4714 198.079 71.5865 198.962 70.4975C202.477 66.0914 201.381 59.4186 200.77 55.8275L200.49 54.172C199.599 49.2565 199.42 46.6333 200.923 45.9456C202.035 45.4377 202.922 44.5409 203.419 43.4242C218.558 49.4747 232.163 58.8118 243.254 70.7612C254.344 82.7106 262.643 96.9739 267.549 112.521ZM102.206 74.1395C101.289 76.7628 99.1499 78.6984 94.9985 80.6595C94.2599 80.9906 93.5213 81.3472 92.7827 81.6783C87.0937 83.8244 81.9897 87.2795 77.8835 91.7639C75.3111 94.8201 70.6249 98.1565 68.1035 98.1565H68.0016C67.696 98.1565 67.3649 98.1311 66.83 97.4179C66.4018 96.8185 65.8449 96.3225 65.2 95.9662C72.9809 80.5745 84.2698 67.2266 98.1566 56.999C98.2248 57.1068 98.3014 57.2091 98.3858 57.3047C100.128 59.905 101.396 62.7938 102.13 65.8367C102.803 68.5603 102.83 71.4039 102.206 74.1395ZM90.3886 181.77C90.3157 184.242 89.753 186.675 88.7332 188.927C87.982 190.842 87.3691 192.808 86.8994 194.81L86.823 195.243C85.8743 198.726 85.6318 202.363 86.1099 205.94C86.8479 208.499 86.5744 211.244 85.3458 213.606C84.8475 213.933 84.2874 214.153 83.7003 214.254C83.1132 214.355 82.5116 214.334 81.933 214.192C80.7854 214.052 79.6247 214.313 78.6475 214.931C69.1676 203.523 62.1162 190.299 57.9252 176.071C53.7341 161.842 52.4917 146.908 54.2739 132.183C54.6402 132.281 55.0158 132.341 55.3946 132.361C61.5071 132.565 70.5994 134.399 71.0069 138.626C70.5822 143.86 70.6589 149.122 71.2361 154.341C72.1275 162.363 77.7052 167.126 82.6207 171.328C87.256 175.327 90.1085 178.001 90.3886 181.77Z" fill="#98E07E"/>
<path d="M43.2969 145.172C43.2969 146.878 43.3478 148.585 43.4242 150.266H22.9219C21.5709 150.266 20.2753 149.729 19.32 148.774C18.3648 147.818 17.8281 146.523 17.8281 145.172C17.8281 143.821 18.3648 142.525 19.32 141.57C20.2753 140.615 21.5709 140.078 22.9219 140.078H43.4242C43.3478 141.759 43.2969 143.465 43.2969 145.172Z" fill="#D68751"/>
<path d="M233.948 202.096H234.091C239.517 202.096 244.571 196.617 247.51 191.448C250.741 185.758 252.764 178.134 248.746 173.807C247.873 172.867 246.678 172.292 245.399 172.195C244.121 172.097 242.852 172.486 241.848 173.283C240.843 174.08 240.176 175.227 239.979 176.494C239.783 177.761 240.072 179.056 240.788 180.119C240.463 182.451 239.677 184.696 238.475 186.721C237.274 188.746 235.681 190.511 233.789 191.913C232.47 191.979 231.227 192.555 230.324 193.519C229.421 194.483 228.928 195.761 228.948 197.082C228.969 198.403 229.502 199.664 230.435 200.599C231.368 201.535 232.627 202.072 233.948 202.096Z" fill="#2D4356"/>
<path opacity="0.4" d="M259.781 313.266V315.812H66.2188V313.266C66.2133 312.396 66.3688 311.532 66.6772 310.719H259.323C259.631 311.532 259.787 312.396 259.781 313.266Z" fill="#72492D"/>
<path opacity="0.6" d="M71.0069 138.626C70.905 140.053 70.8286 141.479 70.8031 142.88C69.3514 139.238 61.0741 137.633 55.3945 137.455C55.0158 137.435 54.6402 137.375 54.2739 137.277C53.8393 140.827 53.5843 144.397 53.5098 147.973C53.4844 147.057 53.4844 146.114 53.4844 145.172C53.4897 140.83 53.7533 136.493 54.2739 132.183C54.6402 132.281 55.0158 132.341 55.3945 132.361C61.507 132.565 70.5994 134.399 71.0069 138.626Z" fill="#CBE0C3"/>
<path opacity="0.3" d="M176.702 174.384V174.512C176.386 170.631 174.633 167.007 171.787 164.35C165.114 158.263 154.57 159.714 152.252 160.122C148.427 160.022 144.692 158.944 141.402 156.989L140.333 156.505C134.373 153.755 132.055 148.992 132.718 140.613C132.824 142.952 133.597 145.212 134.947 147.125C136.296 149.039 138.165 150.526 140.333 151.412L141.402 151.896C144.692 153.85 148.427 154.929 152.252 155.028C154.57 154.621 165.114 153.169 171.787 159.256C174.461 161.701 177.492 166.285 176.702 174.384ZM225.577 157.422C224.97 158.346 224.307 159.23 223.59 160.071C222.902 160.912 222.266 161.701 221.756 162.44C220.763 163.866 219.668 165.267 218.496 166.744C215.368 170.297 212.847 174.341 211.034 178.714C209.78 182.561 209.069 186.564 208.92 190.608C208.78 193.144 208.439 195.665 207.901 198.147C207.135 200.354 205.901 202.369 204.285 204.056C201.118 207.641 197.506 210.808 193.537 213.479C191.423 215.007 188.545 216.484 186.941 214.829C184.099 211.586 182.212 207.619 181.49 203.368C181.123 201.214 180.935 199.033 180.93 196.848C180.971 193.257 180.49 189.68 179.504 186.227C179.052 184.946 178.499 183.702 177.848 182.509C177.233 181.603 176.841 180.565 176.702 179.478C176.868 177.852 176.868 176.214 176.702 174.588C176.912 175.592 177.3 176.549 177.848 177.415C178.499 178.609 179.052 179.852 179.504 181.134C180.49 184.586 180.971 188.164 180.93 191.754C180.935 193.939 181.123 196.12 181.49 198.274C182.212 202.525 184.099 206.492 186.941 209.735C188.545 211.391 191.423 209.913 193.537 208.385C197.506 205.714 201.118 202.548 204.285 198.962C205.901 197.275 207.135 195.26 207.901 193.053C208.439 190.571 208.78 188.05 208.92 185.514C209.069 181.471 209.78 177.468 211.034 173.62C212.847 169.247 215.368 165.203 218.496 161.65C219.668 160.173 220.763 158.772 221.756 157.346C222.062 156.913 222.419 156.454 222.801 155.971C223.771 156.362 224.701 156.849 225.577 157.422Z" fill="#0F423C"/>
<path opacity="0.4" d="M272.516 145.172C272.516 146.191 272.49 147.209 272.49 148.228C272.365 141.275 271.572 134.349 270.122 127.547C270.071 127.547 269.663 124.95 269.281 122.555C269.449 122.526 269.62 122.509 269.79 122.505C269.903 122.502 270.014 122.485 270.122 122.454C271.71 129.922 272.512 137.536 272.516 145.172Z" fill="#E8FBFC"/>
<path opacity="0.3" d="M272.49 143.134C272.516 143.796 272.516 144.484 272.516 145.172C272.531 166.664 266.217 187.685 254.363 205.612C242.508 223.539 225.638 237.579 205.856 245.98C186.074 254.381 164.256 256.772 143.124 252.854C121.992 248.935 102.482 238.882 87.0267 223.947C88.3382 223.596 89.585 223.037 90.7197 222.291C106.335 236.037 125.543 245.049 146.095 248.272C166.647 251.495 187.692 248.795 206.765 240.49C225.839 232.184 242.15 218.615 253.79 201.373C265.431 184.131 271.917 163.93 272.49 143.134Z" fill="#0F423C"/>
<path opacity="0.6" d="M267.549 112.521C266.989 112.597 266.429 112.674 265.894 112.776C260.571 98.2815 252.257 85.0697 241.494 73.999C230.73 62.9284 217.758 54.2466 203.419 48.5179C202.922 49.6347 202.035 50.5314 200.923 51.0394C200.552 51.2023 200.259 51.504 200.108 51.8798C199.599 48.4161 199.675 46.5059 200.923 45.9456C202.035 45.4377 202.922 44.5409 203.419 43.4242C218.557 49.4747 232.163 58.8118 243.254 70.7612C254.344 82.7106 262.643 96.9739 267.549 112.521Z" fill="#CBE0C3"/>
<path opacity="0.4" d="M192.544 39.7313C191.449 41.0395 190.65 42.5685 190.201 44.2138C181.316 41.9178 172.177 40.754 163 40.75C161.625 40.75 160.249 40.7755 158.874 40.8519C158.879 39.1334 158.621 37.4243 158.11 35.7836C159.74 35.7072 161.37 35.6562 163 35.6562C172.987 35.6658 182.927 37.0368 192.544 39.7313ZM148.712 42.813V43.577C148.712 44.3411 148.712 45.0542 148.661 45.7164C148.664 45.333 148.639 44.9499 148.585 44.5703C147.88 43.8319 147.411 42.9013 147.235 41.8961C133.744 43.8532 120.742 48.3285 108.904 55.0889C108.253 53.7675 107.486 52.5061 106.612 51.3195C119.051 43.8222 132.862 38.8865 147.235 36.8023C147.411 37.8076 147.88 38.7382 148.585 39.4766C148.697 40.5849 148.74 41.6993 148.712 42.813Z" fill="#E8FBFC"/>
<path opacity="0.6" d="M102.461 73.1207C102.359 72.3821 102.257 71.6692 102.13 70.9304C101.396 67.8875 100.128 64.9988 98.3857 62.3984C98.3013 62.3028 98.2247 62.2006 98.1565 62.0928C85.326 71.5432 74.6987 83.665 67.0082 97.6217C66.9426 97.5594 66.883 97.4912 66.8299 97.4179C66.4017 96.8185 65.8448 96.3224 65.2 95.9662C72.9808 80.5745 84.2697 67.2266 98.1565 56.999C98.2247 57.1068 98.3013 57.209 98.3857 57.3047C100.128 59.905 101.396 62.7937 102.13 65.8367C102.652 68.2284 102.764 70.6915 102.461 73.1207Z" fill="#CBE0C3"/>
<path opacity="0.4" d="M60.8448 105.772C61.3297 106.174 61.8496 106.532 62.3984 106.841C61.7395 108.124 61.2187 109.473 60.8448 110.865C59.408 114.59 58.1752 118.391 57.1518 122.25C56.7698 122.199 56.3368 122.199 55.9293 122.174C57.146 116.589 58.7893 111.105 60.8448 105.772Z" fill="#E8FBFC"/>
<path opacity="0.4" d="M43.4243 150.266H22.9219C22.0274 150.267 21.1483 150.032 20.3734 149.585C19.5985 149.138 18.9552 148.495 18.5083 147.72C18.0614 146.945 17.8268 146.066 17.8281 145.172C17.8295 144.277 18.0667 143.399 18.5158 142.625C18.9617 143.399 19.6037 144.042 20.3773 144.489C21.1508 144.937 22.0285 145.172 22.9219 145.172H43.2969C43.2969 146.878 43.3479 148.585 43.4243 150.266Z" fill="#72492D"/>
<path opacity="0.3" d="M85.3458 213.606C84.8475 213.933 84.2874 214.153 83.7003 214.254C83.1132 214.355 82.5116 214.334 81.933 214.192C80.7854 214.052 79.6247 214.313 78.6475 214.931C62.3638 195.334 53.4604 170.651 53.4844 145.172C53.4844 144.408 53.4844 143.644 53.5099 142.88C54.1339 167.388 62.9885 190.973 78.6475 209.837C79.6247 209.219 80.7854 208.958 81.933 209.098C82.5116 209.24 83.1132 209.261 83.7003 209.16C84.2874 209.06 84.8475 208.839 85.3458 208.513C85.8129 207.956 86.1053 207.274 86.1863 206.552C86.804 208.925 86.5038 211.444 85.3458 213.606Z" fill="#0F423C"/>
<path opacity="0.4" d="M308.172 145.172C308.168 146.522 307.63 147.815 306.676 148.769C305.721 149.724 304.428 150.262 303.078 150.266H282.576C282.652 148.585 282.703 146.878 282.703 145.172H303.078C303.972 145.172 304.849 144.937 305.623 144.489C306.396 144.042 307.038 143.399 307.484 142.625C307.934 143.399 308.171 144.277 308.172 145.172Z" fill="#72492D"/>
</g>
<defs>
<clipPath id="clip0_10_208">
<rect width="326" height="326" fill="white"/>
</clipPath>
</defs>
</svg>
